/* XPM */
static char *c7df5a73cb474d69ebd3502f641418dfAj79DtTAMrNCqgUT_1[] = {
/* columns rows colors chars-per-pixel */
"12 14 128 2 ",
"   c None",
".  c #153B3E",
"X  c #253A35",
"o  c #1E4039",
"O  c #1B4A3C",
"+  c #444036",
"@  c #0D3F45",
"#  c #353C49",
"$  c #553F5B",
"%  c #0E4548",
"&  c #0E4649",
"*  c #0F484B",
"=  c #0F4A4C",
"-  c #0F4C4E",
";  c #154748",
":  c #16474D",
">  c #104A4C",
",  c #104C4F",
"<  c #1A5246",
"1  c #15574F",
"2  c #1F534E",
"3  c #0E4B51",
"4  c #115354",
"5  c #135657",
"6  c #155953",
"7  c #115558",
"8  c #125658",
"9  c #1E5D58",
"0  c #22594F",
"q  c #35594D",
"w  c #17635F",
"e  c #16655F",
"r  c #1C675A",
"t  c #18655F",
"y  c #1D6C5C",
"u  c #1E705C",
"i  c #206753",
"p  c #226D57",
"a  c #296E54",
"s  c #27625C",
"d  c #2B6D5D",
"f  c #247254",
"g  c #27775A",
"h  c #26775E",
"j  c #145F61",
"k  c #156360",
"l  c #176163",
"z  c #166766",
"x  c #176962",
"c  c #176963",
"v  c #186A62",
"b  c #186E66",
"n  c #156468",
"m  c #15666B",
"M  c #186E69",
"N  c #187066",
"B  c #177071",
"V  c #197670",
"C  c #197773",
"Z  c #326B64",
"A  c #247B62",
"S  c #2C726A",
"D  c #4B534B",
"F  c #427864",
"G  c #726F61",
"H  c #1E8374",
"J  c #1F8275",
"K  c #1D8378",
"L  c #1E897A",
"P  c #2B8160",
"I  c #25856F",
"U  c #2A8668",
"Y  c #29866B",
"T  c #2A8B6C",
"R  c #2B8B6D",
"E  c #228272",
"W  c #208671",
"Q  c #248771",
"!  c #228477",
"~  c #208872",
"^  c #228C76",
"/  c #288F75",
"(  c #228F7B",
")  c #258F7B",
"_  c #2B9171",
"`  c #2B9273",
"'  c #2B9277",
"]  c #2E9575",
"[  c #22907B",
"{  c #28967B",
"}  c #28957C",
"|  c #28977C",
" . c #33A17C",
".. c #3CAC7D",
"X. c #3DAF7F",
"o. c #269980",
"O. c #269A80",
"+. c #279B80",
"@. c #279C80",
"#. c #2CA585",
"$. c #35A983",
"%. c #31A986",
"&. c #38B58A",
"*. c #3ABA8E",
"=. c black",
"-. c black",
";. c black",
":. c black",
">. c black",
",. c black",
"<. c black",
"1. c black",
"2. c black",
"3. c black",
"4. c black",
"5. c black",
"6. c black",
"7. c black",
"8. c black",
"9. c black",
"0. c black",
"q. c black",
"w. c black",
"e. c black",
"r. c black",
"t. c black",
"y. c black",
"u. c black",
/* pixels */
"              p         ",
"          X.$.I Y f     ",
"        X.*.O.[ 9 # O   ",
"        | ^ W #.S $ a g ",
"      = C M H +.`  .] i ",
"      > n 6 z b W r 0 o ",
"      h t Y ! l e v 1   ",
"      T v %.` ) E 4     ",
"    P I l | y } &.A     ",
"    _ ( 5 s F d O./     ",
"y T @.L j D G Z L x <   ",
"w J J B m : . 4 C N q + ",
"  & , & % 3 8 2 ;       ",
"          = 3 X         "
};
