/* XPM */
static char *c7df5a73cb474d69ebd3502f641418dfAj79DtTAMrNCqgUT_5[] = {
/* columns rows colors chars-per-pixel */
"12 14 128 2 ",
"   c None",
".  c #173B3D",
"X  c #2C302B",
"o  c #1B433E",
"O  c #0B3B40",
"+  c #0C3D43",
"@  c #463B53",
"#  c #0D4042",
"$  c #0D4347",
"%  c #0F494B",
"&  c #0F494C",
"*  c #0E484D",
"=  c #114A4D",
"-  c #114E4D",
";  c #1B5D47",
":  c #14534E",
">  c #175849",
",  c #155A51",
"<  c #115459",
"1  c #155D5A",
"2  c #145C5B",
"3  c #135C5D",
"4  c #155F5D",
"5  c #145F5E",
"6  c #284E42",
"7  c #394941",
"8  c #265141",
"9  c #255047",
"0  c #3A4D55",
"q  c #225C52",
"w  c #235B56",
"e  c #1E6351",
"r  c #1F6956",
"t  c #16605B",
"y  c #15605F",
"u  c #16655E",
"i  c #196258",
"p  c #1F6659",
"a  c #1B695A",
"s  c #18685F",
"d  c #1C695D",
"f  c #226C4E",
"g  c #226A55",
"h  c #29685F",
"j  c #23765F",
"k  c #257859",
"l  c #277B5E",
"z  c #2A7E5F",
"x  c #176763",
"c  c #146365",
"v  c #156767",
"b  c #166767",
"n  c #176863",
"m  c #176963",
"M  c #15676B",
"N  c #166A6A",
"B  c #15696D",
"V  c #176D6D",
"C  c #186E6B",
"Z  c #1D7363",
"A  c #1A7167",
"S  c #1D7567",
"D  c #19726A",
"F  c #1A736C",
"G  c #1D766D",
"H  c #1B786D",
"J  c #1F7D6D",
"K  c #177070",
"L  c #197471",
"P  c #1A7773",
"I  c #1C7E75",
"U  c #277F60",
"Y  c #217967",
"T  c #227B66",
"R  c #41564E",
"E  c #555448",
"W  c #58485C",
"Q  c #506257",
"!  c #746D5B",
"~  c #734772",
"^  c #1D806F",
"/  c #1E806E",
"(  c #1E8170",
")  c #23816C",
"_  c #2C8C6E",
"`  c #37856B",
"'  c #208671",
"]  c #268672",
"[  c #298C70",
"{  c #218E7B",
"}  c #228F7A",
"|  c #24937B",
" . c #27937A",
".. c #23937D",
"X. c #23947E",
"o. c #2A9679",
"O. c #2B977C",
"+. c #2A9C7E",
"@. c #2E9C7E",
"#. c #319676",
"$. c #3BAB7D",
"%. c #3CAC7E",
"&. c #31A682",
"*. c #36A781",
"=. c #37B68C",
"-. c black",
";. c black",
":. c black",
">. c black",
",. c black",
"<. c black",
"1. c black",
"2. c black",
"3. c black",
"4. c black",
"5. c black",
"6. c black",
"7. c black",
"8. c black",
"9. c black",
"0. c black",
"q. c black",
"w. c black",
"e. c black",
"r. c black",
"t. c black",
"y. c black",
"u. c black",
/* pixels */
"              r         ",
"          $.@.) U k     ",
"        %.=...S @ 0 ;   ",
"         . ./ ] ~ W f z ",
"      & K C A +.#.*._ g ",
"      % B 1 Y s ' p q o ",
"      j b t [ e Z u ,   ",
"      o.N 4 O.&.` R     ",
"    l J V 5 y b Q !     ",
"    Y 5 I | D n h 8     ",
"s a D < L X.} / / >     ",
"1 M B * c L m i - : 6   ",
"  $ + # H G w . O = 7   ",
"          9 E X         "
};
