/* XPM */
static char *c7df5a73cb474d69ebd3502f641418dfAj79DtTAMrNCqgUT_2[] = {
/* columns rows colors chars-per-pixel */
"12 14 128 2 ",
"   c None",
".  c #273D39",
"X  c #1B453F",
"o  c #19513F",
"O  c #1B503F",
"+  c #424339",
"@  c #0C3D43",
"#  c #0D3F43",
"$  c #0F4749",
"%  c #0F494C",
"&  c #0F4A4E",
"*  c #134345",
"=  c #134347",
"-  c #104A4C",
";  c #114F4F",
":  c #194D4F",
">  c #0F4D53",
",  c #155A50",
"<  c #155E55",
"1  c #1B5952",
"2  c #145B5B",
"3  c #11595E",
"4  c #17595C",
"5  c #324640",
"6  c #374553",
"7  c #225C52",
"8  c #1D6555",
"9  c #15625A",
"0  c #15625E",
"q  c #17645C",
"w  c #16655F",
"e  c #1A6659",
"r  c #1F6659",
"t  c #19695E",
"y  c #1E6F5D",
"u  c #1D6E5E",
"i  c #216652",
"p  c #236E56",
"a  c #216D58",
"s  c #227152",
"d  c #2A7357",
"f  c #24745F",
"g  c #287A5C",
"h  c #156363",
"j  c #176561",
"k  c #176661",
"l  c #186963",
"z  c #196C62",
"x  c #1A6F64",
"c  c #156569",
"v  c #176D69",
"b  c #176E6C",
"n  c #166F6E",
"m  c #197066",
"M  c #19736D",
"N  c #1B7B6F",
"B  c #197370",
"V  c #1D7F70",
"C  c #1F7E70",
"Z  c #1A7A75",
"A  c #1C7F75",
"S  c #3E6961",
"D  c #2C7665",
"F  c #237860",
"G  c #247863",
"H  c #207A6A",
"J  c #484154",
"K  c #405F59",
"L  c #515F54",
"P  c #564C68",
"I  c #764B6E",
"U  c #677261",
"Y  c #1F826F",
"T  c #1E8271",
"R  c #1D8076",
"E  c #2B8261",
"W  c #288363",
"Q  c #26876F",
"!  c #2B8B6C",
"~  c #208772",
"^  c #238675",
"/  c #208877",
"(  c #2A8E74",
")  c #238B78",
"_  c #22887A",
"`  c #218E79",
"'  c #2B9272",
"]  c #2C9071",
"[  c #2E9373",
"{  c #299276",
"}  c #259178",
"|  c #25957C",
" . c #28957B",
".. c #27997F",
"X. c #2A9D7F",
"o. c #309D7B",
"O. c #34A17E",
"+. c #3CAD7E",
"@. c #3DAE7E",
"#. c #259880",
"$. c #2A9C81",
"%. c #35A983",
"&. c #33AA84",
"*. c #33AC86",
"=. c #3DB98A",
"-. c #3CBD8F",
";. c black",
":. c black",
">. c black",
",. c black",
"<. c black",
"1. c black",
"2. c black",
"3. c black",
"4. c black",
"5. c black",
"6. c black",
"7. c black",
"8. c black",
"9. c black",
"0. c black",
"q. c black",
"w. c black",
"e. c black",
"r. c black",
"t. c black",
"y. c black",
"u. c black",
/* pixels */
"              a         ",
"          @.%.Q W s     ",
"        @.-.#.T 6 J O   ",
"         .| Q } P I d g ",
"      % b q V X.] %.] i ",
"      - 2 e B m T r 7 X ",
"      8 x &./ h q k ,   ",
"      G C { k $.) w     ",
"    W H l ( f X.=.f     ",
"*   ] R : L U D *.p     ",
"y ! $.v 4 K S ) ` y     ",
"m ) Z c > 3 b A M ;     ",
"  $ - # # = * 0 N 1 +   ",
"          5 . 9 <       "
};
