/* XPM */
static char *c7df5a73cb474d69ebd3502f641418dfAj79DtTAMrNCqgUT_4[] = {
/* columns rows colors chars-per-pixel */
"13 13 128 2 ",
"   c None",
".  c #08292F",
"X  c #123538",
"o  c #272E2B",
"O  c #12423F",
"+  c #16453E",
"@  c #4A4339",
"#  c #0C3D44",
"$  c #3A3241",
"%  c #0F484B",
"&  c #0F4A4A",
"*  c #0F494D",
"=  c #164D41",
"-  c #114E4B",
";  c #1D5944",
":  c #14534F",
">  c #0F4C51",
",  c #155853",
"<  c #175C53",
"1  c #135856",
"2  c #125A59",
"3  c #155C58",
"4  c #155E59",
"5  c #145D5B",
"6  c #155F5A",
"7  c #155F5B",
"8  c #125A5F",
"9  c #185C59",
"0  c #204C42",
"q  c #314C48",
"w  c #2F524C",
"e  c #22584E",
"r  c #374C52",
"t  c #3A5D58",
"y  c #1A675B",
"u  c #1D6859",
"i  c #27614E",
"p  c #286751",
"a  c #2D675F",
"s  c #206B59",
"d  c #246B5A",
"f  c #216E5C",
"g  c #2F745F",
"h  c #267B5B",
"j  c #2A7C5A",
"k  c #156160",
"l  c #146163",
"z  c #156363",
"x  c #176661",
"c  c #166767",
"v  c #196B61",
"b  c #196A62",
"n  c #1B6A62",
"m  c #1A6A64",
"M  c #186D67",
"N  c #196F67",
"B  c #156769",
"V  c #16696B",
"C  c #176C6B",
"Z  c #18706A",
"A  c #19726B",
"S  c #1B796D",
"D  c #1D7C6F",
"F  c #176F71",
"G  c #1A7A73",
"H  c #1A7974",
"J  c #2A6461",
"K  c #227464",
"L  c #217862",
"P  c #277E62",
"I  c #227967",
"U  c #207A67",
"Y  c #3B7C67",
"T  c #4D4B40",
"R  c #515448",
"E  c #4D6257",
"W  c #5F715E",
"Q  c #903173",
"!  c #1D8376",
"~  c #1E877A",
"^  c #2B8165",
"/  c #26846C",
"(  c #2A8C6F",
")  c #318D67",
"_  c #2E916F",
"`  c #208672",
"'  c #208877",
"]  c #228C75",
"[  c #248F78",
"{  c #249176",
"}  c #2E9777",
"|  c #23937E",
" . c #27977C",
".. c #24967F",
"X. c #2A9479",
"o. c #2A967B",
"O. c #2E9B78",
"+. c #379C71",
"@. c #399F7B",
"#. c #2FA07E",
"$. c #32A17D",
"%. c #3BA779",
"&. c #428B75",
"*. c #269780",
"=. c #2DA283",
"-. c #3DBE8F",
";. c black",
":. c black",
">. c black",
",. c black",
"<. c black",
"1. c black",
"2. c black",
"3. c black",
"4. c black",
"5. c black",
"6. c black",
"7. c black",
"8. c black",
"9. c black",
"0. c black",
"q. c black",
"w. c black",
"e. c black",
"r. c black",
"t. c black",
"y. c black",
"u. c black",
/* pixels */
"            +.} I h j     ",
"          %.-.*.K r g 0   ",
"          #. .] J Q $ w   ",
"        & G N [ X.&.@._ P ",
"        * l < Z ` { d e + ",
"        s 1 / m 6 S n y   ",
"        $.7 X.( f 9 6     ",
"      ) =.z x ' Y W p     ",
"=     O.*.H N 2 t E ^ ;   ",
": u S | A c ~ ! n , L i T ",
"  l V F 8 > B V n - 6 = o ",
"    - * # . 6 D a q X     ",
"                R @       "
};
