/* XPM */
static char *c7df5a73cb474d69ebd3502f641418dfAj79DtTAMrNCqgUT_3[] = {
/* columns rows colors chars-per-pixel */
"13 13 128 2 ",
"   c None",
".  c #0C3B39",
"X  c #0B383E",
"o  c #0C3B3D",
"O  c #253330",
"+  c #363932",
"@  c #164E3A",
"#  c #553353",
"$  c #753068",
"%  c #0E4548",
"&  c #0F4A4E",
"*  c #174E45",
"=  c #1A4840",
"-  c #114B49",
";  c #104B4B",
":  c #13524B",
">  c #14564D",
",  c #105055",
"<  c #115357",
"1  c #125756",
"2  c #165D57",
"3  c #195A51",
"4  c #195854",
"5  c #115458",
"6  c #115559",
"7  c #12595B",
"8  c #135B5C",
"9  c #145E5D",
"0  c #145F5D",
"q  c #145C5E",
"w  c #2E4A42",
"e  c #314E48",
"r  c #265653",
"t  c #1A6153",
"y  c #196654",
"u  c #16625D",
"i  c #1A6159",
"p  c #1E675B",
"a  c #1E6C5A",
"s  c #1C685E",
"d  c #1F6F5D",
"f  c #1C6F5F",
"g  c #246556",
"h  c #276557",
"j  c #246E54",
"k  c #286C58",
"l  c #306956",
"z  c #24795F",
"x  c #156461",
"c  c #166560",
"v  c #146367",
"b  c #1C6D63",
"n  c #166868",
"m  c #15686C",
"M  c #176E6D",
"N  c #1C7165",
"B  c #1D7067",
"V  c #19716B",
"C  c #1B7769",
"Z  c #18706D",
"A  c #19746C",
"S  c #1D746D",
"D  c #1C776F",
"F  c #1B786D",
"G  c #1C7A6D",
"H  c #1F7A6C",
"J  c #197673",
"K  c #1A7975",
"L  c #206B62",
"P  c #267A60",
"I  c #247964",
"U  c #367D67",
"Y  c #5A5447",
"T  c #436B5B",
"R  c #5D6053",
"E  c #4A7271",
"W  c #2E825E",
"Q  c #1E8378",
"!  c #1E8578",
"~  c #28866D",
"^  c #308862",
"/  c #2F946F",
"(  c #208573",
")  c #248773",
"_  c #218873",
"`  c #248871",
"'  c #208B77",
"]  c #208778",
"[  c #228E7C",
"{  c #2B9575",
"}  c #2D9777",
"|  c #2E9976",
" . c #279778",
".. c #25987F",
"X. c #309571",
"o. c #389E72",
"O. c #349F79",
"+. c #478874",
"@. c #2A9E82",
"#. c #2EA080",
"$. c #30A282",
"%. c #30A884",
"&. c #3BB184",
"*. c #40BE8D",
"=. c black",
"-. c black",
";. c black",
":. c black",
">. c black",
",. c black",
"<. c black",
"1. c black",
"2. c black",
"3. c black",
"4. c black",
"5. c black",
"6. c black",
"7. c black",
"8. c black",
"9. c black",
"0. c black",
"q. c black",
"w. c black",
"e. c black",
"r. c black",
"t. c black",
"y. c black",
"u. c black",
/* pixels */
"            ^ X.I j       ",
"          o.*.@.` h k     ",
"          &.%.! b $ # @   ",
"        - ] G _ #.E +./ P ",
"        & m 2 G !  .~ h = ",
"        3 q d C 0 C s p * ",
"        O.u _ a N c 7 .   ",
"      ^ #.q I } l U b     ",
"      } [ Z q 3 R T y     ",
"t z { ..V M ! b r i :     ",
"- J Q K v 6 n J c > o     ",
"  % 1 6 , X 1 A L e O +   ",
"                w Y       "
};
