/* XPM */
static char *_ad43f4cda0c4c2eee0c2900b4b021efbDKqHfTt12W2fj2W[] = {
/* columns rows colors chars-per-pixel */
"16 16 250 2 ",
"   c #3F2D05",
".  c #422C00",
"X  c #493C1C",
"o  c #443F2B",
"O  c #4A442A",
"+  c #514421",
"@  c #51472E",
"#  c #5E4E2C",
"$  c #534635",
"%  c #564A34",
"&  c #574B3B",
"*  c #544D3B",
"=  c #5F5532",
"-  c #5F5339",
";  c #5A5538",
":  c #60502F",
">  c #614C37",
",  c #615336",
"<  c #625038",
"1  c #675C3E",
"2  c #685B3B",
"3  c #594841",
"4  c #5B5640",
"5  c #5C5744",
"6  c #645E46",
"7  c #61534A",
"8  c #6F6446",
"9  c #68614E",
"0  c #746A4F",
"q  c #676153",
"w  c #6E6757",
"e  c #6F6959",
"r  c #796F56",
"t  c #756C5B",
"y  c #967D3B",
"u  c #877640",
"i  c #8F7842",
"p  c #8A7D49",
"a  c #88794E",
"s  c #8F7F4C",
"d  c #9C7D47",
"f  c #94774B",
"g  c #8B7E52",
"h  c #887E5A",
"j  c #8D7F5C",
"k  c #917E53",
"l  c #927E59",
"z  c #9C803F",
"x  c #968044",
"c  c #9F8441",
"v  c #9D8547",
"b  c #97844A",
"n  c #9C8249",
"m  c #9D814F",
"M  c #8C835C",
"N  c #978557",
"B  c #9B8452",
"V  c #988354",
"C  c #9E8952",
"Z  c #9D8E57",
"A  c #938159",
"S  c #9C8758",
"D  c #9F8759",
"F  c #99815D",
"G  c #96895D",
"H  c #99885A",
"J  c #9E8A58",
"K  c #9D8C5E",
"L  c #A2854B",
"P  c #A0854E",
"I  c #A4874F",
"U  c #A18B4F",
"Y  c #A88B49",
"T  c #A28355",
"R  c #A08359",
"E  c #A98E59",
"W  c #A8935C",
"Q  c #898061",
"!  c #8C8569",
"~  c #8D8669",
"^  c #8F886C",
"/  c #928461",
"(  c #9F8564",
")  c #948860",
"_  c #9A8E66",
"`  c #918B6B",
"'  c #978D72",
"]  c #9A8977",
"[  c #9A8B76",
"{  c #98857F",
"}  c #979076",
"|  c #9D9473",
" . c #989375",
".. c #9E9874",
"X. c #99937B",
"o. c #9D9179",
"O. c #98947B",
"+. c #9C9578",
"@. c #99917E",
"#. c #99947E",
"$. c #A28C67",
"%. c #A68768",
"&. c #A38A6B",
"*. c #A38E79",
"=. c #A59C75",
"-. c #A19B79",
";. c #A39781",
":. c #A49786",
">. c #A09881",
",. c #A29E83",
"<. c #A19088",
"1. c #A79F88",
"2. c #AAA28B",
"3. c #E8D7BD",
"4. c #E6DAC2",
"5. c #E7DCC6",
"6. c #ECDEC3",
"7. c #E9DFC4",
"8. c #E7DBCD",
"9. c #F4D8C3",
"0. c #EAE3C6",
"q. c #EEE7CB",
"w. c #F0EBC3",
"e. c #FFE9C7",
"r. c #F1E6CA",
"t. c #F0E7CA",
"y. c #F4EECC",
"u. c #FEEECA",
"i. c #F6F0CC",
"p. c #F7F2CC",
"a. c #EBE3D0",
"s. c #EAE2D7",
"d. c #EDE8D2",
"f. c #EDEBD2",
"g. c #EAE9D5",
"h. c #EBE5D9",
"j. c #EAE6DB",
"k. c #EBE0DE",
"l. c #EAE6DD",
"z. c #EDECDA",
"x. c #ECEADE",
"c. c #F3ECD2",
"v. c #F2EAD5",
"b. c #F5EED4",
"n. c #F6EFD5",
"m. c #F6EED7",
"M. c #F1E4DB",
"N. c #F3E5DC",
"B. c #FFE7DD",
"V. c #F7EBDB",
"C. c #F0EFDA",
"Z. c #F5EFD9",
"A. c #F3ECDC",
"S. c #F0EDDE",
"D. c #F6EDDC",
"F. c #F7EEDF",
"G. c #FCE9DB",
"H. c #FFEFD9",
"J. c #F9EEDC",
"K. c #F9F2D6",
"L. c #FCF6D6",
"P. c #F2F0DB",
"I. c #F4F1DE",
"U. c #FFF6D8",
"Y. c #FCF6DC",
"T. c #FFF4DF",
"R. c #FFF8DE",
"E. c #EEEAE1",
"W. c #ECE9E4",
"Q. c #F1E3E3",
"!. c #F0E7E2",
"~. c #F0EEE1",
"^. c #F3ECE2",
"/. c #F5EDE0",
"(. c #FBEFE1",
"). c #F5EDEA",
"_. c #EEF0EF",
"`. c #F6F0E0",
"'. c #F8F1E1",
"]. c #FAF1E2",
"[. c #FCF3E2",
"{. c #FBFBE3",
"}. c #F8F9E7",
"|. c #FCFAE5",
" X c #FFFDE6",
".X c #F7F4EB",
"XX c #F2F3ED",
"oX c #F5F0EC",
"OX c #F5F1EE",
"+X c #F4F5ED",
"@X c #F7F7EF",
"#X c #FAF3ED",
"$X c #FFF9EA",
"%X c #F1EFF4",
"&X c #F8EFF0",
"*X c #FAEEFA",
"=X c #F1F3F0",
"-X c #F7F1F1",
";X c #F1F0F5",
":X c #F2F0F5",
">X c gray96",
",X c #F7F7F5",
"<X c #F4F5F7",
"1X c #F7F5F6",
"2X c #F6F6F6",
"3X c #FFF5F1",
"4X c #FCF1F5",
"5X c #FBF7F4",
"6X c #FAF6F5",
"7X c #F8F6F7",
"8X c #F7F8F0",
"9X c #FFFCF1",
"0X c #FAF9F4",
"qX c #F9FAF5",
"wX c #FAFBF5",
"eX c #FFFAF6",
"rX c #FFFDF6",
"tX c #F6F1F8",
"yX c #F7F7F9",
"uX c #F8F1F9",
"iX c #FDF2F8",
"pX c #F8F6F9",
"aX c #F8F6FB",
"sX c #FBF1FC",
"dX c #FDF1FD",
"fX c #FBF6FD",
"gX c #FAF7FE",
"hX c #FCF5FC",
"jX c #FCF7FE",
"kX c #FFF6FF",
"lX c #FEF7FF",
"zX c #FFF7FF",
"xX c #F7F9F8",
"cX c #F7F8FA",
"vX c #FFF8F9",
"bX c #FFF9F9",
"nX c #FEF8FA",
"mX c #FAFCF9",
"MX c #FCFDF8",
"NX c #FFFCF9",
"BX c #FFFFF8",
"VX c #FFFEFA",
"CX c #FFFFFA",
"ZX c #F9FAFC",
"AX c #FBFAFF",
"SX c #FFF8FF",
"DX c #FFFCFD",
"FX c #FCFCFE",
"GX c #FFFCFF",
"HX c #FEFEFE",
/* pixels */
"dX4X$Xc.m.L.w.p.q.K.p.y.D.3XkX*X",
"sXDX'.1.' +.....2.>.-.` t !.iXkX",
"uX-X`.X.v. Xt.' 8.D.0.! w #XnXkX",
"pX5XI.#.a.J.4.;.N.9X7.! w l.5X>X",
">XBXg.O.@.:.[ [ { <.X.^ 5 .XmX5X",
"=X8XC.,.5.T.3.*.B.G.6.Q o x.XXmX",
"xXXX{. .t.U.e.&.9.H.u.h 6 `.qXmX",
"DX8Xf.| / l D R %.( N G 0 E.BX_.",
"%XrXY.M . . v L T f C p 6 A.BXyX",
"GXXXR._ A i z Y d E C y X D.nX%X",
"kX).m.G H W y z I m x Z 2 '.).kX",
"GXeXm.=.a J C v m B b p 8 /.vXgX",
"tX).D.| j l D V F $.K g r /.vXgX",
"gXBX|.; , , # : > , + , 9 E.>XAX",
";XqXz.4 * & % $ 3 7 @ O q W.DXyX",
"ZXqX}.P.j.s.(.M.Q.k.'.d.j.qXyXxX"
};
