/* XPM */
static char *d0dacf3fd61249c7e9ac8883838a2fa6QvhQxmfbNxcNerWG[] = {
/* columns rows colors chars-per-pixel */
"64 64 199 2 ",
"   c #020200",
".  c #090300",
"X  c #000A00",
"o  c #0B0901",
"O  c #0C0C0A",
"+  c #110400",
"@  c #120D01",
"#  c #190B00",
"$  c #120F0A",
"%  c #161300",
"&  c #1A1201",
"*  c #14110A",
"=  c #171716",
"-  c #1B1A16",
";  c #1B1B1A",
":  c #171816",
">  c #231B0D",
",  c #122B0F",
"<  c #12380F",
"1  c #132D10",
"2  c #123811",
"3  c #252F0A",
"4  c #292104",
"5  c #3E2B0B",
"6  c #3C2807",
"7  c #39350E",
"8  c #282218",
"9  c #3C2C11",
"0  c #362917",
"q  c #383610",
"w  c #272723",
"e  c #402C0B",
"r  c #443A04",
"t  c #473707",
"y  c #513300",
"u  c #48381A",
"i  c #3D6F3B",
"p  c #3F723A",
"a  c #4F4812",
"s  c #524B16",
"d  c #554E1A",
"f  c #5E541E",
"g  c #7B4E08",
"h  c #7C500C",
"j  c #76511A",
"k  c #795113",
"l  c #734E17",
"z  c #594525",
"x  c #6C4C23",
"c  c #7A5725",
"v  c #685132",
"b  c #7A5D37",
"n  c #40713A",
"m  c #496737",
"M  c #504F4C",
"N  c #53514B",
"B  c #545351",
"V  c #5E5C55",
"C  c #865304",
"Z  c #8D5A03",
"A  c #85550A",
"S  c #895709",
"D  c #885A14",
"F  c #8F6000",
"G  c #9C6B1E",
"H  c #A26E1C",
"J  c #A4711C",
"K  c #A27214",
"L  c #A8790F",
"P  c #805D25",
"I  c #8A652E",
"U  c #876128",
"Y  c #9D6D20",
"T  c #9E6F29",
"R  c #876637",
"E  c #9C7534",
"W  c #9F7E37",
"Q  c #99722F",
"!  c #A07E37",
"~  c #A17F38",
"^  c #A16D21",
"/  c #8F7C42",
"(  c #907B44",
")  c #9E7E55",
"_  c #4C8D4A",
"`  c #4A9647",
"'  c #499847",
"]  c #4B9548",
"[  c #4A9849",
"{  c #479645",
"}  c #568D50",
"|  c #5C8752",
" . c #539B51",
".. c #5A9658",
"X. c #5C985A",
"o. c #589657",
"O. c #A3803A",
"+. c #A88338",
"@. c #B6A62E",
"#. c #B4A630",
"$. c #B9A630",
"%. c #BAAB34",
"&. c #B6AA30",
"*. c #CB9729",
"=. c #C28F36",
"-. c #C69234",
";. c #C99333",
":. c #C4933B",
">. c #D7A624",
",. c #D9A72B",
"<. c #D9A82A",
"1. c #D7A82B",
"2. c #DBA534",
"3. c #DCAB32",
"4. c #DCA53B",
"5. c #DDA93A",
"6. c #D6A13C",
"7. c #DFB233",
"8. c #E1AE35",
"9. c #E1B334",
"0. c #E2B53A",
"q. c #F2CD2D",
"w. c #EDCB3A",
"e. c #F5CC36",
"r. c #F1C83C",
"t. c #FCD436",
"y. c #FDD43E",
"u. c #FFD93B",
"i. c #F4D034",
"p. c #9E8157",
"a. c #A18256",
"s. c #AE944A",
"d. c #9E8767",
"f. c #C59D4D",
"g. c #C59B45",
"h. c #D4A143",
"j. c #DAA444",
"k. c #DEA944",
"l. c #D8A948",
"z. c #DAB74A",
"x. c #CBA55A",
"c. c #D2AC5C",
"v. c #D6AD57",
"b. c #D1AA50",
"n. c #E1AA42",
"m. c #E0AB4A",
"M. c #E3B255",
"N. c #E1B15B",
"B. c #E1AF58",
"V. c #C5A664",
"C. c #D2AC62",
"Z. c #D8AF60",
"A. c #DCB363",
"S. c #DDB66D",
"D. c #D7B56D",
"F. c #DCB972",
"G. c #DDB770",
"H. c #E1B260",
"J. c #FDD441",
"K. c #FFE24D",
"L. c #FFE24D",
"P. c #FEE354",
"I. c #F5E05E",
"U. c #FBE45A",
"Y. c #FBE35B",
"T. c #EEDA69",
"R. c #E9D773",
"E. c #EFE063",
"W. c #F3E063",
"Q. c #F8EA6E",
"!. c #FAE866",
"~. c #F9EB70",
"^. c #BBBAB8",
"/. c #C5BDB2",
"(. c #C5C4BF",
"). c #D8CBB4",
"_. c #D6C6AD",
"`. c #F3DCAE",
"'. c #E3D2BA",
"]. c #E8DAB7",
"[. c #EAD2A6",
"{. c #FFF0A6",
"}. c #F2E7B6",
"|. c #FFFFBF",
" X c #C5C5C2",
".X c #C9C8C3",
"XX c #F4E4C2",
"oX c #FCF5CA",
"OX c #FFFFC0",
"+X c #FFFED6",
"@X c #FFF6DD",
"#X c #FFFDDB",
"$X c #FFF6E3",
"%X c #FFFEE5",
"&X c #F3F2ED",
"*X c #FFFEED",
"=X c #F7F5E6",
"-X c #FFFFF4",
";X c #FFFEF9",
/* pixels */
"' ' ' ' ' ' ' ' ' ' ' ' ' ' ' ' ' ' ' ` ] X.,                                     X n X.[ ' ' ' ' ' ' ' ' ' ' ' ' ' ' ' ' ' ' ' ",
"' ' ' ' ' ' ' ' ' ' ' ' ' ' ' ' ' ' ` ] _ | 3 @ # # % #   . . + + . . . @ # # # # o m } ] ] ] [ ' ' ' ' ' ' ' ' ' ' ' ' ' ' ' ' ",
"' ' ' ' ' ' ' ' ' ' ' ' ' ' ' ' ' [ [ X.2   / x.f.g.z.R.e . x b c b - . s.T.f.f.f.V.9 X n  .] ] [ [ ' ' ' ' ' ' ' ' ' ' ' ' ' ' ",
"' ' ' ' ' ' ' ' ' ' ' ' ' ' ' ' [ ] _ | 3 + +.M.k.3.i.!.t . z b c b > . &.P.0.5.j.v.y . m } ] ] [ ' ' ' ' ' ' ' ' ' ' ' ' ' ' ' ",
"' ' ' ' ' ' ' ' ' ' ' ' ' ' ' ' ` o.2   / x.h.4.4.1.q.I.r . o + + . . . &.L.7.2.8.j.g.V.q X n  .] ` ' ' ' ' ' ' ' ' ' ' ' ' ' ' ",
"' ' ' ' ' ' ' ' ' ' ' ' ' ' ' ' { ..1 . +.M.h.6.4.1.q.U.r .           . @.L.7.2.6.6.8.A.e X n  .] ' ' ' ' ' ' ' ' ' ' ' ' ' ' ' ",
"' ' ' ' ' ' ' ' ' ' ' ' ' ' ' ' ] X.1 . ~ B.H Z ;.<.q.U.r .           . &.K.7.5.K Z ;.A.5 X n  .` ' ' ' ` ` ' ' ' ' ' ' ' ' ' ' ",
"' ' ' ' ' ' ' ' ' ' ' ' ' [ [ ] _ | 3 + ~ M.H C ;.7.q.U.r .           . $.K.7.4.G C ;.N.y . m } ] ] ' ` ` ' ' ' ' ' ' ' ' ' ' ' ",
"' ' ' ' ' ' ' ' ' ' ' ' ' ' ` o.<   / x.h.l.H C ;.3.q.U.r . .           &.K.7.5.H C -.m.g.V.q X p  .] [ ' ` ' ' ' ' ' ' ' ' ' ' ",
"' ' ' ' ' ' ' ' ' ' ' ' ' ' ` o., . O.N.h.l.J Z ;.,.q.U.r               @.K.9.4.K Z -.k.4.A.5   p  .] ` ' ' ' ' ' ' ' ' ' ' ' ' ",
"' ' ' ' ' ' ' ' ' ' ' ' ' ' ` o.1 . ~ B.H Z -.j.4.<.q.U.r .           . @.L.7.2.6.j.J Z ;.Z.5 X p  .` ` ' ' ' ' ' ' ' ' ' ' ' ' ",
"' ' ' ' ' ' ' ' ' ' ' ' ' ' ` o.1 . ~ N.G C -.n.8.<.q.U.r             . @.K.7.2.8.m.H C -.A.5   p  .] ` ' ' ' ' ' ' ' ' ' ' ' ' ",
"' ' ' ' ' ' ' ' ' ' ' ' ' ' ` ..1 . W B.^ C -.8.4.,.q.U.r   .         O #.K.7.2.4.n.H C -.A.5 X p  .] ] ' ' ' ' ' ' ' ' ' ' ' ' ",
"' ' ' ' ' ' ' ' ' ' ' ' ' ' ] ..1 . W B.Y A -.n.4.,.q.Y.r             . %.J.9.2.6.n.^ C ;.A.5   i  .] [ ' ' ' ' ' ' ' ' ' ' ' ' ",
"' ' ' ' ' ' ' ' ' ' ' ' ` ` ` ..1 . ~ B.G C -.k.6.1.q.Y.r .           . %.K.7.6.6.m.H C ;.A.e   n  .] ` ' ' ' ` [ [ ' ' ' ' ' ' ",
"' ' ' ' ' ' ' ' ' ' ' ' ' ] ` ..1 . ~ B.Y A f.c.v.l.w.Y.r .             #.Y.z.b.v.Z.T C -.A.6   n  .] ` ' ' ' [ [ [ ' ' ' ' ' ' ",
"' ' ' ' ' ' ' ' ' ' ' ' ' ' ` o., . W N.G k [.#X#X|.Y.I.r             . &.I.{.+X#X+Xa.g -.A.e X n  .] ] ' ' ' ' ' ' ' ' ' ' ' ' ",
"' ' ' ' ' ' ' ' ' ' ' ' ' ' ` ..1 . W N.Y j ).-X&XoXT.I.r             . @.E.}.@X&X$Xa.h :.A.5   n  .] ' ' ' ' ' ' ' ' ' ' ' ' ' ",
"' ' ' ' ' ' ' ' ' ' ' ' ' ' ` .., . ~ N.G c u 8 w 4 %.Q.r .           . @.Q.f 8 8 8 x D =.A.e X n  .] ` ' ' ' ' ' ' ' ' ' ' ' ' ",
"' ' ' ' ' ' ' ' ' ' ' ' ' ' ` o.1 . ~ N.Q R 0 $ : # &.~.7 .           . @.Q.a o : & v I :.A.5 X p  .] ' ' ' ' ' ' ' ' ' ' ' ' ' ",
"' ' ' ' ' ' ' ' ' ' ' ' ' ` ` ..1 . ~ c.`.%XN O 1 & %.Q.r               #.Q.a * 8 * /.#XS.C.5   p  .] ` ' ' ' ' ' ' ' ' ' ' ' ' ",
"' ' ' ' ' ' ' ' ' ' ' ' ' ` ` ..1 . ~ C.].-XM O ; % %.Q.7               #.Q.a o - O ^.%XD.C.9 X p  .] ] ' ' ' ' ' ' ' ' ' ' ' ' ",
"' ' ' ' ' ' ' ' ' ' ' ' ' ' ` o.1 . W D.z 8 ; : ; % %.Q.r .           . #.Q.s @ - = w 4 +.D.9   p  .` ` ' ' ' ' ' ' ' ' ' ' ' ' ",
"' ' ' ' ' ' ' ' ' ' ' ' ' ' ` .., . W F.u @ : - ; % %.!.7   .         . #.~.s @ - = = @ O.G.5 X n  .` ` ' ' ' ' ' ' ' ' ' ' ' ' ",
"' ' ' ' ' ' ' ' ' ' ' ' ' ' ` ..1   ~ G.u * - - ; % %.Q.r             . #.~.s o - - ; > ~ H.5   n  .] ` ' ' ' ' ' ' ' ' ' ' ' ' ",
"' ' ' ' ' ' ' ' ' ' ' ' ' ' ` o.1 . ! G.u * ; : ; % %.Q.7             . #.~.d o - - - # ~ G.5   n  .] ' ' ' ' ' ' ' ' ' ' ' ' ' ",
"' ' ' ' ' ' ' ' ' ' ' ' ' ' ` ..1 . ! G.u O - - ; % %.Q.r             . @.Q.s o - = - # ~ S.e   n  .] ] ' ' ' ' ' ' ' ' ' ' ' ' ",
"' ' ' ' ' ' ' ' ' ' ' ' ` ` ` ..1 . W S.z 8 ; = ; % &.Q.r               #.Q.s * - = w > s.S.6   p  .] ` ' ' ' ' ' ' ' ' ' ' ' ' ",
"' ' ' ' ' ' ' ' ' ' ' ' ' ' ` o.1 . ~ C.].-XM O ; % %.Q.t               #.~.a @ - $ ^.*XD.C.5   p  .` ' ' ' ' ' ' ' ' ' ' ' ' ' ",
"' ' ' ' ' ' ' ' ' ' ' ' ' ' ` ..1 . ~ C.`.*XN O 1 % %.~.7           X o #.Q.s @ - $ /.@XS.C.9 X p  .] ` ' ' ' ' ' ' ' ' ' ' ' ' ",
"' ' ' ' ' ' ' ' ' ' ' ' ' ' ` ..1 . W H.E R 0 $ ; & %.~.r               #.~.a @ = # v I :.A.5   n  .] ' ' ' ' ' ' ' ' ' ' ' ' ' ",
"' ' ' ' ' ' ' ' ' ' ' ' ' ' ` o.1 . W v.G j u w ; # %.~.r             X #.~.s @ w 8 x D $.A.e X n  .] ] ' ' ' ' ' ' ' ' ' ' ' ' ",
"' ' ' ' ' ' ' ' ' ' ' ' ' ' ` ..1 . O.N.Y j _.;XN o %.Q.r             . #.~.s   ^.*X) h -.A.5 X n  .` ` ' ' ' ' ' ' ' ' ' ' ' ' ",
"' ' ' ' ' ' ' ' ' ' ' ' ' ` ` ..1 . W N.Y j '.-XB o %.Q.r               #.~.d   .X*Xa.h :.A.e   n  .] ] ' ' ' ' ' ' ' ' ' ' ' ' ",
"' ' ' ' ' ' ' ' ' ' ' ' ' ' ` o.1 . W N.T j ).;XB o %.~.7 .           . #.~.d . (.*Xa.h -.A.e X p  .] ' ' ' ' ' ' ' ' ' ' ' ' ' ",
"' ' ' ' ' ' ' ' ' ' ' ' ' ' ` .., . W N.Y j '.;XB o %.Q.r             . #.~.d   (.*Xa.h :.H.5 X p o.] ' ' ' ' ' ' ' ' ' ' ' ' ' ",
"' ' ' ' ' ' ' ' ' ' ' ' ' ' ` o.1 . W N.Y l '.-XB o %.~.r .             #.~.d   (.*Xa.h -.A.5 X n  .] ` ' ' ' ' ' ' ' ' ' ' ' ' ",
"' ' ' ' ' ' ' ' ' ' ' ' ' ' ` o.1   ~ v.Y j '.;XB . %.~.7           . o #.~.d   (.*Xa.h :.A.5   p  .] ] ' ' ' ' ' ' ' ' ' ' ' ' ",
"' ' ' ' ' ' ' ' ' ' ' ' ' ' ` ..1 . ~ N.Y l '.;XB o %.Q.r               #.Q.d . .X*Xp.g -.A.5 X n  .` ` ' ' ' ' ' ' ' ' ' ' ' ' ",
"' ' ' ' ' ' ' ' ' ' ' ' ' ] ` ..1 . ~ H.W b ).;XN o %.Q.r               #.~.s o ^.-Xd.c g.A.5 X p  .` ` ' ' ' ' ' ' ' ' ' ' ' ' ",
"' ' ' ' ' ' ' ' ' ' ' ' ' ' ` o.1 . ~ C.`.%XV ; w % %.Q.7 .             #.Q.a @ w - (.+XD.c.5   n  .] ` ' ' ' ' ' ' ' ' ' ' ' ' ",
"' ' ' ' ' ' ' ' ' ' ' ' ' ' ` o.1 . ~ C.XX-XB . ; & %.Q.7               @.Q.d @ ; O (.%XF.C.9 X n  .] ` ' ' ' ' ' ' ' ' ' ' ' ' ",
"' ' ' ' ' ' ' ' ' ' ' ' ' ' ` o.1 . W C.XX-XM O 1 # &.Q.r             O @.Q.a o : O  X%XF.C.9 X p  .] ] ' ' ' ' ' ' ' ' ' ' ' ' ",
"' ' ' ' ' ' ' ' ' ' ' ' ' ' ` o.1 . ~ C.XX-XV - w 4 %.!.r . .         . @.Q.f - w ;  X%XF.C.9   p  .] ' ' ' ' ' ' ' ' ' ' ' ' ' ",
"' ' ' ' ' ' ' ' ' ' ' ' ' ` { ..1 . O.C.XX-X&X&X&XoXE.T.r             . %.T.}.=X=X&X;X$XF.C.9 X p  .` ` ' ' ' ' ' ' ' ' ' ' ' ' ",
"' ' ' ' ' ' ' ' ' ' ' ' ' ] ] ..1 . O.c.`.@X@X$X$XOX!.I.r             . $.W.{.+X@X$X$XoXS.C.5   p  .` ` ' ' ' ' ' ' ' ' ' ' ' ' ",
"' ' ' ' ' ' ' ' ' ' ' ' ' ' { ..1 . O.A.E I I U s.z.w.Y.r .           . $.P.z.v.W U R U :.A.5 X n  .] ` ' ' ' ' ' ' ' ' ' ' ' ' ",
"' ' ' ' ' ' ' ' ' ' ' ' ' ' { ..1 . W N.G S D S -.1.q.Y.r .             $.P.7.2.K D D S -.A.5 X n  .] ` ' ' ' ' ' ' ' ' ' ' ' ' ",
"' ' ' ' ' ' ' ' ' ' ' ' ' ' ` o.1 . W N.^ A :.j.4.,.q.U.r .           . @.L.7.2.4.l.^ C -.A.5   n  .' ' ' ' ' ' ' ' ' ' ' ' ' ' ",
"' ' ' ' ' ' ' ' ' ' ' ' ' ' ` ..1 . W v.Y S ;.n.4.,.q.U.r   .         . @.K.7.2.4.l.H C -.A.5 X n  .] ` ' ' ' ' ' ' ' ' ' ' ' ' ",
"' ' ' ' ' ' ' ' ' ' ' ' ' ' ` o.1 . W N.G C -.n.4.,.q.U.r .             @.L.7.2.4.n.J C -.A.5   n  .] ` ' ' ' ' ' ' ' ' ' ' ' ' ",
"' ' ' ' ' ' ' ' [ ` ' ' ' ` ` ..1 . W N.Y C -.n.2.,.q.U.r .           o @.L.7.2.2.k.J C ;.A.5 X n  .] ` ' ' ' ' ' ' ' ' ' ' ' ' ",
"' ' ' ' ' ' ' ' ' ' ' ' ' ' ` o.1 . W H.^ C -.8.8.,.q.Y.y             . @.K.9.2.8.j.H C ;.A.5 X n  .] ` ` ` ' ' ' ' ' ' ' ' ' ' ",
"' ' ' ' ' ' ' ' ' ' ' ' ' ' ` ..1 . W N.Y A ;.n.4.,.q.Y.r .           . @.K.9.2.4.n.^ C -.A.5   n  .` ` ' ' ' ' ' ' ' ' ' ' ' ' ",
"' ' ' ' ' ' ' ' ' ' ' ' ' ' ` ..1 . ~ N.Y C ;.n.4.,.q.Y.r .           . $.K.8.2.8.n.H C ;.A.e X n  .] ` ' ' ' ' ' ' ' ' ' ' ' ' ",
"' ' ' ' ' ' ' ' ' ' ' ' ' ` ` ..1 . ~ B.Y C ;.m.4.>.q.Y.t .           . &.J.8.2.4.n.^ C ;.A.5 X n  .] ` ' ' ' ' ' ' ' ' ' ' ' ' ",
"' ' ' ' ' ' ' ' ' ' ' ' ' ' ` o.1 . W N.G C ;.8.2.<.q.U.r             . $.K.7.2.4.n.G C ;.A.e   n  .] ` ' ' ' ' ' ' ' ' ' ' ' ' ",
"' ' ' ' ' ' ' ' ' ' ' ' ' ' ` ..1 . W M.K F *.8.2.<.q.Y.r .           . $.K.7.1.,.8.L F *.v.e   n  .] ` ' ' ' ' ' ' ' ' ' ' ' ' ",
"' ' ' ' ' ' ' ' ' ' ' ' ' ' ` o.1   ~ z.r.y.t.y.9.>.q.U.r .           . @.K.7.>.e.u.t.J.8.v.e X n  .` ` ' ' ' ' ' ' ' ' ' ' ' ' ",
"' ' ' ' ' ' ' ' ' ' ' ' ' ` ` ..1 . ~ k.r.u.t.y.9.>.q.Y.r .             $.K.9.<.e.u.t.J.0.v.e   n  .` ` ' ' ' ' ' ' ' ' ' ' ' ' ",
"' ' ' ' ' ' ' ' ' ' ' ' ' ' ` ..1 . O.M.5.3.8.3.8.3.e.U.r .           . #.P.7.5.8.8.8.8.5.A.e   n  .` ` ' ' ' ' ' ' ' ' ' ' ' ' ",
"' ' ' ' ' ' ' ' ' ' ' ' ' ' ` ..1   ( V.f.f.f.f.f.g.z.R.7             . s.T.b.f.f.f.f.f.f.V.9 X n  .[ ` ' ' ' ' ' ' ' ' ' ' ' ' ",
"' ' ' ' ' ' ' ' ' ' ' ' ' ' ` o.1   o # # # # # # # & % .               @ # # # # # # # # #   X n  .] ` ' ' ' ' ' ' ' ' ' ' ' ' ",
"' ' ' ' ' ' ' ' ' ' ' ' ' ` ` ..1                     .                                         p  .] ` ' ' ' ' ' ' ' ' ' ' ' ' "
};
