/* XPM */
static char *f2b42f63e47647fcb866707ea3609be2N1kbpTBAqOXsaEsV[] = {
/* columns rows colors chars-per-pixel */
"64 64 213 2 ",
"   c #020400",
".  c #0A0500",
"X  c #000B00",
"o  c #0A0804",
"O  c #080808",
"+  c #140500",
"@  c #170B00",
"#  c #1A0B00",
"$  c #021300",
"%  c #1A180F",
"&  c #17170F",
"*  c #151515",
"=  c #191711",
"-  c #191814",
";  c #171918",
":  c #191919",
">  c #191718",
",  c #24231F",
"<  c #252524",
"1  c #292929",
"2  c #2B2A26",
"3  c #354C1D",
"4  c #39481F",
"5  c #28531E",
"6  c #28571E",
"7  c #2C4E2D",
"8  c #264C24",
"9  c #374B21",
"0  c #245222",
"q  c #295522",
"w  c #295728",
"e  c #724806",
"r  c #725712",
"t  c #745815",
"y  c #76511D",
"u  c #7C5A19",
"i  c #705A16",
"p  c #5E552A",
"a  c #6D5726",
"s  c #6E5826",
"d  c #6D582B",
"f  c #645925",
"g  c #785827",
"h  c #795726",
"j  c #6B5830",
"k  c #645130",
"l  c #824F00",
"z  c #835001",
"x  c #8B5601",
"c  c #8C5A03",
"v  c #86550A",
"b  c #8F5C0A",
"n  c #88560D",
"m  c #8E5D13",
"M  c #8E5D1A",
"N  c #865814",
"B  c #915E12",
"V  c #906000",
"C  c #91620A",
"Z  c #936112",
"A  c #8D621E",
"S  c #B67F1B",
"D  c #825D26",
"F  c #84602B",
"G  c #8B642B",
"H  c #8B6634",
"J  c #AE7D2E",
"K  c #B37F23",
"L  c #B37F2C",
"P  c #AE7E32",
"I  c #A17A3A",
"U  c #4C8E47",
"Y  c #4C8C4A",
"T  c #4D874A",
"R  c #469743",
"E  c #499747",
"W  c #469845",
"Q  c #499847",
"!  c #4B954A",
"~  c #4A9849",
"^  c #5C8C54",
"/  c #5A9B57",
"(  c #5B9C59",
")  c #569C54",
"_  c #52854D",
"`  c #608B55",
"'  c #B98519",
"]  c #B68225",
"[  c #B88226",
"{  c #B4812B",
"}  c #B98328",
"|  c #B48231",
" . c #B48638",
".. c #CD9F3F",
"X. c #D69F3A",
"o. c #DCAC24",
"O. c #D9A62A",
"+. c #DCAA2D",
"@. c #CCA136",
"#. c #D5A433",
"$. c #D9A534",
"%. c #DDAA35",
"&. c #D5A23C",
"*. c #DDA53C",
"=. c #DEAB39",
"-. c #CAA62E",
";. c #E1AF2F",
":. c #EDBC2F",
">. c #E0AE32",
",. c #E5BA35",
"<. c #EDBD33",
"1. c #E5BA39",
"2. c #EABB3A",
"3. c #E5B238",
"4. c #EBC325",
"5. c #EBC32A",
"6. c #EAC829",
"7. c #FEDA2C",
"8. c #E9C538",
"9. c #FDD633",
"0. c #FEDD32",
"q. c #FCD43D",
"w. c #FFDD3C",
"e. c #FFE03F",
"r. c #AE8642",
"t. c #AD884B",
"y. c #BE984D",
"u. c #84837C",
"i. c #8C8A7E",
"p. c #958D7E",
"a. c #99907D",
"s. c #969177",
"d. c #CB9E44",
"f. c #C69C4D",
"g. c #CA9E4A",
"h. c #D69F42",
"j. c #C19B52",
"k. c #CCA347",
"l. c #D4A242",
"z. c #DAA544",
"x. c #DDA842",
"c. c #D4A44B",
"v. c #DFAC49",
"b. c #D8A84A",
"n. c #DEB34C",
"m. c #DEB247",
"M. c #C9A55A",
"N. c #D9AB50",
"B. c #D3AF5D",
"V. c #DCB352",
"C. c #E2AB46",
"Z. c #E2AC4A",
"A. c #E5B04D",
"S. c #E7BE4A",
"D. c #E2AF54",
"F. c #E5B152",
"G. c #E4B65C",
"H. c #CAA963",
"J. c #CDAA67",
"K. c #D3AE67",
"L. c #D2AF68",
"P. c #D8B26B",
"I. c #CCAC76",
"U. c #E4B763",
"Y. c #E5B865",
"T. c #E2B969",
"R. c #E6C346",
"E. c #FDDB44",
"W. c #F8D349",
"Q. c #E3C05A",
"!. c #F6DB68",
"~. c #EFCB77",
"^. c #F0D96F",
"/. c #FFEA73",
"(. c #838382",
"). c #8C8A83",
"_. c #8B8B8A",
"`. c #8A8884",
"'. c #969284",
"]. c #938E89",
"[. c #B9A88E",
"{. c #C2AE95",
"}. c #ECCB85",
"|. c #EBCC8C",
" X c #F1CC85",
".X c #F0CD8B",
"XX c #EFD38A",
"oX c #E3CC9C",
"OX c #E6C994",
"+X c #E9D49C",
"@X c #F3D88B",
"#X c #FDE686",
"$X c #F5E499",
"%X c #EFE391",
"&X c #DCCAA4",
"*X c #DECEAA",
"=X c #E3CEA2",
"-X c #E0CEA8",
";X c #EBDEA7",
":X c #F2E7AF",
">X c #FFFFCC",
",X c #FFFCD5",
"<X c #FFFDDC",
"1X c #FFF4DC",
"2X c #EDEDEB",
"3X c #FFF6E4",
"4X c #FFFDE4",
"5X c #F3F2EF",
"6X c #FFFDEB",
"7X c #F8F3E8",
"8X c #F3F2F0",
"9X c #FEFEF5",
"0X c #FFFFFE",
/* pixels */
"~ ~ W Q E E E E E E Q Q W Q Q Q Q R E E ~ ~ E ( 7       .           .   8 ( ! ! ~ ~ E ~ E ~ Q Q Q Q Q Q Q Q Q Q Q Q Q Q Q Q Q Q ",
"~ ~ Q Q ~ ~ W ~ Q Q Q Q Q Q Q Q R Q E E Y Y T ` 4 . # # + + + + + + # . 9 ^ _ T ! ~ E E Q Q Q ~ Q Q Q Q Q Q Q Q ~ Q Q Q Q Q Q Q ",
"Q Q Q Q E W W ~ Q Q Q Q Q Q Q Q Q Q Q ( w X $ X a J.y.j.I h g y I M.f.J.p   $ X 0 / ~ ~ Q Q Q Q Q Q Q Q Q Q Q Q Q Q Q Q Q Q Q Q ",
"Q Q Q Q E ~ ~ ~ Q Q Q Q Q Q Q Q Q ! U ^ 4 . # + u G.z.F.| N M n } Z.$.G.h + # O 3 ^ U ~ E Q Q Q Q Q Q Q Q Q Q Q Q Q Q Q Q Q Q Q ",
"Q Q Q Q Q ~ W ~ Q Q Q Q Q Q Q Q E / w X f J.j.g.X.z.*.C.L v M v K C.*.C.l.g.f.H.f X w ( E E Q Q Q Q Q Q Q Q Q Q Q Q Q Q Q Q Q Q ",
"Q Q Q Q ~ ~ ~ W Q Q Q Q Q Q Q ~ ! ^ 4 . u G.c.z.l.X.X.C.L v M v K C.X.*.l.z.*.G.u . 3 ^ U ! E E Q Q Q Q Q Q Q Q Q Q Q Q Q Q Q Q ",
"Q Q Q Q ~ ~ W ~ Q Q E E R E W ) w X f H...v.} c Z c ' F.L v M n K F.K b B v ] C.d.H.f X 6 / ! E Q Q Q Q Q Q Q Q Q Q Q Q Q Q Q Q ",
"Q Q Q Q ~ ~ ~ W Q Q E E Q E W / 7   r U.l.z.L b C V ' F.L v M v K F.L v B c ' 3.%.G.d   5 / ! Q Q Q Q Q Q Q Q Q Q Q Q Q Q Q Q Q ",
"Q Q Q Q Q Q W W Q Q Q Q Q E E ( 7   t G.{ x L &.,.W.2.=.{ v M v K A.L z L *.,.E.2.n.a   5 ( ! ! Q Q Q Q Q Q Q Q Q Q Q Q Q Q Q Q ",
"Q Q Q Q Q ~ Q Q Q Q Q Q Q ~ ! ^ 9 . u G.L z } >.5.e.2.%.{ v M v K F.L z } =.5.w.<.A.u . 9 ^ Y ~ E Q Q Q Q Q Q Q Q Q Q Q Q Q Q Q ",
"Q Q W W Q Q Q W Q Q Q ~ R ) w X f M.d.F.| l [ %.5.w.<.=.{ v M v K F.L z ] %.:.q.<.#.@.H.f X q ) ~ E Q Q Q Q Q Q Q Q ~ Q Q Q Q Q ",
"Q Q Q Q Q Q Q Q Q E Q Q R / 7   t Y.h.z.{ x } %.5.w.<.%.] v M v K F.L z [ =.:.q.8.o.%.G.s X 5 / ~ E Q Q Q Q Q Q Q Q Q Q Q Q Q Q ",
"Q W Q W Q Q W W ~ ~ Q Q R / 7   y G.L x L z.&.O.5.w.<.=.] v M v K F.P z } C.>.;.4.E.<.n.a   5 / ! E E E Q Q Q Q Q Q Q Q Q Q Q Q ",
"Q W Q Q Q Q W ~ ~ ~ ~ ~ R / 7   t Y.P l K Z.>.O.5.w.2.=.{ n M n K G.P l K C.X.O.:.w.:.n.s   q / ! ~ ~ E Q Q ~ Q Q Q Q Q Q Q Q Q ",
"Q Q Q Q Q Q Q Q Q Q ~ E Q / 7   r U.P l K Z.*.O.4.w.<.=.{ v N v K D.P l K C.>.;.4.w.<.n.s   q / ~ Q W ~ Q Q Q Q Q Q Q Q Q Q Q Q ",
"Q Q Q Q Q Q Q Q Q Q E E R / 7   r U.P x [ Z.*.$.R.!.Q.B.t.F H F r.P.t.M | A.z.O.4.0.:.n.s   5 / ! Q Q E Q Q Q Q Q Q Q Q Q Q Q Q ",
"Q Q Q Q Q Q Q Q Q Q Q Q W / 7   t Y.P e [ C.>.d.XX>X,X<X3X3X3X3X3X4X3X<X Xk.x.O.4.e.:.n.s X q / ~ ~ E ~ Q Q Q Q Q Q Q Q Q Q Q Q ",
"Q Q Q Q Q Q Q Q Q Q Q Q W / 7   r Y.| z [ Z.b.H.-X3X7X5X5X5X8X8X5X5X8X3XoXM.N.#.4.e.:.n.s   5 / ! ~ E E Q Q Q Q Q Q Q Q Q Q Q Q ",
"Q Q Q Q Q Q Q Q Q Q Q Q W / 7   r Y.{ x } c.|.,Xa.& 1 < < < < < < < 1 > a.,X}.-.5.w.<.n.s   5 / ~ E E E Q Q Q Q Q Q Q Q Q Q Q Q ",
"Q Q Q Q Q Q Q Q Q Q Q Q R / 7   t Y.| e  .J.*X6Xu.  > * * * * * * * :   (.6XoXk.8.E.<.n.a   5 / ! ~ W ~ Q Q Q ~ Q Q Q Q Q Q Q Q ",
"Q Q Q Q Q Q Q Q Q Q Q Q R / 7   r Y.P e I.3X'.* < * : : : : : : : ; : > < - a.>X/.E.8.n.s   q / ! ~ ~ E E Q Q Q Q Q W ~ Q Q Q Q ",
"Q Q Q Q Q Q Q Q Q Q Q Q Q / 7 o r T.r.g [.9Xu.  : * : : : : : : ; ; > ; :   (.6X%X^.R.B.s   5 / ! E W ~ Q Q Q Q Q E ~ Q Q Q Q Q ",
"Q Q Q Q Q Q Q Q Q Q Q Q R / 7   t K.OX<Xp.- < * : : : * * : : : ; > ; > ; ; < % s.>X~.B.d X 5 / ! W ~ E Q Q Q Q Q Q Q Q Q Q Q Q ",
"Q Q Q Q Q Q Q Q Q Q Q Q W / 7   t K.&X6X`.  : * : : : : : : : : > ; > ; ; ; :   `.6X}.L.d   5 / ! ~ E E Q Q Q Q Q Q Q Q Q Q Q Q ",
"Q Q Q Q Q Q Q Q Q Q Q Q W / 7   t K.&X6X).. : : : : : : : * : : > ; > ; > ; : O _.6X}.K.d   q / ~ Q Q E Q Q Q Q Q Q Q Q Q Q Q Q ",
"Q Q Q Q Q Q Q Q Q Q Q Q R / 7   t K.oX6X).O : : : : : : : : : > ; > ; > * ; : O ).4X}.L.j X 5 ) ! Q Q ~ Q Q Q Q Q Q Q Q Q Q Q Q ",
"Q Q Q Q Q Q Q Q Q Q Q Q R / 7   t L.&X6X`.  : ; : : : ; : * * * > ; > ; : * : O `.6XXXL.j   q / ! ~ ~ W Q Q Q Q Q Q Q Q Q ~ Q Q ",
"Q Q Q Q Q Q Q Q Q Q Q Q Q / 7 . t L.OX<Xp.= < : : : : ; : : : : ; > ; > : > < % s.>X~.K.d   5 / ! E Q Q Q Q Q Q Q Q Q Q Q Q Q Q ",
"Q Q Q Q Q Q Q Q Q Q Q Q Q / 7   t P.r.g [.9Xu.  : : * : : * : : ; ; - ; : . (.4X%X^.S.V.a   5 / ! W ~ E Q Q Q Q Q Q Q Q Q Q Q Q ",
"Q Q Q Q Q Q Q Q Q Q Q Q W / 7   r Y.| e I.<Xp.& < : > > : : * : : ; ; > < - p.>X/.E.2.n.a   5 / ! ~ E E Q Q Q Q Q Q Q Q Q Q Q Q ",
"Q Q Q Q Q Q Q Q Q Q Q Q W / w   r Y.{ e  .J.*X9Xu.  > * * : * : > * ;   u.6XoXM.8.E.<.n.a X 5 / ~ Q ~ W Q Q Q Q Q Q Q Q Q Q Q Q ",
"Q Q Q Q Q Q Q Q Q Q Q Q W / 7   r Y.| z { c.OX,Xp.& 1 1 , : ; : : 1 1 * '.,X}.-.6.E.<.n.a   5 / ! Q E ~ Q Q Q Q Q Q Q Q Q Q Q Q ",
"Q Q Q Q Q Q Q Q Q Q Q Q R / 7 o r Y.P z } v.b.M.*X3X2X0X(.O : O `.0X8X7X=XJ.N.#.4.0.:.n.a X 5 / ~ Q Q Q Q Q Q Q Q ~ Q Q Q Q Q Q ",
"Q Q Q Q Q Q Q Q Q Q Q Q W / 7   t Y.P z ] C.*.d.XX,X<X9X_.O < O _.0X7X,X.Xh.z.O.4.e.:.n.a   5 / ! Q Q Q Q Q Q Q ~ W Q Q Q Q Q Q ",
"Q Q Q Q Q Q Q Q Q Q Q Q R / 7   r Y.P z [ C.z.$.R.^.:X6X`.O ,   _.9X{.a  .v.*.O.4.e.:.n.s   5 / ! Q Q Q Q Q Q Q Q Q Q Q Q Q Q Q ",
"Q Q Q Q Q Q Q Q Q Q Q Q W / 7   r T.P l } C.>.$.R.^.;X6Xu.O , O (.9X[.h  .v.*.O.4.w.:.n.s X 5 / ~ Q Q Q Q Q Q Q Q Q Q Q Q Q Q Q ",
"Q Q Q Q Q Q Q Q Q Q Q Q R / 7   r T.P l [ C.*.l.}.,Xs.% < * : : < > ).<X}.l.z.O.4.0.<.n.a   5 / ! ~ E Q Q Q Q Q Q E Q Q Q Q Q Q ",
"Q Q Q Q Q Q Q Q Q Q Q Q W / 7   r T.P z ] C.*.d.oX6X).  : : : : > . _.6X|.c.x.O.4.w.<.n.a   5 / ~ E E ~ Q Q Q Q Q ~ Q Q Q Q Q Q ",
"Q Q Q Q Q Q Q Q Q Q Q Q R / 7 . r Y.P z ] C.x.h.oX6X'.O , : > ; : O _.6X.Xk.x.O.4.w.<.n.s X 5 / ! E ~ E Q Q Q Q Q Q Q Q Q Q Q Q ",
"Q Q Q Q Q Q Q Q Q Q Q Q Q / 7   r Y.P z [ v.N.H.&X9Xu.O : * ; > : O (.9XoXH.b.#.4.e.<.n.a   5 / ! ~ E E Q Q Q Q Q Q Q Q Q Q Q Q ",
"Q Q Q Q Q Q Q Q Q Q Q Q W / 7   t Y.J e ' b.|.,Xp.= < ; ; > > ; : : < = '.,X}.-.5.w.<.n.s X 5 / ~ Q E ~ Q Q Q Q Q Q Q Q Q Q Q Q ",
"Q Q Q Q Q Q Q ~ Q Q Q Q R / 7   r Y.] c ' m.+X6X).  : : : > : : : : :   `.4XXX-.6.w.:.n.a   5 / ! Q Q Q Q Q Q Q Q Q Q Q Q Q Q Q ",
"Q Q Q Q Q Q Q Q Q Q Q Q W / 7   t V.1.W.q.W.$X<Xi.  : * * * * * * * : O _.4X#XW.0.7.:.n.a X 5 / ! ~ Q Q Q Q Q Q Q Q Q Q Q Q Q Q ",
"Q Q Q Q Q Q Q Q Q Q Q Q R / 7   t A.<.w.9.W.$X4X'.; 2 < 1 < < < < 1 1 * ].4X#XW.9.w.,.n.a X 5 / ~ E Q Q Q Q Q Q Q Q Q Q Q Q Q Q ",
"Q Q Q Q Q Q Q Q Q Q Q Q W / 7   t F.$.>.;.@.;X6X7X5X5X5X8X8X8X8X8X5X5X5X8X6X@X@.=.;.O.F.a   5 / ! E E W Q Q Q Q Q Q Q Q Q Q Q Q ",
"Q Q Q Q Q Q Q Q Q Q Q Q W / 7   t G.l.X.&.d.OX,X1X<X4X4X3X6X3X3X<X3X3X3X3X,X}.d.l.&.#.G.a   5 / ! ~ ~ ~ Q Q Q Q Q Q Q Q Q Q Q Q ",
"Q Q Q Q Q Q Q Q Q Q Q Q W / 7   r U.L c Z m G G H F r.P.t.F H F r.P.t.F H G M m Z c ' U.d   5 / ~ ~ E E Q Q Q Q Q Q Q Q W ~ Q Q ",
"Q Q Q Q Q Q Q Q Q Q Q Q W / 7   t U.J v m m b b C c ] n.J v N v K D.P v m m B B C V ' U.a   5 / ! ~ W E Q Q Q Q Q Q Q Q ~ Q Q Q ",
"Q Q Q Q Q Q Q Q Q Q Q Q W / 7   r Y.P z L b.h.X.3.W.2.C.{ v m n } F.P l L z.X.X.,.W.2.n.s X q / ! E E E Q Q Q Q Q Q Q ~ Q Q Q Q ",
"Q Q Q Q Q Q Q Q Q Q Q Q W / 7   r Y.P l [ C.>.O.5.E.<.$.{ v m n L F.L l L C.C.O.4.w.:.n.s X 5 / ! ~ ~ W Q Q Q Q Q Q Q Q Q Q Q Q ",
"Q Q Q Q Q Q Q Q Q Q Q Q Q / 7   t Y.P l [ C.*.#.5.w.<.3.{ v M v K F.L x K C.X.O.4.E.<.n.s   5 / ~ Q ~ E Q Q Q Q Q Q Q Q Q Q Q Q ",
"Q Q Q Q Q Q Q Q Q Q Q Q W / 7   t Y.P l [ C.>.O.4.w.<.=.{ v m v K F.L l [ C.*.O.4.w.<.n.a   5 / ! Q E E Q Q Q Q Q Q Q Q Q Q Q Q ",
"Q Q Q Q Q Q Q Q Q Q Q Q W / 7   r Y.P l L C.>.O.4.w.:.>.{ v m v K F.L l [ C.>.O.4.w.<.n.a   5 / ! ~ E E Q Q Q Q Q Q Q Q Q Q Q Q ",
"Q Q Q Q Q Q Q Q Q Q Q Q W / 7   r Y.P l K C.*.O.4.w.8.=.] v m v K F.L l [ C.C.O.4.w.<.n.a X 5 / ! E ~ W Q Q Q Q Q Q Q Q Q Q Q Q ",
"Q Q Q ~ Q Q Q Q Q Q Q Q R / 7   r Y.L l K C.z.O.4.w.<.=.{ v m v K F.| x K Z.*.O.4.w.<.n.a   5 / ! W ~ ~ Q ~ W Q Q Q Q Q Q Q Q Q ",
"Q Q Q Q Q Q Q Q Q Q Q Q R / 7 o r Y.P x [ C.>.O.4.e.<.=.{ v M v K F.L l K C.>.O.4.w.:.n.a X 5 / ! ~ E E Q Q ~ E Q Q Q Q Q Q Q Q ",
"Q Q Q Q Q Q Q Q Q Q Q Q Q / 7 X r Y.J e ' C.=.O.4.w.<.=.L v M v K F.L l [ C.$.O.4.e.:.n.s X 5 / ~ Q Q Q Q Q Q Q Q Q Q Q Q Q ~ W ",
"Q Q Q Q Q Q Q Q Q Q Q Q W / 7   t Y.] c ' 3.+.o.4.0.8.=.K v M v [ A.[ x ' 3.;.o.4.0.:.A.s   5 / ! Q Q Q Q Q Q Q Q Q Q Q Q Q E ~ ",
"Q Q Q Q Q Q Q Q Q Q Q Q Q / 7   t V.1.q.9.9.9.7.7.7.<.=.{ v M n [ >.3.q.9.9.7.7.7.0.:.n.s   5 / ! ~ Q Q Q Q Q Q Q Q Q Q Q Q Q Q ",
"Q Q Q Q Q Q Q Q Q Q Q Q R / 7   t N.1.E.9.9.9.9.7.w.<.=.{ v M v [ *.2.E.9.9.9.9.7.q.,.n.s X 5 / ~ E Q Q Q Q Q Q Q Q Q Q Q Q Q Q ",
"Q Q Q Q Q Q Q Q Q Q Q Q R / 7   t G.*.>.>.>.>.>.%.>.3.Z.| N M n } Z.=.>.>.>.>.%.;.>.%.G.s X 0 / ! ~ W ~ Q Q Q Q Q Q Q Q Q Q Q Q ",
"Q Q ~ Q Q Q Q Q Q Q Q Q Q / 7   f J.j.f.f.f.f.f.f.f.f.M.I y h y I M.j.g.f.f.f.g.f.f.f.J.k   8 / ! ~ E E Q Q Q Q ~ Q Q Q Q Q Q Q ",
"Q Q Q Q Q Q Q Q Q Q ~ Q W / 7   . @ # + # # + # # # + # + + + + + # + # # # + # + # # # .   0 / ~ E E E Q Q Q Q E Q Q Q Q Q Q Q ",
"Q Q Q Q Q Q Q Q Q Q Q ~ W / 8       .       .                                 .           X 8 / ! ~ W ~ Q Q Q Q Q Q Q Q Q Q Q Q "
};
