/* XPM */
static char *ZW5uZW15Mw__[] = {
/* columns rows colors chars-per-pixel */
"64 64 247 2 ",
"   c #1C1A0D",
".  c #181C14",
"X  c #1C1F1C",
"o  c #29180B",
"O  c #3A1907",
"+  c #341B0C",
"@  c #3B1C0C",
"#  c #2D1514",
"$  c #261A16",
"%  c #2B1B14",
"&  c #251D1D",
"*  c #2B1B1B",
"=  c #331C12",
"-  c #371815",
";  c #341B1D",
":  c #3A1B1C",
">  c #1A2318",
",  c #1A301A",
"<  c #2A240A",
"1  c #35220B",
"2  c #21201F",
"3  c #2A2518",
"4  c #3B2112",
"5  c #352418",
"6  c #2A3319",
"7  c #37391A",
"8  c #221F20",
"9  c #351F20",
"0  c #222121",
"q  c #252B23",
"w  c #3B2423",
"e  c #213221",
"r  c #2A3726",
"t  c #3A3824",
"y  c #451D07",
"u  c #551909",
"i  c #4C1C15",
"p  c #471919",
"a  c #441C1D",
"s  c #56171A",
"d  c #60151A",
"f  c #472509",
"g  c #4C230A",
"h  c #57280C",
"j  c #4C3109",
"k  c #462718",
"l  c #572C17",
"z  c #4A3719",
"x  c #5B341B",
"c  c #612D0C",
"v  c #66310E",
"b  c #643314",
"n  c #65361B",
"m  c #6A3D1A",
"M  c #743E1C",
"N  c #4A1E21",
"B  c #561E22",
"V  c #6A1E23",
"C  c #4C2223",
"Z  c #482727",
"A  c #532326",
"S  c #5D2323",
"D  c #562828",
"F  c #5B292C",
"G  c #473627",
"H  c #593725",
"J  c #453330",
"K  c #5B393A",
"L  c #682728",
"P  c #76292C",
"I  c #673A25",
"U  c #793627",
"Y  c #662C31",
"T  c #722C31",
"R  c #7B2D32",
"E  c #6B3637",
"W  c #7A3236",
"Q  c #76373A",
"!  c #2F4618",
"~  c #37471B",
"^  c #3D411D",
"/  c #2A4521",
"(  c #3D4628",
")  c #3A522B",
"_  c #374E32",
"`  c #6A401A",
"'  c #79421E",
"]  c #46482B",
"[  c #56432C",
"{  c #454735",
"}  c #574836",
"|  c #515735",
" . c #6A4227",
".. c #6C432B",
"X. c #794729",
"o. c #6A4935",
"O. c #774B37",
"+. c #6E5432",
"@. c #7C543B",
"#. c #4F653A",
"$. c #776730",
"%. c #7A3E41",
"&. c #4C5047",
"*. c #784748",
"=. c #6D584E",
"-. c #7A5B48",
";. c #496946",
":. c #556746",
">. c #53754F",
",. c #5A764A",
"<. c #6F7250",
"1. c #83282F",
"2. c #852D33",
"3. c #893539",
"4. c #853A3D",
"5. c #98373C",
"6. c #A5353C",
"7. c #AC363C",
"8. c #A9383A",
"9. c #B0363D",
"0. c #845B1F",
"q. c #824D2C",
"w. c #88532C",
"e. c #99572E",
"r. c #845334",
"t. c #8B5534",
"y. c #87593A",
"u. c #935834",
"i. c #945935",
"p. c #9B5B33",
"a. c #A9483B",
"s. c #956B33",
"d. c #AA6438",
"f. c #B7763B",
"g. c #853C40",
"h. c #8A3C42",
"j. c #933D43",
"k. c #9B3C42",
"l. c #A33C43",
"z. c #AB3B42",
"x. c #B23D44",
"c. c #8B4548",
"v. c #994346",
"b. c #875A46",
"n. c #8A4F52",
"m. c #985457",
"M. c #A5454A",
"N. c #B6454A",
"B. c #B9534C",
"V. c #AA4C51",
"C. c #B24C53",
"Z. c #BB4E55",
"A. c #A85356",
"S. c #B7565A",
"D. c #876646",
"F. c #956648",
"G. c #906E54",
"H. c #A56A44",
"J. c #B0734B",
"K. c #A77656",
"L. c #B57B56",
"P. c #9D5E62",
"I. c #AF5B61",
"U. c #B75B61",
"Y. c #907166",
"T. c #A86468",
"R. c #B86568",
"E. c #AD7172",
"W. c #C34C54",
"Q. c #C2555C",
"!. c #C55958",
"~. c #C7655B",
"^. c #C65D64",
"/. c #D25C64",
"(. c #D85F67",
"). c #C7656A",
"_. c #D3626A",
"`. c #DB646B",
"'. c #D9656C",
"]. c #C96D73",
"[. c #D46D73",
"{. c #DC6C73",
"}. c #C57074",
"|. c #D67378",
" X c #E2686F",
".X c #E46C74",
"XX c #E96F76",
"oX c #E57379",
"OX c #58894C",
"+X c #499747",
"@X c #479847",
"#X c #499847",
"$X c #4C954A",
"%X c #499848",
"&X c #51924D",
"*X c #578556",
"=X c #5A8956",
"-X c #5C8C54",
";X c #549351",
":X c #5A9255",
">X c #5C9259",
",X c #678858",
"<X c #638A5C",
"1X c #63935A",
"2X c #648962",
"3X c #748B62",
"4X c #689264",
"5X c #9C863C",
"6X c #9D8755",
"7X c #B38D4F",
"8X c #B98968",
"9X c #A88C74",
"0X c #CA8C5B",
"qX c #CA8B63",
"wX c #D38E63",
"eX c #D59366",
"rX c #D38D76",
"tX c #E49678",
"yX c #CEA078",
"uX c #DE7A82",
"iX c #B1978F",
"pX c #D78F8D",
"aX c #E68786",
"sX c #E99491",
"dX c #E9979B",
"fX c #D3A98E",
"gX c #D3AD95",
"hX c #DCB398",
"jX c #E9B497",
"kX c #F29CA1",
"lX c #D5BBAC",
"zX c #FDB2AA",
"xX c #F9B6BB",
"cX c #D5C6B8",
"vX c #F9C9AF",
"bX c #CDCDCD",
"nX c #D7D4CF",
"mX c #FDC6C9",
"MX c #F9DAC8",
"NX c #FFDFC9",
"BX c #F9D3D4",
"VX c #FAE2CE",
"CX c #F9E4D8",
"ZX c #FEE7E9",
"AX c #FFF3E9",
"SX c #FFEFF0",
"DX c #FDF8F7",
/* pixels */
"#X#X#X#X#X+X+X%X%X%X%X%X%X+X%X%X+X#X#X#X#X#X#X#X#X#X+X+X#X#X#X#X@X#X@X#X#X#X%X%X#X#X$X$X#X#X#X#X$X+X+X+X#X#X#X#X#X#X#X#X#X#X#X#X",
"#X#X#X#X%X+X+X%X%X+X+X@X%X@X+X@X#X+X#X#X#X#X+X#X#X#X+X+X#X#X#X#X@X@X#X#X#X#X%X%X#X#X#X#X#X#X#X#X+X+X#X+X#X#X#X#X#X#X#X#X#X#X#X#X",
"#X#X#X#X#X@X#X#X%X+X%X%X%X#X+X%X#X#X%X+X#X#X#X#X#X#X#X#X#X#X#X#X#X@X#X#X#X#X#X#X#X#X#X#X#X#X#X%X#X#X#X#X#X#X#X#X#X#X#X#X#X#X+X+X",
"#X#X#X#X@X#X#X#X@X%X%X%X%X%X%X@X#X#X+X+X#X#X#X#X#X#X#X#X#X#X#X#X@X#X@X#X#X#X#X#X#X#X#X#X#X#X#X#X#X#X#X#X#X#X#X#X#X#X#X#X#X#X+X+X",
"#X#X#X#X#X@X%X#X+X%X#X#X#X#X#X#X%X%X%X+X#X#X#X#X#X#X#X#X#X#X+X+X#X#X#X#X%X#X#X#X#X#X#X#X+X+X@X@X#X#X@X#X@X#X#X#X#X#X#X#X%X#X#X#X",
"#X%X#X#X#X#X+X#X#X%X#X+X#X#X+X$X;X&X$X+X%X#X#X#X#X#X+X+X#X#X+X+X#X#X#X#X%X#X#X#X#X#X#X#X$X$X$X$X#X#X+X@X#X#X#X+X#X#X#X#X#X#X#X#X",
"#X#X%X%X#X#X#X#X#X#X+X+X%X%X$X;XOXOX&X%X+X#X+X+X#X#X#X+X#X+X+X+X#X#X#X$X#X#X#X#X#X#X#X$X;XOXOXOX$X#X+X+X#X#X#X#X#X#X#X#X#X#X#X#X",
"#X#X%X%X#X#X#X#X#X#X+X%X%X$X-X4X:.,.1X%X#X#X+X+X#X#X#X%X$X$X&X$X$X$X$X#X#X#X#X#X#X#X%X&X1X>.:.<X&X$X#X+X+X#X#X#X#X#X#X#X#X#X#X@X",
"#X#X#X#X#X#X#X#X#X#X%X$X+X&X,X| Y.=.#.;X$X$X+X+X%X%X$X;X=X>X>X>X:X-X>X;X$X%X@X%X%X+X$X>X:.=.Y.| OX$X+X#X#X#X#X#X#X#X#X#X#X#X#X#X",
"#X#X#X#X#X#X#X#X#X#X%X%X$X:X<.Z T.b./ >X&X$X+X+X%X&X:X,.>.,.,.,.,.,.,.*X-X$X$X@X%X+X+X:X] =.E.k #.:X+X#X#X#X+X#X#X#X#X#X+X#X#X#X",
"#X#X#X#X#X#X#X#X#X#X#X$X&X1X<.E R.b.] <X&X$X+X+X$X-X3X[ 4 k N N k k p ] 3X-X$X@X%X$X$X<X{ *.E.I <.1X&X+X#X#X#X#X#X#X#X#X#X#X#X#X",
"#X#X#X#X#X#X#X@X#X#X#X%X:X;.I n.].c.G 3X&X$X$X$X:X<.} Q g.h.h.h.j.4.4.Q [ <.1X$X$X$X&X,XH c.].c.[ #.;X#X#X#X#X#X#X#X#X#X#X#X#X#X",
"#X#X#X%X#X#X@X#X%X%X%X$X>X) l M.].U.b.<.,X;X$X:X,X=.L 5.C.^.U.^.Q.^.Z.j.T =.<.>X&X&X=X<.n.R.[.A.x ) :X#X+X%X+X#X#X#X#X#X#X#X#X#X",
"#X#X#X#X#X#X#X@X%X%X%X$X1X] S M./.{.E.H #.4X4X3XG H a.N./.uXuXuXuXoX/.x.v.L G 2X4X3X:.H E.|.^.c.l { 1X#X%X+X+X+X#X#X#X#X#X#X#X#X",
"#X#X#X#X#X#X@X#X%X#X%X$X:X] S v.x.^.R.L k } | J 4 Y M.)._.uXmXBXmXpX[._.C.R - t | } w D ).R.a.L O ] 1X$X%X%X%X+X#X#X#X#X#X#X#X#X",
"#X#X#X#X#X#X#X#X@X#X%X%X>X] S v.z.W.[.m.%.%.F C p T V.{.dXxXZXSXZXxXdXoXC.R p Z F *.%.m.].V.L O.@.=.,XOX%X#X%X#X#X#X#X#X#X#X#X#X",
"#X#X#X#X#X#X#X@X#X%X#X$X1X) C c.6.W.`.{.|.[.A.W s L C.[.xXZXSXSXSXZXxX].C.R s E A.].[.|.[.3.B iXgX9X| ;.%X#X#X#X#X#X#X#X#X#X#X#X",
"#X#X#X#X#X#X#X#X#X#X#X%X>X) % S 5.x.W.(.(.N.l.2.s T C.[.xXZXSXSXSXZXxXuXC.1.s T l.N.(.'.C.L F lXCXcX#.;.:X#X#X#X#X#X#X#X#X#X#X#X",
"#X#X#X#X@X#X#X#X#X#X#X#X>X_   a 3.z.z.W.W.z.l.3.s P C.{.dXmXZXSXZXmXkX[.C.1.d P l.7.W.Q.v.L K bXDXnX;.;.1X+X+X+X#X#X#X#X#X#X#X#X",
"#X#X#X%X@X@X#X#X#X#X;X:X4X)   Z Q h.k.l.z.z.k.2.d R N. X[.pXBXZXBXpXuX{.x.1.d R k.6.z.l.h.A K bXDXnX&.;.1X+X#X+X#X#X#X#X#X#X#X#X",
"+X+X+X+X#X#X#X+X+X&X#.#.| 5 o 1 C A L 4.k.k.P V 1.5.z.x./.uXpXdXdXuX/.x.x.6.1.V P k.l.3.F ; { bXDXnX&.r >.:X+X+X#X#X#X#X#X#X#X#X",
"#X+X+X+X#X#X#X&X&X1X$.] [ z z h = # - Y R R V P l.z.9.9.W.].sXdXdX[.W.x.7.z.k.P V R W Y 9 $ &.bXDXnX&.6 | ,XOX+X$X#X#X#X#X#X#X#X",
"#X#X+X+X+X+X$X:X,.| 9XyX8Xs.0.0.k < ; ; p s 1.l.6.7.9.z.6.U.mXZXmXU.z.z.9.7.z.l.2.d p 9 * & &.bXDXnX=.} 8X+.#.1X&X#X#X#X#X#X#X#X",
"#X#X+X+X+X+X$XOX,X6XvXvXzXwXf.0.s.| % # N R C.Q.9.6.6.7.6.S.mXAXmXU.k.z.6.6.z.W.U.W N # * & J nXDXnX&.H K.G.3X,.:X%X#X#X#X#X#X#X",
"#X#X#X#X#X$X:X~ D.hXVXVXvXeXf.f.7X$.< k L M._._.z.Q.^.z.8.B.zXNXxXU.5.8.U.B.N./._.l.T i : w =.nXDXnXG.I w.8XG.~ OX+X+X+X+X#X#X#X",
"#X#X#X#X%X&X:X~ s.hXNXvXeXeXf.5X7X$.1 E j.6././.M.sXzXA.5.N.rXsXtXC.5.B.zXkXN./.`.z.j.Q k =.iXVXSXCXgXy.c K.G.^ OX&X+X+X+X+X#X#X",
"#X#X#X#X%X$X:X~ +.8X0X7X5X0X7X5X$.z k Q v.z._.'.M.aXzXkX~.8.!.!.W.8.R.dXzXtX8./.(.z.k.4.i -.hXVXAXCXhXF.f D.-.^ OX+X+X#X#X#X#X#X",
"#X#X#X#X%X$X:X! j y.s.0.$.5X5Xs.7 o 4 E 3.5.A.C.3.F.pXvXrX8.8.8.7.6.|.vXaX~.N.`.'.N.j.T i b.gXNXAXCXhXF.f } K 7 1X#X+X+X#X#X#X#X",
"#X#X#X#X#X$X:X! < [ 6X$.f f j 7 1 O O f i i d h g g O.pXR.5.7.9.9.9.~.tX~.W.(. X{.}.%.p - D.gXNXAXCXhXF.4 3 3 / :X&X%X#X#X#X#X#X",
"#X#X#X#X#X$X&X-X] 7 +.@.y.r.y.y.y.y.D.y.y.b.b.b.b.z f O.v.a.Q.Q.!.9.N.!.a.W.XXXX).n.Z ; = -.fXNXAXCXhXD.4   _ =X&X%X%X#X#X#X#X#X",
"#X#X#X#X#X#X$X1X,.+ j s.0XeXeXeXeXwXwXwXwXeXwXeXrXD.Z a P V.R.).^.N.N.9.9.N._.).n.N * 3 4 -.gXNXAXCXhXF.5 > ,.1X&X#X#X#X#X#X#X#X",
"#X#X#X#X#X%X$X1X,.z K.J.d.d.d.d.d.d.d.d.d.d.d.J.yXjXiXG *.T.E S T I.[.(.N.a.V.U C ; & 2 4 -.gXNXAXCXhXF.1 , #.1X+X#X#X#X#X#X#X#X",
"#X#X+X+X+X$X$X,X<.i.L.H.w.` n  .n X.w.' m I n q.L.jXlX9XY.*.9 # : %.I.[.C.5.V N % & & $ = -.gXMXAXCXhXF.5 . ;.:X$X#X#X#X#X#X#X#X",
"#X#X%X+X+X$X-X) F.0Xp.e.X.f + + O I t.l + + + z w.L.fXvXY.- 9 ; 9 Z n.).l.%.s ; * 2 3 5 4 -.gXNXAXCXhXF.= 3 :.1X&X#X#X#X#X#X#X#X",
"#X#X+X+X+X$X,X~ X.d.e.M g = < % + H @.j = * $ O h q.L.fXn.: E D J iXiXm.Y V %.N * % H ..k -.lXMXAXCXlXF.f [ | #.OX$X%X#X#X#X#X#X",
"#X#X+X+X+X&X<X^ m p.u.b y G w % o H @.l % 2 Z z y I p.L.X.k *.Y Z iXE.Y V T h.A * % o.@.f H 9XMXDXCX9X..y +.+.7 OX%X%X%X%X#X#X#X",
"#X#X#X#X#X&X<X^ ` p.u.v g -.K o = G @.l o 5 o.O.y ..p.p.L i Q T p s N d h.l.h.F # = I q.g O o.lXCXbX=.O g X. .7 OX&X%X#X#X#X#X#X",
"#X#X#X#X#X&X<X^ m p.u.v l K.-.O O x @.h o - F.F.g I e.e.n i 4.5.R %.R g.Z.U.h.V - = ..b.O.o.o.=.=.=.O...X.y.o.7 -X$X%X+X#X#X#X#X",
"#X#X#X#X#X&X<X^ ` p.u.v c 8XF.c h X.F.' h n 7XK.g U e.e.n s 3.l.l.l.x.Z.{._.j.S p C I ..X.y.y.b g l r.t.X...H r -X$X%X+X#X#X#X#X",
"#X#X#X#X#X&X<X^ ` p.u.v b 8X6Xr.w.K.qXd.r.t.8XJ.g ' e.e.I i 3.l.z.z.W. X{.^.j.B B *.L u u U t.y.y.y.y.X.g i 4 7 -X$X%X#X+X#X#X#X",
"#X#X#X#X#X&X1X^ ` p.u.v h G.@.x l X.H.U l H F.y.g I e.e.n p A c.^.Q.(. X^.k.F a Y I.I.j.R V F A H H x L P n.o.t -X&X#X#X#X#X#X#X",
"#X#X#X#X#X&X,X^ ` p.e.b y o.x 1 x w.d.M j @ I H y ..p.e.H + - Q U.uXuX^.j.Y 9 ; Y I.uX).V.R N - # = i T A.R.n.J -X$X$X+X#X#X#X#X",
"#X#X#X#X+X&X<X^ m p.u.b = w % k J.wXwXwXD.= 5 4 @ I p.e.H % * 9 F T.U.j.F : * * A h.j.V.uXC.%.N # : W C.).A.E t -X$X$X+X#X#X#X#X",
"#X#X#X#X+X&X<X^ m p.u.n + o $ k F.0XeX0Xb.5 o $ + X.e.e.n = # # p T %.F : * 8 * 9 F F R C.U.m.A # C m.U.S.4.N t -X$X+X+X#X#X#X#X",
"#X#X+X+X+X&X<X^ ` p.u.b 4 G 5 4  .H.qXi.H = z Z @ I p.e.x - p N s s s s # * * 9 9 : ; N R I.T.A # Z P.I.Q N # r 1X$X+X+X#X#X#X#X",
"#X+X#X+X#X&X<X^ ` p.u.b l Y.-.O y  .i.b y 4 G.G.g I p.e.I i Q g.g.g.g.%.N # a K %.9 8 * : %.*.N # w %.%.s : $ r OX&X$X#X#X#X#X#X",
"#X#X%X+X%X&X<X^ ` s.e.v h K.F.b y H r.h f I F.F.y M e.e.n s A.U.Q.Q.Z.h.A N T m.*.9 * * * N J 9 * 9 D B - D Z t -X$X$X#X#X$X#X#X",
"#X#X%X%X%X&X<X~ x t.u.m h X.t.@.g H @.h l y.t.M h X.i.r.x D R.XXuX X/.k.B B j.U.P.N * * * * * * 9 9 N A A *.K t ,X$X+X#X#X+X#X#X",
"#X#X#X#X+X&X1X~ o H t.t.X.h M r.k x @.h l -.n h q.u.X.l p B ^.XX XuX^.k.d d k.x.h.p ; 9 * * * 9 D *.P.T.T.m.E t =X$X+X%X%X#X#X#X",
"#X#X#X#X+X$X&X*X( 1 n w.t.m m n y x y.h g n b M u.q.H y N %.).XX.X_.l.R L g.Z.W.l.P S F F F A : N %.n.n.n.E w 7 =X$X+X#X%X#X#X%X",
"#X#X#X#X+X%X%X:X,Xr 1 [ t.u.M u g m t.c y h ' u.y.l y p P l._.oX(.l.L s g.C.`..X_.x.l.l.l.l.h.F a ; 9 8 3 t _ ) ;X$X+X#X#X#X%X%X",
"#X#X#X#X+X%X%X&X-X<Xt 1 x w.w.' X.r.y.q.X.q.e.q.l p p E j.x.{.^.l.Y a p %.C. XuXuX_.(._._.[.R.T.%.& X X r <X2X:X&X#X#X#X#X#X%X%X",
"#X#X#X#X#X#X#X%X$X>X>.( f w.d.H.@.I ....q.i.p.X.+ # N h.k.M.^.M.%.: * ; F h.^././././././.^.R.P.K q ;.;.>.>X&X$X%X+X+X@X#X#X#X+X",
"#X#X#X#X#X#X#X$X$X$X4X,.7 O.K.8Xx + 4 @ l y.y...5 * N %.j.k.j.T ; * * * ; F h.k.k.k.k.k.k.j.g.B * _ 2X=X;X$X%X@X%X@X@X#X@X#X#X%X",
"#X#X#X#X+X#X#X#X%X$X;X>.< 7 G [ 5 3 & % 5 G J w 3 & 9 Z D D A 9 * 8 8 8 8 ; Z A A B B B A D Z * . _ 2X$X$X%X@X%X%X#X#X@X#X#X#X%X",
"#X#X#X#X$X#X#X#X%X$X$X:X;.:.(   . > 2 8 $ $ X 0 & 8 & & & * & 8 8 8 8 8 8 8 * * * * * * * & X > _ >.;X$X$X%X%X%X#X%X#X#X#X#X#X#X",
"#X#X#X#X#X#X#X#X%X%X$X$X:X1X=Xr q q 0 0 0 0 0 0 8 8 8 8 8 8 0 0 8 8 0 X 0 0 0 8 0 0 0 0 0 q e / >.>X$X#X#X+X#X#X#X#X#X#X#X#X#X#X",
"#X#X#X#X#X#X#X#X%X@X%X+X%X$X>X>X2X>., . . . X X X 0 8 0 0 0 0 X 8 8 0 0 0 0 0 0 X . . . X >.2X*X:X$X+X@X#X#X#X#X#X#X#X#X#X#X#X#X",
"#X#X#X#X#X#X#X#X%X#X#X+X@X$X$X$X;X>X;.;.;.;.q X X X X X X X X X 8 X X X X X X X r &.;.;.;.=X;X;X$X$X@X#X#X#X#X#X#X#X#X#X#X#X#X#X",
"#X#X#X#X#X#X#X#X%X#X+X+X+X+X+X$X@X;X;X2X2X4X;.e e e e e e e e e q q e e e e , , ;.4X2X<X;X$X$X%X@X@X#X#X#X#X#X#X#X#X#X#X#X#X#X#X",
"#X#X#X#X#X#X#X#X#X#X#X#X+X+X%X%X$X$X$X&X$X;X;X*X*X*X*X*X*X*X*X*X*X*X*X*X*X*X*X*X>X&X&X$X$X+X#X#X%X@X@X%X#X#X#X#X#X#X#X#X#X#X#X#X",
"#X#X#X#X#X#X#X#X#X#X#X#X+X@X%X%X%X@X@X@X$X@X;X;X;X;X;X;X;X;X;X;X;X;X;X;X;X;X;X$X+X+X@X@X%X#X#X#X%X%X#X%X#X%X#X$X#X#X#X#X#X#X+X+X",
"#X%X#X#X#X#X#X#X#X#X#X#X%X%X%X@X%X%X$X@X@X@X@X$X@X;X@X@X$X$X$X$X@X;X$X$X$X$X@X$X+X@X#X#X%X#X#X#X#X%X#X#X+X%X#X#X#X#X#X%X#X#X%X#X",
"#X#X#X#X#X#X#X#X#X#X#X#X#X#X%X+X%X%X@X@X@X@X@X@X@X@X@X@X%X@X@X@X@X@X@X$X@X@X@X@X@X#X#X%X+X#X#X#X%X#X#X%X%X%X%X#X#X#X#X#X#X#X#X#X"
};
