/* XPM */
static char *_e8d6ad87dd04b038275ed036d29d0acifTMqunzZxLaHE3M[] = {
/* columns rows colors chars-per-pixel */
"64 64 244 2 ",
"   c #1D1F1C",
".  c #171C14",
"X  c #1C1B0D",
"o  c #2A190B",
"O  c #341C0C",
"+  c #3C1C0B",
"@  c #381906",
"#  c #2C1A14",
"$  c #251D1D",
"%  c #2B1B1B",
"&  c #281815",
"*  c #331C12",
"=  c #331B1C",
"-  c #3B1B1C",
";  c #371815",
":  c #192316",
">  c #1A301B",
",  c #35220B",
"<  c #21211F",
"1  c #2A2418",
"2  c #34241A",
"3  c #392414",
"4  c #20311F",
"5  c #373A1A",
"6  c #2C280A",
"7  c #221F20",
"8  c #351E20",
"9  c #222121",
"0  c #252B23",
"q  c #3C2522",
"w  c #223322",
"e  c #2A3726",
"r  c #3A3825",
"t  c #451D07",
"y  c #441C1D",
"u  c #4C1C1C",
"i  c #471916",
"p  c #561719",
"a  c #551909",
"s  c #49240A",
"d  c #57280B",
"f  c #472717",
"g  c #572B17",
"h  c #4A3719",
"j  c #5B341B",
"k  c #4D3009",
"l  c #66310E",
"z  c #643314",
"x  c #6B3D1A",
"c  c #66371B",
"v  c #743E1C",
"b  c #622D0D",
"n  c #4A1E21",
"m  c #561E23",
"M  c #681E23",
"N  c #4B2223",
"B  c #482727",
"V  c #522326",
"C  c #592728",
"Z  c #473626",
"A  c #583725",
"S  c #5B393A",
"D  c #453330",
"F  c #682728",
"G  c #75292C",
"H  c #673B25",
"J  c #773726",
"K  c #672D31",
"L  c #7C2C32",
"P  c #732C31",
"I  c #6B3637",
"U  c #7A3236",
"Y  c #773739",
"T  c #60151A",
"R  c #3E411D",
"E  c #37471B",
"W  c #2E491D",
"Q  c #3C4627",
"!  c #3A522B",
"~  c #314A2C",
"^  c #6F411C",
"/  c #45492B",
"(  c #55432C",
")  c #454736",
"_  c #574837",
"`  c #525634",
"'  c #6B432A",
"]  c #794829",
"[  c #78582B",
"{  c #6A4935",
"}  c #774A38",
"|  c #7C543B",
" . c #695434",
".. c #4B6439",
"X. c #54633B",
"o. c #756931",
"O. c #793E41",
"+. c #4C5047",
"@. c #784548",
"#. c #795A48",
"$. c #6C574C",
"%. c #496946",
"&. c #566847",
"*. c #4D7648",
"=. c #5A7649",
"-. c #597754",
";. c #526A54",
":. c #6F724F",
">. c #852D33",
",. c #85393C",
"<. c #8A363A",
"1. c #99383C",
"2. c #83292F",
"3. c #AD363D",
"4. c #A7373B",
"5. c #B1363C",
"6. c #824D2C",
"7. c #89532B",
"8. c #99562F",
"9. c #99582E",
"0. c #845334",
"q. c #8C5534",
"w. c #87593A",
"e. c #935834",
"r. c #9B5A33",
"t. c #955A35",
"y. c #A9483B",
"u. c #956A34",
"i. c #A96338",
"p. c #B8763C",
"a. c #835B1E",
"s. c #8B3D42",
"d. c #853D41",
"f. c #9C3C42",
"g. c #943D42",
"h. c #A33C43",
"j. c #AB3B42",
"k. c #B23D43",
"l. c #8B4749",
"z. c #994347",
"x. c #865A45",
"c. c #995557",
"v. c #8E5153",
"b. c #A5454A",
"n. c #B5454A",
"m. c #AA4C51",
"M. c #B34C53",
"N. c #BD4C53",
"B. c #A85356",
"V. c #B7565A",
"C. c #B7544D",
"Z. c #876646",
"A. c #956649",
"S. c #906E54",
"D. c #A76A43",
"F. c #A77656",
"G. c #B57B56",
"H. c #B0734B",
"J. c #9C5E61",
"K. c #B75B62",
"L. c #AE5C62",
"P. c #907166",
"I. c #A86568",
"U. c #B96569",
"Y. c #AE7172",
"T. c #C34C54",
"R. c #C35659",
"E. c #C04D4B",
"W. c #C8655B",
"Q. c #C35D64",
"!. c #CC5C62",
"~. c #D25C64",
"^. c #D85F67",
"/. c #C76569",
"(. c #D3636A",
"). c #DB636B",
"_. c #D9656C",
"`. c #C96D72",
"'. c #D46D73",
"]. c #DC6D73",
"[. c #D77378",
"{. c #C57075",
"}. c #E66C75",
"|. c #E57379",
" X c #E1686F",
".X c #578A4D",
"XX c #4A9747",
"oX c #479947",
"OX c #499847",
"+X c #4C954A",
"@X c #499849",
"#X c #52934D",
"$X c #578556",
"%X c #5C8C54",
"&X c #5A8956",
"*X c #549352",
"=X c #5A9254",
"-X c #5B9359",
";X c #658959",
":X c #629359",
">X c #658961",
",X c #689364",
"<X c #748B63",
"1X c #9C863C",
"2X c #B38D4F",
"3X c #AE8B6F",
"4X c #9D8755",
"5X c #C98D5B",
"6X c #CA8B63",
"7X c #D48E64",
"8X c #D59366",
"9X c #D38D76",
"0X c #CDA078",
"qX c #E49678",
"wX c #DD7C83",
"eX c #AD938E",
"rX c #BFA493",
"tX c #D68F8E",
"yX c #E68786",
"uX c #E8969A",
"iX c #EA9591",
"pX c #D2AD95",
"aX c #DCB399",
"sX c #D3A98E",
"dX c #E9B496",
"fX c #D5BBAC",
"gX c #F9B6BB",
"hX c #FDB2A9",
"jX c #F29BA1",
"kX c #F8C9AF",
"lX c #D5C6B8",
"zX c #CDCDCD",
"xX c #D7D4CF",
"cX c #FDC6C9",
"vX c #FFDECA",
"bX c #FAD9C5",
"nX c #F8D5D3",
"mX c #F9E5D7",
"MX c #F6E4DA",
"NX c #F9E3CD",
"BX c #FEE8E9",
"VX c #FFF3EA",
"CX c #FDF8F6",
"ZX c #FFEEF0",
/* pixels */
"OXOXOXOXOXOXOXOXOXOXOXOXOXOXXX+XOXOXOXOXOXOXOXOXOX@XOXOXoXXXoXoXoXoXXXOXXXXXOXOXOXOXoXOXOXOXOXOXOXOXOXOX@X@XOXOX@X@XOXOXOXOXOXOX",
"OXOXOXOXOXOXOXOXOXOXOXOXOXOXOXOXOXOXOXOXXXOXOXOXOXOXOXOXXXoXoXoXoXoXoXXXXXXXOXOXXXXXOXOXOXOXOXOXOXOXOXOX@X@XOXOX@X@XOXOXOXOXOXOX",
"XXXXOXOXOXOXOXOXOXOXOXOXOXOXOXOX+XOXOXOXOXOXOXOXOXOXOXOX@XXXoXoXoX@XXXoX@X@XOXOXOXOXOXOXOXOXOXOXOXOXOXXX@X@XOXOXOXOXXX@XOX@XOXOX",
"XXOXOXOXOXOXOXOXOXOXOXOXOXOXOXOXOXOXOXOXOXOXOXOXOXOXOXOXXXXXoXXXXXoXXXoX+XOXOXOXOX@XOXOXOXOXOXOXOXOXOXOX@XOXOXOXOXOXoXoXOXXXXXOX",
"OXOXOXoXOXOXOXOXXXXXOXOXoXoXOXOXOXOXOXOXXXXXOXOXOXOX@X@XOXOX@XXXOXOXXXXXoXOXOXOXOXOXOXOXXXXXXXXXOXOXOXOXOXOXOXOXOXOXOXOXOXOXOXOX",
"OXOXOXOXOXOXOXOXXXXXOXOXoXoXOX+X+X#X+X+XXXXXOXOXOXOX@X@XOXOX@X@XOXOXXXXXOXOXOXOXOXOXOXOXXXXX#X#XXXOXXXOXOXOXOXOXOXOXOXOXOXOXOXOX",
"OXOXOXOXOXOXOXOXOXOXOXOXOXOXOX+X-X.X.X#X+XOXXXOXOXOXOXOXXXXXXX@XXXXXXXXXOXOXOXOXOXOX@XoXXX#X$X$X*X#XXXXXOXOXOXOXOXOX@X@XXX@XOX@X",
"oXOXOXOXOXOXOXOXOXOXOXOXOXOXXX*X;X..=.:X#XOXOXOXOXOXOX+X+X+X+X+X+X+X+X+XXXXXOXOXOX@X@X@X+X:X=.&.,X#X#XXXOXOXOXOXOXOXXXoX@X@XOXOX",
"OXOXXXOXOXOXOXOXOXOXXXXXXXOX+X.X_ P.$.X.-X+XOXOXOXOX+X+X*X-X-X-X-X-X-X=X*X+XOXOXOXOXOX+X=X..#.P.` ;X#X@X+XXXOXOXOXOXOXOXOXOXOXOX",
"OXOXXXOXOXOXOXOXOXXXXXXXXXXX#X=.f Y.$.) :X+X+XOXOX+X+X=X-.=.=.&.=.=.=.&.=.%X#XOXOXOXOX#X-XE #.I.f <X:X+XXXXXXXOXOXOXOXOXOXOXOXOX",
"OXOXOXOXOXOXOXOXOXOXOXOXXX+X:X:.H Y.@./ :X+XXXOXXX#X-X<X( 3 n u f i f f ( <X%X+XXXOXXX#X=XR v.I.C :.:X#X+X@XOXOXOX@XXXOXOXOXoX@X",
"OXOXOXOXOXOXOXOXOXOXOXOXXX#X..A l.{.l.S ;X#X#XXX+X:X:.( Y s.s.s.s.s.d.d.} _ -.-X#XXX#X#X<XZ l.`.v.I ..=X+XoXOXOXOXOXOXOXOXOXOXOX",
"OXOXOXOXOXOXOXOXOXOXOXOXXX=X/ g v.'.K.x.:.;X.X#X%X:.$.G g.N.Q.Q.K.R.R.M.g.F  .:..X#X#X;X:.x.K.'.m.g Q -X+XXXXXOXoXOXOXOXOXOXOXOX",
"OXOXOXOXOXOXOXOXOXOXOXOXXX:X/ B y./.[.Y.S &.,X,X;Xr I z.k.!.wXwXyXwX].!.k.h.S Z <X:X,X&.A Y.[.~.z.C / -X+XOXOXOXoXOXOXOXOXOXOXOX",
"OXOXOXOXOXOXOXOXXXOXOXXX#X:X/ + C g./.U.C q _ ` r - L m.(.'.wXcXnXcXwXwX(.m.K - D +._ f F U.!.k.h.g / -XXXOXoXoXOXOXOXOXXXOXOXOX",
"OXOXOXOXOXOXOXOXOXOXOX#X#X=.:.#.} J m.`.z.@.I S B i 2.M.wXuXgXBXCXBXgXuX].M.P y N A O.O.m.'.R.4.z.A / -X#XXXoXOXOXOXOXOX@XOXOXOX",
"OXOXOXOXOXOXOXOXOXOXOX#X.X/ 3XfX3XA <.'.[.[./.B.I p L M.wXgXBXZXZXZXBXgXwXM.M p U L./.]. X XN.h.s.N ! :XXXOXOXOXOXOXOXOXOXOXOXOX",
"OXOXOXOXOXOXOXOX@X@XOX=X%.` lXmXfXS F M.].(.n.b.P p 2.M.`.gXZXZXZXZXBXgX'.k.P p >.k.k.^.).n.j.g.F # ! -XXXXXOXOXOXOXOXOXOXOXOXOX",
"OXOXOXOXOXOXOXOX@X@XoX=X%.%.xXCXzXS F z.T.T.3.4.L p 2.N.].jXcXBXZXBXcXuX'.k.G p >.f.j.T.T.k.j.<.y X ! -XXXXXXXXXOXOXOXOXOXOXOXOX",
"OXOXOXOXOXOXOXOX@X@X@X:X%.+.xXCXzXS V s.h.j.4.f.L T >.k._.wXtXnXBXnXwXwXwXk.2.T >.f.h.j.h.f.s.Y n   ! ,X:X#X#XXXOXOXOXOXOXOXOXOX",
"OXOXOXOXOXOXOXOXoX+X=XX.e +.xXCXzXS - C ,.f.g.G M >.4.k.N.~.wXuXuXuXwX!.k.k.h.2.M G f.h.,.F m N # & 6 X...*.#XXXXXOXOXOXOXOXOXOX",
"OXOXOXOXOXOXOX+XoX#X;XX.0 ;.xXCXzX) & 8 K U 2.M G f.j.3.3.N.'.iXuXtX(.N.3.3.j.1.L M L L K ; o * f h h ( ( X.:X#XXXOXOXOXOXOXOXOX",
"OXOXOXOXOXOXOX#X=Xo. .3X{ +.xXCXzX+.$ % 8 y p <.h.j.3.3.5.4.U.cXBXcXK.h.3.3.j.h.h.2.T n 2 1 6 R [ q.t.3X0X3X..=.:XXXOXOXOXOXOXOX",
"OXOXOXOXOXOXOX#X=.:.A.F.A $.xXCXzXD & 7 ; n >.M.T.3.4.3.3.1.U.nXZXcXM.h.j.4.3.j.R.M.P n # 6  .o.9.p.8XhXkXkX4X:..X#XOXOXOXOXOXOX",
"OXOXOXOXOX@X+X.XE S.3X7.c S.xXCXxX$.r 8 u P b.(.~.j.V.V.4.4.V.hXcXhXV.4.b.R.V.j.(.~.y.G y , u.2Xp.p.qXkXvXvXdX:.E .XXXOXOXOXOXOX",
"OXOXOXOXOX+X#X%Xh S.4Xb x.sXMXCXnXrX$.n Y 1.j.^.~.n.jXhXC.1.C.9XiXyXn.4.m.hXiXn.(.(.h.<.I 3 o.1Xa.1X8X8XkXbXdXZ.E =X#XXXOXOXOXOX",
"OXOXOXOXOX@X#X.X5 #.Z.s A.aXMXVXvXpXv.f ,.f.j.^.^.y.qXhXuXU.y.E.C.C.y./.sXhXyXb._.(.j.z.Y i h o.1X2X5X2X2X5X2X[ E =XXXXXOXOXOXOX",
"OXOXOXOXOXOX+X.X5 A _ s A.aXmXVXvXpX#.i P g.M._.^.C.W.yXkX[.4.5.5.4.4.9XkXtXD.<.B.M.<.<.K 3 6 , 1X1X1Xa.a.u.w.k E =X#XXXOXOXOXOX",
"OXOXOXOXOX+X+X%XW 1 1 3 A.aXmXVXvXpXZ.; i O.`.]. X).E.R.qX~.4.5.5.3.4.U.tX} s u g p a a i O , , k k k k [ 4Xj X W =XXX@XOXOXOXOX",
"OXOXOXOXOXOXXX*X>X! X 2 A.aXMXVXvXpX#.* # B l.`.|.}.E.y.W.y.k.R.R.V.y.y.@.3 f x.x.t.x.x.x.Z.w.w.u.a.w.o.o. .6 ..%X#X#XXXOXOXOXOX",
"OXOXOXOXOXOXOX+X-X;.: 2 A.aXMXVXvXpX#.* % % n v.(.(.N.5.5.y.N.Q./.U.B.L - B Z.0X8X8X7X7X7X7X7X7X7X7X7X7Xt.g O =.:XOXXX@XOXOXOXOX",
"OXOXOXOXOXOXOX+X-X%.: 2 A.aXmXVXvXpXZ.* < $ % N U b.4.n.^. XK.P m I I.@.B rXdX8XH.i.i.i.i.i.i.i.i.i.i.i.H.F.h =.:X+XXXOXOXOXOXOX",
"OXOXOXOXOXOXOXXX*X*.. * A.aXNXVXvXpX#.O $ $ $ = y K s.M.wXK.O.8 ; - $.J.P.fXdXG.6.c H x ] 7.] x H c ^ 8.i.G.t.:.;X#X+XOXOXOXXXXX",
"OXOXOXOXOXOXXX#X:X&.1 3 A.pXMXVXvXpXZ.3 2 2 $ 7 = p L b.K.l.B % 8 8 = P.bXsXG.q.g O , O d q.j @ O + s ] 9.r.6XZ.E :X+XOXOXOXXXXX",
"OXOXOXOXOXXX+X.XX. .( 3 S.aXMXVXvXpX#.3 ' Z # # m P M K c.wXeXD V I i x.sXG.] g ; o & # g 0.A # 1 & * s v 8.i.^ R ;X#XXXOXOXXXOX",
"OXOXOXOXOXXX#X.X5 _ { s { 3XMXCXxX3X' s } { = & V s.P K S Y.eXn K @.i } H.i.^ + f r 1 & f | A # & q Z + z e.u.x R :X#XXXOXOXOXOX",
"OXOXOXOX@X@X+X.X5 ' [ s +  .zXBXfX{ O d 6.' * # C g.z.s.T n n n P ,.i H r.r.^ s } { 2 o k | A * o ( #.s z r.t.^ h ;X#XOXOXOXOXOX",
"OXOXXXOX@X@X+X%X5 ' x.] ] { #.$.$.{ { } w.' ; = m g.K.N.s.L L L <.<.i c 9.9.J s A.A.3 @ g | A @ @ #.F.b l e.9.^ Q :X#XOXOXOXOXOX",
"oXXXXXXXoX+X+X.Xr A { ] w.q.j s j w.w.] P K V y T f.^.wXT.k.h.h.h.<.p c 9.9.^ s F.G.j d v u.] d d A.3Xl l e.t.x R &X#X@XoXoXOXOX",
"XXXXOXXXoX+XXX&X5 O s a J q.w.0.q.q.v a p K O.m m s.T.wX^.T.3.j.h.,.u c 9.9.J s H.3Xw.0.D.6XH.q.q.F.3Xl l 8.r.^ 5 ;X#XXXoXOXOXOX",
"XXOXOXOXOXOX+X%Xr @.l.L F g C A g C F U z.V.I.K y m f.Q.wX^.!.Q.l.C i A 9.9.J s w.A.j g v D.] d j #.S.g l e.e.^ / ;X#XoXXXOXOXOX",
"OXOXOXOXOXOX#X%Xr @.Y.B.L i ; o + f >.B./.`.I.K = - K g.!. XwXK.I ; @ A 9.r.' t A ( + d ] i.6.g t f { s z e.9.x R ;X#XXXXXOXOXOX",
"OXOXOXOXOX+X+X%Xr O.B./.B.Y 3 = y Y V./.m.z.l.N % % 8 C g.U.I.C - = ; A 8.9.' O 2 2 3 Z.7X7X7XH.f # 2 , z e.r.^ R ;X+XXXOXOXOXOX",
"OXOXOXOXOXXX+X%Xq n d.M./.z.B & m c.Q.V.U F C y % 7 % = M O.O.= & & O A 9.9.' * o o * x.5X8X6XA.f o o * z 9.t.^ R ;X#XXXOXOXOXOX",
"OXOXOXOXOXXX+X%Xe = n O.L.J.n & V J.L.P n & ; n 8 7 % 8 n p p p n y O A 8.8.H s B h * H t.5XD.H 3 2 Z , z 8.t.^ R ;X#XXXOXOXXXoX",
"OXOXOXOXOX+X+X%Xe 7 8 p O.d.8 % n O.O.- 8 $ 8 S K - = n O.d.d.d.d.U i c 8.r.H s S.S.3 t z w.' t @ #.P.g z 8.r.^ R ;X#XXXOXOXOXXX",
"OXOXOXOXOXOX+X%Xe B V y m V 8 % 8 D n 8 7 % 8 v.c.P n m s.k.!.T.K.B.u H r.r.v s x.A.' s d | A t j A.F.d l t.u.^ E ;X#XOXOXOXOXOX",
"OXOX+XOXOXOX#X%Xq S O.V V V 8 8 8 7 % 8 7 = n c.U.g.m m f.!.}.}.|.Q.C g 7.8.J d J q.w.g d 0.A s 6.u.] d x q.0.j Q ;X+XXXOXOXOXOX",
"OXOXOXOXOX+X+X&Xr I c.I.Y.J.@.B 8 = = 8 8 ; u s.h.g.M m g.~.wX}.}./.F ; g 0.e.6.d c 0.j d | A s 0.v d ] 7.q.j 6 W -X+X+XXXXXXXXX",
"OXOXOXOXoX+X+X-X5 2 I v.v.v.O.n 8 B m C C m P f.T.N.s.M L h.~.}.|./.L u t j ] t.v z H s d w.j t c c l q.0.' , Q -.=X+XXXXX@XXXoX",
"@X@XOXOXOXOX+X*X! ~ r q % 8 % - C s.z.h.h.h.k.(.wX_.M.2.p F b.(.}.(.m.G u + g 0.t.] d t b q.H t a x t.q.A , r -.=X+X@X@XoXXXoX@X",
"@X@XOXOXOXOXoX#X-X,X-.e .     O.I./.'.^.).^.].}.}.}.M.O.- n K h.(._.k.s.P y - g 6.8.] ] 6.w.[ ] ] 7.q.z 6 r >X-X+X@X@XXXOXoXXXXX",
"OXOXOXOXOXoXOX@X+X*X*X*.%.%.0 O.J.K.!.~.~.~.~.~.~.!.s.C 8 8 y K b.Q.j.h.d.n # + ] r.t.0.' ' ' | i.D.6.s Q $X-X+X+XXXOXOXOXOXOXOX",
"OXOXOXOXoXoXOXOX@XoX+X*X-X,XQ $ m O.z.g.g.f.f.f.f.s.m % 7 7 8 - K l.g.s.O.N & 2 ' q.0.g + , O j 2XF.} 5 =.-X+X+X@X@XOXOXOXOXOXOX",
"OXOXOXOXOXOXOXOX@X@X+X+X+X,X~ . = B m n m V n m m n 8 8 7 7 7 % 8 V V V B 8 $ % 5 Z Z - & $ $ 0 S A r 6 =.*X+XOX@XOXXXXXOXOXOXOX",
"OXOXOXOXOXOXOXXXXXXX@X+X+X-X-.e . $ 7 8 7 8 8 7 7 % 7 7 7 7 7 7 7 % % 7 $ $ $ $ % & & $ 7       X Q %.%.*X+X+XXXOXOXXXOXOXOXOXOX",
"OXOXOXOXOXOXOXOXXXoXXXoXXXXX-X-.e e 0 9 9 9 9 9   9 9 9 9 9   9 7 7 7 7 7 $   9   9 9 9 9 9 w e ~ &X-X=X#XXXOXOXOXOXOXOX@XOXOXOX",
"OXOXOXOX@XOXOXOXoXXXOXOXOXXX+X*X&X>X;.: . : .   9 9 9 9 9 9 9 9 9 9 7 7 9 9 9 9     : . . : ;.>X$X=X+XXXOXOXOXOXOXOXOXOXOXOXOXOX",
"OXOXOXOXOXOXOXOXXXoXXXOXoXOXOX@X+X*X$X%.%.%.+.e                 7               : e +.%.%.%.-X*X*X+X+XOXOXXXOXOXOXOXOXOXOXOXOXOX",
"OXOXOXOXOXOXOXOXoXXXoXXXoXoXOXOXoX+X+X=X-X-X,X%.> w 4 4 w > w w w w w w w w w w > ;.,X>X-X-X*X@X@X@XOXOXXXXXOXOXOXOXOXOXOXOXOXOX",
"@XOXOXOXOXOXOXOXXXXXOXOXOXOXOXOXXXXXXXXX+X+X*X=X$X$X$X$X$X$X$X$X$X$X$X$X$X$X$X$X&X*X*X+X+XXXXXXX@XXXXXXXOXOXOXOXOXOXOXOXOXOXOX@X",
"OXOXOXOXOXOXOXOX+XXXOX@XOXOXOXOXXXoX@X@XXX@X@X+X#X#X*X+X*X*X*X#X*X#X*X#X*X*X*X#X+X#X+X@XXXOXOXXXXX@XXXXXOXOXOXOXOXOXOXOXOXOXOXOX",
"OXOXOXOXOXOXOXOXoXOX@X@XOXOX@XOXXXXX@X@XXXXX@X@XoX#X@X@X+X+X+X+X@X+X+X+X+X+XoX+X@X+XOXOXXXXXXXoXXX@XoX@XOXOXOXOXOXOXOXOXOXOXOXOX",
"OXOXOXOXOXOXOXOXOXOX@X@XOXOXOXOX@XoXXXXXXXXXoXoXoXoX@XoX@X@X@XoXoXoXoX+XoXoXoXoXoXoXOXOXXXXXoXXXoXoXXXXXOXOXOXOXOXOXOXOXOXOXOXOX"
};
