/* XPM */
static char *_e8c0b26d0d64c39e92996852426fd06QVUAeWlJupCUcnGk[] = {
/* columns rows colors chars-per-pixel */
"64 64 220 2 ",
"   c #030400",
".  c #0A0300",
"X  c #000900",
"o  c #110200",
"O  c #180F00",
"+  c #150E00",
"@  c #031100",
"#  c #051A00",
"$  c #0A1C01",
"%  c #250000",
"&  c #210E00",
"*  c #370000",
"=  c #221F00",
"-  c #241A02",
";  c #012201",
":  c #0D2302",
">  c #052B01",
",  c #0B250B",
"<  c #0D2B0C",
"1  c #092E03",
"2  c #142501",
"3  c #1C2402",
"4  c #162807",
"5  c #143E12",
"6  c #0C320B",
"7  c #232604",
"8  c #2C2000",
"9  c #2B2B00",
"0  c #262809",
"q  c #322200",
"w  c #3D2C00",
"e  c #362C00",
"r  c #253109",
"t  c #233005",
"y  c #333100",
"u  c #383D00",
"i  c #2C2314",
"p  c #333E1B",
"a  c #383F15",
"s  c #283819",
"d  c #410200",
"f  c #490F00",
"g  c #4F0100",
"h  c #441B00",
"j  c #5A1A00",
"k  c #5C0A00",
"l  c #6B180A",
"z  c #422C01",
"x  c #443300",
"c  c #5C3900",
"v  c #642300",
"b  c #623D00",
"n  c #772917",
"m  c #763807",
"M  c #493E2A",
"N  c #164115",
"B  c #184118",
"V  c #3E4001",
"C  c #274215",
"Z  c #3D7B3A",
"A  c #535119",
"S  c #5C5617",
"D  c #54420B",
"F  c #644800",
"G  c #664B05",
"H  c #6C5903",
"J  c #695405",
"K  c #715700",
"L  c #715C05",
"P  c #6D5A15",
"I  c #685816",
"U  c #5D631D",
"Y  c #7C6406",
"T  c #6D6A1C",
"R  c #6A6515",
"E  c #6A781C",
"W  c #726B1A",
"Q  c #564838",
"!  c #5A4F22",
"~  c #635A22",
"^  c #4E6C2D",
"/  c #447C3C",
"(  c #4C7E3C",
")  c #46763A",
"_  c #537739",
"`  c #547330",
"'  c #687D2C",
"]  c #707B2B",
"[  c #706C2A",
"{  c #497E41",
"}  c #467E40",
"|  c #517C46",
" . c #537D4D",
".. c #9C1C1B",
"X. c #A31E1B",
"o. c #95261B",
"O. c #A12E17",
"+. c #B32A1A",
"@. c #AB3415",
"#. c #B3380D",
"$. c #B32C26",
"%. c #AE302C",
"&. c #C13D3B",
"*. c #995907",
"=. c #995315",
"-. c #A84C0B",
";. c #8D6D00",
":. c #856B08",
">. c #916E00",
",. c #906700",
"<. c #8F7307",
"1. c #927102",
"2. c #987806",
"3. c #8A7113",
"4. c #907511",
"5. c #AB6E08",
"6. c #A37E00",
"7. c #A97E00",
"8. c #B07307",
"9. c #967D3B",
"0. c #CD4C06",
"q. c #C94F4E",
"w. c #5C8C3D",
"e. c #52813B",
"r. c #5C913D",
"t. c #46853F",
"y. c #688936",
"u. c #61913B",
"i. c #458342",
"p. c #4C8242",
"a. c #4E8148",
"s. c #518245",
"d. c #5D8846",
"f. c #4A9646",
"g. c #479946",
"h. c #499847",
"j. c #4C964A",
"k. c #4B994A",
"l. c #479646",
"z. c #519542",
"x. c #52944E",
"c. c #58904F",
"v. c #51994D",
"b. c #5E9542",
"n. c #549552",
"m. c #539A52",
"M. c #5C9A57",
"N. c #5C9A5A",
"B. c #589657",
"V. c #62935B",
"C. c #649759",
"Z. c #659564",
"A. c #94831C",
"S. c #AA8400",
"D. c #A38102",
"F. c #B29516",
"G. c #BCA11E",
"H. c #988722",
"J. c #BB9324",
"K. c #B4A236",
"L. c #C29F0D",
"P. c #C69C11",
"I. c #D7AB0E",
"U. c #DDB20C",
"Y. c #DCB103",
"T. c #C4A11B",
"R. c #D4AB12",
"E. c #D9AC17",
"W. c #DDB419",
"Q. c #E4B70D",
"!. c #E9B909",
"~. c #E5B917",
"^. c #F1BF10",
"/. c #CC9D2F",
"(. c #D7B227",
"). c #C5AC35",
"_. c #E4BB23",
"`. c #EBB829",
"'. c #F7C508",
"]. c #F9C915",
"[. c #FACB1B",
"{. c #EAC22D",
"}. c #F2C624",
"|. c #FFC22C",
" X c #F5CB2B",
".X c #F8CB28",
"XX c #FED025",
"oX c #EEC838",
"OX c #F0C731",
"+X c #F2CA34",
"@X c #FACD35",
"#X c #F5D13C",
"$X c #A28846",
"%X c #CEB04D",
"&X c #E2BF41",
"*X c #EACC4B",
"=X c #F3CC43",
"-X c #EFD044",
";X c #E8CB56",
":X c #F3D155",
">X c #F2D775",
",X c #F4D569",
"<X c #ABA2A3",
"1X c #C3BDA3",
"2X c #EFBFBF",
"3X c #F1CC90",
"4X c #E6DBB8",
"5X c #FFCCAA",
"6X c #F7E6A1",
"7X c #DDD9D0",
"8X c #FFC7C2",
"9X c #F0D9CE",
"0X c #FFFCC6",
"qX c #FFFEDD",
"wX c #FFFFD6",
"eX c #E5E1D6",
"rX c #FFFFED",
"tX c #FFFBE3",
"yX c #FFFFF6",
"uX c #FFEBEA",
/* pixels */
"h.h.h.h.h.h.h.h.h.h.h.h.h.h.h.h.h.h.h.h.h.h.h.h.h.h.h.h.h.h.h.h.h.h.h.h.h.h.h.h.h.h.h.h.h.h.h.h.h.h.h.h.h.h.h.h.h.h.h.h.h.h.h.h.",
"h.h.h.h.h.h.h.h.h.h.h.h.h.h.h.h.h.h.h.h.h.h.h.h.h.h.h.h.h.h.h.h.h.h.h.h.h.h.h.h.h.h.h.h.h.h.h.h.h.h.h.h.h.h.h.h.h.h.h.h.h.h.h.h.",
"h.h.h.h.h.h.h.h.h.h.h.h.h.h.h.h.h.h.h.h.h.h.h.h.h.h.h.h.h.h.h.h.h.h.h.h.h.h.h.h.h.h.h.h.h.h.h.h.h.h.h.h.h.h.h.h.h.h.h.h.h.h.h.h.",
"h.h.h.h.h.h.h.h.h.h.h.h.h.h.h.h.h.h.h.h.h.h.h.h.h.h.h.h.h.h.h.h.h.h.h.h.h.h.h.h.h.h.h.h.h.h.h.h.h.h.h.h.h.k.l.h.h.h.h.h.h.h.h.h.",
"h.h.h.h.h.h.h.h.h.h.h.h.h.h.h.h.h.h.h.h.h.h.h.h.h.h.h.h.h.h.h.h.h.h.h.h.h.k.h.h.h.h.k.h.h.h.h.h.h.h.h.h.h.h.h.h.h.h.h.h.h.h.h.h.",
"h.h.h.h.h.h.h.h.h.h.h.h.h.h.h.h.h.h.h.h.h.h.h.h.h.h.h.k.h.h.h.h.h.h.h.h.h.h.h.h.h.h.g.h.h.h.h.h.h.h.h.h.h.h.h.h.h.h.h.h.h.h.h.h.",
"h.h.h.h.h.h.h.h.h.h.h.h.h.h.h.h.h.h.h.h.h.h.h.h.h.h.h.l.h.h.h.h.h.h.h.h.h.h.h.h.h.h.h.h.h.h.h.h.h.h.h.h.h.h.h.h.l.k.h.h.h.h.h.h.",
"h.h.h.h.h.h.h.h.h.h.h.h.h.h.h.h.h.h.h.h.h.h.h.h.h.h.h.h.h.h.h.h.h.h.h.h.h.h.h.h.h.h.h.h.h.h.h.h.h.h.h.h.h.h.h.h.h.h.h.h.h.h.h.h.",
"h.h.h.h.h.h.h.h.h.h.h.h.h.h.h.h.k.h.h.h.h.h.h.h.h.h.h.h.h.h.h.h.h.h.h.h.h.h.h.h.h.h.h.h.h.h.h.h.h.h.h.h.h.h.h.h.g.h.h.h.h.h.h.h.",
"h.h.h.h.h.h.h.h.h.h.h.h.h.h.h.h.h.h.h.h.h.h.h.h.h.h.h.h.h.h.h.h.h.h.h.h.h.h.h.h.h.h.h.h.h.h.h.h.h.h.h.h.h.h.h.h.h.h.h.h.h.h.h.h.",
"h.h.h.h.h.h.h.h.h.h.h.h.h.h.h.h.h.h.h.h.h.h.h.h.h.h.h.h.h.h.h.h.h.h.h.h.h.h.h.h.h.h.h.h.h.h.h.h.h.h.h.h.h.h.h.h.h.h.h.h.h.h.h.h.",
"h.h.h.h.h.h.h.h.h.h.h.h.h.h.h.h.h.h.h.h.h.h.h.h.h.h.h.h.h.h.h.h.h.h.h.h.h.h.h.h.h.h.h.h.h.h.h.h.h.h.h.h.h.h.h.h.h.h.h.h.h.h.h.h.",
"h.h.h.h.h.h.h.h.h.h.h.h.h.h.h.h.h.h.h.h.l.h.h.h.h.h.h.h.h.h.h.h.h.h.h.h.h.h.h.h.h.h.h.h.h.h.h.h.h.h.k.g.h.h.h.h.h.h.h.h.h.h.h.h.",
"h.h.h.h.h.h.h.h.h.h.h.h.h.h.h.h.h.h.h.h.l.h.h.h.h.h.h.h.h.h.h.h.h.h.h.h.h.h.h.h.l.h.h.h.h.h.h.h.h.h.h.h.h.h.h.h.h.h.h.h.h.h.h.h.",
"h.h.h.h.h.h.h.h.h.h.h.h.h.h.h.h.h.h.h.h.k.h.h.h.h.h.h.h.h.h.h.h.h.h.h.h.h.h.h.h.k.h.h.h.h.h.h.h.h.h.h.h.h.h.h.h.h.h.h.h.h.h.h.h.",
"h.h.h.h.h.h.h.h.h.h.h.h.h.h.h.h.h.h.h.h.h.h.h.h.h.h.h.h.h.h.h.h.h.h.h.h.h.h.h.h.h.h.h.h.h.h.h.h.h.h.h.h.h.h.h.h.h.h.h.h.h.k.l.h.",
"h.h.h.h.h.h.h.h.h.h.h.h.h.h.h.h.h.h.f.h.h.h.h.f.h.h.h.h.h.h.h.h.h.h.h.h.h.h.h.h.h.h.f.f.h.g.h.h.h.h.h.h.h.h.h.h.h.h.j.h.h.h.h.h.",
"h.h.h.h.h.h.h.h.h.h.h.h.h.h.h.h.h.h.f.f.f.f.f.f.h.h.h.h.h.h.h.h.h.h.h.h.h.h.h.h.f.f.f.f.h.h.f.f.h.h.h.h.h.h.h.h.h.h.f.f.h.h.h.h.",
"h.h.h.h.h.h.h.h.h.h.h.h.h.h.h.h.h.h.h.f.z.f.v.v.f.h.h.h.h.h.h.h.h.h.h.h.h.h.h.h.k.v.f.f.h.h.f.f.h.h.h.h.h.h.h.h.h.h.h.h.h.h.h.h.",
"h.h.h.h.h.h.h.h.h.h.h.h.h.h.h.h.h.h.f.f.r.w./ Z j.h.h.h.h.h.h.h.h.h.h.h.h.h.f.j.Z / w.w.z.f.f.f.h.h.h.h.h.h.h.h.h.h.h.h.h.h.h.h.",
"h.h.h.h.h.h.h.h.h.h.h.h.h.h.h.h.h.f.f.w.] ] @ @ i.v.h.h.f.f.f.f.h.h.f.h.h.h.g.n.; X U y.u.r.l.f.k.g.h.h.h.h.h.h.h.h.h.h.h.h.h.h.",
"h.h.h.h.h.h.h.h.h.h.h.h.h.h.h.h.f.z.r.y.T I r 1 i.k.j.h.f.f.f.f.h.f.f.f.f.f.h.v.N 2 I R y.w.f.f.h.h.h.h.h.h.h.h.h.h.h.h.h.h.h.h.",
"h.h.h.h.h.h.h.h.h.h.h.h.h.h.h.h.v.b.' T w 9 d.B.j.j.v.v.v.v.v.z.f.f.v.v.m.m.f.f.x.V.a q R E r.v.j.f.f.f.h.h.h.h.h.h.h.h.h.h.h.h.",
"h.h.h.h.h.h.h.h.h.h.h.h.h.h.h.j.t.` A.H.x 3 p.k.h.j.i.) ( ( w.d.y.u.e.( ) ) f.h.f.c.s - 3.H.' t.j.f.f.f.h.h.h.h.h.h.h.h.h.h.h.h.",
"h.h.h.h.h.h.h.h.h.h.h.h.h.h.h.c.C 8 ).;X8 X p.v.v.N.# X 3 0 S T T T e 3   X p.N.f.c.$ . ).;XD 4 p.v.f.f.h.h.h.h.h.h.h.h.h.h.h.h.",
"h.h.h.h.h.h.h.h.h.h.h.h.h.h.h.c.C z %X>Xq X { v./ ) t - c G 9.$X$X$XP b x y ^ / j.B.,   %X>Xc 0 s.v.j.f.h.h.h.h.h.h.h.h.h.h.h.h.",
"h.h.h.h.h.h.h.h.h.h.h.h.h.h.h.c.p 0 4XtXi X a.C.# X I 3.&X;X0XqXtX0X,X@X+X*X= X e.C.#   4XwXQ 3 s.v.f.f.h.h.h.h.h.h.h.h.h.h.h.h.",
"h.h.h.h.h.h.h.h.h.h.h.h.h.h.h.c.p i 7XrX! 9 ^ _ V z <.6.P./.3X8X8X5X%XP.].}.F y ^ _ u e 7XrXQ 3 s.v.f.f.h.h.h.h.h.h.h.h.h.h.h.h.",
"h.h.h.h.k.h.h.h.h.h.h.h.h.h.h.c.p i eXwX,X;X= . ).#X X=Xb f o.%.$.o.j h E.XX.X*X- . ).;X0XrXQ 0 s.v.f.f.h.h.h.g.h.h.h.h.h.h.h.h.",
"h.h.h.h.h.h.h.h.h.h.h.h.h.h.h.c.s - 1X6XoX{.F z I.].I./.m l o...q.q.n v J.T.^.}.F z I.+X3X4XM 2 p.v.f.f.h.h.h.h.h.k.l.h.h.h.h.h.",
"h.h.h.h.h.h.h.h.h.h.h.h.h.h.h.n.$   ~ 3._.[. X X].}.c f O.%.d % 9XuXq.%.j h I.]. X@X].}.A.[ + X } m.f.f.h.h.g.h.h.h.h.h.h.h.h.h.",
"h.h.h.h.h.h.h.h.h.h.h.h.h.h.h.n.5 2 A H T.W.U.Y.'.}.J v +.$.* . <X2X%.+.n c E.].Y.U.U.(.Y I t > i.k.h.h.f.g.f.h.h.h.h.h.h.h.h.h.",
"h.h.h.h.h.h.h.h.h.h.h.h.h.h.h.j.n.V.#   L ;.;.>.~..X2.=.#.$.* o o % X.#.=.,.~..X6.:.;.3.+ X | N.j.h.h.h.h.h.h.h.h.h.h.h.h.h.h.h.",
"h.h.h.h.h.h.h.h.h.h.h.h.h.h.h.h.l.n.5 2 A I I K T.W.S.8.-.@.k * d g O.#.5.7.E.(.Y J I I r > p.k.h.h.h.h.h.h.h.h.h.h.h.h.h.h.h.h.",
"h.h.h.h.h.h.h.h.h.h.h.h.h.h.h.h.f.f.n.V.#     . L 1._.#X5.-.@.+.$.@.-.*.`.@X6.:.O       { N.j.f.h.h.h.h.h.h.h.h.h.h.h.h.h.h.h.h.",
"h.h.h.h.h.h.h.h.h.h.h.h.h.h.h.h.h.f.h.j.B , < 2 A K T.~.S.8.0.0.0.0.5.7.R.(.L S r , < 6 i.j.f.f.h.h.h.h.h.h.h.h.h.h.h.h.h.h.h.h.",
"h.h.h.h.h.h.h.h.h.h.h.h.h.h.h.h.h.h.h.f.n.B.n.V.$   L 1.OX@X|.|.|.|..X#X6.:.+    .N.B.B.j.h.h.h.h.h.h.h.h.h.h.h.h.h.h.h.h.h.h.h.",
"h.h.h.h.h.h.h.h.h.h.h.h.h.h.h.h.h.h.h.h.g.h.f.x.B 2 A H H.P.R.Q.U.U.L.J.Y S r 1 i.k.l.l.h.l.h.h.h.h.h.h.h.h.h.h.h.h.h.h.h.h.h.h.",
"h.h.h.h.h.h.h.h.h.h.h.h.h.h.h.h.h.h.h.h.h.h.j.x.n.Z.$   . o K ;.:.:.& .   X  .N.j.h.h.h.h.h.g.g.h.h.h.h.h.h.h.h.h.h.h.h.h.h.h.h.",
"h.h.h.h.h.h.h.h.h.h.h.h.h.h.h.h.h.h.h.h.h.j./ Z f.n.5 < X   P <.D.4.-   < 6 i.k.h.h.h.h.h.h.g.g.h.h.h.h.h.h.h.h.h.h.h.h.h.h.h.h.",
"h.h.k.g.h.h.h.h.h.h.h.h.h.h.h.h.h.h.h.h.g.x.; @ { c.M.Z., . P >._.*Xq    .C.j.h.h.h.h.h.h.h.h.h.h.h.h.h.h.h.h.h.h.h.h.h.h.h.h.h.",
"h.h.h.h.h.h.h.h.h.h.h.h.h.h.h.h.h.h.h.h.f.x., X | b.) ) $ . P 1.Q.+Xq X t.k.f.h.h.h.h.h.k.k.h.h.h.h.h.h.h.h.h.h.h.h.h.h.h.h.h.h.",
"h.h.h.h.h.h.h.h.h.h.h.h.h.h.h.h.g.h.h.h.h.n.;   U ] @ X   . J ,.Q.+Xq   { k.f.h.h.h.h.h.h.h.h.h.h.h.h.h.h.h.h.h.h.h.h.h.h.h.h.h.",
"h.h.h.h.h.h.h.h.h.h.h.h.h.h.h.h.f.h.h.h.h.m.B : A I x w w z <.7.!.+Xq X } k.f.h.h.h.h.h.h.h.h.h.h.h.h.h.h.h.h.h.h.h.h.h.h.h.h.h.",
"h.h.h.h.h.h.h.h.h.h.h.h.h.h.h.h.h.g.h.h.h.f.n.C.# . %X:X#X#X X[.'.+Xq   { v.f.h.h.h.h.h.h.h.h.j.h.h.h.h.h.h.h.h.h.h.h.h.h.h.h.h.",
"h.h.h.h.h.h.h.h.h.h.h.h.h.h.h.h.g.h.h.h.f.h.f.v.5 2 H.G.F.F.R.Q.'.OXq X p.v.f.h.h.h.h.h.h.h.j.f.h.h.h.h.h.h.h.h.h.h.h.h.h.h.h.h.",
"h.h.h.h.h.h.h.h.h.h.h.h.h.h.h.h.h.h.h.h.h.h.f.f.v.V.$ . . + K >.Q.OX- X { m.h.h.h.h.h.h.h.h.h.h.h.h.h.h.h.h.h.h.h.h.h.h.h.h.h.h.",
"h.h.h.h.h.h.h.h.h.h.h.h.h.h.h.h.h.h.h.h.h.h.h.f.l.m.B , X   P ;.~.oXq X } k.g.h.h.h.h.h.h.h.h.h.h.h.h.h.h.h.h.h.h.h.h.h.h.h.h.h.",
"h.h.h.h.h.h.h.h.h.h.h.h.h.h.h.h.h.h.h.h.h.h.h.h.h.k.n.Z.#   I 4._.-X8   } k.h.h.h.h.h.h.h.h.h.h.h.h.h.h.h.h.h.h.h.h.h.h.h.h.h.h.",
"h.h.h.h.h.h.h.h.h.h.h.h.h.h.h.h.h.h.h.h.h.h.h.h.h.h.g.j.5 : A H F.K.u > i.k.h.h.h.h.h.h.h.h.h.h.h.h.h.h.h.h.h.h.h.h.h.h.h.h.h.h.",
"h.h.h.h.h.h.h.h.h.h.h.h.h.h.h.h.h.h.h.h.h.h.h.k.h.h.h.l.m.B.#       ( N.j.h.f.f.h.h.h.h.h.h.h.h.h.h.h.h.h.h.h.h.h.h.h.h.h.h.h.h.",
"h.h.h.h.h.h.h.h.h.h.h.h.h.h.h.h.h.h.h.h.h.h.k.h.h.k.j.l.g.j.N , < 1 i.k.h.h.f.f.h.h.h.h.h.h.h.h.h.h.h.h.h.h.h.h.h.h.h.h.h.h.h.h.",
"h.h.h.h.h.h.h.h.h.h.h.h.h.h.h.h.h.h.h.h.h.h.h.h.h.h.h.h.h.l.m.B.B.m.j.h.h.h.h.h.h.h.k.g.k.g.l.k.h.h.h.h.h.h.h.h.h.h.h.h.h.h.h.h.",
"h.h.h.h.h.h.h.h.h.h.h.h.h.h.h.h.h.h.h.h.h.h.h.h.h.h.h.h.h.k.h.g.g.g.h.h.h.h.h.h.h.h.k.l.g.k.k.l.h.h.h.h.h.h.h.h.h.h.h.h.h.h.h.h.",
"h.h.h.h.h.k.h.h.h.h.h.h.k.h.h.h.h.h.h.h.h.h.h.h.g.g.k.h.h.g.h.h.h.h.h.h.h.h.g.h.g.k.l.k.h.h.h.h.h.h.h.h.h.h.h.h.h.h.h.h.h.h.h.h.",
"h.h.h.h.h.l.h.h.h.h.h.h.g.h.h.h.h.h.h.h.h.h.h.h.g.g.h.h.h.h.h.h.h.h.h.h.f.g.g.h.h.l.g.k.h.h.h.h.h.h.h.h.h.h.h.h.h.h.h.h.h.h.h.k.",
"h.h.h.h.h.h.h.h.h.h.h.h.h.h.h.h.h.h.h.h.h.h.h.h.h.h.h.h.h.h.h.h.h.h.h.h.h.h.h.h.g.g.k.h.h.h.h.h.h.h.h.h.h.h.h.h.h.h.h.h.h.h.h.h.",
"h.h.h.h.h.h.h.h.h.h.h.h.h.h.h.h.h.h.h.h.h.h.h.h.h.h.h.h.h.h.h.h.h.h.h.h.h.h.h.h.h.h.h.h.h.h.h.h.h.h.h.h.k.h.h.h.h.h.h.h.h.h.h.h.",
"h.h.h.h.h.h.h.h.h.h.h.h.h.h.h.h.f.f.h.h.h.h.h.h.h.h.h.h.h.g.h.h.h.h.h.h.h.h.h.h.h.h.h.h.h.h.h.h.h.h.h.h.h.h.h.h.h.h.h.h.h.h.h.h.",
"h.h.h.h.h.h.h.h.h.h.h.h.h.h.h.h.h.f.h.h.h.h.h.h.h.h.h.h.g.g.h.h.h.h.h.h.h.f.g.g.h.h.h.h.h.h.h.h.h.h.h.h.h.h.h.h.h.h.h.h.h.h.h.h.",
"h.h.h.h.h.h.h.h.h.h.h.h.h.h.h.h.h.h.h.h.h.h.h.h.h.h.h.h.h.h.h.h.h.h.h.h.h.g.h.h.h.h.h.h.g.h.h.h.h.h.h.h.h.h.h.h.h.h.h.h.h.h.h.h.",
"h.h.h.h.h.h.h.h.h.h.h.h.h.h.h.h.h.h.h.h.h.h.h.h.h.h.h.h.h.h.h.h.h.h.h.h.h.g.h.h.h.h.h.h.g.h.h.h.h.h.h.h.h.h.h.h.h.h.h.h.h.h.h.h.",
"h.h.h.h.k.h.h.h.h.h.h.h.h.h.h.h.h.f.h.h.h.f.h.h.h.h.h.h.h.h.h.h.h.h.g.h.h.h.h.h.l.k.h.h.f.h.h.h.h.h.h.h.h.h.h.h.h.h.h.h.h.h.h.h.",
"h.h.h.h.l.h.h.h.h.h.h.h.h.h.h.h.f.f.h.h.h.f.h.h.h.h.h.h.h.h.h.h.h.h.g.g.h.h.h.h.h.h.h.h.h.h.h.h.h.h.h.h.h.h.h.h.h.h.h.h.h.h.h.h."
};
