/* XPM */
static char *a2V5Mg__[] = {
/* columns rows colors chars-per-pixel */
"64 64 211 2 ",
"   c #030400",
".  c #0A0300",
"X  c #000A00",
"o  c #110200",
"O  c #160E00",
"+  c #180F00",
"@  c #071701",
"#  c #051A00",
"$  c #250000",
"%  c #210F00",
"&  c #370000",
"*  c #221D00",
"=  c #251C02",
"-  c #012201",
";  c #0C2203",
":  c #062B01",
">  c #082E04",
",  c #0B250B",
"<  c #0F2A0D",
"1  c #132401",
"2  c #1C2201",
"3  c #192707",
"4  c #0C320A",
"5  c #143E13",
"6  c #232604",
"7  c #282707",
"8  c #2B2B00",
"9  c #322300",
"0  c #362C00",
"q  c #3D2C00",
"w  c #243108",
"e  c #333100",
"r  c #373D00",
"t  c #2C2314",
"y  c #283818",
"u  c #333E1C",
"i  c #410200",
"p  c #4F0100",
"a  c #490F00",
"s  c #5C0A00",
"d  c #441B00",
"f  c #5B1A00",
"g  c #6B170A",
"h  c #422C01",
"j  c #443300",
"k  c #5C3900",
"l  c #642300",
"z  c #6C3B03",
"x  c #782917",
"c  c #164115",
"v  c #184117",
"b  c #3D4001",
"n  c #274215",
"m  c #3C7B3A",
"M  c #54420A",
"N  c #535117",
"B  c #5E5716",
"V  c #545119",
"C  c #634800",
"Z  c #664B05",
"A  c #695506",
"S  c #6C5802",
"D  c #715700",
"F  c #715C04",
"G  c #675817",
"H  c #6D5B14",
"J  c #5D631C",
"K  c #7E6505",
"L  c #776208",
"P  c #6B6515",
"I  c #6D6A1B",
"U  c #716C19",
"Y  c #69781C",
"T  c #5A4F22",
"R  c #564837",
"E  c #655A24",
"W  c #4D6C2D",
"Q  c #457739",
"!  c #447C3D",
"~  c #4D7E3D",
"^  c #547330",
"/  c #537739",
"(  c #6D702C",
")  c #707B2C",
"_  c #497940",
"`  c #487E41",
"'  c #517C46",
"]  c #537D4C",
"[  c #9E1C1A",
"{  c #A51F1E",
"}  c #94261A",
"|  c #B3390D",
" . c #A12D18",
".. c #B32A19",
"X. c #AB3515",
"o. c #B32C25",
"O. c #AE302C",
"+. c #C13D3B",
"@. c #995907",
"#. c #995316",
"$. c #A84C0C",
"%. c #876905",
"&. c #8D6D00",
"*. c #916E00",
"=. c #8F7207",
"-. c #927102",
";. c #987906",
":. c #886E10",
">. c #8A7114",
",. c #987B12",
"<. c #AC6E07",
"1. c #A37E00",
"2. c #A87E00",
"3. c #B07307",
"4. c #D44607",
"5. c #C65204",
"6. c #C74B4A",
"7. c #CD5857",
"8. c #43813F",
"9. c #52813C",
"0. c #5C8C3D",
"q. c #5C913D",
"w. c #6D8734",
"e. c #678932",
"r. c #458441",
"t. c #4C8243",
"y. c #518346",
"u. c #5D8847",
"i. c #479745",
"p. c #4A9646",
"a. c #479845",
"s. c #499847",
"d. c #4C9649",
"f. c #4B9949",
"g. c #519543",
"h. c #52944F",
"j. c #58904F",
"k. c #519A4D",
"l. c #549552",
"z. c #579755",
"x. c #5B9B56",
"c. c #5C9A59",
"v. c #62935B",
"b. c #64975A",
"n. c #699768",
"m. c #94821C",
"M. c #A38002",
"N. c #AA8500",
"B. c #B09317",
"V. c #BB9C13",
"C. c #BCA11D",
"Z. c #988723",
"A. c #BA9223",
"S. c #B4A236",
"D. c #C79F0E",
"F. c #D7AB0E",
"G. c #DCB104",
"H. c #DDB20C",
"J. c #C4A11B",
"K. c #D4AB11",
"L. c #D9AC17",
"P. c #DCB419",
"I. c #E4B70D",
"U. c #E9B90A",
"Y. c #E6B917",
"T. c #F0BF10",
"R. c #CD9D2F",
"E. c #D8B226",
"W. c #C5AC35",
"Q. c #E4BB23",
"!. c #EBB82A",
"~. c #F7C409",
"^. c #F9C914",
"/. c #FACB1B",
"(. c #EAC22D",
"). c #F2C624",
"_. c #F6CA25",
"`. c #FFC22C",
"'. c #F5CB2B",
"]. c #FACC2B",
"[. c #EEC838",
"{. c #F0C730",
"}. c #F2CA34",
"|. c #FDCC35",
" X c #F6D03B",
".X c #A28846",
"XX c #CEB04D",
"oX c #E2BF41",
"OX c #EBCC4A",
"+X c #F3CC43",
"@X c #E7CB56",
"#X c #F3D155",
"$X c #F4D469",
"%X c #F2D776",
"&X c #ABA3A2",
"*X c #C4BDA3",
"=X c #EEBFBE",
"-X c #F1CC8F",
";X c #DFD8B3",
":X c #FFC9B5",
">X c #E9DEBA",
",X c #F7E6A2",
"<X c #DDD9D1",
"1X c #F5D2CA",
"2X c #FFFCC6",
"3X c #E5E1D6",
"4X c #FFFFD6",
"5X c #FFFEDD",
"6X c #FFFBE2",
"7X c #FFFFEE",
"8X c #FFF5F0",
/* pixels */
"s.s.s.s.s.s.s.s.s.s.s.s.s.s.s.s.s.s.s.s.s.s.s.s.s.s.s.s.s.s.s.s.s.s.s.s.s.f.s.s.s.s.s.s.s.s.s.s.s.s.s.s.s.s.s.s.s.s.s.s.s.s.s.s.",
"s.s.s.s.s.s.s.s.s.s.s.s.s.s.s.s.s.s.s.s.s.s.s.s.s.s.s.s.s.s.s.s.s.s.s.s.s.s.s.s.s.s.s.s.s.s.s.s.s.s.s.s.s.s.s.s.s.s.s.s.s.s.s.s.",
"s.s.s.s.s.s.s.s.s.s.s.s.s.s.s.s.s.s.s.s.s.s.s.s.s.s.s.s.s.s.s.s.s.s.s.s.s.s.s.s.s.s.s.s.s.s.s.s.s.s.s.s.s.s.s.s.s.s.s.s.s.s.s.s.",
"s.s.s.s.s.s.s.s.s.s.s.s.s.s.s.s.s.s.s.s.s.s.s.s.s.s.s.s.s.s.s.s.s.s.s.s.s.s.s.s.s.s.s.s.s.s.s.s.s.s.s.s.s.s.s.s.s.s.s.s.s.s.s.s.",
"s.s.s.s.s.s.s.s.s.s.s.s.s.s.s.s.s.s.s.s.s.s.s.s.s.s.s.s.s.s.s.s.s.s.s.s.s.s.s.s.s.s.s.s.s.s.f.s.s.s.s.s.f.s.s.s.f.s.s.s.s.s.s.s.",
"s.s.s.s.s.s.s.s.s.s.s.s.s.s.s.s.s.s.s.s.s.s.s.s.s.s.s.s.s.s.s.s.s.s.s.s.s.s.s.s.s.s.s.s.s.s.s.s.s.s.s.s.s.s.s.s.d.s.s.s.s.s.s.s.",
"s.s.s.s.s.s.s.s.s.s.s.s.s.s.s.s.s.s.s.s.s.s.s.s.s.s.s.s.s.s.s.s.s.s.s.s.s.s.s.s.s.s.s.s.s.s.s.s.s.s.s.s.s.s.s.s.s.s.s.s.s.s.s.s.",
"s.s.s.s.s.s.s.s.s.s.s.s.s.s.s.s.s.s.s.s.s.s.s.s.s.s.s.s.s.s.s.s.s.s.s.s.s.s.s.s.s.s.s.s.s.s.s.s.s.s.s.s.s.s.s.s.s.s.s.s.s.s.s.s.",
"s.s.s.s.s.s.s.s.s.s.s.s.s.s.s.s.s.s.s.s.s.s.s.s.s.s.s.s.s.s.s.s.s.s.s.s.s.s.s.s.s.s.s.s.s.s.s.s.s.s.s.s.s.s.s.s.s.s.s.s.s.s.s.s.",
"s.s.s.s.s.s.f.s.s.s.s.s.s.s.s.s.s.s.s.s.s.s.s.s.s.s.s.s.s.s.s.s.s.s.s.s.s.s.s.s.s.s.s.s.s.s.s.s.s.s.s.s.s.s.s.s.s.s.s.s.s.s.s.s.",
"s.s.s.s.s.s.s.s.s.s.s.s.s.s.s.s.s.s.s.s.s.s.s.s.s.s.s.s.s.s.s.s.s.s.s.s.s.s.s.s.s.s.s.s.s.s.s.s.s.s.s.s.s.s.s.s.s.s.s.s.s.s.s.s.",
"s.s.s.s.s.s.s.s.s.s.s.s.s.s.s.s.s.s.s.s.s.s.s.s.s.s.s.s.s.s.s.s.s.s.s.s.s.s.s.s.s.s.s.s.s.s.s.s.s.s.s.s.s.s.s.s.s.s.s.s.s.s.s.s.",
"s.s.s.s.s.s.s.s.s.s.s.s.s.s.s.s.s.s.s.s.s.s.s.s.s.s.s.s.s.s.s.s.s.s.s.s.s.s.s.s.s.s.s.s.s.s.s.s.s.s.s.s.s.s.s.s.s.s.s.s.s.s.s.s.",
"s.s.s.s.s.s.s.s.s.s.s.s.s.s.s.s.s.s.s.s.s.s.s.s.s.s.s.s.s.s.s.s.s.s.s.s.s.s.f.s.s.s.s.s.s.s.s.s.s.s.s.s.s.s.s.s.s.s.s.s.s.s.s.s.",
"s.s.s.s.s.s.s.s.s.s.s.s.s.s.s.s.s.s.s.s.s.s.s.s.s.s.s.s.s.s.s.s.s.s.s.s.s.s.s.s.s.s.s.s.s.s.s.s.s.s.s.s.s.s.s.s.s.s.s.s.s.s.s.s.",
"s.s.s.s.s.s.s.s.s.s.s.s.s.s.s.s.s.s.s.s.s.s.s.s.s.s.s.s.s.s.s.s.s.s.s.s.s.s.s.s.s.s.s.s.s.s.s.s.s.s.s.s.s.s.s.s.s.s.s.s.s.s.s.s.",
"s.s.s.s.d.s.s.s.s.s.s.s.s.s.s.s.s.s.s.s.s.p.s.s.s.s.s.s.s.s.s.s.s.s.s.s.s.s.s.s.p.p.s.s.s.s.s.s.s.s.s.s.s.s.s.s.s.s.s.s.s.s.s.s.",
"s.s.s.s.p.p.s.s.s.s.s.s.s.s.s.s.s.p.s.s.p.p.p.p.s.s.s.s.s.s.s.s.s.s.s.s.s.s.s.s.p.p.p.s.s.s.s.s.s.s.s.s.s.s.s.s.s.s.s.s.s.s.s.s.",
"s.s.s.s.s.s.s.s.s.s.s.s.s.s.s.s.s.s.s.p.p.d.k.f.d.s.s.s.s.s.s.s.s.s.s.s.s.s.s.f.k.k.s.s.p.f.s.f.s.s.s.s.s.s.s.s.s.s.f.s.s.s.s.s.",
"s.s.s.s.s.s.s.s.s.s.s.s.s.s.s.s.s.p.s.g.0.0.m 8.d.s.s.s.s.s.s.s.s.s.s.s.s.s.s.d.m ! q.q.q.p.s.s.s.s.s.s.s.s.s.s.s.s.s.s.s.s.s.s.",
"s.s.s.s.s.s.s.s.s.s.s.s.s.s.p.s.s.s.p.e.) J X - l.a.s.a.p.p.s.s.d.d.i.s.d.s.f.r.@ @ ( w.q.p.f.f.s.s.s.s.s.s.s.s.s.s.s.s.s.s.s.s.",
"s.s.s.s.s.s.s.s.s.s.s.s.s.s.s.p.p.q.q.w.P B 1 c l.a.p.p.p.p.p.s.i.p.s.d.s.d.f.t.: w G P w.q.g.p.s.s.s.s.s.s.s.s.s.s.s.s.s.s.s.s.",
"s.s.s.s.s.s.s.s.s.s.s.s.s.d.s.p.k.q.Y H q n v.h.d.d.k.k.k.k.p.g.k.g.f.k.k.k.d.d.c.u.8 j U Y q.k.d.s.s.s.s.s.s.s.s.s.s.s.s.s.s.s.",
"f.s.s.s.s.s.s.s.s.s.s.s.p.f.f.g.~ ) Z.>.= y j.s.d.p.! Q 9.9.u.0.e.0.~ ` Q ! d.d.d.t.3 q Z.m.^ t.d.s.s.s.s.s.s.s.s.s.s.s.s.s.s.s.",
"s.s.s.s.s.s.s.s.s.s.s.s.p.p.k.t.1 M @XW.. ; l.i.z.t.X X = 0 I P I B 7 2   # z.f.f.t.  9 @XW.8 n j.s.s.s.s.s.s.s.s.s.s.s.s.s.s.s.",
"s.s.s.s.s.s.s.s.s.s.s.s.p.d.k.y.6 M %XXX. ; j.d.Q W e j Z H .X.X.XZ.Z k = w Q ` l.r.X 9 -XXX9 u j.s.s.s.s.s.s.s.s.s.s.s.s.s.s.s.",
"s.s.s.s.s.s.s.s.s.s.s.s.p.p.k.y.2 R 5X;X  # b.t.X * OX X+X$X2X8X7X2XoXoX:.G   # b.y.  6 4X>X7 u j.s.s.s.s.s.s.s.s.s.s.s.s.s.s.s.",
"s.s.s.s.s.s.s.s.s.s.s.s.p.p.k.y.3 R 7X<Xq r / W e C ).T.D.R.:X1X1X-XR.R.M.=.q b / W 8 T 7X<Xt u j.s.s.s.s.s.s.s.s.s.s.s.s.s.s.s.",
"s.s.s.s.s.s.s.s.s.s.s.s.p.p.k.y.6 R 6X2X@XW.. * OX'._.L.d f [ { O.} a z +X'. XW.. 2 @X$X5X3Xt u j.s.s.s.s.s.s.s.s.s.s.s.s.p.s.s.",
"s.s.s.s.s.s.s.s.s.s.s.s.p.p.k.t.; R >X-X{.K.h C _.U.K.A.f } 7.6.[ } g z R.F./.F.h C (.}.,X*X= y l.p.s.s.s.s.s.s.s.s.s.s.s.f.s.s.",
"s.s.s.s.s.s.s.s.s.p.s.s.s.s.k.`   O ( ,.'./.].'./.K.d f  .6.8X1X$ i O.X.a k ).^.'.'./.Q.:.E   # l.s.s.s.s.s.s.s.s.s.s.s.s.s.s.s.",
"s.s.s.s.s.s.s.s.s.p.s.s.s.s.f.r.: w B %.E.H.H.H.^.P.k x o.+.=X&X. & o...l Z ).~.G.H.P.J.S N 1 5 h.s.s.s.s.s.s.s.s.s.s.s.s.s.s.s.",
"s.s.s.s.s.s.s.s.s.s.s.s.s.s.d.f.x.' X O :.&.&.1.`.Y.&.#...[ $ . . & o.| #.;.].Y.&.&.=.S . # v.h.d.s.s.s.s.s.s.s.s.s.s.s.s.s.s.s.",
"s.s.s.s.s.s.s.s.s.s.s.s.s.s.s.s.f.r.: w E G Z K E.K.2.<.$. .p i i s X.$.3.N.P.J.S G G N 1 5 l.i.a.s.s.s.s.s.s.s.s.s.s.s.s.s.s.s.",
"s.s.s.d.s.s.s.s.s.s.s.s.s.s.s.s.p.d.c.' X     + %.1.|.!.@.$.X.....X.$.<.|.Q.-.F .     # v.l.d.s.s.s.s.s.s.s.s.s.s.s.s.s.s.s.s.s.",
"s.s.s.s.s.s.s.s.s.s.s.s.s.s.s.s.p.p.s.r.> < , w B L E.F.2.3.5.4.4.5.3.N.E.J.S V 3 < , 5 l.i.p.a.s.s.s.s.s.s.s.s.s.s.s.s.s.s.s.s.",
"s.s.s.s.s.s.s.s.s.s.s.s.s.s.s.s.s.s.s.f.z.z.c.]   + :.;. X].`.`.`.`. X!.-.L   # v.z.z.l.d.s.s.s.s.s.s.s.s.s.s.s.s.s.s.s.s.s.s.s.",
"s.s.s.s.s.s.s.s.s.s.s.s.s.s.s.s.s.s.p.f.i.d.f.r.> w B K A.D.P.G.H.L.V.B.S V 1 v h.s.i.i.s.s.s.s.s.s.s.s.s.s.s.s.s.s.s.s.s.s.s.s.",
"s.s.s.s.s.s.s.s.s.s.s.s.s.s.s.s.s.a.s.s.s.s.s.d.c.' X   . % %.%.&.F o .   # b.z.k.d.s.s.s.s.s.s.s.s.s.s.s.s.s.s.s.s.s.s.s.s.s.s.",
"s.s.s.s.s.s.s.s.s.s.s.s.s.s.s.s.a.s.s.s.s.s.s.s.f.r.< <   % ,.;.:.H . X , 5 j.p.m 8.f.s.s.s.s.s.s.s.s.s.s.s.s.s.s.s.s.s.s.s.s.s.",
"s.s.s.s.s.s.s.s.s.s.s.s.s.s.s.s.s.s.s.s.s.s.s.s.s.d.z.]   9 OXQ.*.H   , n.c.z.8.X - l.s.s.s.s.s.s.s.s.s.s.s.s.s.s.s.s.s.s.s.s.s.",
"s.s.s.s.s.s.s.s.s.s.s.s.s.s.s.s.s.s.s.s.s.s.s.s.s.p.k.t.  9 }.I.-.H . @ _ Q u./ X , z.s.s.s.i.s.s.s.s.s.s.s.s.s.s.s.s.s.s.s.s.s.",
"s.s.s.s.s.s.s.s.s.s.s.s.s.s.s.s.s.s.s.s.s.s.s.s.s.s.f.` X 9 }.I.&.A .     @ ) J X - z.p.s.s.a.s.s.s.s.s.s.s.s.s.s.s.s.s.s.s.s.s.",
"s.s.s.s.s.s.s.s.s.s.s.s.s.s.s.s.s.s.s.s.s.s.s.s.s.s.f.` X 9 }.U.2.-.h q q j G N 1 c h.p.s.s.s.s.s.s.s.s.s.s.s.s.s.s.s.s.s.s.s.s.",
"s.s.s.s.s.s.s.s.s.s.s.s.s.s.s.s.d.s.s.s.s.s.s.s.s.i.f.` X 9 {.~./.'. X+X#XXX. # v.z.d.s.s.s.s.a.s.s.s.s.s.s.s.s.s.s.s.s.s.s.s.s.",
"s.s.s.s.s.s.s.s.s.s.s.s.s.s.s.s.d.d.s.s.s.s.s.s.s.i.k.t.X 9 {.~.I.F.V.V.C.Z.1 c k.i.s.i.s.s.s.s.s.s.s.s.s.s.s.s.s.s.s.s.s.s.s.s.",
"s.s.s.s.s.s.s.s.s.s.s.s.s.s.s.s.s.s.s.s.s.s.s.s.s.d.f.`   9 }.I.*.D o . X # b.h.p.p.i.s.s.s.s.s.s.s.s.s.s.s.s.s.s.s.s.s.s.s.s.s.",
"s.s.s.s.s.s.s.s.s.s.s.s.s.s.s.s.s.s.s.s.s.s.s.s.s.s.k.` X 9 [.P.&.H   X , c k.i.p.p.s.s.s.s.s.s.s.s.s.s.s.s.s.s.s.s.s.s.s.s.s.s.",
"s.s.s.s.s.s.s.s.s.s.s.s.s.s.s.s.s.s.s.s.s.s.s.s.s.s.f.8.X = +X(.=.G   # v.k.s.f.s.s.s.s.s.s.s.s.s.s.s.s.s.s.s.s.s.s.s.s.s.s.s.s.",
"s.s.s.s.s.s.s.s.s.s.s.s.s.s.s.s.s.s.s.s.s.s.s.s.s.f.f.r.- r S.B.A N , 5 h.a.s.f.s.s.s.s.s.s.s.s.s.s.s.s.s.s.s.s.s.s.s.s.s.s.s.s.",
"s.s.s.s.s.s.s.s.s.s.s.s.s.s.s.s.s.s.s.s.s.s.s.s.f.f.f.d.c._ X   X # c.l.f.s.s.s.s.s.s.s.s.s.s.s.s.s.s.s.s.s.s.s.s.s.s.s.s.s.s.s.",
"s.s.s.s.s.s.s.s.s.s.s.s.s.s.s.s.s.s.s.s.s.s.s.s.f.f.s.s.f.8.4 < , v h.a.s.s.s.s.s.s.s.s.s.s.s.s.s.s.s.s.s.s.s.s.s.s.s.s.s.s.s.s.",
"s.s.s.s.s.s.s.s.s.s.s.s.s.s.s.s.s.s.f.s.s.s.s.s.a.f.s.s.s.d.l.z.z.l.f.s.s.s.s.s.s.s.s.s.s.s.s.s.s.s.s.s.s.s.s.s.s.s.s.f.s.s.s.s.",
"s.s.s.s.s.s.s.s.s.s.s.s.s.s.s.s.s.s.f.s.s.s.s.s.f.a.s.s.s.s.a.a.s.s.s.s.s.s.s.s.s.s.s.s.s.s.s.s.s.s.s.s.s.s.s.s.s.s.s.s.s.s.s.s.",
"s.s.s.s.s.s.s.s.s.s.s.s.s.s.s.s.s.s.s.s.s.s.s.s.i.s.s.s.s.s.s.s.s.s.s.s.s.s.s.s.s.s.s.s.s.s.s.s.s.s.s.s.s.s.s.s.s.s.s.s.s.s.s.s.",
"s.s.s.s.s.s.s.s.s.s.s.s.s.s.s.s.s.s.s.s.s.s.s.s.s.s.i.s.s.s.s.s.s.s.s.s.s.s.s.s.s.s.s.s.s.s.s.s.s.s.s.s.s.s.s.s.s.s.s.s.s.s.s.s.",
"s.s.s.s.s.s.s.s.s.s.s.s.s.s.s.s.s.s.s.s.s.s.s.a.a.s.s.f.s.s.s.s.s.s.s.s.s.s.s.s.s.s.s.s.s.s.s.s.s.s.s.s.s.s.s.s.s.s.s.s.s.s.s.s.",
"s.s.s.s.s.s.s.s.s.s.s.s.s.s.s.s.s.s.s.s.s.s.a.s.s.s.s.a.s.s.s.s.s.s.s.s.s.s.s.s.s.s.s.s.s.s.s.f.s.s.s.s.s.s.s.s.s.s.s.s.s.s.s.s.",
"s.s.s.s.s.s.s.s.s.s.s.s.s.s.s.s.s.s.s.s.s.s.s.s.s.s.a.f.s.s.s.s.s.s.s.s.s.s.s.s.s.s.s.s.s.s.p.p.s.s.s.s.s.s.s.s.s.s.s.s.s.s.s.s.",
"s.s.s.s.s.s.s.s.s.s.s.s.s.s.s.s.s.s.s.s.s.s.s.s.s.s.f.a.s.s.s.s.s.s.s.a.s.s.s.s.s.s.s.s.s.s.p.p.s.s.s.s.s.s.s.s.s.s.s.s.s.s.s.s.",
"s.s.s.s.s.s.s.s.s.s.s.s.s.s.s.s.s.s.s.s.s.s.s.s.s.s.a.f.f.a.f.s.s.s.s.s.s.s.s.s.s.s.s.s.s.s.s.s.s.s.s.s.s.s.s.d.s.s.s.s.s.s.s.s.",
"s.s.s.s.s.s.s.s.s.s.s.s.s.s.s.s.s.s.s.s.s.s.s.s.s.a.s.i.a.s.s.s.s.s.s.s.s.s.s.s.s.s.s.s.s.s.s.s.s.s.s.s.s.s.s.f.s.s.s.s.s.s.s.s.",
"s.s.s.s.s.s.s.s.s.s.s.s.s.s.s.s.s.s.s.s.s.s.s.s.s.s.s.s.a.s.s.s.s.s.s.s.s.s.s.s.s.s.s.p.s.s.d.p.s.s.s.s.s.s.s.s.s.s.s.s.s.s.s.s.",
"s.s.s.s.s.s.s.s.s.s.s.s.s.s.s.s.s.s.s.s.s.s.s.s.s.s.s.s.s.a.s.s.s.s.s.s.s.s.s.s.s.s.p.s.s.s.s.p.s.s.s.s.s.s.s.s.s.s.s.s.s.s.s.s."
};
