/* XPM */
static char *c7df5a73cb474d69ebd3502f641418dfAj79DtTAMrNCqgUT_0[] = {
/* columns rows colors chars-per-pixel */
"13 12 128 2 ",
"   c None",
".  c #0B383D",
"X  c #323B35",
"o  c #1B433D",
"O  c #1A543F",
"+  c #0B3940",
"@  c #563152",
"#  c #0F484B",
"$  c #0E484C",
"%  c #0F494C",
"&  c #0F4A4D",
"*  c #0F4B4E",
"=  c #114242",
"-  c #104C4B",
";  c #154A4C",
":  c #0F4B50",
">  c #0F4A52",
",  c #0F4E53",
"<  c #105052",
"1  c #115452",
"2  c #125354",
"3  c #145654",
"4  c #155C55",
"5  c #135B5E",
"6  c #155F5E",
"7  c #165F5E",
"8  c #334E46",
"9  c #28504F",
"0  c #225B50",
"q  c #2D5C55",
"w  c #355A54",
"e  c #1E624C",
"r  c #1A6152",
"t  c #1A6358",
"y  c #1E6B59",
"u  c #216C5A",
"i  c #296F59",
"p  c #24735A",
"a  c #267A5D",
"s  c #24785F",
"d  c #135D62",
"f  c #166362",
"g  c #176B67",
"h  c #186960",
"j  c #1A6961",
"k  c #1E6E63",
"l  c #196F64",
"z  c #15656A",
"x  c #166A6D",
"c  c #166A6E",
"v  c #196F69",
"b  c #1A7167",
"n  c #1B726A",
"m  c #18706C",
"M  c #1A756E",
"N  c #1A786E",
"B  c #1C7B6D",
"V  c #1F7A6F",
"C  c #187272",
"Z  c #187372",
"A  c #1C7C71",
"S  c #1C7E75",
"D  c #216760",
"F  c #217361",
"G  c #237360",
"H  c #207E6F",
"J  c #496D5B",
"K  c #576052",
"L  c #5A4767",
"P  c #1D8276",
"I  c #1F8775",
"U  c #26826B",
"Y  c #20816F",
"T  c #288C6F",
"R  c #308F6A",
"E  c #268A72",
"W  c #208A75",
"Q  c #238C74",
"!  c #268F74",
"~  c #338B73",
"^  c #358F72",
"/  c #2C9070",
"(  c #2B9475",
")  c #249178",
"_  c #27927A",
"`  c #27957B",
"'  c #24937E",
"]  c #379C71",
"[  c #319D78",
"{  c #309F7C",
"}  c #2FA17E",
"|  c #35A37C",
" . c #33A47E",
".. c #3BA779",
"X. c #3DA07E",
"o. c #279B81",
"O. c #2BA283",
"+. c #3EBE8F",
"@. c black",
"#. c black",
"$. c black",
"%. c black",
"&. c black",
"*. c black",
"=. c black",
"-. c black",
";. c black",
":. c black",
">. c black",
",. c black",
"<. c black",
"1. c black",
"2. c black",
"3. c black",
"4. c black",
"5. c black",
"6. c black",
"7. c black",
"8. c black",
"9. c black",
"0. c black",
"q. c black",
"w. c black",
"e. c black",
"r. c black",
"t. c black",
"y. c black",
"u. c black",
/* pixels */
"            ] | U a       ",
"          ..+.o.Y 9 q e   ",
"          } ` W ) L @ O   ",
"        - P M I O.~ X.[ p ",
"        % x 7 m B Q G 0 o ",
"        u f y B 5 l j t   ",
"        O.j E G v g <     ",
"      R ) 2 A / i ^ T     ",
"      | A > t k K J !     ",
"r a ( ' Z d , ; w D 4     ",
"  n S Z c z > 2 M n =     ",
"    % - % . + % 3 8 X     "
};
