/* XPM */
static char *_12a160e7ad04d92b862a8fdf954f0a1BZdTXuf8iBccWjNu[] = {
/* columns rows colors chars-per-pixel */
"64 64 248 2 ",
"   c #010001",
".  c #070807",
"X  c #130C05",
"o  c #180D09",
"O  c #071508",
"+  c #19130B",
"@  c #1B161B",
"#  c #0F0912",
"$  c #26170B",
"%  c #281810",
"&  c #042907",
"*  c #08350A",
"=  c #1A221B",
"-  c #093513",
";  c #183414",
":  c #242218",
">  c #392314",
",  c #131A24",
"<  c #241B26",
"1  c #282827",
"2  c #343733",
"3  c #322F2B",
"4  c #4E1C11",
"5  c #48261E",
"6  c #583014",
"7  c #683719",
"8  c #723D1D",
"9  c #79381B",
"0  c #6A2D0D",
"q  c #542B21",
"w  c #503828",
"e  c #6C3521",
"r  c #713621",
"t  c #084619",
"y  c #0F4C15",
"u  c #235A17",
"i  c #2E4A17",
"p  c #2B751C",
"a  c #30781F",
"s  c #2A681A",
"d  c #175A25",
"f  c #294929",
"g  c #2C542B",
"h  c #275829",
"j  c #354535",
"k  c #385C38",
"l  c #2D5032",
"z  c #066E28",
"x  c #156623",
"c  c #017621",
"v  c #0B7729",
"b  c #0D7A29",
"n  c #067728",
"m  c #137C29",
"M  c #147527",
"N  c #2A6825",
"B  c #376636",
"V  c #367236",
"C  c #3A7739",
"Z  c #307626",
"A  c #10711D",
"S  c #55451D",
"D  c #73411F",
"F  c #555424",
"G  c #4C4132",
"H  c #514B30",
"J  c #674720",
"K  c #744221",
"L  c #7A4421",
"P  c #7B4728",
"I  c #6C5231",
"U  c #517930",
"Y  c #72793A",
"T  c #24394F",
"R  c #1B2B41",
"E  c #305273",
"W  c #276B72",
"Q  c #524F45",
"!  c #644F48",
"~  c #436C42",
"^  c #447B43",
"/  c #487449",
"(  c #56714F",
")  c #736D46",
"_  c #797767",
"`  c #936E11",
"'  c #844725",
"]  c #885B38",
"[  c #8C5A2C",
"{  c #936638",
"}  c #9C753C",
"|  c #946730",
" . c #A5783B",
".. c #AC7830",
"X. c #976947",
"o. c #9C7346",
"O. c #9B7853",
"+. c #8B6946",
"@. c #A47844",
"#. c #A47A57",
"$. c #AC6C48",
"%. c #8F6D57",
"&. c #0C832C",
"*. c #018627",
"=. c #198229",
"-. c #18862A",
";. c #00952E",
":. c #298C27",
">. c #349C2A",
",. c #399B28",
"<. c #3A9C28",
"1. c #3C863E",
"2. c #39913F",
"3. c #269328",
"4. c #3EA229",
"5. c #39A627",
"6. c #3AB327",
"7. c #00851F",
"8. c #5BA31C",
"9. c #4A8426",
"0. c #4A9128",
"q. c #748C35",
"w. c #43A529",
"e. c #44AB2A",
"r. c #47B22B",
"t. c #559A1D",
"y. c #3E9843",
"u. c #438C44",
"i. c #488747",
"p. c #548C46",
"a. c #469647",
"s. c #469A46",
"d. c #499649",
"f. c #469A48",
"g. c #489848",
"h. c #489748",
"j. c #54964C",
"k. c #569756",
"l. c #519056",
"z. c #6F8D57",
"x. c #4CA24C",
"c. c #47A348",
"v. c #56A956",
"b. c #51AC51",
"n. c #738F6A",
"m. c #7CA569",
"M. c #5DA768",
"N. c #54C054",
"B. c #AD8F13",
"V. c #858834",
"C. c #BA9B2F",
"Z. c #AB863A",
"A. c #B38D36",
"S. c #B49235",
"D. c #A98929",
"F. c #91A538",
"G. c #BBA22D",
"H. c #9AA819",
"J. c #C5A629",
"K. c #CCB623",
"L. c #D1BC22",
"P. c #D4AE3C",
"I. c #CFB117",
"U. c #A7D412",
"Y. c #AAD90F",
"T. c #9BC01C",
"R. c #DBCB19",
"E. c #D3CA0D",
"W. c #E5D715",
"Q. c #EBDE10",
"!. c #D6E90A",
"~. c #EBE50A",
"^. c #F3EB08",
"/. c #FEFE00",
"(. c #F9F508",
"). c #F3E417",
"_. c #E3FD1C",
"`. c #E7C734",
"'. c #E9CE2C",
"]. c #C8C031",
"[. c #888F55",
"{. c #AD8344",
"}. c #B98B49",
"|. c #B68B55",
" X c #B79666",
".X c #AF8F6C",
"XX c #97A26C",
"oX c #8DB177",
"OX c #888E62",
"+X c #C69949",
"@X c #D09D52",
"#X c #D9AD48",
"$X c #DDA955",
"%X c #CEA04B",
"&X c #E6AD58",
"*X c #E9B459",
"=X c #ECBB51",
"-X c #C39A67",
";X c #C7A57A",
":X c #E2AB6F",
">X c #EFC14F",
",X c #E1C36D",
"<X c #103892",
"1X c #214698",
"2X c #355588",
"3X c #0A7F97",
"4X c #244CA1",
"5X c #4965A4",
"6X c #516A96",
"7X c #1391B6",
"8X c #5C8F9D",
"9X c #6AB7C7",
"0X c #00C9FF",
"qX c #63C2DA",
"wX c #AC998D",
"eX c #B8B8B2",
"rX c #BEB6A7",
"tX c #8AA08E",
"yX c #CBAC84",
"uX c #D4B38A",
"iX c #DDB38D",
"pX c #D7B58B",
"aX c #DBBD94",
"sX c #D9B792",
"dX c #CFAD88",
"fX c #E3B98E",
"gX c #C6BEB2",
"hX c #DDC197",
"jX c #E5C59A",
"kX c #F5CC97",
"lX c #E4CBA2",
"zX c #EBC8A5",
"xX c #F0D8AE",
"cX c #FEE4BB",
"vX c #FDE8BC",
"bX c #ECE3BE",
"nX c #B5BDD2",
"mX c #BBC6DF",
"MX c #D7CFCE",
"NX c #FEEBC2",
"BX c #FBE7C8",
"VX c #FFFDD3",
"CX c #FAF4C8",
"ZX c #EBE9E6",
"AX c #FEFFFF",
"SX c #F5F4F5",
"DX c #FBF2E6",
"FX c #E4DED2",
/* pixels */
"g.g.g.g.g.g.g.g.g.g.g.g.g.g.g.g.g.g.g.g.g.g.g.g.g.g.g.g.g.g.h.g.g.g.g.g.h.g.g.g.g.g.g.g.g.g.g.g.g.g.g.g.g.g.g.g.g.g.g.g.g.g.g.g.",
"g.g.g.g.g.g.g.g.g.g.g.g.g.g.g.g.g.g.g.g.a.g.g.g.g.g.g.g.g.g.g.g.g.g.g.g.g.g.g.g.g.g.g.g.g.g.g.g.g.g.g.g.g.g.g.a.g.g.g.g.g.g.g.g.",
"g.g.g.g.g.g.g.g.g.g.g.g.g.g.g.g.g.g.g.g.g.g.g.g.g.g.g.g.g.g.g.g.g.g.g.g.g.g.g.g.g.g.g.g.g.g.g.g.g.g.g.g.g.g.g.g.g.g.g.g.g.a.g.g.",
"g.g.g.g.g.g.g.g.g.g.g.g.g.g.g.g.g.g.g.g.g.g.g.g.g.g.g.g.g.g.g.g.g.g.g.g.g.g.g.g.g.g.g.g.g.g.g.g.g.g.g.g.g.g.g.g.g.g.g.g.g.g.g.g.",
"h.g.g.g.g.g.g.g.g.g.g.g.g.g.g.g.g.g.g.g.g.g.g.g.g.a.g.g.f.g.h.g.g.f.g.g.a.h.h.h.g.g.g.g.g.g.g.g.g.g.g.a.g.g.g.g.g.g.g.g.g.g.g.g.",
"g.g.g.g.g.g.g.g.g.g.g.g.g.g.g.g.g.g.g.g.g.g.g.g.g.g.x.f.f.g.g.h.g.g.f.f.x.x.g.g.g.g.g.g.g.g.g.g.g.g.g.g.g.g.g.g.g.g.g.g.g.g.g.g.",
"g.g.g.g.g.g.g.g.g.g.g.g.g.g.g.g.g.g.g.g.g.g.g.a.g.C V 2.y.y.1.y.y.y.2.2.V V a.h.g.g.g.g.g.g.g.g.g.g.g.g.g.g.g.g.g.a.g.g.g.g.g.g.",
"g.g.g.g.g.g.g.g.g.a.g.g.g.g.g.g.g.g.g.g.g.g.g.g.x.=   y &.v v v v v b n .   C x.g.g.g.g.g.g.g.g.g.g.g.g.g.g.g.g.g.g.g.g.g.g.g.g.",
"g.g.g.g.g.g.g.g.g.g.g.g.g.g.g.g.g.g.g.g.g.g.l.i.i.; O x -.=.=.=.=.=.=.=.- O V i.i.d.g.g.g.g.g.g.g.g.g.g.a.g.g.g.g.g.g.g.g.g.g.g.",
"g.g.g.g.g.g.g.g.g.g.g.g.g.g.g.g.g.g.g.g.g.s.l.< . v v >.e.w.w.w.w.w.w.w.=.&.- . V s.g.g.g.g.g.g.g.g.g.g.g.g.g.g.g.g.g.g.g.g.g.g.",
"g.g.g.g.g.g.g.g.g.g.g.g.a.g.g.g.g.g.f.f.f.k.n.= O z b >.w.w.w.<.4.w.w.<.m m -   U M.d.g.g.g.g.g.g.g.g.g.g.g.g.g.g.g.g.g.g.g.g.g.",
"g.g.g.g.g.g.g.g.g.g.g.g.g.g.g.g.g.g.g.c./ 3 f z M m m m m m &.m m m m m b v M v f 1 k s.g.g.g.g.g.g.g.g.g.g.g.g.g.g.g.g.g.a.g.g.",
"g.g.g.g.g.g.g.g.g.g.g.g.g.g.g.g.g.h.f.v.^   . v v v v v v v v v v v v v v v v &.-   2 b.x.g.g.g.g.g.g.g.g.g.g.g.g.g.g.g.g.g.g.g.",
"g.g.g.g.g.g.g.g.g.g.g.g.g.g.g.g.h.x.V ; d x x ,.>.>.,.,.,.,.,.,.,.,.,.>.,.,.>.,.Z z d f f g.g.g.g.g.g.g.g.g.g.g.a.g.g.g.g.g.g.g.",
"g.g.g.a.g.g.g.g.g.g.g.g.g.g.g.a.g.b.h   & *.b 5.5.w.5.>.>.>.>.,.5.4.5.>.>.>.5.5.-.&.d   O x.x.f.g.g.g.a.g.g.g.g.g.g.g.g.g.g.g.g.",
"g.g.g.g.g.g.g.g.g.g.g.g.g.g.g.g.V g h t h Y q.F.F.q.q.T.Y.U.U.T.q.q.U.U.U.Y.F.q.0.3.m t y l g g.g.g.g.g.g.g.g.g.g.g.g.g.g.g.g.g.",
"g.g.g.g.g.a.g.g.g.g.g.g.g.g.g.x.f   t ;.9.$.$.*X*X@.$.W./././.Q.$.A././././.J.$.q.6.>.&.v   . u.g.g.g.g.g.g.g.g.g.g.g.g.g.g.g.g.",
"g.g.g.g.g.g.g.g.g.g.g.g.g.g.g.x.h   ; Z U J.J.%X+XG.C.Q./.~.R.K.o.Z.R.R.^./.C.@.q.q.0.v x . . a.g.g.d.g.g.g.g.g.g.g.g.g.g.g.g.g.",
"g.g.g.g.g.g.g.g.g.g.g.g.y.2.2.c.h   > r ` /.^.o.@.^./././.K.+.o.o.o.X.X.~./.G.X. .$.Y n v   . y.2.2.a.a.g.g.g.g.g.g.g.g.g.h.g.g.",
"g.g.g.g.g.g.g.g.g.g.g.d.m.m.oXoXH   6 P D./.~.{.{.~./.~.~.L.Z.A.A.S.S.S.W.^.J.Z.S.S.V.M N o + m.oXm.OXM.a.g.g.g.g.g.g.g.h.s.g.g.",
"g.g.g.g.g.g.g.g.g.g.f.j.|.|.sXzXX.7  .&X`./.(.$X&X^./.G.X.K./.(./././.(.Z.X.W./././.E.e K K K dXxX X|.[.g.g.g.g.g.g.g.g.g.g.g.g.",
"g.g.g.g.g.g.g.g.g.g.f.j. .} yXhX{ 7  .*X`.(.^.$X#X).(.G.X.L./.(.(.(.^.^.A.@.R.(.(./.E.7 K P K ;XhX|...z.s.g.g.g.g.g.g.g.g.g.g.g.",
"g.g.g.g.g.g.g.g.g.h.f.p.L P lXNX X{ K./.R. .S.(.^.S.Z. .o.K./.).#X#XZ.Z.;XpX|. .K./.W.@X$XxXxXxXvXO.7 ) f.g.g.g.g.g.g.g.g.g.g.g.",
"g.g.g.g.g.a.g.g.h.h.f.p.P P xXVX-X{ L./.R.X.Z.(./.Z.X.@.X.K./.).$X$X} } ;XsX|.{ K./.).&X*XNXNXNXVX|.9 ) f.g.g.g.g.g.g.g.g.g.g.g.",
"g.g.g.a.g.g.g.g.g.g.a.g.p.z.O.+. XuX}.` D.@X%X(./.W.W.W.W.'.`.P.{.}.;X;XuXpXjXlX,X`.P.{.}.aXaXO.X.OXp.j.f.g.g.g.g.a.g.g.g.g.g.g.",
"g.g.g.g.g.a.g.g.g.g.g.g.y.k.] 0 -XfX$.4 { =X=X/./././././.'.:X+Xo.{.pXpXdX;XxXVXkX&X%X{ @.iXiXL 9 n.y.g.g.g.g.g.g.g.g.g.g.g.g.g.",
"g.g.g.g.g.g.g.g.g.g.g.g.g.j.G $ 8XqXn.[ } }.}.'.'.`.'.`.'.P.+XZ.] { uXuXjXzXjXlX-X| Z.R.K.9X9Xn.U k.s.h.g.g.g.g.g.g.g.g.g.g.g.g.",
"g.g.g.g.g.g.g.g.g.g.g.g.g.d.:   7X0X8X..o.} {.&X&X$X$X$X&X}.@.{ 6 D uXuXNXVXjXjX#.4 ` /._.0X0Xx.s.d.g.g.h.g.h.g.g.g.g.g.g.g.g.a.",
"g.g.g.a.g.g.g.g.g.g.g.g.g.g.1   W 7XOXK.S.{ { } } +X@X+X+XZ.{ { X.X.uXdXyXdXXX%.+.' D./.~.3X3Xg.d.g.g.g.g.g.g.g.g.g.g.g.g.g.g.g.",
"g.g.g.g.g.g.g.g.g.g.g.g.g.d.@   0 0 B./.E.7 7     {  .} @.[ 6 ] jXsXiXuXK 0 X . 6 {.C./.!.. . a.g.d.g.g.g.g.s.h.g.g.g.a.g.g.g.g.",
"g.g.g.g.g.g.g.g.g.g.g.g.h.d.2 1 w q B.(.I.e J 3 2 +.%.}  .{ P o.aXuX;X;X! I w 1 I } S.(.E.X . a.g.g.g.g.g.g.g.g.g.g.g.g.g.g.g.g.",
"g.g.g.g.g.g.g.g.g.g.g.g.g.g.k.v.g   I >X{.0 ] SXSX5X4XQ 0 #.hXhXCXlX8 9 2X4XnXAXwX0 [ *X+X. O g.g.g.d.g.g.g.g.g.g.g.g.g.g.g.g.g.",
"g.g.g.g.g.g.g.g.g.g.g.g.g.g.a.x.g   I *XA.7 ] SXSX5X4X! 7 O.iXaXBXxXK D 2X1XmXAXwX0 [ *X}.O O a.d.f.g.g.g.g.g.g.g.g.g.g.g.g.g.g.",
"g.g.a.g.g.g.g.g.g.g.g.g.g.g.g.g.a.s.B o +   : bXBX5X1XnXDXBXcXcXcXBXZXZX5X1XeXVX_   + + : 0.u.d.d.f.h.g.g.g.g.g.g.g.g.g.g.g.g.g.",
"g.g.g.g.g.g.g.g.g.g.g.g.g.g.g.g.a.b.h   .   : CXvX5X<XmXAXDXcXvXcXBXAXAX5X<XeXVX_   .   O d.x.f.g.g.g.h.g.g.g.g.g.g.g.g.g.g.g.g.",
"g.g.g.g.g.g.g.g.g.g.g.g.g.g.g.g.a.a.u.u.B   +  X|.rXeXbXBXNXcXvXcXcXBXBXgXeX X-XI   3 u.y.i.d.d.g.g.g.g.g.g.g.g.g.g.g.g.g.g.g.g.",
"g.g.g.g.g.g.g.g.g.g.g.g.g.g.g.g.s.g.s.b.^   + }  .cXVXvXvXvXNXvXNXvXvXNXVXVX-X .S   j v.x.g.g.g.g.g.g.g.g.g.g.g.g.g.g.g.g.g.g.g.",
"g.g.g.g.g.g.g.g.g.g.g.g.g.g.g.g.a.j.1.B k t f ] ] .X.XuXlXlXlXlXlXlXlXlX.X.XX.[ F t l V V g.g.g.h.g.g.g.g.g.g.g.g.g.g.g.g.g.g.g.",
"g.g.g.g.g.a.g.g.g.g.g.g.g.g.x.x.x.b.h   & *.A 8 8 0 0  XfXfXiXiXiXiXfXfX9 0 D 9 i *.y   . x.x.x.x.f.f.d.g.g.g.g.g.g.g.g.g.g.g.g.",
"g.g.g.g.g.g.g.g.g.g.g.g.g.g.C V V V l , j M.l.S S F S [.XXXXXXXXXXXXXXXXF F F 6 / M.^ X = V V V V i.f.d.g.g.g.g.g.g.g.g.g.g.g.g.",
"g.g.g.g.g.g.g.g.g.g.g.g.f.j.@       R E 8XAXZXt * A &.c c c c c c c c c n *.y & tXAXgX4 5         ( c.h.g.g.g.g.g.g.g.g.g.h.g.g.",
"g.g.g.g.g.g.g.g.g.g.g.g.i.i.3 X X X R E 6XFXeXi y M m M m =.m m m m m m m b u * n.ZXwX3 5 X + X @ ( u.d.g.g.g.g.g.g.g.g.h.h.h.g.",
"g.g.g.g.g.g.g.g.g.g.g.u.# + e K 8 9 Q 2XT   # D D M b =.b b b b v m m m b b S ' >   , 2XE 9 D 8 D > . j f.g.g.g.g.g.g.g.g.g.g.g.",
"g.a.g.g.g.g.g.g.g.g.f.C     7 K K 8 Q E T   X D D M b A b m M m m b m v M b F ' >   , E E 8 K e L %   f x.g.g.g.g.g.g.g.g.g.g.g.",
"g.g.g.g.g.g.g.a.g.h.f.u.. .  X;X;XiX! . = * y 0.0.F J J S B.!.!.!.E.J J J J 9.w.s * * # = ;XyX;XdXw   l x.g.g.g.g.g.g.g.g.g.g.g.",
"g.g.g.g.g.g.g.g.g.h.f.u.  # uXzXaXxX)   O y y 5.5.D 9 ' r B./././.~.L 8 9 9 9.6.p t *   @ aXjXaXkXH . j x.g.g.g.g.g.g.g.g.g.g.g.",
"g.g.g.g.g.g.g.g.g.g.d.d.~ / Q w w G Q ^ k O * 4.4.9.9.Z N U 8.t.8.t.N N U 9.0.r.u O f / ~ H w G Q ( ~ i.g.g.g.g.g.g.g.g.g.g.g.g.",
"g.g.g.g.g.g.g.g.g.g.d.f.f.x.@       l N.U . O e.e.e.r.-.n c z z z z n n 5.r.6.r.u   j x.u.        ( c.h.g.g.g.g.g.g.g.g.g.g.g.g.",
"g.g.a.g.g.g.g.g.g.g.g.g.a.a.~ k B k k g f . O u u :.:.:.:.3.:.:.:.:.:.3.p p u u ;   j k.a.k k B k l.g.g.g.g.g.g.g.g.g.g.g.g.g.g.",
"g.g.g.g.g.g.g.g.a.g.g.g.g.g.x.f.x.b.g             z c >.r.e.r.r.r.r.r.r.y * .       2 x.g.x.x.f.x.g.g.g.g.g.g.g.g.g.g.g.g.g.g.g.",
"g.g.g.g.g.g.g.g.g.g.g.g.g.g.g.g.g.g.g   X $ $ $ $ f x Z U a a Z a a a a i i +   1 f B d.g.a.a.a.a.g.g.g.g.g.g.g.g.g.a.g.g.g.g.g.",
"g.g.g.g.g.g.g.g.g.g.g.g.g.g.g.g.g.x.h   $ ' L L D q 5 q q $             0 D $ . C b.g.g.g.g.g.g.g.g.g.g.g.g.g.g.g.g.g.g.g.g.g.g.",
"g.g.g.g.g.g.g.g.g.g.g.g.g.g.g.g.g.c.B < w 7 e 8 8 q q 5 > 3 1 3 1 1 1 3 7 J 3 < C s.g.g.g.g.g.g.g.g.g.g.g.g.g.g.g.g.g.g.g.g.g.g.",
"g.g.g.g.a.g.g.g.g.g.g.g.g.g.g.g.h.f.d.M./ . X 8 D D L % . B v.k.k.k.k.k.1   ^ v.g.g.g.g.g.g.g.g.g.g.g.g.g.g.g.g.g.g.g.g.g.g.a.g.",
"g.g.g.g.g.g.g.g.g.g.g.g.g.g.g.g.g.g.f.f.C @ @ 8 D D D > # B g.g.a.s.g.x.3 # 1.s.g.g.g.g.g.g.g.a.g.g.g.g.g.g.g.g.g.g.g.g.g.g.g.g.",
"g.g.g.g.g.g.g.g.g.g.g.a.g.g.g.g.g.g.g.f.i.l.z.1 X X + / l.d.d.d.g.g.g.g.l.i.a.g.g.g.g.g.g.g.g.g.g.g.g.g.g.g.a.g.g.g.g.g.g.g.g.g.",
"g.g.g.g.g.g.g.g.g.g.g.a.g.g.g.g.g.g.g.g.g.s.k.<     # ^ c.a.g.g.g.g.g.g.s.s.g.g.g.g.g.g.g.g.g.g.g.g.g.g.g.g.g.g.g.g.g.g.g.g.g.g.",
"g.g.g.g.g.g.g.g.g.g.g.g.g.g.g.g.g.g.g.g.g.g.d.^ ^ ^ ^ g.g.g.g.g.g.g.g.g.g.g.g.g.g.g.g.g.g.g.g.g.g.g.g.a.g.g.g.g.g.g.g.g.g.g.g.g.",
"g.a.g.g.g.g.g.g.g.g.g.g.g.g.g.g.g.g.g.g.g.g.g.s.f.f.f.g.g.g.a.g.g.g.g.g.g.g.g.g.g.g.a.g.g.g.g.g.g.g.g.g.g.g.g.g.g.g.g.g.g.g.g.g.",
"g.g.g.g.g.g.g.g.g.g.g.g.g.g.g.g.g.g.g.g.g.g.g.g.d.f.a.g.g.g.g.g.g.g.g.g.g.g.g.g.g.g.g.g.g.g.g.g.g.g.g.g.g.g.g.g.g.a.g.g.g.g.g.g.",
"g.g.g.g.g.g.g.g.g.g.g.g.g.g.g.g.g.g.g.g.g.g.g.g.d.g.g.g.g.g.g.g.g.a.g.g.g.g.g.g.g.g.g.g.g.g.g.g.g.g.g.g.g.g.g.g.g.g.g.g.g.g.g.a.",
"g.g.g.g.g.g.g.a.g.g.g.g.g.g.g.g.g.g.g.g.g.g.g.g.g.g.g.g.g.g.g.g.g.g.g.g.g.g.g.g.g.g.g.g.g.g.g.g.g.g.g.g.g.g.g.g.g.g.g.g.g.g.g.g.",
"g.g.g.g.g.g.g.g.g.g.g.g.g.g.g.g.g.g.g.g.g.g.g.g.g.g.g.g.g.g.g.g.g.g.g.g.g.g.g.g.g.g.g.g.g.g.g.a.g.g.g.g.g.g.g.g.g.g.g.g.g.g.g.g.",
"g.g.g.g.g.g.g.g.g.g.g.g.a.g.g.g.g.g.g.g.g.g.g.g.g.g.g.g.g.g.g.g.g.g.g.g.g.g.g.g.g.g.g.g.g.g.g.g.g.g.g.g.a.g.g.g.g.g.g.g.g.g.g.g."
};
