/* XPM */
static char *a3050579dcb8498cfeb189456248bc67dvdCikEn70XKKMEC[] = {
/* columns rows colors chars-per-pixel */
"64 64 256 2 ",
"   c #010400",
".  c #0C0300",
"X  c #000B00",
"o  c #0E0A03",
"O  c #130A00",
"+  c #170800",
"@  c #011400",
"#  c #021C01",
"$  c #091806",
"%  c #181503",
"&  c #26180C",
"*  c #2C1B0D",
"=  c #002200",
"-  c #002C01",
";  c #0C2703",
":  c #162508",
">  c #083708",
",  c #183A08",
"<  c #193718",
"1  c #133513",
"2  c #272406",
"3  c #362916",
"4  c #2D3311",
"5  c #3A2C21",
"6  c #313B21",
"7  c #17322D",
"8  c #593705",
"9  c #4C2E1E",
"0  c #4F3313",
"q  c #613806",
"w  c #473424",
"e  c #563828",
"r  c #4B2F24",
"t  c #653E21",
"y  c #174919",
"u  c #144F17",
"i  c #3D5A16",
"p  c #344B17",
"a  c #176D02",
"s  c #1C681C",
"d  c #127A1D",
"f  c #187417",
"g  c #3B7C01",
"h  c #2B6A1C",
"j  c #346C17",
"k  c #1C5522",
"l  c #1F4E23",
"z  c #264B24",
"x  c #3C4627",
"c  c #285527",
"v  c #3D5826",
"b  c #335932",
"n  c #305135",
"m  c #157922",
"M  c #1A7A2B",
"N  c #1A7527",
"B  c #1D6722",
"V  c #286927",
"C  c #356826",
"Z  c #257429",
"A  c #286832",
"S  c #3A6639",
"D  c #327631",
"F  c #455818",
"G  c #564B11",
"H  c #6E4E0C",
"J  c #4B6D16",
"K  c #594627",
"L  c #465826",
"P  c #555627",
"I  c #4A4936",
"U  c #564535",
"Y  c #5A5A39",
"T  c #465438",
"R  c #68452A",
"E  c #77562A",
"W  c #664934",
"Q  c #6A5037",
"!  c #7A5A33",
"~  c #46663B",
"^  c #47793C",
"/  c #51702D",
"(  c #686335",
")  c #746D3C",
"_  c #2D374D",
"`  c #293C64",
"'  c #346D49",
"]  c #2B4F60",
"[  c #564844",
"{  c #4B544D",
"}  c #65574A",
"|  c #486C44",
" . c #497948",
".. c #58784A",
"X. c #537753",
"o. c #5A6D4F",
"O. c #766F4F",
"+. c #5C6772",
"@. c #937704",
"#. c #997918",
"$. c #896E08",
"%. c #997526",
"&. c #987734",
"*. c #8E6932",
"=. c #A27D27",
"-. c #805825",
";. c #997855",
":. c #8E7148",
">. c #A17E44",
",. c #8D7968",
"<. c #1E8326",
"1. c #25882A",
"2. c #399C2F",
"3. c #2C8B32",
"4. c #358C37",
"5. c #3A9E32",
"6. c #3B943C",
"7. c #378829",
"8. c #3DA338",
"9. c #4C9816",
"0. c #4B990B",
"q. c #629305",
"w. c #539A2C",
"e. c #4B8639",
"r. c #508F30",
"t. c #7C8B3A",
"y. c #6F8E2A",
"u. c #42A539",
"i. c #3D8D42",
"p. c #2E8678",
"a. c #4B874A",
"s. c #558648",
"d. c #479644",
"f. c #499646",
"g. c #479947",
"h. c #499847",
"j. c #4C964A",
"k. c #499949",
"l. c #479849",
"z. c #51954D",
"x. c #50984F",
"c. c #589348",
"v. c #578A55",
"b. c #549552",
"n. c #5B9559",
"m. c #5B9A5A",
"M. c #569955",
"N. c #49945B",
"B. c #658B47",
"V. c #669748",
"C. c #66845A",
"Z. c #679857",
"A. c #7D9656",
"S. c #78874B",
"D. c #53A849",
"F. c #46A643",
"G. c #669865",
"H. c #779674",
"J. c #72896E",
"K. c #7BA365",
"L. c #7CA15C",
"P. c #9B8301",
"I. c #8A831D",
"U. c #938214",
"Y. c #B09C06",
"T. c #A7871A",
"R. c #AA9110",
"E. c #BBA616",
"W. c #BDA50F",
"Q. c #978229",
"!. c #908637",
"~. c #A88928",
"^. c #B69925",
"/. c #AE8F38",
"(. c #BCA72B",
"). c #98B132",
"_. c #C8B719",
"`. c #D3BA25",
"'. c #CEB431",
"]. c #C59F3C",
"[. c #B0D22E",
"{. c #B0D718",
"}. c #DACF13",
"|. c #DCC529",
" X c #D2CE2F",
".X c #E5CD38",
"XX c #EBD638",
"oX c #E4CF2A",
"OX c #FDF638",
"+X c #F8F12F",
"@X c #E7E41B",
"#X c #928C51",
"$X c #B28F53",
"%X c #B7AB58",
"&X c #8B9265",
"*X c #AA976F",
"=X c #B89664",
"-X c #AD9572",
";X c #8FAC6F",
":X c #B2A973",
">X c #C39756",
",X c #CBA646",
"<X c #C8A856",
"1X c #D7B34D",
"2X c #D0B070",
"3X c #D1AC6B",
"4X c #A9DA59",
"5X c #ECD350",
"6X c #D2FB52",
"7X c #FDF547",
"8X c #FFF254",
"9X c #F8E550",
"0X c #D4C36B",
"qX c #F5DA63",
"wX c #E6CF6C",
"eX c #D3F66B",
"rX c #FDE866",
"tX c #EDF06E",
"yX c #3F9685",
"uX c #798396",
"iX c #6F9884",
"pX c #53A593",
"aX c #66A1A2",
"sX c #8A9989",
"dX c #B6AD8E",
"fX c #929CAF",
"gX c #A3AD97",
"hX c #CBAC86",
"jX c #D9B98A",
"kX c #DABA96",
"lX c #C8B990",
"zX c #C7BFB2",
"xX c #D9C699",
"cX c #C7C190",
"vX c #E2C498",
"bX c #D7C8B4",
"nX c #D2CAAD",
"mX c #E7CAA2",
"MX c #F7DCB6",
"NX c #EED5B0",
"BX c #FDE4BC",
"VX c #FFE8BF",
"CX c #FFE5B6",
"ZX c #DFF789",
"AX c #D7D5C5",
"SX c #EFDCCA",
"DX c #FBE6C4",
"FX c #FFEBC3",
"GX c #FFEECD",
"HX c #FFF1C7",
"JX c #FDF5D7",
"KX c #F9EAD3",
"LX c #FDFBE9",
"PX c #FFFFFD",
"IX c #F9F9F5",
"UX c #E9FAF4",
/* pixels */
"h.h.h.h.h.h.h.h.h.h.h.h.h.h.h.h.h.h.h.h.h.h.l.k.l.h.h.h.h.h.h.h.h.h.h.h.h.h.l.l.h.h.h.h.h.h.h.h.h.h.h.h.h.h.h.h.h.h.h.h.h.h.h.h.",
"h.h.h.h.h.h.h.h.h.h.h.h.h.h.h.h.h.h.h.h.h.h.j.k.h.h.h.h.h.h.h.h.h.h.h.h.h.h.g.g.h.h.h.h.h.h.h.h.h.h.h.h.h.h.h.k.h.h.h.h.h.h.k.h.",
"h.h.h.h.h.h.h.h.h.h.h.h.h.h.h.h.h.h.h.h.h.h.h.h.h.h.h.h.h.h.h.k.h.h.h.h.h.h.h.h.h.h.h.h.h.k.h.h.h.h.h.h.h.h.h.h.h.h.h.h.f.f.k.k.",
"h.h.h.h.h.h.h.h.h.h.h.h.h.h.h.h.h.h.h.h.h.h.h.h.h.h.f.l.h.h.F.k.h.h.h.h.h.h.h.h.h.h.h.h.h.h.h.h.h.h.h.h.h.h.h.h.h.h.h.h.l.k.f.k.",
"h.h.h.h.h.h.h.h.h.h.h.f.h.h.h.h.h.h.h.h.h.h.h.h.h.h.k.k.f.l.g.g.h.h.h.h.h.f.f.h.h.h.h.h.h.h.h.f.h.h.h.h.h.h.h.h.h.h.h.h.h.h.h.h.",
"h.h.h.h.h.h.h.h.h.h.h.g.h.h.h.h.h.h.h.h.h.h.h.h.k.k.k.k.g.g.l.l.g.l.l.h.k.k.k.f.h.h.h.h.h.h.h.g.h.h.h.h.h.h.h.h.h.h.h.h.h.h.h.h.",
"h.h.h.h.h.h.h.h.h.h.k.f.k.k.h.h.h.h.h.h.h.h.l.f.j.j.M.D.h.g.k.F.g.k.l.h.x.M.x.j.h.h.h.h.h.h.f.f.h.h.h.h.k.h.h.h.h.h.h.h.h.h.h.h.",
"h.h.h.h.h.h.h.h.h.h.f.k.k.h.h.h.h.h.h.h.h.h.l.j.x.a.D ' i.i.i.i.i.i.i.i.i.D ^ z.j.h.h.h.d.h.k.f.h.h.h.h.h.h.h.h.h.h.h.h.h.h.h.h.",
"h.h.h.h.k.f.k.k.h.h.h.h.h.h.h.h.d.h.h.h.h.h.k.j.G.| @ - Z d d <.<.<.d M u X u m.x.k.k.k.h.h.h.k.h.h.h.h.k.k.h.h.h.h.h.h.h.h.h.h.",
"h.h.h.h.f.l.k.h.h.h.h.h.h.h.h.h.f.f.h.h.h.f.j. . .' - u 3.<.<.<.<.<.m 3.k > c  .' x.j.h.g.h.k.l.h.h.h.h.k.h.h.h.h.h.h.h.h.h.h.h.",
"h.h.h.h.h.h.h.h.h.h.h.h.h.h.h.h.f.k.k.k.h.z.m.y @ y A 3.F.8.8.8.u.u.u.F.3.A l @ - n.z.h.f.f.h.h.h.h.h.h.k.f.h.h.h.h.h.h.h.h.h.h.",
"h.h.h.h.h.h.h.h.h.h.h.h.h.h.h.h.l.f.f.k.j.a.n.z # u M <.8.5.2.2.8.5.5.5.3.M k = 1 n.v.j.k.h.h.h.h.h.h.h.f.l.h.h.h.h.h.h.h.h.h.h.",
"h.h.h.h.h.h.h.h.h.h.h.h.h.h.h.h.h.h.h.j.b.1 - c A M m m d d d d m m d m m m N A A - > b.j.k.f.f.h.h.h.h.h.h.h.h.h.h.h.h.h.h.h.h.",
"h.h.h.h.h.h.h.h.h.h.h.h.h.h.h.h.h.k.j.m.G.- @ u M d d d d <.d d d d d d d d d M B = - G.m.j.k.h.h.h.h.h.h.h.h.h.h.h.h.h.h.h.h.h.",
"h.h.h.h.h.h.h.h.h.h.h.h.h.h.h.h.h.j.b.c k A s 4.6.5.5.2.5.5.2.2.2.2.2.5.5.2.2.5.i.s c k z  .b.g.h.h.h.h.h.h.h.h.h.h.h.h.h.h.h.h.",
"h.h.h.h.h.h.h.h.h.h.h.h.h.h.h.h.l.x.v.= @ c V 6.w.9.0.0.0.0.w.w.w.w.9.9.w.w.w.w.u.V A = @  .b.h.h.h.h.h.h.h.h.h.h.h.h.h.h.h.h.h.",
"h.h.h.h.l.g.g.g.f.h.d.h.h.h.h.h.h.z.v.- # ^ e.w.y.).[.{.{.[.y.!.!.y.[.[.[.y.t.t.r.e.e.= # X.z.g.h.f.f.l.h.h.k.h.h.h.h.h.h.h.h.h.",
"h.h.h.h.l.g.g.g.d.f.h.h.h.h.h.j.z.n.n.= @ ..y.t.y. XOX+XOX9XU.I.!.I. XOXE.H !.!.#Xy.B.; @ X.m.j.k.k.h.h.h.h.h.h.h.h.h.h.h.h.h.h.",
"h.h.h.h.h.h.h.h.f.f.f.f.h.k.h.z.a.S S u > B.S.!.#.'.OX@X[. XE._.~.U.oX+X}.{.^.Q.!.t.V.y 1 S S  .x.f.l.h.f.f.h.h.h.h.h.h.h.h.h.h.",
"h.h.h.h.d.h.h.h.h.h.h.f.r.j.f.c.~ X - ~ / t.!.Q.$.`.OX}.$.P.8X8XT.P.oX+XOX7X5X@.%.!.S./ ~ - X z n.e.c.d.j.h.h.h.h.h.h.h.u.h.h.h.",
"h.h.h.h.h.h.h.h.h.h.h.f.V.L.&X;XO.% 2 L G #X~.^.Y.`.9XoXY._.XXXXE.Y.oXOXXXXX`.E.^.Q.#XP P 4 O } ;X&X&XL.D.f.j.k.h.h.h.h.f.h.h.h.",
"h.h.h.h.h.h.h.h.h.h.k.c.#X&X:XmX-XK K K G <X1X9X8XoX_.|.9X9X@.@.XX7X|.'.^.@.E.rXqXU.Q.H G K K #XmXlX#X;XZ.f.h.h.h.h.h.h.j.h.h.f.",
"h.h.g.g.h.h.h.h.h.h.k.r.A.&.*XxX*XE ! H H ,X`.XX9XoX`.|.9X5X=.R.XXOX'.1X$X~.].qX5XR.~.H H Q R #XxX:X*.&XA.h.h.h.h.h.h.h.h.h.h.h.",
"h.h.h.h.h.h.f.h.h.h.h.c.Y F :XFXMXBXmX&.T.qX8XW.@.`.OXoXP.P.=.=.XX7X^.=.<X2X,X#.R.9XrX~.&.vXBXMXHXlX0 ) V.c.j.h.h.h.h.h.h.f.f.f.",
"h.h.h.h.h.h.h.h.h.h.d.c...P :XHXBXDXNX&.~.qXrXW.@.`.+X}.@.R.=.=.9X9X].*.=XjX3X%.^.qXqX^.&.vXHXBXHXcXK S.Z.j.h.h.f.h.k.k.f.h.h.h.",
"h.h.h.h.h.h.h.h.h.h.h.j.B.A.O.) #XnX2XE H ~.^.].]..X+X+XXX5X].,X$.$.>X3XjXCXjX&.^.1X1X^.&.3XxX*X( O.A.Z.c.j.f.h.f.h.d.k.k.h.h.h.",
"h.h.h.h.h.h.h.h.h.h.h.h.f.V.Y F X.zX:X8 q #.=.,X1X5XOX+XXX9X1X3XH q =XjXmXHXvX*.&.3X1XQ.*.%XnXH.G / B.f.f.f.h.h.h.h.k.h.h.h.h.h.",
"h.h.d.d.h.h.h.h.h.h.h.h.d.c.s...iXgX;X%X>X$.-.>X1X'.XX`.W.].%.*.$X;.kXNXNXFXvX=X=X%.#.,X0X;XsXiX....c.h.h.h.h.h.h.h.h.h.h.h.h.h.",
"h.h.h.h.h.h.h.h.h.h.h.h.h.h.z.N.aXpXK.ZXtXH q >XwX1X1X>X=.%.q q hXkXMXDXHXGXMXmXjXq q wXZX;XpXpXN.j.j.h.h.h.h.h.h.h.h.h.h.h.h.h.",
"h.h.h.h.h.h.h.h.h.h.h.h.h.h.g.N.yX' e.eXtXP.H *.*.>.>X>.*.*.;.;.kXmXmXmXlX:X-X:.:.-.$.5XtXw.A p.N.d.h.f.h.h.h.h.h.h.h.h.h.h.h.h.",
"h.h.h.h.h.h.h.g.h.g.h.h.h.h.h.M.p.@ , qX8X~.$X* + e *X*.q E kXkXMXDXkXkX;.r * . + #X~.5XtXJ @ n m.g.h.d.h.h.h.h.h.h.h.h.h.h.h.k.",
"h.h.h.h.h.h.h.g.h.h.h.h.h.h.h.M.| @ 4 qXqX#.*.Y e } ,.O.t -.kXkXMXDXhXdX,.[ [ [ Y :.#.5XrXG X b M.d.h.h.h.h.h.h.k.k.h.h.h.h.h.f.",
"h.h.h.h.h.h.h.h.h.h.h.h.h.h.g.n.| X 2 2X1X-.e bXPXfX` ` e ! VXVXMXFX:.9 [ ` sXPXSXe H <X2XG   c m.d.h.f.h.h.h.h.h.h.h.h.h.h.h.h.",
"h.h.h.h.h.h.h.h.h.h.h.h.h.h.f.x. .; 4 :X=XR r bXPXfX` +.[ :.BXBXBXFX;.[ +.` uXPXSXK e =X2XG # b M.f.g.h.h.h.h.h.h.h.h.h.h.h.f.f.",
"h.h.h.h.h.h.h.h.h.h.g.g.h.h.h.j.z.v.C.2 % + . dXPXfX` uXIXKXDXBXDXDXKXIXfX` uXIXbXO + % % ..v.j.f.h.h.h.h.h.h.h.h.h.h.h.h.h.f.h.",
"h.h.h.h.h.h.h.h.h.h.g.g.h.h.h.h.h.c.v.=       gXLXsX_ uXPXLXDXVXBXDXJXPXfX_ +.LXbX.     @  .M.j.h.d.h.h.h.h.h.h.h.h.h.h.h.h.h.h.",
"h.h.h.h.h.h.h.h.l.g.h.h.h.h.h.h.h.j.z.a.X.;   :.-XdXbXAXKXDXDXBXBXBXDXKXSXbXlX-X,.o ; X. .a.j.f.h.h.h.h.j.h.h.h.h.h.h.h.h.h.h.h.",
"h.h.h.h.h.h.h.h.l.l.h.h.h.h.h.h.h.j.z.n.H.;   } :.jXJXKXFXFXVXVXFXVXFXFXKXJXmX,.O.  ; G.Z.b.j.j.h.h.h.h.k.h.h.h.h.h.h.h.h.h.g.g.",
"k.h.h.h.g.g.h.h.h.h.h.h.h.h.h.h.l.j.v.b b c p P ! :.;.-XvXxXvXvXxXvXvXmX:X;.:.! Q p c b b v.j.k.h.h.h.h.h.h.h.h.h.h.h.h.h.h.h.h.",
"h.h.h.h.h.h.h.h.h.h.d.d.h.h.h.k.j.m.H.# X b b L K 0 0 :.xXcXcXcXlXcXdXxX;.0 G K L b b # X X.Z.z.j.h.h.h.h.h.h.h.h.h.h.h.h.h.h.h.",
"h.h.g.g.h.h.h.h.h.h.h.h.h.h.h.j.a.| +.7 7 iXiX~ p L v ^ ;XL.K.K.K.K.K.K.s.F L p L &XiX< % {  .a.j.h.h.j.h.h.h.h.h.h.h.h.h.h.h.h.",
"h.h.g.g.h.h.h.h.h.h.h.h.h.h.x.m.| X $ { { UXIXo.; p V V s s s s B B h B Z C c ; v IXIX[ 3 % X c G.j.j.h.h.h.h.h.h.h.h.h.h.h.h.h.",
"h.h.h.h.h.h.k.h.h.h.h.d.h.z.a...{ % & [ { zXAX{ , i Z N M M M N M M M M m Z c y x bXzXU 9 * O x ..a.j.h.h.h.k.k.h.h.h.h.h.h.h.h.",
"h.h.h.h.h.h.h.h.h.h.h.g.d.M.z X 2 Y K U I .   6 L v V N N N f f f f m m N h C L x   . e W R Q 4 X z m.k.h.h.k.k.h.h.h.h.h.h.h.h.",
"h.h.h.h.h.h.h.h.h.g.h.h.f.M.z   * Q W W U % X p F J C C V j J g 0.g j j v C L F v X o K Q R Q 3   z m.f.h.h.h.h.h.h.h.h.h.h.h.h.",
"h.h.h.h.h.h.h.h.h.h.h.h.d.m.z   I kXhXMXNXx : ~ V./ i L i J 6X6X4XeXq.i i i J B..., 4 nXMXkXkX}   z m.f.h.j.h.h.h.h.h.h.h.h.h.h.",
"h.h.h.h.h.h.h.h.f.d.h.h.d.m.c X Y bXxXJXKXx > ^ D./ F F F J eX6X6XeXy.F F p J V.s., 6 AXJXnXnXO.X z M.g.h.h.h.h.j.h.h.h.h.h.h.h.",
"h.h.k.h.h.h.h.h.h.d.h.f.d.j.v.C.o.w x I x $ # h j D y.J F J q.q.q.q.J F / y.e.Z V = # x I I 3 Y C.v.j.g.h.h.h.h.h.h.h.h.h.h.h.h.",
"h.h.h.h.h.h.h.h.h.h.h.g.h.h.j.n.~     X     X c D 4.D.4.f f a a a a f f 7.D.4.V b @ X       X z G.j.k.f.h.h.h.h.h.h.h.h.h.h.h.h.",
"h.h.h.h.g.h.h.h.h.h.h.h.h.h.h.b.v.S S { { $   1 > B 3.1.3.3.3.3.3.3.3.3.1.1.N u 1 X $ T | ~ S  .j.g.h.f.h.h.h.h.h.h.h.h.h.h.h.h.",
"h.h.h.h.h.h.h.h.h.h.h.h.h.h.h.k.z.M.m.G.H.;   X X 1 Z 7.D.D.D.D.D.D.D.D.4.Z z X     : H.G.n.n.z.k.h.h.h.h.h.h.h.h.h.h.h.h.h.h.h.",
"h.h.k.h.h.h.h.h.h.h.h.h.h.h.h.h.f.f.j.S ~ 4 & & % < l u h h h V h j h V k y 7 % % & 3 | S a.j.k.k.h.h.h.h.h.h.h.h.h.h.h.h.h.h.h.",
"h.h.h.h.h.h.h.h.h.h.h.h.h.h.k.f.k.j.v.# o e Q e w %       X X X @ X X       o w r Q W O X  .M.k.f.f.h.h.h.h.h.h.h.h.h.h.h.h.h.h.",
"h.h.h.h.h.h.h.h.h.h.h.h.h.h.h.f.k.j.v.; . t R 0 r * o o   $ 6 < < z $   o o * r 9 R W + X X.b.j.g.f.h.h.h.h.h.h.h.h.h.h.h.h.h.h.",
"h.h.h.h.k.h.h.h.h.h.h.h.h.h.h.h.f.j.n.# . e W R Q e r *   7 G.n.m.G.n   & 5 r R R R W +    .b.d.f.g.h.g.h.f.h.l.h.h.h.h.h.h.h.h.",
"h.h.h.h.h.h.h.h.h.h.h.h.h.h.h.h.l.b.v.< : [ K R R r r 5 : n v.f.j.n.b % 3 r r W R K U 2 1  .x.f.f.h.h.f.h.h.h.f.h.h.h.h.h.h.h.h.",
"h.h.h.h.h.h.h.h.h.h.h.h.h.h.h.h.h.j.z.n.C.: o . + O   x G.n.j.f.j.x.v.G.T   . O O o : C.Z.b.k.k.h.h.h.h.l.f.k.k.h.h.h.h.h.h.h.h.",
"h.h.h.h.h.h.h.h.h.h.h.h.h.h.h.h.h.h.j.z.v.1 @ o $ $ X n C.j.j.f.l.j.j.m.' @ $ $ $ # > C.z.j.f.f.h.h.h.h.f.k.k.h.h.h.h.h.h.h.h.h.",
"h.h.h.h.h.h.h.h.h.h.h.h.h.h.h.h.h.h.h.j.b.a.a.v.v.X.a.v.x.h.h.h.f.f.l.j.v.a.s.v.v.X.a.z.j.f.f.g.h.h.h.h.h.h.h.h.h.h.k.h.h.h.h.h.",
"h.h.h.h.h.h.f.l.h.h.h.h.h.h.h.h.h.h.h.h.j.z.b.b.b.j.b.z.h.h.h.h.g.g.f.k.j.x.j.b.b.x.k.j.f.f.l.f.h.h.h.h.h.h.h.h.h.h.h.h.h.h.h.h.",
"h.h.h.h.h.k.k.f.h.h.h.h.h.h.h.h.h.h.h.h.h.f.f.j.k.k.f.k.h.h.h.h.h.h.h.h.l.j.k.j.j.j.h.h.h.h.h.h.h.h.h.h.h.h.h.h.h.h.h.h.h.h.h.h.",
"h.h.h.h.h.h.k.k.h.h.h.h.h.h.h.h.h.h.k.g.h.h.h.h.f.f.f.f.h.h.h.h.h.h.h.h.l.f.f.f.h.h.h.h.h.h.h.h.h.h.h.h.h.h.h.h.k.h.h.h.h.k.h.h.",
"h.h.h.h.h.h.h.h.h.h.h.h.h.h.h.h.h.h.h.h.h.j.h.h.h.h.f.f.h.h.l.l.k.h.k.k.h.h.f.f.d.d.h.g.h.h.g.g.h.h.h.h.h.h.h.h.h.h.h.h.h.h.h.h.",
"h.h.h.h.h.h.h.h.h.h.h.h.h.h.h.h.h.h.h.h.h.h.h.h.d.h.h.h.h.h.l.l.h.h.h.h.h.h.h.g.h.h.h.h.h.h.l.l.h.h.h.h.h.h.h.h.h.h.h.h.h.h.h.h."
};
