/* XPM */
static char *_38a58aea20b46b1f23bd7a03d6ccbabXcD6XfL2oYhDWcYK[] = {
/* columns rows colors chars-per-pixel */
"64 64 237 2 ",
"   c #000101",
".  c #030C03",
"X  c #0B0A05",
"o  c #0A050B",
"O  c #080508",
"+  c #150705",
"@  c #031305",
"#  c #041C09",
"$  c #051A05",
"%  c #170F17",
"&  c #151416",
"*  c #0E0713",
"=  c #24190F",
"-  c #34170D",
";  c #271610",
":  c #351E18",
">  c #052305",
",  c #07270A",
"<  c #023A03",
"1  c #02340A",
"2  c #0A340B",
"3  c #043A0A",
"4  c #0A3C0B",
"5  c #0A3803",
"6  c #182A17",
"7  c #073812",
"8  c #132C14",
"9  c #372514",
"0  c #2F2B0D",
"q  c #1B2D39",
"w  c #272D29",
"e  c #2B372B",
"r  c #353935",
"t  c #2F2F2C",
"y  c #411C13",
"u  c #47381C",
"i  c #5A371B",
"p  c #4A2A16",
"a  c #663518",
"s  c #7D331D",
"d  c #753A17",
"f  c #733110",
"g  c #583826",
"h  c #4C392F",
"j  c #723321",
"k  c #0C430C",
"l  c #0E490E",
"z  c #114B0F",
"x  c #18430D",
"c  c #0B4313",
"v  c #0A4918",
"b  c #0A4C14",
"n  c #144B13",
"m  c #0D5415",
"M  c #0E5C1A",
"N  c #0C541A",
"B  c #155714",
"V  c #2A5513",
"C  c #0E641D",
"Z  c #12661F",
"A  c #114924",
"S  c #324B2A",
"D  c #29562B",
"F  c #365928",
"G  c #3E4239",
"H  c #2F512F",
"J  c #0C6220",
"K  c #0E6E23",
"L  c #136920",
"P  c #0E7425",
"I  c #0B7729",
"U  c #0E7B29",
"Y  c #077929",
"T  c #127424",
"R  c #117B29",
"E  c #167829",
"W  c #3A6637",
"Q  c #3A763B",
"!  c #257A34",
"~  c #464418",
"^  c #505709",
"/  c #5F6905",
"(  c #716611",
")  c #4B5823",
"_  c #495623",
"`  c #7A4824",
"'  c #73522C",
"]  c #6E5131",
"[  c #5C6823",
"{  c #5B6622",
"}  c #4A653B",
"|  c #756436",
" . c #73702F",
".. c #1B3550",
"X. c #293644",
"o. c #3F4842",
"O. c #3F5341",
"+. c #0A6B59",
"@. c #3F7540",
"#. c #264F77",
"$. c #424C42",
"%. c #415241",
"&. c #4C5448",
"*. c #535B54",
"=. c #685D4F",
"-. c #456645",
";. c #477747",
":. c #5B7E5A",
">. c #5B724B",
",. c #726E51",
"<. c #677867",
"1. c #677678",
"2. c #736E62",
"3. c #823A24",
"4. c #A37E11",
"5. c #864B26",
"6. c #8B5733",
"7. c #9B733C",
"8. c #98773C",
"9. c #906B33",
"0. c #A7773C",
"q. c #A16F34",
"w. c #866747",
"e. c #986647",
"r. c #86764A",
"t. c #8E7358",
"y. c #A47B43",
"u. c #A77746",
"i. c #AC7950",
"p. c #368B1F",
"a. c #0D832C",
"s. c #088329",
"d. c #10842C",
"f. c #198A2B",
"g. c #0E8732",
"h. c #228A28",
"j. c #258727",
"k. c #348521",
"l. c #368B21",
"z. c #3C8D21",
"x. c #2A9129",
"c. c #3E9C26",
"v. c #369A29",
"b. c #399725",
"n. c #328F3C",
"m. c #3EA229",
"M. c #3DAC28",
"N. c #37A42A",
"B. c #3FB32A",
"V. c #688C0B",
"C. c #469E22",
"Z. c #41A429",
"A. c #45A929",
"S. c #43A727",
"D. c #47B52C",
"F. c #4CC230",
"G. c #3D9843",
"H. c #448544",
"J. c #4A8E4A",
"K. c #468C47",
"L. c #469646",
"P. c #469A46",
"I. c #499649",
"U. c #449B49",
"Y. c #489848",
"T. c #499747",
"R. c #55974C",
"E. c #598759",
"W. c #599856",
"Q. c #6A8950",
"!. c #4DA24D",
"~. c #4BA84B",
"^. c #51A251",
"/. c #56A956",
"(. c #53B653",
"). c #728D6A",
"_. c #67B367",
"`. c #8D910A",
"'. c #B0B501",
"]. c #8E8D2B",
"[. c #92A43E",
"{. c #8CA13B",
"}. c #AABF27",
"|. c #93BF14",
" X c #CBB513",
".X c #CDB927",
"XX c #C79B3A",
"oX c #9ACA16",
"OX c #BACF07",
"+X c #DDD315",
"@X c #CFC60A",
"#X c #D1E408",
"$X c yellow",
"%X c #F6FF03",
"&X c #FFF711",
"*X c #D5C721",
"=X c #DDFF30",
"-X c #E1FF31",
";X c #E0D613",
":X c #8B8845",
">X c #94954D",
",X c #B28A50",
"<X c #998A69",
"1X c #929170",
"2X c #A99B69",
"3X c #B49165",
"4X c #87A776",
"5X c #92A87A",
"6X c #A3A06D",
"7X c #C79A4D",
"8X c #EFB156",
"9X c #F7B75D",
"0X c #F1BD4E",
"qX c #C9AA79",
"wX c #56718B",
"eX c #09848D",
"rX c #1BA0BD",
"tX c #30899F",
"yX c #1DA3CB",
"uX c #02C8FE",
"iX c #90B28F",
"pX c #819BB3",
"aX c #BAB68B",
"sX c #D8BB93",
"dX c #CDB58F",
"fX c #EABD98",
"gX c #D3C299",
"hX c #E1C79C",
"jX c #D5CCA8",
"kX c #ECD1A6",
"lX c #D3EBDA",
"zX c #FEEEC6",
"xX c #FFF5CD",
"cX c #FFFCD6",
"vX c #FBFDFB",
"bX c #F4F9ED",
"nX c #D7D0D1",
/* pixels */
"Y.Y.Y.Y.Y.Y.Y.Y.Y.Y.Y.Y.Y.Y.Y.Y.Y.Y.Y.Y.Y.Y.Y.Y.Y.Y.Y.Y.Y.Y.Y.Y.Y.Y.Y.Y.Y.Y.Y.Y.Y.Y.Y.Y.Y.Y.Y.Y.Y.Y.Y.Y.Y.Y.Y.Y.Y.Y.Y.Y.Y.L.Y.Y.",
"Y.Y.Y.Y.Y.Y.Y.Y.Y.Y.Y.Y.Y.Y.Y.Y.Y.Y.Y.Y.Y.Y.Y.Y.Y.Y.Y.Y.Y.Y.Y.Y.Y.Y.Y.Y.Y.Y.Y.Y.Y.Y.Y.Y.Y.Y.Y.Y.Y.Y.Y.Y.Y.L.Y.Y.Y.Y.Y.Y.Y.Y.Y.Y.",
"Y.Y.Y.Y.Y.Y.Y.Y.Y.Y.Y.Y.Y.Y.Y.Y.Y.Y.Y.Y.Y.Y.Y.Y.Y.Y.Y.Y.Y.Y.Y.Y.Y.Y.Y.Y.Y.Y.Y.Y.Y.Y.Y.Y.Y.Y.Y.Y.Y.Y.Y.Y.T.Y.Y.Y.Y.Y.Y.Y.Y.Y.Y.Y.",
"Y.Y.Y.Y.Y.Y.Y.Y.Y.Y.Y.Y.Y.Y.Y.Y.Y.Y.Y.Y.Y.L.Y.Y.Y.Y.Y.Y.Y.Y.Y.Y.Y.Y.Y.Y.Y.Y.Y.Y.Y.Y.Y.Y.Y.Y.Y.Y.Y.Y.Y.Y.Y.Y.Y.Y.Y.Y.Y.Y.Y.Y.Y.Y.",
"Y.Y.Y.Y.Y.Y.Y.Y.Y.Y.Y.Y.Y.Y.Y.Y.Y.Y.Y.Y.Y.Y.Y.Y.L.Y.Y.Y.Y.Y.Y.Y.Y.Y.Y.Y.Y.Y.Y.Y.Y.Y.Y.Y.Y.Y.Y.Y.Y.Y.Y.Y.Y.Y.Y.Y.Y.Y.Y.Y.Y.Y.Y.Y.",
"Y.Y.Y.Y.Y.Y.Y.Y.Y.L.Y.Y.Y.Y.Y.Y.Y.Y.L.Y.Y.Y.Y.Y.Y.Y.Y.Y.Y.I.Y.Y.Y.Y.Y.Y.Y.Y.Y.Y.Y.Y.Y.Y.Y.Y.Y.Y.Y.Y.Y.Y.Y.Y.Y.Y.Y.Y.Y.Y.Y.Y.Y.Y.",
"Y.Y.Y.Y.Y.Y.Y.Y.Y.Y.Y.Y.Y.Y.Y.Y.Y.Y.Y.Y.Y.Y.Y.Y.Y.Y.Y.Y.Y.Y.Y.Y.Y.Y.Y.Y.Y.Y.Y.Y.Y.Y.Y.Y.Y.Y.Y.Y.Y.T.Y.Y.Y.T.Y.Y.Y.Y.Y.Y.Y.Y.Y.Y.",
"Y.Y.Y.Y.Y.Y.Y.Y.Y.Y.Y.Y.Y.Y.Y.Y.Y.Y.Y.Y.Y.Y.Y.Y.Y.Y.L.L.I.I.T.I.T.T.T.L.Y.Y.Y.Y.Y.Y.Y.Y.Y.Y.Y.Y.Y.Y.Y.Y.Y.Y.Y.Y.Y.Y.Y.Y.L.Y.Y.Y.",
"Y.Y.Y.Y.Y.Y.Y.Y.Y.Y.Y.Y.Y.Y.L.Y.Y.Y.Y.Y.Y.Y.Y.Y.I.J.!.!.U.U.U.U.L.P.G.U.U.U.I.I.Y.Y.Y.Y.Y.Y.P.Y.Y.Y.Y.Y.Y.Y.Y.Y.Y.Y.Y.Y.Y.Y.Y.Y.",
"Y.Y.Y.Y.Y.Y.Y.Y.Y.Y.Y.Y.Y.Y.Y.Y.Y.Y.Y.Y.Y.Y.Y.Y.I.Z.e 6  .:X:X:X:X:X:X] | I.U.I.Y.Y.Y.Y.Y.Y.Y.Y.Y.Y.Y.Y.Y.Y.Y.Y.Y.Y.Y.Y.Y.Y.Y.Y.",
"Y.Y.Y.L.Y.Y.Y.Y.Y.Y.Y.Y.Y.Y.Y.Y.Y.Y.Y.Y.Y.Y.Y.Y.!.W.* . w.i.u.e.u.u.9.a 5.W.G.U.Y.Y.Y.Y.Y.Y.Y.Y.Y.Y.Y.Y.Y.L.Y.Y.Y.Y.Y.Y.Y.Y.Y.Y.",
"Y.Y.Y.Y.Y.Y.Y.Y.Y.Y.Y.Y.Y.Y.Y.Y.Y.Y.Y.Y.Y.L.Y.H.6 S 8.8..X;X+X+X+X;X.X,X,X:X:XR.Y.Y.Y.I.Y.Y.Y.Y.Y.Y.Y.Y.Y.Y.Y.Y.Y.Y.Y.L.Y.Y.Y.Y.",
"Y.Y.Y.Y.Y.Y.Y.Y.Y.Y.Y.Y.Y.Y.Y.Y.Y.Y.Y.Y.I.U.~.@.  + 8X9X&X$X$X$X$X$X&X8X8Xu.i.W.G.U.~.G.P.Y.Y.Y.Y.Y.Y.Y.Y.Y.Y.Y.Y.Y.Y.Y.Y.Y.Y.Y.",
"Y.Y.Y.Y.L.Y.Y.Y.Y.Y.Y.Y.Y.Y.Y.Y.Y.Y.Y.Y.Y.H.-.} V D {.[.oXoXoXoXoXoXoX[.>X.X.X>X>X).,.).Y.Y.Y.Y.Y.Y.T.Y.Y.Y.Y.Y.Y.Y.Y.Y.Y.Y.Y.L.",
"Y.Y.Y.Y.Y.Y.Y.Y.Y.Y.Y.Y.Y.Y.Y.Y.Y.Y.Y.Y.~.W   8 D.D.M.M.N.N.N.N.N.v.N.N.M.%X$XXX,X6.f t.!.n.!.Y.Y.Y.L.Y.Y.Y.Y.L.Y.Y.Y.Y.Y.Y.Y.Y.",
"Y.L.Y.Y.Y.Y.Y.Y.Y.Y.Y.Y.L.Y.Y.Y.Y.Y.U.I.).;.2 n l.k.p.p.l.l.l.p.p.p.l.l.p.OX#X].| 9.6.,X5X4XY.P.Y.Y.Y.Y.Y.Y.Y.Y.Y.Y.Y.Y.Y.Y.Y.Y.",
"Y.Y.Y.Y.Y.Y.Y.Y.Y.Y.Y.Y.Y.Y.Y.Y.Y.L.^.$.o D F.z.1 4 2 3 3 2 3 2 3 3 2 5 4 b.Z.B 1 8.9X7X,X3XY.U.Y.Y.Y.Y.Y.Y.Y.Y.Y.Y.Y.Y.Y.Y.Y.Y.",
"Y.Y.Y.Y.Y.Y.Y.L.Y.Y.Y.Y.Y.Y.Y.Y.Y.L.^.%.  n Z.k.z z z z z z z z z z z z z b.C.Z < ].0X7X7.2XR.Y.Y.Y.Y.Y.Y.Y.Y.Y.Y.Y.Y.Y.Y.Y.Y.Y.",
"Y.Y.Y.Y.Y.Y.Y.Y.Y.Y.Y.Y.Y.Y.Y.Y.Y.e . N d.C 4 B Z.m.c.c.Z.m.m.m.Z.c.m.m.m.z k Z Y |.$X*X7.,XR.U.Y.L.Y.Y.Y.Y.Y.Y.Y.Y.L.Y.Y.Y.Y.Y.",
"Y.Y.Y.Y.Y.Y.Y.Y.Y.Y.Y.Y.Y.Y.Y.Y.R.e   N g.C 5 B A.Z.Z.Z.Z.Z.Z.Z.Z.Z.m.S.m.k 5 T Y |.$X*Xi.2XY.Y.Y.Y.Y.Y.Y.Y.Y.Y.Y.Y.Y.Y.Y.Y.Y.Y.",
"Y.Y.Y.Y.Y.Y.Y.Y.Y.Y.Y.Y.I.I.I.U.R.t   3 z M P E Z.Z.Z.Z.Z.Z.Z.Z.Z.m.Z.Z.m.b.b.B 7 V V Q.W.R.I.Y.Y.Y.Y.Y.Y.Y.Y.Y.Y.Y.Y.Y.Y.Y.L.Y.",
"Y.Y.Y.Y.Y.Y.Y.Y.Y.Y.Y.Y.Y.U.U.U.!.e   , 4 B a.f.A.Z.Z.Z.Z.Z.Z.Z.Z.Z.S.m.m.A.A.B 3 c < } U.G.Y.Y.Y.Y.Y.Y.Y.Y.L.Y.Y.Y.Y.Y.Y.Y.Y.Y.",
"Y.Y.Y.Y.Y.Y.Y.Y.Y.Y.L.P.R.2X2XdXgXH > m Z C b C h.h.Z.Z.m.m.Z.Z.Z.Z.m.Z.m.h.h.b 4 n k ;.jXaX2X6XY.L.Y.Y.Y.Y.Y.Y.Y.Y.Y.Y.Y.Y.Y.Y.",
"Y.Y.Y.Y.L.Y.Y.Y.U.L.L.U.R.7.0.dXsXD k Z d.C 5 z I I Z.A.Z.A.Z.Z.Z.m.Z.A.Z.U I m k z 3 [ fXqX7.y.Y.!.L.Y.Y.Y.Y.Y.L.Y.Y.Y.Y.Y.Y.Y.",
"Y.Y.Y.Y.Y.L.Y.Y.Y.L.W.<X1XqXqXhXkXF 5 C a.N $ 4 R R x.x.x.j.v.A.Z.Z.c.x.x.R R 7 $ 4 <  .kXgXqXqX<X1X4Xn.Y.Y.Y.Y.Y.Y.Y.Y.Y.Y.Y.Y.",
"Y.Y.Y.Y.Y.Y.Y.Y.L.P.1Xf e.cXcXzXzXW 5 C g.v   # a.R I I I Y x.A.Z.A.v.I I U d.#   2 < :.cXzXcXxX5.3.5XG.Y.Y.Y.Y.Y.Y.Y.Y.Y.Y.Y.Y.",
"Y.Y.L.Y.Y.Y.Y.Y.L.P.Q.,.t.hXdXhXhXF < M P c   # R U U R R U j.v.v.v.x.I T K K $   , < >.kXgXsXdXr.t.4XL.Y.Y.Y.Y.Y.Y.Y.Y.Y.Y.Y.Y.",
"Y.Y.Y.Y.Y.Y.Y.Y.L.L.L.P.5Xd a q.0.V 5 4 k ,   # d.U R U R U U I I I I U I k k .   > k F u.q.a ` !.U.Y.Y.Y.Y.L.Y.Y.Y.Y.Y.Y.Y.Y.L.",
"Y.Y.Y.Y.Y.Y.Y.Y.Y.Y.Y.P.4Xe.e.7.u.D b b k ,   > P P P P U R R R R R R U P k 4 @   8 v _ ,Xe.' | I.Y.I.U.Y.Y.Y.Y.Y.Y.L.Y.Y.Y.Y.Y.",
"Y.Y.Y.Y.Y.L.Y.Y.Y.Y.Y.L.T.iXiX' d rXuX+.5 k 4 2   @ k k K U R U U R R U P @   7 5 eXuXtXf w.R.U.I.I.Y.I.Y.Y.Y.Y.Y.Y.Y.Y.Y.Y.Y.Y.",
"Y.Y.Y.Y.Y.Y.Y.Y.Y.Y.Y.Y.L.n.T.| d yXuX+.5 k b 5   . 4 k K a.U R U R U U P .   2 < eXuXtXf w.R.U.I.Y.Y.Y.Y.Y.Y.Y.Y.Y.Y.Y.Y.Y.Y.Y.",
"Y.Y.Y.Y.Y.Y.Y.Y.Y.Y.Y.Y.T.Y.R.9 + }.=X9.i ~ k k 4 2 . . 4 l C U R U U U P @   i ` `.-X].+ S Y.Y.Y.Y.Y.Y.Y.Y.Y.Y.Y.Y.Y.Y.Y.Y.Y.Y.",
"Y.Y.Y.T.Y.Y.I.U.Y.Y.Y.Y.Y.Y.I.& O @X%X4.f u < k k 3     2 k C d.U U R a.I .   a j  X$X'.  t !.I.Y.Y.Y.Y.Y.Y.Y.Y.L.Y.Y.Y.Y.Y.Y.Y.",
"Y.Y.Y.Y.Y.Y.Y.I.Y.Y.Y.Y.Y.Y.I.:.E.( ^ 9.6.].'.`.k x 2 2 > @ c m C R K m m .   ' e.( ^  .:.E.I.Y.Y.Y.Y.Y.Y.Y.Y.Y.Y.Y.Y.Y.Y.Y.Y.Y.",
"Y.Y.Y.Y.Y.Y.Y.Y.Y.Y.Y.Y.Y.Y.Y.P.!.w   ] ,X.X$X#X, 1 2 3     # k N a.P 4 4     9.7X9   $.^.U.Y.Y.Y.Y.Y.Y.Y.Y.Y.Y.Y.Y.Y.Y.Y.Y.Y.Y.",
"Y.Y.Y.Y.Y.Y.Y.Y.U.Y.Y.Y.Y.Y.Y.L.I.-.H ] ] ( `.`.V.V.V.V.x 7 2 , k C M k k .   u ] =.S ;.^.I.I.Y.Y.Y.Y.Y.Y.Y.Y.Y.Y.Y.Y.Y.Y.L.Y.Y.",
"Y.Y.Y.T.Y.Y.Y.Y.Y.Y.Y.Y.Y.Y.Y.Y.I.U./.$..     0 $X$X$X$Xv.g.7   $ k k c k         )./.U.Y.Y.Y.Y.Y.Y.Y.Y.Y.Y.Y.Y.Y.Y.Y.Y.Y.Y.Y.Y.",
"Y.Y.Y.L.Y.Y.Y.Y.Y.Y.I.Y.Y.Y.Y.Y.U.Y.Y.-.8 6   0 OXOX'.'.V.C.4   $ 2 2 2 2 , , O   <.^.J.Y.Y.Y.Y.Y.Y.I.U.Y.Y.Y.Y.Y.Y.L.Y.Y.Y.Y.Y.",
"Y.Y.Y.Y.Y.Y.Y.Y.Y.Y.Y.Y.Y.Y.Y.Y.Y.I.I.Y.~.Q   . 3 1     @X$X/             Y a.#   ).!.Y.Y.Y.Y.Y.Y.Y.I.Y.Y.Y.Y.Y.Y.Y.Y.Y.Y.Y.Y.Y.",
"Y.Y.Y.Y.Y.Y.Y.Y.Y.Y.Y.Y.Y.Y.Y.Y.Y.Y.Y.I.W.-.. # l 4 X X '.$X/   .     . @ ! n.8 o 1.W.W.Y.Y.Y.Y.Y.Y.Y.Y.Y.Y.Y.I.Y.Y.Y.Y.Y.Y.Y.Y.",
"Y.Y.Y.Y.Y.Y.Y.Y.Y.Y.Y.Y.Y.Y.Y.Y.Y.I.U.O.% A E E U K .   L f.T d.v   # P E lXbXwX#.X.% *.Y.Y.Y.Y.Y.Y.Y.Y.Y.Y.Y.Y.Y.Y.Y.Y.Y.Y.Y.Y.",
"Y.Y.Y.Y.Y.L.Y.Y.Y.Y.Y.Y.Y.Y.Y.Y.Y.P._.&.  7 s.I a.P     J U R d.v   # s.g.bXvXwX#.q   $.!.Y.Y.Y.Y.Y.Y.Y.Y.Y.Y.Y.Y.Y.Y.Y.Y.L.Y.Y.",
"Y.Y.Y.Y.Y.Y.Y.Y.Y.Y.Y.Y.Y.Y.Y.Y.Y.H r h - 2.lXiX$ , J J T R R R K C M z n r o.g ] 9   $.!.Y.Y.Y.Y.Y.Y.Y.Y.Y.Y.Y.Y.Y.Y.Y.Y.Y.Y.Y.",
"Y.Y.Y.Y.Y.Y.Y.Y.Y.Y.Y.Y.Y.Y.Y.!./.t   : y iXvXnX  @ Y s.Y s.Y Y Y s.Y k 3     i 5.-   $.^.L.Y.Y.Y.Y.Y.Y.L.Y.Y.Y.Y.Y.Y.Y.Y.Y.Y.Y.",
"Y.Y.Y.Y.Y.Y.Y.Y.Y.Y.Y.Y.I.I.I.H e u p i f =.pXwX  X ) ) ) ) ) ) _ ) ) ~ ~ N N 0 - S D ;.!.Y.Y.Y.Y.Y.Y.Y.Y.Y.Y.Y.Y.Y.Y.Y.Y.Y.Y.Y.",
"Y.Y.Y.Y.Y.Y.Y.Y.Y.Y.Y.Y.U.I.J.%   a 5.d f h #...  + s s s s 3.s s s s s s E g.@ . ;.(.P.L.Y.Y.Y.Y.Y.Y.Y.Y.Y.Y.Y.Y.Y.Y.Y.Y.Y.Y.Y.",
"Y.Y.Y.Y.Y.L.Y.Y.Y.Y.Y.Y.Y.Y.I.6   i d w.3X=...q $ > { [ { [ [ [ [ [ [ { [ j.h.v 7 W -.E.Y.L.Y.Y.Y.Y.L.Y.Y.Y.Y.Y.Y.Y.Y.Y.Y.Y.Y.Y.",
"Y.Y.Y.Y.Y.Y.Y.Y.Y.Y.Y.Y.Y.Y.I.&   a s dXvX1X  O k z N.M.M.M.M.M.B.B.B.B.B.D.A.f.g.7   o.^.Y.Y.Y.Y.Y.Y.Y.L.Y.Y.Y.Y.Y.Y.Y.Y.L.Y.Y.",
"Y.Y.Y.Y.Y.Y.Y.L.Y.Y.Y.Y.Y.L.I.G t g a <XjX2.  # n n c.Z.Z.Z.v.v.l.k.k.k.k.k.p.Z J D w :.Y.Y.Y.Y.Y.Y.Y.Y.Y.Y.Y.Y.Y.Y.Y.Y.Y.Y.Y.Y.",
"Y.Y.Y.Y.Y.Y.Y.Y.Y.Y.Y.Y.Y.Y.I.^./.r     O O   > g.R m.A.m.A.h.U v             .   @.W.R.Y.Y.Y.Y.Y.Y.Y.Y.Y.Y.Y.Y.Y.Y.Y.Y.Y.Y.Y.Y.",
"Y.Y.Y.L.Y.Y.Y.Y.Y.Y.Y.Y.Y.Y.Y.L.Y.r o & % & + 7 U R v.Z.c.C.h.U N O O X X X X     @.!.L.Y.Y.Y.Y.Y.Y.Y.Y.Y.Y.Y.Y.L.Y.Y.Y.L.Y.Y.Y.",
"Y.Y.Y.Y.Y.Y.Y.Y.Y.Y.Y.Y.Y.Y.Y.Y.I.I.I.I.K.K.I.} . . X . @ X .   u u.7.7.7.q.7.=   Q Y.Y.Y.Y.Y.Y.Y.Y.Y.Y.Y.Y.Y.Y.Y.Y.Y.Y.Y.Y.Y.Y.",
"Y.Y.Y.Y.Y.Y.Y.Y.Y.Y.Y.Y.Y.Y.Y.Y.Y.P.Y.Y.L.Y.~.;.* o o o o o o   g ,X0.,Xy.,X,X=   } (.U.Y.Y.Y.Y.Y.L.Y.Y.Y.Y.Y.Y.Y.Y.Y.Y.Y.Y.Y.Y.",
"Y.Y.Y.Y.Y.Y.Y.Y.Y.Y.Y.Y.Y.Y.Y.Y.Y.Y.Y.Y.L.L.L.Y.H.H.H.H.H.K.H.I.W ; 9 ` ` ` ` p : t w -.!.L.Y.Y.Y.Y.Y.Y.Y.Y.Y.Y.Y.Y.L.Y.Y.Y.Y.Y.",
"Y.Y.Y.Y.L.Y.Y.Y.Y.Y.Y.Y.Y.Y.Y.Y.Y.Y.Y.Y.L.Y.Y.Y.P.Y.Y.!.P.P.Y.~.H   + 5.` ` s g p ; . G ^.L.Y.Y.Y.Y.Y.Y.Y.Y.Y.L.Y.Y.Y.Y.Y.Y.Y.Y.",
"Y.Y.Y.Y.Y.Y.Y.Y.Y.Y.Y.Y.Y.Y.Y.Y.Y.Y.L.Y.Y.Y.Y.Y.Y.Y.Y.Y.Y.Y.Y.P.E.<.>.p - 9 : ; ; &.:.E.L.I.Y.Y.Y.Y.Y.Y.Y.Y.Y.Y.Y.Y.Y.Y.Y.Y.Y.Y.",
"Y.Y.Y.Y.Y.Y.Y.Y.Y.Y.Y.Y.Y.Y.Y.Y.Y.Y.Y.Y.Y.Y.Y.Y.Y.Y.Y.Y.Y.Y.U.I.Y.~.E.*           Q !.U.Y.Y.Y.Y.Y.Y.Y.Y.Y.Y.Y.Y.Y.Y.Y.Y.Y.Y.Y.Y.",
"Y.Y.Y.Y.Y.Y.L.Y.Y.Y.Y.Y.Y.Y.Y.Y.Y.Y.Y.Y.Y.Y.Y.Y.Y.Y.Y.Y.Y.I.I.Y.L.L.I.%.%.%.} $.$.K.Y.Y.Y.Y.Y.Y.Y.Y.Y.Y.Y.Y.Y.Y.Y.Y.Y.Y.L.Y.Y.Y.",
"Y.Y.Y.Y.Y.Y.Y.Y.Y.Y.Y.Y.Y.Y.Y.Y.Y.Y.Y.Y.Y.Y.Y.Y.Y.Y.Y.Y.Y.Y.Y.Y.Y.Y.P.!.!.Y.I.!.Y.I.I.Y.Y.Y.Y.Y.Y.Y.Y.Y.Y.L.Y.Y.Y.Y.Y.Y.Y.Y.Y.Y.",
"Y.Y.Y.Y.Y.Y.Y.Y.Y.Y.Y.Y.Y.Y.Y.Y.Y.Y.Y.Y.Y.Y.Y.Y.Y.Y.Y.Y.Y.Y.Y.Y.Y.Y.Y.Y.U.K.I.I.L.L.Y.Y.Y.Y.Y.Y.Y.Y.Y.Y.Y.Y.Y.Y.Y.Y.Y.Y.Y.Y.Y.Y.",
"Y.Y.Y.Y.Y.Y.Y.Y.Y.Y.Y.Y.Y.Y.L.Y.Y.Y.Y.Y.Y.Y.Y.Y.Y.Y.Y.Y.Y.Y.Y.Y.Y.I.Y.Y.I.Y.Y.Y.Y.Y.Y.Y.Y.Y.Y.Y.Y.Y.Y.Y.Y.Y.Y.Y.Y.Y.Y.Y.Y.Y.Y.Y.",
"L.Y.Y.Y.Y.Y.Y.Y.Y.Y.Y.Y.Y.Y.Y.Y.Y.Y.Y.Y.Y.Y.Y.Y.L.Y.Y.Y.Y.Y.Y.Y.Y.Y.Y.Y.I.Y.Y.Y.Y.Y.Y.Y.Y.Y.Y.Y.Y.Y.Y.L.Y.Y.Y.Y.Y.Y.Y.Y.Y.Y.Y.Y.",
"Y.Y.Y.Y.Y.Y.Y.Y.Y.Y.Y.Y.Y.Y.Y.Y.Y.Y.Y.Y.L.Y.Y.Y.Y.Y.Y.Y.Y.Y.Y.Y.Y.Y.Y.Y.Y.Y.U.Y.Y.Y.Y.Y.Y.Y.Y.Y.Y.Y.Y.Y.Y.Y.Y.Y.Y.Y.Y.Y.Y.Y.Y.Y.",
"Y.Y.Y.Y.Y.Y.Y.Y.Y.L.Y.Y.Y.Y.Y.Y.Y.Y.Y.Y.Y.Y.Y.Y.Y.Y.Y.Y.Y.Y.Y.Y.Y.Y.Y.Y.Y.Y.Y.Y.Y.Y.Y.L.Y.Y.Y.Y.Y.Y.Y.Y.Y.Y.L.Y.Y.Y.Y.Y.Y.Y.Y.L."
};
