/* XPM */
static char *c02ac5c41d6a4890d411711137e6107a2iPrCp76UEAYBeU5[] = {
/* columns rows colors chars-per-pixel */
"64 64 243 2 ",
"   c #010100",
".  c #0A0402",
"X  c #020B02",
"o  c #0B080A",
"O  c #150B08",
"+  c #031303",
"@  c #071908",
"#  c #1A1307",
"$  c #0E0511",
"%  c #110B12",
"&  c #121114",
"*  c #1A1817",
"=  c #0C1115",
"-  c #22190E",
";  c #321F0D",
":  c #251A15",
">  c #2F1914",
",  c #072206",
"<  c #012C03",
"1  c #072B0B",
"2  c #07250A",
"3  c #033205",
"4  c #0A350B",
"5  c #0A3C0A",
"6  c #063805",
"7  c #133D0A",
"8  c #19281B",
"9  c #063411",
"0  c #093A13",
"q  c #1C351B",
"w  c #14210E",
"e  c #3B2819",
"r  c #373511",
"t  c #202310",
"y  c #1B3034",
"u  c #262625",
"i  c #382924",
"p  c #393838",
"a  c #30342C",
"s  c #0C1020",
"d  c #472719",
"f  c #5B361A",
"g  c #49321C",
"h  c #6C3D1E",
"j  c #66391C",
"k  c #743C1E",
"l  c #77371D",
"z  c #702810",
"x  c #4B2921",
"c  c #583324",
"v  c #49362A",
"b  c #763C21",
"n  c #6C3122",
"m  c #0C430C",
"M  c #0D490D",
"N  c #12470C",
"B  c #0C4915",
"V  c #154412",
"C  c #154A12",
"Z  c #0C5516",
"A  c #0D5D1C",
"S  c #0A5219",
"D  c #125114",
"F  c #155D18",
"G  c #275418",
"H  c #0D641E",
"J  c #02621C",
"K  c #1D6115",
"L  c #106B1F",
"P  c #03781E",
"I  c #266A19",
"U  c #26721B",
"Y  c #29721A",
"T  c #2C7E1D",
"R  c #32781E",
"E  c #13522A",
"W  c #254B25",
"Q  c #285927",
"!  c #355135",
"~  c #0E6C23",
"^  c #0D6322",
"/  c #116D21",
"(  c #0F7325",
")  c #0F7827",
"_  c #0F7B29",
"`  c #077728",
"'  c #117C29",
"]  c #137323",
"[  c #29662A",
"{  c #38642C",
"}  c #336233",
"|  c #3D6B3D",
" . c #3C763C",
".. c #317526",
"X. c #68431E",
"o. c #74411E",
"O. c #7B401F",
"+. c #6A6C06",
"@. c #4E4132",
"#. c #4D5129",
"$. c #664825",
"%. c #754422",
"&. c #695C31",
"*. c #537824",
"=. c #5A7238",
"-. c #47782D",
";. c #6D6234",
":. c #6B6E3B",
">. c #0A6454",
",. c #2E5175",
"<. c #495B48",
"1. c #5A5747",
"2. c #416541",
"3. c #477746",
"4. c #56714A",
"5. c #6D754D",
"6. c #4B6F76",
"7. c #843D20",
"8. c #822F0B",
"9. c #885F1A",
"0. c #824428",
"q. c #875234",
"w. c #8A6636",
"e. c #976D3B",
"r. c #986D31",
"t. c #A27B3D",
"y. c #A7783B",
"u. c #A36C37",
"i. c #91781B",
"p. c #875D42",
"a. c #987444",
"s. c #8B7554",
"d. c #A67944",
"f. c #AB734A",
"g. c #837964",
"h. c #02811F",
"j. c #36851D",
"k. c #0D822B",
"l. c #058629",
"z. c #11832B",
"x. c #118C2F",
"c. c #128F30",
"v. c #248726",
"b. c #368521",
"n. c #2B9129",
"m. c #269229",
"M. c #3C9E28",
"N. c #369727",
"B. c #3E823E",
"V. c #3EA329",
"C. c #3DAB29",
"Z. c #3BA529",
"A. c #3DB72B",
"S. c #6EB61E",
"D. c #70B91D",
"F. c #4A8725",
"G. c #518425",
"H. c #51912E",
"J. c #41A429",
"K. c #43AB2A",
"L. c #49A628",
"P. c #48B52D",
"I. c #6BAA2A",
"U. c #52C933",
"Y. c #3B9A46",
"T. c #3BA048",
"R. c #4A8949",
"E. c #47854B",
"W. c #568844",
"Q. c #449545",
"!. c #499647",
"~. c #459946",
"^. c #499748",
"/. c #459A49",
"(. c #489848",
"). c #469748",
"_. c #52954A",
"`. c #578656",
"'. c #549C53",
"]. c #559653",
"[. c #4D9153",
"{. c #7A8856",
"}. c #6A9F5A",
"|. c #649756",
" X c #69914A",
".X c #4BA34B",
"XX c #49AA4D",
"oX c #56A756",
"OX c #4DAB52",
"+X c #6EA05C",
"@X c #668464",
"#X c #6D8D6E",
"$X c #53A366",
"%X c #69AB62",
"&X c #6AB265",
"*X c #B0B009",
"=X c #B28E3B",
"-X c #AD992A",
";X c #C9AD2A",
":X c #97CA17",
">X c #D4C611",
",X c #EBE909",
"<X c #FFFE01",
"1X c #FCFB0A",
"2X c #F4ED0C",
"3X c #FDFA38",
"4X c #8C8F50",
"5X c #B38857",
"6X c #AF8E4C",
"7X c #978F67",
"8X c #B8966A",
"9X c #AF956F",
"0X c #9FAC7E",
"qX c #BBA97A",
"wX c #AFA271",
"eX c #D4A54C",
"rX c #EEB355",
"tX c #C59F79",
"yX c #CAA076",
"uX c #C3944D",
"iX c #5B7795",
"pX c #00A2C9",
"aX c #02BAFB",
"sX c #24B9D3",
"dX c #0ECAF5",
"fX c #1EA2AB",
"gX c #9F9784",
"hX c #BCB6B3",
"jX c #CBB78D",
"kX c #D6B387",
"lX c #ECBF9A",
"zX c #D9C398",
"xX c #E7C89B",
"cX c #DECBA4",
"vX c #ECD5AE",
"bX c #F8E2B9",
"nX c #D4D6D4",
"mX c #FFF5CB",
"MX c #FFFFDB",
"NX c #FFEFC7",
"BX c #FEFDFD",
"VX c #F3F4E6",
"CX c #E5DADB",
/* pixels */
"(.(.(.(.(.(.(.(.(.(.(.(.(.(.(.(.(.(.(.(.(.(.(.(.(.(.(.(.(.(.(.(.(.(.(.(.(.(.(.(.(.(.(.(.(.(.(.(.(.(.(.(.(.(.(.(.(.(.(.(.(.(.(.(.",
"(.(.(.(.(.(.(.(.(.(.(.(.(.(.(.(.!.(.(.(.(.(.(.(.(.(.(.(.(.(.(.(.(.(.(.(.(.(.(.(.(.(.(.(.(.(.(.(.(.(.(.(.(.(.(.(.(.(.(.(.(.(.(.(.",
"(.(.(.(.(.(.(.(.(.(.(.(.(.(.(.(.(.(.(.(.(.(.(.(.(.(.(.(.(.(.(.(.(.(.(.(.(.(.(.(.(.(.(.(.(.(.(.(.(.(.(.(.(.(.(.(.(.!.(.(.(.(.(.(.",
"(.(.(.(.(.(.(.(.(.(.(.(.(.(.(.(.(.(.(.(.(.(.(.(.(.(.(.(.(.(.(.(.(.(.(.(.(.!.(.(.(.(.(.(.(.(.(.(.(.(.(.(.(.(.(.(.(.(.(.(.(.(.(.(.",
"(.(.(.(.(.(.(.(.(.(.(.(.(.(.(.(.(.(.(.(.(.(.(.(.(.(.(.(.(.(.(.(.(.(.(.(.(.(.(.(.(.(.(.(.(.(.(.(.(.(.(.(.(.(.(.(.(.(.!.(.(.(.(.(.",
"(.(.(.(.(.(.(.(.(.(.(.(.(.(.(.(.(.(.(.(.(.(.(.(.(.(.(.(.(.(.!.(.^.!.!.!.(.(.(.(.(.(.(.(.(.(.(.(.(.(.(.(.(.(.(.(.(.(.(.(.(.(.(.(.",
"(.(.(.(.(.(.(.(.(.(.(.(.(.(.(.(.(.(.(.(.(.(.(.(.(.(.!.~.~.Q.Y.Q.~.~.~.Y.~.(.(.(.(.(.(.(.(.(.(.(.(.(.(.(.(.(.(.(.(.(.(.(.(.(.(.(.",
"(.(.(.(.(.(.(.(.(.(.(.(.(.(.(.(.(.(.(.(.(.(.(.(.(.~.^.|.|.}.}.}.}.}.}.|.|.].(.(.^.(.(.(.(.(.(.(.(.(.(.(.(.(.(.(.(.(.(.(.(.(.(.(.",
"(.(.(.(.(.(.(.(.(.(.(.(.(.(.(.(.(.(.(.(.(.(.(.(.(./._.q.q.5X5X5X5X5X5Xd.q.;.Y.H.Y.Q.!.(.(.(.(.(.(.(.(.(.(.(.(.!.(.(.(.(.(.(.(.(.",
"(.(.(.(.(.(.Q.(.(.(.(.(.(.(.(.(.(.(.(.(.(.(.(.(.(..X_.%.%.t.a.d.t.t.d.w.k ;.&X%X%X$X!.(.(.(.(.(.(.(.(.(.(.(.(.(.(.(.(.(.(.(.(.(.",
"(.(.(.(.(.(.(.(.(.(.(.(.(.(.(.(.(.(.(.(.(.(.Q.(.B.8 #.eXeX,X,X,X,X;Xa.t.u.=X3X3X8X8X|.Q.(.(.(.(.(.(.(.(.(.(.(.(.(.(.(.(.(.(.(.(.",
"(.(.(.(.(.(.(.(.(.(.(.(.(.(.(.(.(.(.(.(.(.(.~.OX3.  d rXrX1X<X1X<X;Xf.y.d.=X<X,X=Xf.}.Y.(.(.(.(.(.(.(.(.(.(.(.(.(.(.(.(.(.(.(.(.",
"(.(.(.(.(.(.(.(.(.(.(.(.(.(.Q.(.(.(.(.(.^.^.3.q { T R I.I.S.S.S.S.I.H.H.H.:X<X2Xt.d.4X4XH.R.(.(.(.(.(.(.(.(.(.(.(.(.(.(.(.(.(.!.",
"(.(.(.(.(.(.(.(.(.(.(.(.(.(.(.(.(.(.(.(.(.OX<.  N U.P.C.C.Z.Z.Z.Z.Z.C.K.Z.I.<X2Xt.a.f.f. XY././.(.(.(.(.(.(.(.(.(.(.(.(.(.(.(.(.",
"(.(.(.(.(.(.(.(.(.(.(.(.(.(.(.(.(.(.(.(.2.2.-.Q I U [ Y Y Y Y U U U U Y ] j.:X:X6XuX;X>X4X5.5./.!.(.(.(.(.(.(.(.(.(.(.(.(.(.(.(.",
"(.(.(.(.(.(.(.(.(.(.(.(.(.(.(.(.(.(.~..Xu   Y U.Y < 6 3 3 3 3 3 3 3 3 3 < B C.J.rXrX1X<X*Xz =./.!.(.(.(.(.(.(.(.(.(.(.(.(.(.(.(.",
"(.(.(.(.(.(.(.(.(.(.(.(.(.(.(.(.(.!.4.`.W 2 ^ b.U F I K K K K K K K K K K I j.j.4X6X*X*Xi.0.=..X(.(.(.(.(.(.(.(.(.(.(.(.(.(.(.(.",
"(.(.(.(.(.(.(.(.(.(.(.(.(.(.(.(.(.(.& $ ( c.Z 1 I P.J.J.K.K.K.L.K.K.K.J.K.N.6 5 h.` @   $.6X X/.!.(.(.(.(.(.(.(.(.(.(.(.(.(.(.~.",
"(.(.(.(.(.(.(.(.(.(.(.(.(.(.(.(.(.(.X   A ) F N U J.M.J.J.V.J.V.J.J.V.V.J.N.N D ] ' 2   ;.yX{.Y.(.(.(.(.(.(.(.(.(.(.(.(.(.(.(.(.",
"(.(.(.Q.(.(.(.(.(.(.(.(.(.(.(.(.(.!.@   5 5 T K.J.J.J.J.J.J.J.J.J.J.J.J.J.V.J.M.M m +   | %X_.!.(.(.(.(.(.(.(.(.(.(.(.(.(.(.(.(.",
"(.(.(.(.(.(.(.(.(.(.(.(././.(.!.).Q.@   5 5 T K.V.V.J.J.J.J.J.J.J.J.J.J.J.V.J.M.M m +   Q T.).!.).(.(.(.(.(.(.(.(.(.(.(.!.(.(.(.",
"(.(.(.(.(.(.(.(.(.(.(.!.~.{.6X7XjXqXV 4 ^ ' F m U K.V.J.J.J.J.J.J.J.J.J.J.N.N D / ) M 3 {.zXwX4X7X].~.!.(.(.(.(.(.(.(.(.(.(.(.(.",
"(.(.(.(.(.(.(.(.(.(.Q.Q.T.4Xu.6XkXjXC m ( k.Z 1 I J.J.J.J.J.J.J.J.J.J.J.K.b.6 5 ) k.D 6 4XlX8Xr.8XoXQ..X(.(.(.(.(.(.(.(.(.(.(.(.",
"(.!.(.(.(.(.(.(.(.!.~.5.5.wXcXxXvXcXV 5 ( _ L H v.K.J.J.J.J.J.J.J.J.J.J.J.N.H L ) ) Z 3 7XbXxXxXjX5.p.(.(.(.(.(.(.(.(.(.(.(.(.(.",
"(.(.(.(.(.(.(.(.(.Q./.;.z 9XMXmXmXbXV 5 ( _ ' k.m.L.J.J.J.J.J.J.J.J.J.J.K.M._ k.) _ D 3 0XMXNXMXcXl 0._.~.(.!.(.(.(.(.!.(.(.(.(.",
"(.(.(.(.(.(.(.(.(.(./.W.-.7X9X8XkXqXV m ( _ L Z ] n.n.J.V.J.J.J.J.V.C.N.n.v.Z H ) ' D 6 {.kX9X9XwXW.=.!.(.(.(.(.(.(.(.(.(.(.(.(.",
"(.(.(.(.(.(.(.(.(.(.(./.XX5.z o.t.r.7 6 ( z.D 6 Z ` ' L.J.V.J.V.J.J.L.n.` ~ 5 m ) z.M 3 &.y.9.z p.oX~.~.(.(.(.(.(.(.(.(.(.(.(.(.",
"(.(.(.(.(.(.(.(.(.(.(.(./.{.s.s.e.w.>.>.~ / B 1 Z z.z.N.N.V.J.J.J.N.N.v._ / < 4 L L >.>.=.u.a.s.7X].(.(.(.(.(.(.(.(.(.(.(.(.(.(.",
"(.(.(.(.(.(.(.(.(.(.(.(.(.(./.^.O.$.dXdX>.< @   0 z.( ` ' J.J.V.L.v.` ) z.^     5 6 pXdX6.z =..X[.(.(.(.(.(.(.(.(.(.(.(.(.(.(.(.",
"(.(.(.(.(.(.!.(.(.(.(.(.(.(.~.Q.$.$.sXsXE 7 @   0 z.' _ ' M.M.M.J.x.( ' _ ^   X V 7 fXdX6.z =./.(.(.(.(.(.(.(.(.(.(.(.(.(.(.(.(.",
"(.(.(.(.(.(.(.(.(.(.(.(.(.!.(.R.o # ,X1X9.b ;   0 ' _ ) _ _ _ _ ' ' ) ) k.^   . o.h >X1X+.  Q oX(.(.(.(.(.(.(.(.(.(.(.(.(.(.(.(.",
"(.(.(.(.(.(.(.(.(.(.(.(.(.(.(.Q.o t ,X<X9.b ;   0 k.) _ _ ( _ _ ( _ ) ) z.H   O X.o.>X<X+.  Q .XQ.(.(.(.~.(.(.(.(.!.(.(.(.(.(.(.",
"(.(.(.(.(.(.(.(.(.(.(.(.(.(.(.(.H.].r t w.6Xe   2 M Z _ ( _ ' ' ' _ _ ^ B 5   O e.t.r # { ~.(.(.!.(.(.(.(.(.(.(.(.(.(.(.(.(.(.(.",
"(.(.(.(.(.(.(.(.(.(.(.(.(.(.(.(./.Y.o o w.uXg   , m S _ _ _ ' _ ' ' _ ^ m 5   # d.6X>   } OX!.(.~.(.(.(.(.(.(.(.(.(.(.(.(.(.(.(.",
"(.(.(.(.(.(.(.(.(.(.(.(.(.(.(.(./.[.4.#X@.r #   . + 1 _ _ _ _ ' _ ( z.S + +   . e v 4.@X_.(.(.(.(.(.(.(.(.(.(.(.(.(.(.(.(.(.(.(.",
"(.(.(.(.(.(.(.(.(.(.(.(.(.(.(.(.).)..XOX8           2 z.' _ _ _ _ _ x.B           $ [.XX(.(.(.(.(.!.(.(.(.(.(.(.(.(.(.(.(.(.(.(.",
"(.(.(.(.(.(.(.(.(.(.(.(.(.(.(.(.(.(.} } E 0 1 , +   @ H A _ _ _ _ L H 5   X , , 0 B } } E.(.!.^.(.(.(.(.(.(.(.(.(.(.(.(.(.(.(.(.",
"(.(.(.(.(.(.(.(.(.(.(.(.(.(.(.(..X/.X   J l.Z N 1   + m m ( _ _ _ Z 5 1   X M M P l.+   Q OX^.!.(.(.(.(.(.(.(.(.(.(.(.(.(.(.(.(.",
"(.(.(.(.(.(.(.(.(.(.(.(.(.(.(._. . .* O E.$XQ 5 4 2 1 < 0 ) ' ( z.B 1 1 2 1 5 V [.$Xy s !  .Y.^.(.(.(.(.(.(.(.(.(.(.(.(.(.(.(.(.",
"(.(.(.(.(.(.(.(.(.(.(.(.(.(.~.#X$   x d CXBX#X< A c.^   X ( _ ' k.9   9 x.( 5 W BXBXiX,.y   W XX(.(.(.(.(.(.(.(.(.(.(.(.(.(.(.(.",
"(.(.(.(.(.(.(.(.(.(.(.(.(.^.[.#X: O d d hXVX6.7 A k.A   X ~ ( ( z.9   9 k./ 7 W nXCX6.,.u . ! '.(.(.(.(.(.(.(.(.(.(.(.(.(.Q.(.(.",
"(.(.(.(.(.(.(.(.(.(.(.(./.| & e b h %.o.: = d 7.#.l.H     m m m M @   9 x.U k j * & f O.k o.c * ! (.Q.(.(.(.(.(.(.(.(.(.(.(.(.(.",
"Q.(.(.(.(.(.(.(./.(.^.!..X<.  - k h h b O   d 7.#.l.A   X 5 m m N @   9 l.] l j .   f k h k d   p ].Q.(.(.(.(.(.(.(.(.(.(.(.(.(.",
"(.(.(.(.(.(.(.(.^.^.^.(..X2.  a cXzXtXtXG , R L.*.X.$.j f @ + X + r j f X.$.L.F.7 < 7XyXjXvXg.  p ].(.(.(.(.(.(.(.(.(.(.(.(.(.(.",
"(.(.(.(.(.(.(.(.(.(.(.(..X2.o v MXmXxXxX{ 6 j.A.*.l b b l .       d 7.l l X.K.V.C m qXxXbXMXgX  p '.Q./.(.(.(.(.(.(.(.(.(.(.(.(.",
"(.(.Q.(.(.(.(.(.(.(.(.(./.E.2.3.1.1.v @.# X Y Z.F.*.G.G.*.Y ..Y I *.G.G.G.G.J.N., + v @.@.1.4. .3.'.(.(.(.!.(.(.(.(.(.(.(.(.(.(.",
"(.(.(.(.(.(.(.(.(.(.(.(./.(..XQ.            Y P.K.K.C.C.Z.K.K.K.K.C.C.K.K.K.P.K.X       o   W OX~.(.(.(.(.Q.(.(.(.(.(.(.(.(.(.(.",
"(.(.(.(.(.(.(.(.(.(.(.(.(.^.^.^.} 2.& . # > V I Y n.n.J.V.V.M.M.V.M.J.N.n.v.K G - - o   W }  ./.(.(.(.(.(.(.(.(.(.(.(.(.(.(.(.(.",
"(.(.(.(.(.(.(.(.(.(.(.(.(.(.(.(..X'.X . d c O . 9 l.k.C.Z.K.K.K.K.C.K.n.` J     x c o   { OX(.!.(.(.(.(.(.(.(.(.(.(.(.(.(.(.(.(.",
"(.(.(.(.(.(.(.(.(.(.(.(.(.(.(.(.(.!.! p i i : O q [ ..F.F.b.b.b.j.F.H.R [ Q O O e i v p  ./.!.(.(.(.(.(.(.(.(.(.(.(.(.(.(.(.(.(.",
"(.(.(.(.(.(.(.(.(.(.(.(.(.Q.(.(.(.(.'.oXu   > x j k k b h .       d 0.k o.%.x x   $ `.oX'.(.(.(.(.(.(.(.(.(.(.(.(.(.(.(.(.(.(.(.",
"(.(.(.(.(.(.(.(.(.(.(.(.(.(.(.(.(.(.!.~.p u i d c X.h k j i u u u g k j $.f d x u a E.Q.Q.(.(.(.(.(.(.(.(.(.(.(.(.(.(.(.(.(.Q.(.",
"(.(.(.(.(.(.(.(.(.(.(.(.(.(.(.(.(.(.(.(.].oX<.    . X . * '.'._.oX!   . . .   8 ].].'.).(.(.(.(.(.(.(.(.(.(.(.(.(.(.(.(.(.(.(.(.",
"(.(.(.(.(.(.(.(.(.(.(.(.(.(.(.(.(.(.(.(.Q.'.<.$ & & & % 8 ~.(.(..X} $ & & & % q (.(.).(.(.(.(.(.(.(.(.(.(.(.(.(.(.(.(.(.(.(.(.(.",
"(.(.(.(.(.(.(.(.(.(.(.(.(.(.(.(.(.(.(.(.!.!.[.R.R.R.R.R.R.(.(.^.(.!.R.R.R.R.E.R.(.(.(.(.(.(.(.(.(.(.(.(.(.(.(.(.(.(.(.(.(.(.(.(.",
"(.(.(.(.(.(.(.Q.(.(.(.(.(.(.(.(.(.(.(.(.(.(.~.(.(.(./.(.(.(.(.(.(.(.(.~.~./././.(.(.(.(.(.(.(.(.(.(.(.(.(.(.(.(.(.(.(.(.(.(.(.(.",
"(.(.(.(.(.(.(.(.(.(.(.(.(.(.(.(.(.Q.(.(.(.(.(.!.(.(.(.(.(.(.(.(.(.(.(.(.(.(.(.(.(.(.(.(.!.(.(.(.(.(.(.(.(.(.(.(.(.(.(.(.(.(.(.(.",
"(.(.(.(.(.(.(.(.(.(.(.(.!.(.(.(.(.(.(.(.(.(.(.(.(.(.(.(.(.(.(.(.(.(.(.(.(.(.(.(.(.(.(.(.(.(.(.(.(.(.(.(.(.(.(.(.(.(.(.(.(.(.(.Q.",
"(.(.(.(.(.(.(.(.(.(.(.(.(.(.(.(.(.(.(.(.(.(.(.(.(.(.(.(.(.(.(.(.(.(.(.(.(.(.(.(.(.(.(.(.(.(.(.(.(.(.(.(.(.(.(.(.(.(.(.(.(.(.(.(.",
"!.(.(.(.(.(.(.(.(.(.(.(.(.(.(.(.(.(.(.(.(.(.(.(.(.(.(.(.!.(.(.(.(.(.(.(.(.(.(.(.(.(.(.(.(.(.(.(.(.(.(.(.(.(.(.(.(.(.(.(.(.(.(.(.",
"(.(.(.(.(.(.(.(.(.(.(.(.(.(.(.(.(.(.(.(.(.(.(.(.(.(.(.(.(.(.(.(.(.(.(.(.(.(.(.(.(.(.(.(.(.(.(.(.(.(.(.(.Q.(.(.(.(.(.(.(.(.(.(.(.",
"(.(.(.(.(.(.(.(.(.(.(.(.(.(.(.(.(.(.(.(.(.(.(.(.(.(.(.(.(.(.(.(.(.(.(.(.(.(.(.(.(.(.(.(.(.(.(.(.(.(.(.(.(.(.(.(.(.(.(.(.(.(.(.(.",
"(.(.(.(.(.(.(.(.(.(.(.(.(.(.(.(.(.(.(.(.(.(.(.(.(.(.(.(.(.(.(.(.(.(.(.(.!.(.(.(.(.(.(.(.(.(.(.(.(.Q.(.(.(.(.(.(.(.(.(.(.(.(.(.(.",
"(.(.(.(.(.(.(.!.(.(.(.(.(.(.(.(.(.(.(.(.(.(.(.(.(.(.(.(.(.(.(.(.(.(.(.(.(.(.(.(.(.(.(.(.(.(.(.(.(.(.(.(.(.(.(.(.(.(.(.(.(.(.(.(."
};
