/* XPM */
static char *_0a9c533302f4e10d6b417909492ce73chG7cFfifV4uJQF2[] = {
/* columns rows colors chars-per-pixel */
"64 64 245 2 ",
"   c #010001",
".  c #020B03",
"X  c #090607",
"o  c #150A08",
"O  c #031305",
"+  c #081907",
"@  c #17110C",
"#  c #191815",
"$  c #25150D",
"%  c #36180D",
"&  c #231813",
"*  c #331D14",
"=  c #3B1F19",
"-  c #0A2E09",
";  c #052608",
":  c #053405",
">  c #05340A",
",  c #0B3C0B",
"<  c #083608",
"1  c #162E15",
"2  c #19271A",
"3  c #0A3B14",
"4  c #083712",
"5  c #153517",
"6  c #0C2F0E",
"7  c #392217",
"8  c #272E18",
"9  c #221923",
"0  c #1F3326",
"q  c #242724",
"w  c #2A3D2A",
"e  c #243524",
"r  c #34352E",
"t  c #501C14",
"y  c #45271E",
"u  c #562715",
"i  c #59331C",
"p  c #502D15",
"a  c #65361A",
"s  c #733B1C",
"d  c #79381D",
"f  c #69281D",
"g  c #4D2B22",
"h  c #522E24",
"j  c #5B3824",
"k  c #733922",
"l  c #0C430D",
"z  c #0F490E",
"x  c #0B4917",
"c  c #124312",
"v  c #1A4B15",
"b  c #0E5C19",
"n  c #0C5419",
"m  c #155312",
"M  c #175719",
"N  c #294912",
"B  c #0E6A1D",
"V  c #22671A",
"C  c #2A7A1C",
"Z  c #184D20",
"A  c #244B24",
"S  c #2B452A",
"D  c #2A5629",
"F  c #314731",
"G  c #2E5633",
"H  c #375736",
"J  c #33432C",
"K  c #0D6B22",
"L  c #186924",
"P  c #0F7526",
"I  c #0E7B29",
"U  c #087828",
"Y  c #117425",
"T  c #107B29",
"R  c #157729",
"E  c #127D30",
"W  c #346826",
"Q  c #366A35",
"!  c #3B7A3B",
"~  c #387439",
"^  c #236C27",
"/  c #79431E",
"(  c #614E18",
")  c #6A6700",
"_  c #65751F",
"`  c #5A4825",
"'  c #584A38",
"]  c #46582C",
"[  c #7A4625",
"{  c #695223",
"}  c #6B502C",
"|  c #5B6D32",
" . c #6D7031",
".. c #3F6840",
"X. c #4A5547",
"o. c #456645",
"O. c #497648",
"+. c #566D56",
"@. c #547254",
"#. c #587858",
"$. c #596846",
"%. c #776D4A",
"&. c #74746C",
"*. c #853C20",
"=. c #83321D",
"-. c #875834",
";. c #875129",
":. c #8A663A",
">. c #936435",
",. c #966D36",
"<. c #A17A38",
"1. c #B67F3A",
"2. c #987A18",
"3. c #915D46",
"4. c #966A42",
"5. c #9B7547",
"6. c #85735A",
"7. c #8D6542",
"8. c #A86D47",
"9. c #A57645",
"0. c #AA7858",
"q. c #8F7B6D",
"w. c #31811E",
"e. c #2D801E",
"r. c #0D832B",
"t. c #11832C",
"y. c #16872A",
"u. c #149B33",
"i. c #248C29",
"p. c #278826",
"a. c #289429",
"s. c #389B28",
"d. c #348333",
"f. c #3FA328",
"g. c #3CA729",
"h. c #34B326",
"j. c #4A972F",
"k. c #6E8932",
"l. c #41A429",
"z. c #45AA2A",
"x. c #45A929",
"c. c #47B329",
"v. c #4BA337",
"b. c #70AB20",
"n. c #3B9547",
"m. c #3EA44A",
"M. c #488848",
"N. c #469647",
"B. c #469946",
"V. c #499649",
"C. c #469A49",
"Z. c #489848",
"A. c #479648",
"S. c #588858",
"D. c #589956",
"F. c #4F9950",
"G. c #6D9252",
"H. c #4CA24C",
"J. c #4CA74C",
"K. c #52AD50",
"L. c #59A25A",
"P. c #53AA4B",
"I. c #59A360",
"U. c #72A05D",
"Y. c #A58411",
"T. c #BFAA0C",
"R. c #929034",
"E. c #B5863B",
"W. c #B29134",
"Q. c #B0A926",
"!. c #97AC0A",
"~. c #C0A61A",
"^. c #C6B610",
"/. c #C5AB2A",
"(. c #C3AC26",
"). c #C9B228",
"_. c #8DC617",
"`. c #B7C731",
"'. c #D5CA10",
"]. c #E6D815",
"[. c #FEFE01",
"{. c #F6F407",
"}. c #FFFE14",
"|. c #DCC629",
" X c #F4ED2E",
".X c #E4DF1D",
"XX c #8F9350",
"oX c #AB8442",
"OX c #B78945",
"+X c #BB965B",
"@X c #B48D51",
"#X c #918E6C",
"$X c #A89770",
"%X c #B69C77",
"&X c #B69061",
"*X c #B5AD70",
"=X c #A0A55A",
"-X c #C6964D",
";X c #D8AB4A",
":X c #DAA853",
">X c #E7B64A",
",X c #E8B558",
"<X c #ECB358",
"1X c #C39F6E",
"2X c #C8A575",
"3X c #FFC366",
"4X c #EDDB4F",
"5X c #0A3899",
"6X c #1C4498",
"7X c #08779A",
"8X c #214392",
"9X c #5670AA",
"0X c #00C3FF",
"qX c #64C8DE",
"wX c #948B8E",
"eX c #A0999A",
"rX c #B2BAAE",
"tX c #CCAE86",
"yX c #D5B38A",
"uX c #DBB78D",
"iX c #D8B893",
"pX c #C2B897",
"aX c #E2BD93",
"sX c #DEB0A3",
"dX c #B7D1BB",
"fX c #DEC198",
"gX c #E6C497",
"hX c #FAD199",
"jX c #DFD8AE",
"kX c #ECD3AB",
"lX c #EADBB2",
"zX c #F2D5A7",
"xX c #FDE5BD",
"cX c #FBE6BB",
"vX c #F6EBBE",
"bX c #BBD7C0",
"nX c #DFDEDC",
"mX c #FDEBC2",
"MX c #FFEBC9",
"NX c #FFF4CA",
"BX c #FEF2D4",
"VX c #FEFEFD",
"CX c #FDFAF4",
"ZX c #E0E1E2",
"AX c #C7E4CB",
/* pixels */
"Z.Z.Z.Z.Z.Z.Z.Z.Z.Z.Z.Z.Z.Z.Z.Z.Z.A.Z.Z.Z.Z.Z.Z.Z.Z.Z.Z.Z.Z.Z.Z.Z.N.Z.Z.Z.Z.Z.Z.Z.N.Z.Z.Z.Z.Z.Z.N.Z.Z.Z.Z.Z.N.Z.Z.Z.Z.Z.Z.Z.Z.Z.",
"Z.Z.Z.Z.Z.Z.Z.A.Z.Z.A.Z.Z.Z.Z.Z.Z.Z.Z.Z.Z.Z.Z.Z.Z.Z.Z.Z.Z.Z.Z.Z.Z.Z.Z.Z.Z.Z.Z.A.Z.Z.Z.Z.Z.Z.Z.Z.Z.Z.Z.Z.Z.Z.Z.Z.Z.Z.Z.Z.A.Z.Z.Z.",
"Z.Z.Z.Z.Z.Z.Z.Z.Z.Z.Z.Z.Z.Z.Z.Z.Z.Z.Z.Z.Z.Z.Z.A.Z.Z.Z.Z.Z.Z.Z.Z.Z.Z.Z.Z.Z.Z.Z.Z.Z.Z.Z.Z.Z.Z.Z.Z.Z.Z.Z.Z.Z.Z.Z.Z.Z.Z.Z.Z.Z.Z.Z.Z.",
"Z.Z.Z.Z.Z.Z.Z.Z.Z.Z.Z.Z.Z.A.Z.Z.Z.Z.Z.Z.Z.Z.Z.Z.Z.A.Z.Z.Z.Z.Z.Z.Z.Z.Z.Z.Z.Z.Z.Z.Z.Z.Z.Z.Z.Z.Z.Z.Z.Z.Z.Z.Z.Z.Z.Z.Z.Z.Z.Z.Z.Z.Z.Z.",
"A.Z.Z.A.Z.Z.A.Z.Z.Z.Z.Z.Z.Z.Z.Z.Z.Z.Z.Z.Z.Z.Z.Z.Z.Z.Z.Z.Z.Z.Z.Z.Z.Z.Z.Z.Z.Z.Z.Z.A.Z.Z.Z.Z.Z.Z.Z.Z.Z.Z.Z.Z.Z.Z.Z.Z.Z.Z.Z.Z.Z.Z.Z.",
"Z.Z.Z.Z.Z.Z.Z.Z.A.Z.Z.Z.Z.Z.Z.Z.Z.Z.Z.Z.Z.Z.Z.Z.Z.Z.Z.Z.Z.Z.Z.Z.Z.Z.Z.Z.Z.Z.Z.N.Z.Z.Z.Z.Z.Z.Z.Z.Z.Z.Z.Z.Z.Z.Z.Z.Z.Z.N.Z.N.Z.Z.Z.",
"Z.Z.Z.Z.Z.Z.Z.Z.Z.Z.Z.Z.Z.Z.Z.Z.Z.Z.Z.Z.Z.Z.Z.Z.Z.Z.Z.Z.Z.Z.Z.Z.N.Z.Z.Z.Z.Z.Z.Z.Z.Z.Z.Z.Z.Z.Z.Z.Z.Z.Z.Z.Z.Z.Z.Z.Z.Z.Z.Z.Z.Z.Z.Z.",
"Z.Z.Z.Z.Z.Z.Z.Z.Z.Z.Z.Z.Z.Z.A.Z.Z.Z.Z.Z.Z.Z.Z.Z.A.A.A.Z.N.Z.N.Z.Z.Z.Z.Z.Z.Z.Z.Z.Z.Z.Z.Z.Z.Z.Z.Z.Z.A.Z.Z.Z.N.Z.Z.Z.Z.Z.Z.Z.Z.Z.Z.",
"Z.Z.Z.Z.Z.Z.Z.Z.Z.Z.Z.Z.Z.Z.Z.Z.Z.Z.Z.V.V.Z.n.A.C.C.C.C.F.F.C.C.A.V.V.V.Z.Z.Z.Z.Z.Z.Z.Z.Z.Z.Z.Z.Z.Z.Z.Z.Z.Z.Z.Z.Z.Z.Z.Z.Z.Z.Z.Z.",
"Z.Z.Z.Z.Z.Z.Z.Z.Z.Z.Z.Z.Z.Z.Z.Z.B.Z.Z.H.B.U.=XXX%.%.M.n...H j.P.P.P.P.N.n.A.Z.Z.Z.Z.Z.Z.Z.Z.Z.Z.Z.Z.Z.Z.Z.Z.Z.Z.Z.Z.Z.A.Z.Z.Z.Z.",
"Z.A.Z.Z.Z.Z.Z.Z.Z.Z.Z.Z.Z.Z.Z.Z.Z.B.A.V.d.L.@X8./ s V r.B : M v.l.x.l.Y I n.Z.Z.Z.A.Z.Z.Z.Z.Z.Z.Z.N.Z.Z.Z.A.Z.Z.Z.Z.Z.Z.Z.N.Z.Z.",
"Z.Z.Z.Z.Z.A.Z.Z.Z.Z.Z.N.Z.Z.Z.Z.B.G.#X=X*X*X).).:.;.d.a.B : V v.l.l.l.i.i.K.U.L.F.L.Z.Z.Z.Z.Z.Z.Z.Z.Z.Z.Z.Z.Z.Z.Z.Z.Z.Z.Z.Z.Z.Z.",
"Z.Z.Z.Z.Z.Z.Z.Z.Z.Z.Z.Z.Z.Z.Z.Z.B.G.<.-X<X>X[.{.E.9.j.c.V < V v.f.l.s.x.x.l.x.a.U n.V.Z.V.Z.Z.Z.Z.Z.Z.Z.Z.Z.Z.Z.Z.Z.Z.Z.Z.Z.Z.Z.",
"Z.Z.Z.Z.Z.Z.Z.A.Z.Z.Z.Z.Z.Z.V.V.F.=XW.W.;X;X].].E.oXj.z.V : V v.f.l.l.l.l.l.x.p.T n.A.A.N.N.Z.Z.Z.Z.Z.Z.Z.N.Z.Z.Z.Z.Z.Z.Z.Z.Z.Z.",
"B.Z.Z.Z.Z.Z.Z.Z.Z.Z.Z.Z.Z.Z.B.k.8.|.[.'.4.<.5.9.:X,Xb.g.V - L v.f.l.l.l.l.l.l.l.z.a.E R , A Z.Z.Z.Z.Z.Z.Z.Z.Z.Z.Z.Z.N.Z.Z.Z.Z.Z.",
"Z.A.Z.Z.Z.Z.Z.Z.Z.Z.Z.Z.Z.V.B.XX9.'.[.|.5.oX9.oX;X:Xb.c.C < V l.s.l.l.l.l.l.l.l.l.s.E R l M Z.Z.A.Z.Z.Z.Z.Z.Z.Z.Z.Z.Z.Z.Z.Z.Z.Z.",
"Z.Z.Z.Z.Z.Z.Z.Z.Z.Z.Z.B.D.@X9.].[./.8.OX,X:X:X;X{.{.{.[._.s.w.< m l.l.l.l.f.l.l.l.s.x.s.I I M v S.Z.Z.Z.Z.Z.Z.Z.Z.Z.Z.Z.Z.Z.Z.Z.",
"Z.Z.Z.Z.Z.Z.Z.Z.Z.Z.Z.A.F.&X<.].[./.4.OX,X:X:X>X[.[.[.[._.g.w.< m l.f.x.l.x.l.l.l.l.x.s.I T l 5 D.V.V.Z.Z.Z.Z.Z.Z.Z.Z.Z.Z.Z.Z.Z.",
"Z.Z.Z.Z.Z.Z.Z.Z.Z.Z.C.N.D.7.[ '.[.|.:XOX;.-.oXOX{.[./.E.k.z.w.< m l.s.M m m m C x.l.x.s.I T Y Y D D S.B.Z.Z.Z.Z.Z.Z.Z.Z.Z.Z.Z.Z.",
"Z.Z.Z.Z.N.Z.Z.Z.Z.Z.Z.N.D.-.k '.[.|.<XOXu / <.<.{.[.E.3.j.h.p.; m c.x., < < ; C z.l.x.s.I I T t.n , M.H.Z.Z.Z.Z.Z.Z.Z.Z.Z.Z.Z.Z.",
"Z.Z.Z.Z.Z.Z.Z.Z.Z.Z.Z.C.F.#X#XW.Y.E.@X@X@X&X1X1X/./.).].Q.k.k.e.C V V C w.C C p.i.p.i.y.I T I T n l O.C.Z.Z.Z.Z.Z.Z.Z.Z.Z.Z.Z.Z.",
"Z.Z.Z.Z.Z.Z.Z.Z.Z.Z.Z.Z.C.s.m.| f >.oX&XiXiXyXyX5.4.].[.).8.k.c.s.: < x.c.z.c.a.U P U P I I I T z , M.H.Z.Z.Z.Z.Z.Z.Z.Z.Z.Z.Z.Z.",
"Z.Z.Z.Z.Z.Z.Z.Z.Z.Z.Z.C.C.C.C.O.:. .` 5.yXyXfXfX+X&X.X[./.8.k.a.p.n m C C p.a.y.P T T T T I I I b M ~ d.N.Z.Z.Z.A.Z.Z.Z.Z.Z.Z.Z.",
"Z.N.Z.Z.Z.Z.Z.Z.Z.Z.Z.V.V.C.A.A.J.D   ' gXfXBXNXiXyX X[.).8. .U U t.r.l - K T I T T T T I I I I t.t.b < Q Z.Z.Z.Z.Z.Z.Z.Z.Z.Z.Z.",
"Z.Z.Z.Z.Z.Z.N.Z.Z.Z.Z.Z.V.C.Z.A.H.G   ' 2X%XfXpXfXiX X[.).8. .Y ^ B B z l B Y Y I I I I I I I I R t.M , ~ Z.Z.Z.Z.Z.Z.Z.Z.Z.Z.Z.",
"Z.Z.Z.Z.Z.Z.Z.Z.Z.Z.Z.Z.C.A.Z.A.J.D   $ *.u   @ lXMX X[.).9.>.d a l , < l < : b t.I T T T T I I I t.b , ~ B.A.Z.Z.Z.Z.Z.Z.Z.Z.Z.",
"Z.Z.Z.Z.Z.Z.Z.Z.Z.Z.Z.Z.A.A.C.V.L.Q X 7 [ j # q lXmX X[./.9.>.d ( c v v v v v L I U R P Y P P P I T b , ~ D.F.Z.Z.Z.Z.Z.Z.Z.Z.A.",
"Z.Z.Z.Z.Z.Z.Z.Z.Z.Z.Z.Z.A.C.H.G 9 6.uXwX8X9XZXnXcXmX+X<.-X>XE.a -.tXtXjXlXlXlXG.: c l , . O l l K t.b l 5 9 S Z.A.Z.Z.A.Z.Z.Z.Z.",
"Z.Z.Z.Z.Z.Z.Z.Z.Z.Z.Z.Z.Z.N.J.A   6.hXwX8X9XVXVXmXcX&X,.-X<X9.a -.uXyXxXmXxXBXG.: l l , X X 3 l K t.b l -   1 H.A.Z.Z.Z.Z.Z.Z.Z.",
"Z.Z.N.Z.Z.Z.Z.Z.Z.Z.Z.Z.N.N.J.D   6.gXwX8X9XVXCXxXmX5.s (.}.(.a :.lXkXcXmX%X-X' . + O 5 S.#.e O , n l l -   1 H.N.A.Z.Z.Z.Z.Z.Z.",
"Z.Z.Z.Z.Z.Z.Z.Z.Z.Z.N.Z.Z.N.H.A   q.hXwX5X9XVXVXxXmX7.u T.[.T.t -.vXvXNXNX+XOXj       2 H.V.q . - z l l -   1 H.N.Z.Z.Z.Z.Z.Z.A.",
"Z.Z.Z.Z.Z.Z.Z.Z.Z.Z.Z.Z.Z.N.Z.| ] @.' &.wXeXBXBXcXmX7.f T.[.|.0.$XqXqX*X2X} g &   e ..O.C.V.O.] A + - z -   1 H.N.Z.Z.Z.Z.Z.Z.Z.",
"Z.Z.Z.Z.Z.Z.Z.Z.Z.Z.Z.Z.Z.Z.Z.Z.K.A   ' hXgXxXxXxXNX:.t ^.[.4XsXrX0X0XXX1.o       w J.C.C.A.C.K.A   ; m ;   1 J.Z.Z.Z.Z.Z.Z.Z.Z.",
"Z.Z.Z.Z.Z.Z.Z.Z.Z.Z.Z.Z.Z.Z.Z.A.Z.! G &.q.#XkXkXkXkX0.7.W.^.).4X*X7X7X} } ` ` ( ) k.C.A.Z.C.A.V.~ G A ; A G H B.Z.Z.Z.Z.Z.Z.Z.Z.",
"Z.A.Z.Z.Z.Z.Z.Z.Z.Z.Z.Z.Z.Z.A.Z.Z.H.K.O.  & aXuXuXuXfXzX8.t Y.[.'.        W.3X X[. XC.Z.Z.Z.Z.Z.H.K.D   G K.Z.Z.Z.Z.Z.Z.Z.Z.Z.Z.",
"Z.Z.Z.Z.Z.A.Z.Z.Z.Z.A.Z.Z.Z.Z.Z.Z.Z.C.O.g X.%X%X%X%X$X%X:.u 2.}.^.O   O . ,.-X~.'.`.C.Z.Z.Z.Z.Z.A.Z.~ 1 Q Z.Z.Z.Z.Z.Z.Z.Z.Z.Z.Z.",
"Z.Z.Z.Z.Z.Z.Z.Z.A.Z.Z.Z.Z.Z.Z.Z.Z.Z.N.V.L.S.# . < , , l +   ` <XOX    , z + X X   J C.Z.Z.Z.Z.Z.N.Z.Z.K.Z.Z.Z.Z.Z.Z.Z.Z.Z.Z.Z.Z.",
"Z.Z.Z.Z.Z.Z.Z.A.Z.Z.Z.Z.Z.Z.Z.Z.Z.Z.Z.Z.H.M.# O l l l z ;   ` ,XoX. . < l O   # 9 X.Z.Z.Z.Z.Z.Z.Z.N.N.A.N.Z.Z.Z.Z.Z.Z.Z.Z.Z.Z.Z.",
"Z.Z.Z.Z.Z.Z.Z.Z.Z.Z.Z.Z.Z.Z.Z.Z.B.B.Z.O.# 6 T B P P Y T 4   5 y.y.R P l l O   ~ D.F.Z.Z.Z.Z.Z.Z.Z.Z.Z.Z.Z.Z.Z.Z.Z.Z.Z.Z.Z.Z.Z.Z.",
"Z.A.Z.Z.Z.Z.Z.Z.A.Z.Z.Z.Z.Z.Z.Z.N.H.J.O.X + t.t.T I I t.4   4 U B P P l z O   ~ H.A.Z.Z.Z.Z.Z.Z.Z.Z.Z.Z.Z.Z.Z.Z.Z.Z.Z.Z.Z.Z.Z.Z.",
"Z.Z.Z.Z.Z.Z.Z.Z.Z.Z.Z.Z.Z.Z.A.A.B.~ e _ '.!.U U T T P t.3   +.AXdXbXdX2 . .   ~ H.A.A.A.Z.Z.Z.Z.Z.Z.Z.Z.Z.Z.Z.Z.Z.Z.N.Z.Z.Z.Z.Z.",
"Z.Z.Z.Z.Z.Z.Z.Z.N.Z.Z.Z.V.B.K.Z.K.D   ) {.{.U U I I P t.3   &.VXVXVXVX#       ! K.C.Z.Z.Z.Z.Z.Z.Z.Z.Z.N.Z.Z.Z.Z.Z.Z.Z.Z.Z.Z.Z.Z.",
"Z.Z.Z.A.Z.Z.Z.Z.Z.Z.B.B.F.o.X.H o.8   N b.b.] W P I P t.3   r #Xq.wXq.#   3 x G X.O.Z.Z.Z.Z.Z.Z.Z.Z.Z.Z.Z.Z.Z.Z.Z.Z.Z.Z.Z.Z.Z.Z.",
"Z.Z.Z.Z.Z.Z.A.Z.Z.Z.Z.B.F.&           4 U M =.d I r.I r.4   @ t % % %     K u.4   r J.C.Z.Z.Z.Z.Z.Z.Z.Z.Z.Z.Z.Z.Z.Z.Z.Z.Z.Z.Z.Z.",
"Z.Z.Z.Z.Z.Z.Z.Z.Z.Z.Z.B.V.q X $ * o   4 y.C | ( W W W W 1   & h g j j % % c n x > G #.@.C.C.Z.Z.Z.Z.Z.Z.Z.Z.Z.Z.Z.N.Z.Z.Z.N.Z.Z.",
"Z.Z.Z.Z.Z.Z.Z.N.Z.Z.Z.N.F.q   i ;.%   > r.y.h.g./ d d *.%   $ h u d s [ / @   x u.n   2 C.A.Z.Z.Z.Z.Z.Z.Z.Z.Z.N.Z.Z.Z.Z.Z.Z.Z.Z.",
"Z.Z.Z.Z.Z.Z.Z.Z.Z.Z.Z.N.F.9   i / 7 X 1 K L l.l.{ { { { 8 + # = g -.-.} -.$   x r.n   2 F.Z.Z.Z.Z.Z.Z.N.Z.Z.Z.Z.Z.Z.Z.Z.Z.Z.Z.Z.",
"Z.Z.Z.Z.Z.Z.Z.Z.Z.Z.Z.A.F.q   a / i g *   ; x.l.g.l.l.x.i.r.n   r MXMXiXgXr   c t.b   q C.Z.Z.Z.Z.Z.Z.Z.Z.Z.Z.Z.Z.Z.Z.Z.Z.Z.Z.Z.",
"Z.Z.Z.N.Z.Z.Z.Z.N.Z.Z.N.V.q X i s i g *   ; l.j.f.f.f.l.p.U x   r cXlXtXyXr   x t.Z X q Z.Z.Z.Z.Z.Z.Z.Z.N.Z.Z.Z.Z.Z.Z.N.Z.Z.Z.Z.",
"Z.Z.Z.Z.Z.Z.Z.Z.Z.Z.Z.Z.V.N.Z.S X * g y y 7 + ; P R Y t.x   .   X q & # @ X   X O S Z.N.V.V.N.Z.Z.Z.Z.Z.Z.Z.Z.Z.Z.Z.Z.Z.Z.Z.Z.Z.",
"Z.Z.Z.Z.Z.Z.Z.Z.Z.Z.Z.Z.Z.Z.P.A   * h g h y   O I r.T t.3                         F J.V.Z.Z.Z.Z.Z.Z.Z.Z.Z.Z.Z.Z.Z.Z.Z.Z.Z.Z.Z.Z.",
"Z.Z.Z.Z.Z.Z.Z.Z.Z.Z.Z.Z.Z.Z.Z.N.N.S X @ o 8 N.O.0 ; ; ; O             * 7 = = @   w Z.Z.Z.Z.Z.Z.N.Z.Z.Z.Z.Z.Z.Z.Z.Z.Z.Z.Z.Z.Z.Z.",
"Z.Z.Z.Z.Z.A.Z.Z.Z.Z.Z.Z.Z.Z.Z.Z.K.D   X   1 J.D.9   X     X   X       h h h j $   r H.A.Z.Z.Z.Z.Z.Z.Z.Z.Z.Z.Z.Z.N.Z.Z.Z.Z.Z.Z.N.",
"Z.Z.Z.Z.Z.N.Z.Z.Z.Z.Z.Z.Z.Z.Z.N.Z.M.+.+.+.@.Z.A.@.+.@.@.+.+.+.+.o.X   $ $ $ $ X.+.S.V.V.Z.Z.Z.Z.Z.Z.Z.Z.Z.Z.Z.Z.Z.Z.Z.Z.Z.Z.Z.Z.",
"Z.Z.Z.Z.Z.Z.Z.Z.Z.Z.Z.Z.Z.Z.Z.Z.Z.Z.H.Z.Z.H.A.Z.C.Z.H.Z.Z.Z.H.H.C.X           ~ K.C.C.V.A.Z.Z.Z.Z.Z.Z.Z.N.Z.Z.Z.Z.Z.Z.Z.Z.Z.Z.Z.",
"Z.Z.Z.Z.Z.Z.Z.Z.Z.Z.Z.Z.Z.Z.Z.Z.Z.Z.A.A.Z.Z.Z.Z.C.Z.C.Z.Z.Z.Z.Z.N.S w w w w e n.Z.Z.C.V.Z.Z.Z.Z.Z.Z.Z.Z.Z.Z.Z.Z.Z.Z.Z.Z.Z.Z.Z.Z.",
"Z.Z.Z.Z.Z.N.Z.Z.Z.Z.Z.Z.Z.Z.Z.Z.Z.Z.Z.Z.Z.Z.Z.Z.Z.Z.Z.Z.Z.Z.Z.Z.A.C.H.Z.J.Z.H.Z.Z.Z.Z.Z.Z.N.Z.Z.Z.Z.Z.Z.Z.Z.Z.Z.Z.Z.Z.Z.N.Z.Z.Z.",
"Z.Z.Z.Z.Z.Z.Z.Z.N.Z.Z.Z.Z.Z.Z.Z.Z.Z.Z.Z.Z.Z.Z.Z.Z.Z.Z.Z.Z.Z.Z.Z.Z.C.A.A.Z.Z.Z.Z.Z.Z.Z.Z.Z.Z.Z.Z.Z.Z.Z.Z.N.Z.Z.Z.Z.Z.Z.Z.Z.Z.Z.Z.",
"Z.Z.Z.Z.Z.Z.Z.Z.Z.Z.Z.Z.Z.Z.N.Z.Z.Z.Z.Z.Z.Z.Z.Z.Z.Z.Z.Z.Z.Z.Z.Z.Z.Z.Z.Z.Z.Z.Z.Z.Z.Z.Z.Z.Z.Z.Z.Z.Z.Z.Z.Z.Z.Z.Z.Z.Z.Z.Z.Z.Z.Z.Z.Z.",
"Z.N.Z.Z.Z.Z.Z.Z.Z.Z.Z.Z.Z.Z.Z.Z.Z.N.Z.Z.Z.Z.Z.N.Z.A.Z.Z.Z.Z.Z.Z.Z.Z.Z.Z.Z.Z.Z.Z.Z.Z.Z.Z.Z.Z.Z.Z.Z.Z.Z.Z.Z.Z.Z.Z.Z.Z.Z.Z.Z.Z.Z.Z.",
"Z.Z.Z.Z.Z.Z.Z.Z.Z.Z.Z.Z.Z.Z.Z.Z.Z.Z.Z.Z.Z.Z.Z.Z.Z.Z.Z.Z.Z.Z.Z.Z.Z.Z.Z.Z.Z.Z.Z.Z.Z.N.Z.Z.Z.Z.N.Z.N.Z.Z.Z.Z.Z.Z.Z.Z.Z.N.Z.Z.Z.Z.A.",
"Z.Z.Z.Z.Z.Z.Z.Z.Z.Z.Z.Z.Z.Z.Z.Z.Z.Z.Z.Z.Z.Z.Z.Z.Z.Z.Z.Z.Z.Z.Z.Z.Z.Z.Z.Z.Z.Z.Z.Z.Z.Z.Z.Z.Z.Z.Z.Z.Z.Z.Z.Z.Z.Z.Z.Z.Z.Z.V.Z.Z.Z.Z.Z.",
"Z.Z.Z.Z.Z.Z.Z.Z.Z.Z.Z.Z.N.Z.Z.Z.Z.Z.Z.Z.Z.Z.Z.Z.N.Z.Z.Z.Z.Z.Z.Z.Z.Z.Z.Z.Z.Z.Z.Z.Z.Z.Z.Z.Z.Z.Z.Z.Z.Z.Z.Z.Z.Z.Z.Z.Z.Z.Z.Z.Z.Z.Z.Z.",
"Z.Z.Z.Z.Z.Z.N.Z.Z.Z.Z.Z.Z.Z.Z.Z.Z.A.Z.Z.Z.Z.Z.Z.Z.Z.Z.Z.Z.Z.Z.Z.Z.Z.Z.Z.Z.Z.Z.Z.Z.Z.Z.Z.Z.Z.Z.Z.Z.Z.Z.Z.Z.Z.Z.Z.Z.Z.Z.Z.Z.Z.Z.Z."
};
