/* XPM */
static char *a99f0d89c775449c972668b294ce8e73oGxTmHBg7qJAAm5b[] = {
/* columns rows colors chars-per-pixel */
"64 64 244 2 ",
"   c #010001",
".  c #0C0906",
"X  c #0A040B",
"o  c #080805",
"O  c #140C09",
"+  c #071709",
"@  c #1D140B",
"#  c #191A18",
"$  c #0B0A11",
"%  c #26160A",
"&  c #391C15",
"*  c #271D14",
"=  c #012C02",
"-  c #07270A",
";  c #063509",
":  c #0A340B",
">  c #0B3D0B",
",  c #043604",
"<  c #0F2812",
"1  c #192618",
"2  c #0B3D14",
"3  c #083813",
"4  c #16340E",
"5  c #2B2A04",
"6  c #2A241B",
"7  c #3D2315",
"8  c #363409",
"9  c #002138",
"0  c #2A2A2A",
"q  c #322A24",
"w  c #283928",
"e  c #353523",
"r  c #333733",
"t  c #46271E",
"y  c #5D2514",
"u  c #513417",
"i  c #6D3A19",
"p  c #713E1F",
"a  c #773B1B",
"s  c #6C2D14",
"d  c #4D2A21",
"f  c #523627",
"g  c #663B23",
"h  c #431F17",
"j  c #0D420C",
"k  c #0E4A0E",
"l  c #114B0E",
"z  c #0C4914",
"x  c #184815",
"c  c #0D5215",
"v  c #0C5B1C",
"b  c #0D561B",
"n  c #135313",
"m  c #145818",
"M  c #00510C",
"N  c #235916",
"B  c #244D16",
"V  c #0B631A",
"C  c #12621D",
"Z  c #1E6717",
"A  c #29671B",
"S  c #29741B",
"D  c #356C1D",
"F  c #1B5425",
"G  c #284728",
"H  c #3E5C22",
"J  c #325932",
"K  c #2A4F2C",
"L  c #0E6C22",
"P  c #116B23",
"I  c #0C7625",
"U  c #0B7628",
"Y  c #0F7B29",
"T  c #087A26",
"R  c #117B29",
"E  c #147526",
"W  c #187F32",
"Q  c #346B34",
"!  c #3A6837",
"~  c #397638",
"^  c #28722A",
"/  c #4F5308",
"(  c #71411F",
")  c #754919",
"_  c #666400",
"`  c #554739",
"'  c #52502C",
"]  c #6D4722",
"[  c #794523",
"{  c #6E4F33",
"}  c #566838",
"|  c #4C6933",
" . c #7C622D",
".. c #5D7013",
"X. c #55534F",
"o. c #6A5344",
"O. c #456D44",
"+. c #4C684C",
"@. c #467A46",
"#. c #577956",
"$. c #546E4D",
"%. c #6C7845",
"&. c #6F6F4C",
"*. c #777879",
"=. c #833C20",
"-. c #9C7819",
";. c #895130",
":. c #996B3C",
">. c #9A763C",
",. c #8E733A",
"<. c #A4763B",
"1. c #895B1D",
"2. c #945D4A",
"3. c #976B44",
"4. c #9C7247",
"5. c #87674A",
"6. c #A27544",
"7. c #A5614F",
"8. c #32851F",
"9. c #0B852B",
"0. c #12822B",
"q. c #15882C",
"w. c #178A36",
"e. c #288726",
"r. c #338C21",
"t. c #3C9B26",
"y. c #369928",
"u. c #27883A",
"i. c #3F843E",
"p. c #289129",
"a. c #3EA225",
"s. c #3EA329",
"d. c #39A72A",
"f. c #27A32A",
"g. c #469727",
"h. c #519E29",
"j. c #7E823A",
"k. c #41A429",
"l. c #44AB2A",
"z. c #44A628",
"x. c #47B52C",
"c. c #4EAA38",
"v. c #51AD37",
"b. c #78B117",
"n. c #4EC831",
"m. c #349147",
"M. c #3CA24B",
"N. c #468745",
"B. c #469646",
"V. c #459946",
"C. c #499847",
"Z. c #499649",
"A. c #469A49",
"S. c #489848",
"D. c #469748",
"F. c #529D4E",
"G. c #58944D",
"H. c #518851",
"J. c #539C53",
"K. c #5A9C56",
"L. c #4C9B55",
"P. c #6F934B",
"I. c #4BA14B",
"U. c #4BA94D",
"Y. c #55A948",
"T. c #55A454",
"R. c #59B34A",
"E. c #61A15B",
"W. c #738F6A",
"Q. c #73B06A",
"!. c #5BA465",
"~. c #ADB318",
"^. c #948739",
"/. c #B6833B",
"(. c #BD9E30",
"). c #AC873A",
"_. c #9EB329",
"`. c #CFBC0F",
"'. c #CEB824",
"]. c #D0B32E",
"[. c #9AD014",
"{. c #A8C11B",
"}. c #DCCD19",
"|. c #D9C919",
" X c #C9CF0F",
".X c #E4D715",
"XX c #E2D40B",
"oX c #F5EC08",
"OX c yellow",
"+X c #F7F601",
"@X c #F6EA1B",
"#X c #E7E90F",
"$X c #E6C637",
"%X c #ECCD2E",
"&X c #CAEA09",
"*X c #8B8949",
"=X c #A9834A",
"-X c #B58849",
";X c #B38A55",
":X c #B18B5E",
">X c #8F9468",
",X c #B39069",
"<X c #AA8B68",
"1X c #BAA463",
"2X c #C6984B",
"3X c #C99C57",
"4X c #D7A45C",
"5X c #E8B458",
"6X c #E3B34C",
"7X c #C8A87B",
"8X c #DAA36C",
"9X c #E7D546",
"0X c #F9EB5C",
"qX c #EDCF6F",
"wX c #31519A",
"eX c #2A52A5",
"rX c #425D9A",
"tX c #00BEFF",
"yX c #29B8E6",
"uX c #00C0FF",
"iX c #B49B84",
"pX c #B5A688",
"aX c #B9B298",
"sX c #C9A984",
"dX c #D4B38B",
"fX c #D6B68B",
"gX c #DABC93",
"hX c #CBAE8D",
"jX c #E2BB91",
"kX c #BBC096",
"lX c #E6C699",
"zX c #F6CE9B",
"xX c #F8DDBA",
"cX c #EED3AA",
"vX c #FCE4BB",
"bX c #D0CCAC",
"nX c #FEEBC7",
"mX c #FFF2CA",
"MX c #FFF2C6",
"NX c #FFFAD8",
"BX c #FEFEFD",
"VX c #F5F9F5",
"CX c #EAEEEC",
"ZX c #D9E4C6",
/* pixels */
"S.S.S.S.S.S.S.S.S.S.S.S.S.S.S.S.S.S.S.S.S.S.S.S.S.S.S.S.S.S.S.S.S.S.S.S.S.S.S.S.S.S.S.S.S.C.S.C.S.S.S.S.S.S.S.S.S.S.S.S.S.S.S.D.",
"S.S.S.S.S.S.S.S.S.S.S.S.S.S.B.S.S.S.S.S.S.S.B.S.S.S.S.S.S.S.S.S.S.S.S.Z.S.S.S.S.S.S.D.S.S.S.S.D.S.S.S.S.C.D.S.S.S.S.S.S.S.S.S.B.",
"S.S.S.S.S.S.S.S.S.S.S.S.S.S.S.S.S.S.S.S.S.S.S.S.S.S.S.S.B.S.S.S.S.S.S.B.B.S.S.S.S.S.C.S.S.S.S.S.S.C.S.S.S.S.S.S.S.C.S.S.S.S.S.S.",
"S.S.S.S.S.S.S.S.S.S.S.S.S.S.S.S.S.S.S.S.S.S.S.S.S.S.S.S.Z.S.S.S.S.S.S.S.Z.S.S.S.S.S.S.S.S.S.S.S.S.S.D.S.S.S.S.S.S.D.S.S.S.S.S.S.",
"S.S.S.S.S.S.S.S.S.S.S.S.S.S.S.S.S.S.S.S.S.S.S.S.S.S.S.S.S.S.S.S.S.S.S.S.S.S.S.S.S.S.S.S.S.S.S.S.S.S.S.S.S.S.S.S.S.S.S.S.S.S.S.S.",
"S.S.S.S.S.S.S.S.S.S.S.S.S.S.S.S.S.S.S.S.S.S.B.S.S.S.S.S.S.S.S.S.S.S.S.S.S.S.S.S.S.S.S.D.S.S.S.S.S.S.S.S.S.S.S.S.S.S.S.S.S.S.S.S.",
"S.S.S.S.S.S.S.S.S.S.S.S.S.S.S.S.S.S.S.S.S.S.S.S.S.S.S.B.S.S.S.S.S.S.S.S.S.S.S.S.S.S.S.S.S.S.S.S.S.S.S.C.S.S.S.S.S.S.S.B.S.S.S.S.",
"S.S.S.S.S.S.S.S.B.S.S.S.S.S.B.S.S.S.S.C.C.Z.C.B.S.S.S.S.S.S.S.S.S.S.C.B.S.S.S.S.S.C.S.D.S.S.S.D.S.S.S.D.S.S.D.C.S.S.S.S.S.S.S.S.",
"S.S.S.S.S.S.S.S.S.S.S.S.S.B.B.S.B.Z.C.B.V.B.B.S.V.D.D.S.C.C.B.B.B.B.S.C.Z.D.A.Z.Z.S.S.S.S.S.S.S.S.S.S.S.S.S.S.S.S.S.S.S.S.S.S.S.",
"S.S.S.S.S.S.S.S.S.S.S.S.S.S.S.S.Z.Z.Z.K.G.K.K.G.G.J.A.Z.Z.Z.F.I.F.F.Z.A.D.Z.Z.A.S.S.S.S.S.S.S.S.S.S.S.S.B.S.S.S.S.S.S.S.B.S.S.S.",
"S.S.S.S.S.S.S.S.S.S.S.S.S.S.S.B.c.m.m.=X-X;X-X;.;.| w.^ x F c.c.c.v.u.u.L.D.g.B.B.V.D.S.D.D.S.S.S.S.S.S.S.S.S.S.S.S.S.S.S.S.S.S.",
"S.S.S.S.S.S.S.S.S.S.S.S.S.S.F.K.E.E.T.4.<.<.6. .a H 9.C > l a.k.k.z.q.R !.T.K.T.T.J.J.J.F.V.S.V.S.S.S.S.S.S.S.S.S.S.S.S.S.S.S.S.",
"S.S.S.S.S.S.S.S.S.S.S.S.B.B.*X:X3X8XqXoXoX).4.|.oX_.f.8.; n k.k.k.k.t.s.c.R.R.R.Y.m.m.m.m.D.V.B.B.Z.Z.C.S.S.S.S.S.S.S.S.S.S.S.S.",
"S.S.S.S.S.S.S.S.S.S.S.V.D.M.P.:.=X5X$XOXOX).3.XX+X[.a.8.; n z.k.k.k.k.k.a.t.a.s.y.T I T W L.V.I.C.C.A.S.S.S.S.S.S.S.S.S.S.S.S.S.",
"S.S.S.S.S.S.S.S.S.S.V.V.P.P.(.#X'.-X).(.(.|..X$X%X_.d.8.; n k.s.k.k.k.k.k.k.k.k.a.y.y.0.R u.m.~ ^ ~ C.A.S.S.S.S.S.S.S.S.S.S.S.S.",
"S.S.S.S.S.S.S.S.S.S.I.M.5.7.|.OX}.3.<.3.4.+XOX6X8XP.f.S = l l.d.s.k.k.k.k.k.k.k.a.k.s.R U U Y b - ^ T.Z.B.S.S.S.S.S.S.S.B.S.S.S.",
"S.S.S.S.S.S.S.S.B.G.%.$.(.'..XOX}.2X2X2X-X%X%X%X%X X[.b.Z S S S t.k.s.t.k.k.k.z.k.s.k.p.p.R Y P v E ~ g.Z.S.S.S.S.S.S.S.S.S.D.S.",
"B.S.S.S.S.S.B.S.B.E.;.s XXOXOX+X@X4X5X5X6X6X4XoXOXOXOX&Xd.k.; > t.l.k.l.z.l.z.z.s.k.k.k.c.e.U R q.C - J J.B.S.S.S.S.S.S.S.S.S.S.",
"S.S.S.S.S.S.S.B.S.F.} } ~.`.}.@X$X2X2X2X3X2X3X.XOX.X.X{.d.y.j j t.k.r.r.8.8.r.l.k.k.k.y.y.0.R R Y U z Q H.N.Z.A.S.S.S.S.S.S.S.S.",
"S.S.S.S.S.S.S.S.C.S.S.U.} y <.5X2X<.6.<.<.<.:..XOX'.2.j.d.y.> > y.x.n , ; ; m l.k.k.k.R U I U Y Y U Y U x x N.A.S.S.S.S.S.S.S.S.",
"S.S.S.S.S.S.S.S.S.S.S.V.&.2.3XqX3X:.>.=X-X=X6.}.+X'.).^.g.g.l l r.k.Z j n j A d.y.t.t.0.Y Y R Y Y R Y U j x Z.S.S.S.S.S.S.S.S.S.",
"S.S.S.S.S.S.S.S.S.S.S.S.K.E.!.E.#.  6 dXdXdXfX;X:.'.OX|.6.^.k.k.l ; r.l.s.z.p.I R R Y Y Y R Y R R Y E R Y Y < + ~ S.S.S.S.S.S.S.",
"S.S.S.S.S.S.S.S.S.S.S.C.C.V.B.V.O.  6 dXdXdXfX;X3.'.OX}.6.4.k.k.l ; r.l.s.k.p.U R Y Y Y Y Y Y Y R Y Y R R R +   ~ I.S.S.S.S.S.S.",
"S.S.S.S.S.S.S.B.D.S.S.V.C.C.B.I.O.  6 dXdXcXvXfXsX9XOX}.4.^.R 0.E I n l Z q.E Y R Y R R Y Y Y U Y Y I R Y Y +   i.C.D.S.S.S.S.S.",
"S.S.S.S.S.Z.B.S.S.S.S.S.C.S.S.I.O.  6 gXfXnXNXlXhX9XOX|.6.,.9.T Y 0.c , V 9.Y 9.R 0.Y Y 0.0.9.Y 0.Y Y R Y Y +   @.U.S.S.S.S.S.S.",
"S.S.S.S.S.S.S.S.S.S.S.S.S.S.S.S.O.X @ 3.3.X.` pXxX0XOX}.6.>.' / m c V 9.C n n c c c c c c 3 - j c c c c I T v v G 1 ~ I.S.S.S.S.",
"S.S.B.S.S.S.S.S.S.S.S.S.S.S.V.U.O.    a s     iXNX0XOX.X3.:.a a : = V 9.M = , > > > > j k o   + k j > l 0.Y 0.q.;   Q U.A.S.S.S.",
"S.S.S.S.S.S.S.S.S.S.S.S.S.A.@.+.$.&.o.X.X.*.*.bXnXqX`.].2X-X[ ( %.%.W.>XQ.>X$., j j j : - J ~ B - - - : v V m C 3 + J +.#.Z.D.S.",
"S.S.S.S.S.S.S.S.S.S.S.S.Z.I.G   o.zXaXeXeXCXBXnXnXsX3.;X5X3Xp ( dXgXvXmXnXNXkX, l j j     @.R.K         > j > j k c -   0 T.S.S.",
"S.S.S.S.S.S.S.S.S.S.S.S.S.I.G   ` jXiXwXwXCXBXnXnX7X1.).9X].( ( sXgXcXvXlXlX>X= : ; 2 r r H.I.O.r r r w 2 ; : : : , w r +.Z.S.S.",
"S.S.S.S.S.S.S.S.S.B.S.S.Z.U.G   ` zXsXwXeXCXVXnXnX<Xy -.+XXXi i cXMXvXMX7X<. .      + F.L.F.D.A.F.F.T.I.$           ! T.S.S.S.S.",
"S.S.S.S.S.B.S.S.S.S.S.S.Z.C.J # X.sXiXwXrXCXBXxXMX,Xy -.OXXX[ ;.bXZXcXvX7X:.{   $ # w S.D.D.S.D.S.V.D.S.w # 1 0 1 # ~ A.B.S.S.S.",
"S.S.S.S.S.S.S.S.S.S.S.S.S.S.S.C.O.  q dXdXvXvXxXmX,Xy -.OX@XdXhXyXuXW.6.]   o   # S.A.S.S.S.S.S.S.S.S.S.Z.Z.F.Z.Z.Z.Z.S.S.S.S.S.",
"S.S.S.S.S.S.S.S.S.S.S.S.S.S.S.I.O.$ q fXfXvXvXvXmX,Xy -.OX@XdXhXyXuX>X<.f   . o 4 I.S.A.S.S.S.S.S.S.S.S.B.D.Z.D.S.Z.S.S.S.S.S.S.",
"S.S.S.S.S.S.S.S.S.S.S.S.S.S.S.S.Z.Z.B.e q sXgXfXgXsX7X:X) -.@X@XK 9 1 @ o.7X2X X~.M.Z.S.S.S.S.S.S.S.S.S.S.S.S.S.A.Z.S.S.S.S.S.S.",
"S.S.S.B.S.S.S.S.S.S.S.S.S.S.S.S.Z.A.A.o   sXlXjXjXjXcX,Xs 1.OX+X5       5.cXqXOX#XD.C.S.S.S.S.S.S.S.S.S.S.S.S.S.Z.C.S.S.S.S.S.S.",
"S.S.S.S.S.S.S.S.S.S.S.S.S.S.S.S.S.S.S.N.m.` ` } } | } ' % u $X$X5   - ; G ` ' _ ..L.B.S.S.S.B.S.S.S.S.S.S.S.S.S.S.S.S.S.S.S.S.S.",
"S.S.S.S.S.D.S.S.S.S.S.S.S.S.C.S.S.S.S.I.T.+   = , , , =   * 5X5X*   - j +       + I.B.S.S.S.S.S.S.S.S.S.S.S.S.S.S.S.S.S.S.S.S.S.",
"B.S.S.S.S.S.S.S.S.S.S.S.S.S.S.S.S.S.S.Q Q x z b C v V z + 4  . .4 2 c P :   0 +.O.C.S.S.S.S.S.S.S.S.S.S.S.S.S.S.S.S.S.S.S.S.S.S.",
"S.S.S.S.S.S.S.S.S.S.S.S.S.S.S.S.S.A.A.o   Y 0.0.R 9.q.L j ;     T w.R 0.z   K U.S.S.S.S.S.S.S.S.S.S.S.S.S.S.S.S.S.S.S.S.S.S.S.S.",
"S.S.S.S.S.S.S.S.S.S.S.S.S.B.S.S.Z.N.g./ / E W U Y L b b c z - < b v L 0.2   G F.D.Z.A.Z.S.S.S.S.B.S.S.S.S.S.S.S.S.S.S.S.S.S.S.S.",
"S.S.S.S.S.S.S.S.S.S.S.S.S.S.B.I.O.X 8 +X+Xe.U R 0.2   - 9.T T I +   v 9.2   G L.D.A.S.A.S.S.S.S.S.S.S.S.S.S.S.S.S.S.S.S.S.S.S.S.",
"S.S.S.S.S.S.S.S.S.S.S.S.S.S.B.A.O.  5 #X#Xe.P E R z   3 u.w.u.w.+   v q.z   K J.H.A.S.S.S.S.S.S.S.S.S.S.S.S.S.S.S.S.S.S.S.S.S.S.",
"S.S.S.S.S.B.S.S.S.S.S.S.S.S.Z.A.O.X - z.z.] p p [ 7   X.VXCXCXCX0   u ;.H Y F # w S.S.S.S.S.S.S.S.S.S.S.S.S.S.S.S.S.S.S.S.S.S.S.",
"B.S.S.S.S.S.S.S.S.S.S.S.S.S.S.I.O.o - k.z.] a p [ t   X.BXVXVXCXr   u =.' 9.b   < A.B.S.S.S.S.S.S.S.S.S.S.S.B.S.S.S.S.S.S.S.S.S.",
"S.S.S.S.S.S.S.S.S.S.B.S.S.S.S.I.O.o + g.t.g.g.g.h.B   * o.g o.o.O   D h.e.9.b   < I.B.S.S.S.S.S.S.S.S.S.S.S.B.S.S.Z.S.S.S.S.S.S.",
"S.S.S.S.S.S.S.S.S.S.S.S.S.S.S.I.O.X < l.l.z.k.s.x.N   O h & & 7 o   S x.p.9.L X 1 A.S.S.S.S.S.S.S.S.S.S.S.S.S.S.S.S.S.S.S.S.S.S.",
"S.S.S.S.S.S.S.S.S.S.S.S.S.S.S.A.H.$.@.B x y.s.g.l.B   * g g g g O   S x.Z - K #.@.C.S.S.S.S.S.S.S.S.S.S.S.S.S.S.S.S.S.S.S.S.S.S.",
"S.S.S.S.S.S.S.S.S.S.S.S.S.S.Z.B.S.A.I.$   t.x.l.x.N o % i s i i O   S n.x   G U.C.S.S.S.B.Z.S.S.S.S.S.S.S.S.S.S.S.S.S.S.S.S.S.S.",
"S.S.S.S.S.S.S.S.S.S.S.S.S.S.S.S.S.S.S.+ o N A N A 4   e <X<X4.3.@   B S ! G O.Z.S.S.S.S.S.S.S.S.S.S.S.S.S.B.S.S.S.S.S.S.S.S.Z.S.",
"S.S.S.S.S.B.S.S.S.S.S.S.S.S.S.S.S.S.A.+               X.NXmXlXlX6       $.Y.C.A.B.S.S.S.S.S.S.S.S.S.Z.S.S.S.S.S.S.S.S.S.S.S.B.S.",
"S.S.S.S.S.S.S.S.S.S.S.S.S.S.S.S.S.Z.S.+   @ % O O O   ` aXiX<X<X6 O . X +.A.S.S.S.S.S.S.S.S.S.S.S.S.S.S.S.S.S.S.S.S.S.S.S.S.S.S.",
"S.S.S.S.S.S.S.S.S.S.S.S.S.S.S.S.S.S.S.o   g ;.u d d d &         t f O   +.C.A.S.S.S.S.S.S.S.S.S.S.S.S.S.S.S.S.S.S.S.S.S.S.S.S.S.",
"S.S.S.S.S.S.S.S.S.S.S.S.S.S.B.S.S.S.D.r 0 i i t t t t &   o . . & t q 0 #.C.Z.Z.S.S.S.S.S.S.S.S.S.S.S.B.S.S.S.S.S.S.S.S.S.S.S.S.",
"S.S.S.S.S.S.S.S.S.S.S.S.S.S.S.S.A.Z.D.G.E.#   o     o     . t t X $ *.T.J.S.B.S.S.S.S.S.S.S.S.S.S.S.S.B.S.S.S.S.S.S.S.S.S.S.S.B.",
"S.S.B.S.S.S.S.S.S.S.S.S.S.S.S.S.D.Z.Z.m.c.# X X X X X o   . d d O $ #.c.S.S.S.S.S.S.S.S.S.S.B.S.S.S.S.S.S.S.S.S.S.S.S.S.S.S.S.S.",
"S.S.S.S.S.S.S.S.S.S.S.S.S.S.S.S.S.S.S.S.S.~ N.@.@.@.N.Q   o O # @.@.G.D.Z.S.S.S.S.S.S.S.S.S.S.S.S.S.S.S.S.S.B.S.S.S.S.S.S.S.S.S.",
"S.S.S.S.S.S.S.B.S.S.S.S.S.S.S.S.S.S.S.S.A.A.I.C.I.S.I.i.      $ S.I.S.S.D.S.S.S.S.S.S.S.S.S.S.S.S.S.S.S.S.S.S.S.S.S.S.S.S.S.S.S.",
"S.S.S.S.S.S.S.S.S.S.S.S.S.S.S.S.S.S.S.S.C.S.S.S.V.S.S.B.Q Q Q Q S.S.S.S.S.S.S.S.S.S.S.S.S.S.S.S.S.S.S.S.S.S.S.S.S.B.S.S.S.S.S.S.",
"S.S.S.S.S.S.S.S.B.S.S.S.S.S.S.S.S.S.S.S.S.S.S.S.S.S.S.S.I.I.I.C.S.S.S.S.S.S.S.S.B.S.S.S.S.S.S.S.S.S.S.S.S.S.S.S.S.S.S.S.S.S.S.S.",
"S.S.S.S.S.S.S.S.S.S.B.S.S.S.Z.B.S.S.S.B.S.S.S.S.S.S.S.S.D.D.B.Z.S.S.S.S.S.S.S.S.S.S.S.S.Z.S.S.S.S.S.B.S.S.S.S.S.S.S.S.S.S.S.S.B.",
"S.B.S.S.S.S.S.S.S.S.S.S.S.S.S.S.S.S.S.S.S.S.S.S.S.S.S.S.S.S.S.S.S.S.S.S.S.S.S.S.S.S.S.S.B.S.S.S.S.S.S.S.S.S.S.S.Z.S.S.S.S.S.S.S.",
"S.S.S.S.S.S.S.S.S.S.S.S.S.S.S.S.S.S.S.S.S.S.S.S.S.S.S.S.S.S.S.S.S.S.S.S.S.S.S.S.S.S.S.S.S.S.S.S.S.S.S.S.S.S.S.S.B.S.S.S.S.S.S.S.",
"S.S.S.S.S.S.S.S.S.S.S.S.S.S.S.S.S.S.S.S.S.S.S.S.S.S.S.S.S.S.S.S.S.S.S.S.S.D.S.S.S.S.S.S.S.S.S.S.S.S.S.S.S.S.S.S.S.S.S.S.S.S.S.S."
};
