/* XPM */
static char *_2f25ccf81f64b00b9885f9cd548b6f3IMhvZfPd4755QQCr[] = {
/* columns rows colors chars-per-pixel */
"64 64 254 2 ",
"   c #010001",
".  c #0A0403",
"X  c #030C04",
"o  c #030109",
"O  c #0A0808",
"+  c #160D07",
"@  c #031304",
"#  c #0B130C",
"$  c #061A07",
"%  c #181209",
"&  c #1A1819",
"*  c #081016",
"=  c #27170A",
"-  c #271914",
";  c #30120A",
":  c #022C05",
">  c #08260A",
",  c #023203",
"<  c #0A3A0B",
"1  c #073609",
"2  c #172316",
"3  c #1D3A1D",
"4  c #18331A",
"5  c #0C3A12",
"6  c #342615",
"7  c #2F2F18",
"8  c #141926",
"9  c #17242E",
"0  c #282925",
"q  c #363837",
"w  c #2F372A",
"e  c #201621",
"r  c #49281F",
"t  c #452717",
"y  c #433218",
"u  c #5B341B",
"i  c #562611",
"p  c #6A310D",
"a  c #67371B",
"s  c #733C1D",
"d  c #73350E",
"f  c #4C2A21",
"g  c #4B3329",
"h  c #753E22",
"j  c #6C3223",
"k  c #0D430D",
"l  c #09480D",
"z  c #124A0F",
"x  c #0D4B11",
"c  c #0A4816",
"v  c #134A13",
"b  c #0D5B1A",
"n  c #0B5518",
"m  c #185815",
"M  c #29531A",
"N  c #0C671D",
"B  c #1D6215",
"V  c #26691B",
"C  c #2B781C",
"Z  c #337D1F",
"A  c #065F22",
"S  c #1A5D24",
"D  c #2E462F",
"F  c #2C5A2A",
"G  c #3C5A26",
"H  c #325C32",
"J  c #3B4A34",
"K  c #0A6B25",
"L  c #146D22",
"P  c #0D7324",
"I  c #0E7B29",
"U  c #077926",
"Y  c #117B29",
"T  c #147527",
"R  c #346328",
"E  c #376836",
"W  c #3A743A",
"Q  c #377637",
"!  c #276F2D",
"~  c #494F08",
"^  c #72411C",
"/  c #684A1D",
"(  c #727006",
")  c #464738",
"_  c #7B4421",
"`  c #764521",
"'  c #715628",
"]  c #654936",
"[  c #694D2A",
"{  c #496E33",
"}  c #6B672F",
"|  c #476B0F",
" . c #253D53",
".. c #3C7342",
"X. c #2C4E6F",
"o. c #464C46",
"O. c #495C4A",
"+. c #645A48",
"@. c #467A45",
"#. c #547654",
"$. c #516E4E",
"%. c #7B6C55",
"&. c #4A526D",
"*. c #45617E",
"=. c #87391F",
"-. c #824A25",
";. c #89552D",
":. c #886635",
">. c #956B38",
",. c #956B2F",
"<. c #A6783A",
"1. c #B37831",
"2. c #8C5A16",
"3. c #9B7744",
"4. c #906B4B",
"5. c #A87C46",
"6. c #AD7250",
"7. c #937D60",
"8. c #08822B",
"9. c #11832D",
"0. c #1B842A",
"q. c #15892C",
"w. c #1F8539",
"e. c #268927",
"r. c #348821",
"t. c #3B9E2A",
"y. c #379827",
"u. c #3E813E",
"i. c #2C8D32",
"p. c #3EA329",
"a. c #3AA328",
"s. c #39B131",
"d. c #37851F",
"f. c #4E9C1E",
"g. c #71B91E",
"h. c #42982D",
"j. c #41A429",
"k. c #45AA2A",
"l. c #47A527",
"z. c #48B42C",
"x. c #4BA836",
"c. c #53AD3C",
"v. c #52A92E",
"b. c #6ABB21",
"n. c #3C9749",
"m. c #3F9654",
"M. c #318843",
"N. c #448C44",
"B. c #468846",
"V. c #469546",
"C. c #469946",
"Z. c #489748",
"A. c #459B49",
"S. c #489848",
"D. c #489647",
"F. c #54984E",
"G. c #518F51",
"H. c #5E8C5D",
"J. c #4A9A55",
"K. c #589B54",
"L. c #558B45",
"P. c #66964D",
"I. c #629B52",
"U. c #738E4F",
"Y. c #4CA24C",
"T. c #4CA74E",
"R. c #55A455",
"E. c #55AC53",
"W. c #70AA4C",
"Q. c #719966",
"!. c #84B815",
"~. c #A98537",
"^. c #B38E31",
"/. c #BEA517",
"(. c #CCAE30",
"). c #CAB40F",
"_. c #ADDA12",
"`. c #D6CB14",
"'. c #E3DB0A",
"]. c #E7DB14",
"[. c #D9EE03",
"{. c #E9E107",
"}. c #F6EE0C",
"|. c #FFFF00",
" X c #FBF60A",
".X c #F6E914",
"XX c #EDE414",
"oX c #DCC628",
"OX c #EACD2F",
"+X c #E8C834",
"@X c #EFD52B",
"#X c #F4E220",
"$X c #8D8A55",
"%X c #B48946",
"&X c #AB8D4B",
"*X c #AFA749",
"=X c #97946D",
"-X c #A58C6B",
";X c #B79975",
":X c #AB9772",
">X c #97A875",
",X c #83B941",
"<X c #C89C48",
"1X c #CAA44B",
"2X c #D9A94F",
"3X c #DAA555",
"4X c #DDAB52",
"5X c #DBA35A",
"6X c #DFB347",
"7X c #E4AA59",
"8X c #E7B358",
"9X c #ECB04D",
"0X c #CE9A67",
"qX c #C5A479",
"wX c #D4B17F",
"eX c #E5B165",
"rX c #F4C84D",
"tX c #FFD266",
"yX c #133C97",
"uX c #36578A",
"iX c #3B638A",
"pX c #5B6C98",
"aX c #6B7392",
"sX c #3AA1B5",
"dX c #6EB2A4",
"fX c #00B6F9",
"gX c #00C0FF",
"hX c #9CBE83",
"jX c #ABA596",
"kX c #CDAD85",
"lX c #D6B58A",
"zX c #DCBA91",
"xX c #CEB287",
"cX c #E4BE92",
"vX c #E9C598",
"bX c #F3D397",
"nX c #E3CCA3",
"mX c #EBD4AA",
"MX c #F3D7A6",
"NX c #F2DBB0",
"BX c #FFE9BE",
"VX c #FDE4BA",
"CX c #E3D5A3",
"ZX c #99A9CF",
"AX c #A7AFC5",
"SX c #FEEBC3",
"DX c #FFF6CB",
"FX c #FFFAD3",
"GX c #FBEEDB",
"HX c #FDF9E7",
"JX c #FFFFFE",
"KX c #F5F3F4",
"LX c #EEF1EB",
"PX c #D1E0DB",
/* pixels */
"S.S.S.S.S.S.D.S.S.S.S.D.S.S.S.S.S.S.S.S.S.S.S.S.S.S.S.S.S.S.S.S.S.D.S.S.S.S.D.S.S.S.S.S.S.S.S.S.S.S.S.S.S.S.S.S.S.S.S.S.S.S.S.S.",
"S.S.S.S.S.S.S.S.S.S.S.S.S.S.S.S.S.S.S.S.S.S.S.S.S.S.S.S.S.S.S.S.S.S.S.S.S.S.S.S.S.S.S.S.D.S.S.S.S.S.S.S.S.S.S.S.S.S.S.S.S.S.S.S.",
"S.S.S.S.S.S.S.S.S.S.S.S.S.S.S.S.S.S.S.S.S.S.S.S.D.S.S.S.S.S.S.S.S.S.S.S.S.S.S.S.S.S.S.S.S.S.S.S.S.S.S.D.S.S.C.S.D.S.S.S.S.S.D.S.",
"S.S.S.S.S.S.S.S.S.S.S.S.S.S.S.S.S.S.S.S.S.S.S.S.S.S.S.S.S.S.S.S.S.S.S.S.S.S.S.S.S.D.C.S.S.S.S.S.S.S.S.C.S.S.S.S.S.S.S.S.S.S.S.S.",
"S.S.S.S.S.S.S.S.S.S.C.S.S.D.S.S.S.S.S.S.S.S.S.S.S.S.S.S.S.S.S.S.S.S.S.S.S.S.S.S.S.S.S.S.S.S.S.S.S.S.S.S.S.S.S.S.S.S.S.S.S.S.S.S.",
"S.S.S.S.S.S.S.S.S.S.S.S.S.S.S.S.S.S.S.S.S.S.S.S.S.S.S.S.S.D.S.S.S.C.S.S.S.S.S.S.S.S.S.S.S.S.S.S.S.D.S.S.S.S.S.S.S.S.S.S.S.S.S.S.",
"S.S.S.S.S.S.D.S.S.S.S.S.S.S.S.S.S.S.S.S.S.S.S.S.S.S.S.S.S.S.S.S.S.S.D.D.D.D.D.S.D.S.S.S.S.S.S.S.S.S.S.S.S.S.D.S.S.S.S.S.S.S.S.S.",
"D.S.S.S.S.S.S.S.S.S.S.S.S.S.S.S.S.S.S.S.S.S.S.S.S.S.S.S.S.S.D.C.S.S.C.A.V.A.A.A.A.n.V.V.S.S.S.S.S.S.S.S.S.S.S.S.D.S.S.S.S.S.D.S.",
"S.S.S.S.S.S.S.S.S.S.S.S.S.S.S.S.S.S.S.S.S.S.S.S.S.S.S.S.S.S.A.S.S.B.B.F.Y.F.L.P.P.I.I.K.A.Z.Z.S.S.S.S.S.S.S.S.S.S.S.S.S.S.S.S.S.",
"S.S.S.S.S.S.S.S.S.S.S.S.S.S.S.S.S.S.S.S.S.S.S.S.D.V.V.V.S.S.J.w.T v m x.z.' h 3.%X6.5.-Xn.V.S.A.S.S.S.S.S.S.S.S.S.S.S.S.S.D.S.S.",
"S.S.S.S.S.S.S.S.S.S.S.S.S.S.S.D.S.S.S.Z.S.V.A.J.F.A.F.R.J.R.J.0.N < v j.a.' ^ >.5.%X^.&XI.I.K.K.S.S.S.S.S.S.S.S.S.S.S.S.S.S.S.S.",
"S.S.S.S.S.S.S.S.S.S.S.S.S.S.S.S.S.V.V.J.V.V.u.E.J.w.x.c.c.c.x.j.r.< v j.a.1X7X4X3X+X|.#XeXeX%X&XV.V.S.S.S.S.S.S.S.S.S.S.S.S.S.S.",
"S.S.S.S.S.S.S.S.S.S.S.S.S.S.S.S.S.S.R.R.R.R.R.Q.M.U y.a.j.p.p.k.r.< z a.a.1X7X4X5XOX|..X3X2X5.3.I.K.Z.J.S.S.S.S.S.D.S.S.S.S.S.S.",
"S.S.S.S.S.S.S.S.S.S.S.S.S.S.S.V.A.Q { ..m.m.m.n.t.t.j.p.j.j.j.j.r.< l a.p.[.}.XX}.@X8X+X.X.X{.XX*X0XQ.n.S.S.S.S.S.S.S.S.S.S.S.D.",
"S.S.S.S.S.S.S.S.S.S.S.S.S.S.S.S.R.Q : n U U U U j.j.j.p.p.p.k.z.y.: k y.a.[.|.|.|.@X5X(.|.|.|.|.~.3.=Xn.V.C.S.S.S.S.S.S.S.S.S.S.",
"S.S.S.S.S.S.S.S.S.S.S.S.S.S.S.Q Q ! N T I 0.i.y.j.j.p.j.p.k.r.m V r.d.*X*XoX+XXX|.@X5X6X+X+X+X+XoX`.*XU.P.A.S.S.S.S.S.S.S.S.S.S.",
"S.S.S.S.S.S.S.S.S.S.S.S.S.S.F.F : N 9.I I e.k.j.k.k.k.p.a.k.C : m k.v.7X7X5X0X#X|.@X7X9X5X7X7XeX|.|.(.6.$XC.S.S.S.S.S.S.S.S.S.S.",
"S.S.V.S.S.S.S.S.S.S.S.S.D.Q Q ! n P Y I U 0.j.t.C Z r.C y.z.C , B l.l.+X+XOXOXoX`.(.5.%X4X4X~.<./.).*X} P.A.S.S.S.S.S.S.S.S.S.S.",
"S.S.S.S.S.S.S.S.C.C.D.Y.n.< < I 9.I I Y P 0.k.y.1 , , : C z.C , m a.l.|.|.|.|./.4.;.i ;.8X4Xa a j j $Xn.V.S.S.S.S.S.S.S.S.S.S.S.",
"S.S.S.S.S.S.S.S.D.D.V.#.@.x x T T I Y Y I 0.y.y.m m m m C y.C z C b.g.XX.X].'.<X6.5.;.>.%X~.} } } } I.A.S.S.S.S.S.S.S.S.S.S.S.S.",
"S.S.S.S.S.S.S.S.S.Y.u.O * Y Y Y I I Y I T I U Y l.k.j.z.m : V s.g.|.}.7X4X5.>.qXzXlXvX-X  # A.Y.J.A.V.S.S.S.S.S.S.S.S.S.S.S.S.S.",
"S.S.S.S.S.S.S.S.S.S.u.  @ Y I Y Y I T I I I I 0.t.p.y.j.B 1 C a.g.|.}.2X4X%X<.qXzXxXzX-X  # D.S.V.S.S.S.S.S.S.S.D.S.S.S.S.S.S.S.",
"S.S.S.S.S.S.S.V.D.S.u.o @ Y Y I I I I I I T I I Y Y z < L I Y U f.|.}.4X4XwXkXnXSXnXlX-X  # V.S.Z.S.S.S.S.S.S.S.S.S.S.S.S.S.D.S.",
"S.S.S.S.S.S.S.S.C.T.N.  X Y Y Y I I I I I I I I 9.I z 1 K 9.I U f.|. X4X3XlXkXNXDXmXzX-X  # V.S.Z.S.S.S.S.S.S.S.S.S.S.S.S.S.S.S.",
"S.S.V.S.S.S.S.S.$.2 5 1 < I Y I I b l z l b Y P m x L T n l { 1X*X^.^..X.XbXBX%.0 ] ;./   # V.S.S.S.S.S.S.S.S.S.S.S.S.D.S.S.S.S.",
"S.S.S.S.S.S.S.S.O.  @ k x I I I 9.n k k k x 9.P , , N U l : } rX3X>.<.|.|.MXFX)   ; =.i   @ Y.T.S.S.S.S.S.S.S.S.S.S.S.S.S.S.S.S.",
"S.S.S.S.S.S.S.A.O.  $ k k I I b n 1 $ 1 k l n F =X>X>XhX=X$X3.,.<.<X<X(.(.MXDXjXjXaX&.&.7.4.D D V.S.S.S.S.D.S.S.S.S.S.S.S.S.S.S.",
"S.S.S.S.S.S.S.Y.O.  $ k k I I x k @   $ z l 1 M FXFXDXDXnXcX6.i ;.7X3X5.>.NXSXHXJXZXyXpXvXkXO o N.S.S.S.S.S.S.S.S.S.S.S.S.S.S.S.",
"S.S.S.S.V.S.S.Y.O.  $ k x I Y < > J $.D > > : 3 xXxXNXBXnXnX-Xp ,.@X(.,.,.mXBXGXJXZXyXpXzX;XO # V.S.S.S.S.S.S.S.S.S.D.S.S.S.S.S.",
"S.S.S.S.S.S.S.S.O.  @ x x I I @ O #.E.H   o   + <.<.NXSXBXDXqXi ,.|.{.^ a nXBXLXJXZXyXpXvXkXo   N.A.S.S.D.S.S.S.S.S.S.S.S.D.S.S.",
"S.S.S.S.S.S.V.A.$.0 3 < < P P @ O #.Y.E 0 2   % } :.zXMXCXPX:X_ ^.|.'.^ ^ nXBXGXJXAXuXaXqX-Xw 0 V.S.S.C.S.S.S.S.S.S.S.S.S.S.S.S.",
"S.S.S.S.S.S.S.S.S.J.{ o   k k   o #.S.S.Y.@.o o .   :.~.sXgXdX8X+X|.{.^ s nXSXVXVXmXcX-X  # S.S.D.S.S.S.S.S.S.S.S.S.S.S.S.S.S.S.",
"S.S.S.S.S.S.S.S.S.S.u.& & k k 2 - #.S.S.D.h.= % % % :.1.sXfXdX9X6X}.'.^ ^ nXBXVXVXnXkX-X& 2 V.D.S.S.S.S.S.S.S.S.S.S.S.S.S.S.S.S.",
"S.S.D.S.S.S.S.S.S.S.S.Z.u.o # B.J.Z.S.Z.n.W.}.].1X1X6 O # * ( |.)./ ;.kXkXxXlXxXnX%.  ) J.Z.S.S.S.S.S.S.S.S.S.S.S.S.S.S.S.S.S.V.",
"S.S.S.S.S.S.S.S.S.S.D.C.n.. # V.S.S.D.S.n.,X|. X8X8X;       ( |.`.p _ zXvXlXzXzXvX4.  D J.S.S.S.S.S.S.S.S.S.D.S.S.S.S.S.S.S.S.S.",
"S.S.S.S.S.S.S.S.S.S.D.D.V.B.N.S.S.S.D.G.G.h.~ ~ y y 5 < @   ' rX^.+ - G G ) G J g $.N.N.S.S.S.S.S.S.S.S.V.S.S.S.S.S.S.S.S.S.S.S.",
"S.S.S.S.S.S.S.S.S.S.S.S.S.S.S.S.S.S.S.S.Y...o       1 k @   ' tX~.    < l , 1 @   Q E.Y.S.S.S.S.S.S.D.S.S.S.S.S.S.S.V.S.S.S.S.S.",
"S.S.S.C.S.S.S.C.S.S.S.S.S.D.S.S.S.S.S.D.A.{ O O t t m N n c D ' ' :.' > : x L :   w E Q S.D.S.S.S.S.S.S.S.S.S.S.S.S.S.S.S.S.S.S.",
"S.S.S.S.S.S.S.S.S.S.S.S.S.S.S.S.Z.Z.S.S.Y.@.  . -.-.T 8.I q.5 . 7 tX7X.   K q.>       w T.A.S.S.S.S.S.S.S.S.S.S.S.S.S.S.S.S.S.S.",
"S.S.S.S.S.S.S.S.S.S.S.S.S.S.S.S.Z.Z.Z.M.W ..9 0 t t G R L U F ; y >.} O   K 8.| ( ~ v E W W S.S.S.S.S.S.S.S.S.S.S.S.S.S.S.S.S.S.",
"S.S.S.S.S.S.S.S.S.S.V.S.S.S.S.V.Z.S.T.F   8 uXX.o   a =.R 8.R ;.u         K U _.|._.s.r.  O C.S.S.S.S.S.S.S.V.S.S.S.S.S.S.S.S.S.",
"S.S.S.S.S.D.S.S.S.S.S.S.S.S.S.S.S.D.G.{ 6 q X. .@ X u _ R Y ~ a y > $ q q S A !.[.!.t.Z   # D.S.S.S.S.S.S.S.S.S.S.S.S.S.S.S.S.V.",
"S.S.S.S.S.S.S.S.S.S.S.S.S.S.S.V.Y.H . +.bX-X  X < l a s s _ t   > I i.KXKXq   n I e.z.Z   # D.S.S.S.S.S.S.S.S.S.S.S.S.S.S.S.S.S.",
"S.S.S.S.S.S.S.S.S.S.S.S.S.S.S.V.Y.F   +.vX7.  X k k / ` ^ ` 6   > Y M.LXLXq   b I e.k.Z   # D.S.S.S.S.S.S.S.S.S.S.S.S.S.S.S.S.S.",
"S.D.S.S.S.S.S.D.S.S.S.S.S.S.S.V.Y.F   # & 2 1 k y.y.f.j.y.l.M   o.LXPXuXX.X.X.8 o c q.K   # D.S.S.S.S.S.S.S.S.S.S.S.V.S.S.S.S.S.",
"S.S.S.S.S.S.S.S.S.S.S.S.S.S.S.V.Y.F O X   @ z z k.a.p.p.j.z.V   o.JXLXX.X.X.uX9   5 q.A   # S.S.S.S.S.V.S.S.S.S.S.S.S.S.S.S.S.S.",
"S.S.S.S.S.S.S.S.S.S.S.S.S.S.S.S.S.V.Y.F   X @ > 0.0.t.j.j.l.e.K S q o.] ] ] ] -   @ > $   # V.S.D.D.S.S.S.S.S.S.S.S.S.S.S.S.S.S.",
"S.S.S.S.S.S.S.S.S.S.S.S.S.S.S.S.S.S.Y.H       X I I p.l.p.j.e.8.A   . p d p d ;     o     # S.T.Y.Y.A.S.S.S.S.S.S.S.S.S.S.S.S.S.",
"S.S.S.S.S.S.S.S.S.S.S.S.S.S.S.S.S.D.S.H   % t 6 k 5 C e.y.j.y.y.V   - :X;X:XqXg o % - - - 6 H H H H B.Z.S.S.S.S.S.S.S.S.S.S.S.S.",
"S.S.S.S.S.S.S.S.S.S.S.S.S.S.S.S.S.D.T.H   = -.a .   K 8.y.z.k.z.r.  w FXFXFXHX+.  ; f f f r   X   o #.S.S.S.S.S.S.S.S.S.S.S.S.S.",
"S.S.S.S.S.S.S.S.S.D.S.S.D.A.S.S.S.S.T.R   = ` a - % n A V V V C m   & :X:X>XjXg   - f f u f - = O O #.S.S.S.S.S.S.S.S.S.S.S.S.S.",
"S.D.S.S.S.S.D.S.S.S.S.S.S.S.S.D.A.Z.Y.F   = _ h f f .                     o       - f u -._ _ -.+   $.Y.S.S.S.S.S.S.S.S.S.S.S.S.",
"S.S.S.S.D.S.S.S.S.S.S.S.S.S.S.S.S.D.S.Q 4 w a a r r = O .   2 3 3 3 3 3 3 3 3 #   = 6 f a u u a w 4 @.S.S.S.S.S.S.S.S.S.S.S.S.S.",
"S.S.S.S.S.S.S.S.S.S.S.S.S.S.S.S.S.S.S.S.T.@.    f f r f %   E E.S.T.Y.Y.Y.Y.E.D               O F.T.C.S.S.S.S.S.S.S.S.S.S.S.S.S.",
"S.S.S.S.S.S.S.S.S.S.S.S.S.S.S.S.S.S.S.C.Y.{ e & r r r r %   H Y.N.D.S.S.D.D.S.o.& e & & & & & & N.D.D.S.S.S.S.S.S.S.S.S.S.S.S.S.",
"S.S.S.S.S.S.S.S.D.S.S.S.S.D.S.S.S.S.S.A.A.J.G.H.e . O O O   H Y.S.S.S.S.S.S.A.G.G.G.G.G.G.G.G.G.D.C.S.S.S.S.S.S.V.S.S.S.S.S.S.S.",
"S.S.S.S.S.S.S.S.S.S.S.S.S.D.S.A.S.S.S.S.S.S.C.K.e           H Y.S.S.S.S.S.S.S.S.S.D.C.C.C.C.D.A.S.S.S.S.S.S.S.S.S.S.S.S.S.S.S.S.",
"S.S.S.S.S.S.S.S.S.S.S.S.S.S.S.D.S.S.S.S.S.S.S.Z.W E W W W E B.S.S.S.S.S.S.S.S.S.S.D.S.S.S.S.S.S.S.S.S.S.S.S.S.S.S.S.S.S.S.S.S.S.",
"S.S.S.S.D.S.S.S.S.S.S.S.S.S.S.S.S.S.S.D.S.S.S.D.Y.Y.A.Y.Y.Y.S.S.S.S.S.S.S.S.S.S.S.S.S.S.S.S.S.S.S.S.S.S.S.S.S.V.S.S.S.S.S.S.S.S.",
"S.S.S.S.S.S.S.S.S.S.S.S.S.S.S.S.S.S.S.S.D.S.S.S.S.S.D.V.D.D.V.S.S.S.S.S.S.S.S.S.S.S.S.V.S.S.S.S.S.D.S.S.S.S.S.S.S.S.S.S.S.S.V.S.",
"D.S.S.S.S.D.S.D.S.S.S.S.S.S.D.S.S.S.S.S.S.S.S.S.S.S.S.S.S.S.S.S.S.S.S.S.S.S.S.D.S.S.S.S.S.S.S.V.S.S.S.S.S.S.S.S.S.S.S.S.S.S.S.S.",
"S.S.S.S.S.S.S.A.S.S.D.S.S.S.S.S.S.S.S.S.S.S.S.S.S.S.S.S.S.S.S.S.V.S.S.S.S.S.S.S.S.S.S.S.S.S.S.S.S.S.S.S.S.S.S.S.S.S.V.S.S.S.S.S.",
"S.S.S.S.S.S.S.S.S.S.S.S.S.S.S.S.S.S.S.S.S.S.S.S.S.S.S.S.S.S.S.S.S.S.S.S.S.S.S.S.S.S.S.S.S.S.S.S.S.S.S.S.S.S.S.S.S.S.S.S.S.S.S.S.",
"S.S.S.S.S.S.S.S.S.S.S.S.S.S.S.S.S.S.S.S.S.D.S.S.S.S.S.S.S.S.S.S.S.S.S.S.S.S.S.S.S.S.S.S.S.S.S.S.S.S.S.S.S.S.S.S.S.S.S.S.S.S.S.S."
};
