/* XPM */
static char *fc594ca179e94b5fd5663ab7ff794360ZikW7tGkXNXw0ooj[] = {
/* columns rows colors chars-per-pixel */
"64 64 254 2 ",
"   c #010101",
".  c #030A03",
"X  c #0C0708",
"o  c #170A0C",
"O  c #051304",
"+  c #0A1A09",
"@  c #16190A",
"#  c #191A17",
"$  c #130C15",
"%  c #2A1912",
"&  c #281611",
"*  c #331C16",
"=  c #26160C",
"-  c #022D05",
";  c #07250A",
":  c #152D0D",
">  c #063508",
",  c #0B3C0B",
"<  c #063808",
"1  c #1A2B1A",
"2  c #142615",
"3  c #063813",
"4  c #193819",
"5  c #11300E",
"6  c #3A2418",
"7  c #2D3119",
"8  c #1C3D20",
"9  c #262926",
"0  c #2B392B",
"q  c #363436",
"w  c #363324",
"e  c #211925",
"r  c #472915",
"t  c #5C3419",
"y  c #572C1C",
"u  c #693519",
"i  c #75391E",
"p  c #622E14",
"a  c #532E24",
"s  c #45382B",
"d  c #5F3529",
"f  c #673A24",
"g  c #703623",
"h  c #6E2C20",
"j  c #531A0A",
"k  c #0D420D",
"l  c #0B490E",
"z  c #12430E",
"x  c #0C4B11",
"c  c #0A4B1B",
"v  c #174C17",
"b  c #0C5819",
"n  c #185814",
"m  c #09631A",
"M  c #0D6E1A",
"N  c #236A18",
"B  c #26731A",
"V  c #29761D",
"C  c #307D1B",
"Z  c #115D21",
"A  c #1F4420",
"S  c #2B5A2B",
"D  c #375925",
"F  c #365D36",
"G  c #2B492C",
"H  c #0E6C23",
"J  c #076926",
"K  c #116C25",
"L  c #0F7325",
"P  c #0C7629",
"I  c #0E7B29",
"U  c #077628",
"Y  c #117425",
"T  c #117C29",
"R  c #187929",
"E  c #147C31",
"W  c #2B652E",
"Q  c #3A633A",
"!  c #366935",
"~  c #387538",
"^  c #386B2A",
"/  c #205014",
"(  c #4E4912",
")  c #78421F",
"_  c #4C4536",
"`  c #5C4E2B",
"'  c #784526",
"]  c #645C22",
"[  c #775831",
"{  c #41652C",
"}  c #606D1A",
"|  c #1C305A",
" . c #2F4478",
".. c #425A43",
"X. c #535245",
"o. c #446745",
"O. c #477747",
"+. c #4D6951",
"@. c #746C4C",
"#. c #776B60",
"$. c #84351E",
"%. c #9B7619",
"&. c #86552A",
"*. c #85502E",
"=. c #976938",
"-. c #967236",
";. c #876B2B",
":. c #A97A33",
">. c #A27F13",
",. c #967B59",
"<. c #8E6F4F",
"1. c #A57A46",
"2. c #A97048",
"3. c #8C7A61",
"4. c #00811C",
"5. c #2E811F",
"6. c #30851F",
"7. c #0B842A",
"8. c #11822B",
"9. c #18862B",
"0. c #188C2E",
"q. c #258C29",
"w. c #278C27",
"e. c #2C9329",
"r. c #3C9A26",
"t. c #389827",
"y. c #3F863F",
"u. c #308D27",
"i. c #3FA127",
"p. c #3DA228",
"a. c #3EAB2A",
"s. c #2EA42C",
"d. c #649419",
"f. c #798A1A",
"g. c #59A61D",
"h. c #4B8F33",
"j. c #41A429",
"k. c #45AA2A",
"l. c #47A829",
"z. c #48B42C",
"x. c #4EAC2E",
"c. c #6DAF30",
"v. c #61A41A",
"b. c #3C9546",
"n. c #38914D",
"m. c #448B44",
"M. c #478946",
"N. c #469546",
"B. c #469947",
"V. c #44964A",
"C. c #499748",
"Z. c #459A49",
"A. c #489848",
"S. c #4A9847",
"D. c #53964A",
"F. c #549B54",
"G. c #549957",
"H. c #568A56",
"J. c #6E914B",
"K. c #4CA24C",
"L. c #4EAB4E",
"P. c #59AB4D",
"I. c #51AC51",
"U. c #57A357",
"Y. c #54B054",
"T. c #60A05F",
"R. c #5CA466",
"E. c #6BB167",
"W. c #63936E",
"Q. c #928A0B",
"!. c #B0AA00",
"~. c #B18D37",
"^. c #B08E34",
"/. c #BEA43A",
"(. c #C6B214",
"). c #CAAE2F",
"_. c #E5BF3E",
"`. c #95CE15",
"'. c #A5C620",
"]. c #D8CB10",
"[. c #E5DC0A",
"{. c #ECF803",
"}. c #FEFE01",
"|. c #FAF50A",
" X c #F7EB14",
".X c #F4F10E",
"XX c #E7C23C",
"oX c #FBF625",
"OX c #858657",
"+X c #95965B",
"@X c #AB8243",
"#X c #B58A45",
"$X c #B08B59",
"%X c #B69B78",
"&X c #B79669",
"*X c #96A56F",
"=X c #BEA57C",
"-X c #B0B773",
";X c #A39060",
":X c #D8AD4C",
">X c #DDAB52",
",X c #DEA759",
"<X c #D4A94D",
"1X c #E0B448",
"2X c #E2B845",
"3X c #E2AB56",
"4X c #E6B05A",
"5X c #C5A67C",
"6X c #D2AF7B",
"7X c #CB9E5F",
"8X c #FCC45C",
"9X c #E8CE67",
"0X c #D4C146",
"qX c #143B90",
"wX c #2F4C94",
"eX c #27669B",
"rX c #6C7490",
"tX c #0086BC",
"yX c #7BB688",
"uX c #7C88AA",
"iX c #7FBCC5",
"pX c #00C5FF",
"aX c #73D4E6",
"sX c #25AFD2",
"dX c #BAA686",
"fX c #A69FA0",
"gX c #99A59A",
"hX c #D7B58B",
"jX c #DBB992",
"kX c #C8AD85",
"lX c #E3B996",
"zX c #E2BC8A",
"xX c #8EC3BD",
"cX c #E8C599",
"vX c #FAD09B",
"bX c #D2D7AB",
"nX c #CFCBA8",
"mX c #EDD5AC",
"MX c #F3DDB4",
"NX c #EDD4AA",
"BX c #FFE9BD",
"VX c #FCE4BB",
"CX c #FBE4AB",
"ZX c #D3C19D",
"AX c #889BC6",
"SX c #B1BCD4",
"DX c #BDC9E2",
"FX c #D8D4D0",
"GX c #FEECC7",
"HX c #FFF5CB",
"JX c #FFFFDB",
"KX c #FCF6E8",
"LX c white",
"PX c #C0CDE6",
/* pixels */
"A.A.A.A.A.A.A.A.A.A.A.A.A.A.A.A.A.A.A.A.A.A.A.A.A.A.A.A.A.A.A.A.A.A.A.A.A.A.A.N.Z.A.A.A.A.C.S.Z.A.A.A.A.A.A.A.C.B.A.S.Z.A.A.A.A.",
"A.A.A.A.A.A.A.A.A.A.A.A.A.A.A.A.A.A.A.A.A.A.N.A.A.A.A.A.A.N.A.A.A.A.A.A.A.A.A.A.S.C.A.A.S.C.C.A.A.A.C.C.A.A.A.C.A.A.C.A.A.A.C.C.",
"A.A.A.A.A.A.A.A.A.A.A.A.A.A.A.A.A.A.A.A.A.A.A.A.A.A.A.A.A.A.A.A.A.A.A.A.A.A.A.A.A.A.C.A.Z.C.C.A.Z.S.S.Z.S.Z.Z.S.A.A.A.A.A.A.B.A.",
"A.A.A.A.A.A.A.A.A.A.A.A.A.A.A.A.A.A.A.A.A.A.A.A.A.A.A.A.A.A.A.A.A.A.A.A.A.A.A.A.Z.S.C.A.A.A.S.Z.A.C.A.A.C.A.A.C.A.A.A.A.A.A.A.A.",
"A.A.A.A.A.A.A.A.A.A.A.A.N.A.A.A.A.A.A.A.A.A.A.A.A.A.A.A.A.A.A.A.A.A.A.A.A.A.A.A.A.A.A.A.A.A.A.A.A.A.A.A.C.S.A.C.A.A.Z.S.A.A.A.C.",
"A.A.A.A.A.A.A.A.A.A.A.A.A.A.A.A.A.A.A.A.A.A.A.A.A.A.A.A.A.A.A.A.A.A.A.A.A.A.A.A.A.Z.A.A.S.A.A.A.A.A.Z.S.A.Z.A.Z.A.A.A.C.A.A.B.C.",
"A.A.A.A.A.A.A.A.A.N.A.A.A.A.A.A.A.A.A.A.A.A.A.A.A.A.A.A.A.A.A.A.A.A.N.A.A.A.A.A.A.S.A.A.Z.A.A.A.C.Z.A.C.A.A.A.S.A.C.A.A.A.A.A.A.",
"A.A.A.A.A.A.A.A.A.A.A.A.A.A.A.A.A.A.A.A.A.A.A.A.A.A.A.N.A.A.A.A.A.A.A.A.A.A.A.A.A.A.A.A.A.A.Z.S.C.S.A.C.A.A.C.C.B.C.A.A.A.A.A.A.",
"A.A.A.N.A.A.A.A.A.A.A.A.A.A.A.A.A.A.A.A.A.A.A.A.A.A.A.A.A.A.A.A.A.A.A.A.A.A.A.A.A.Z.S.S.S.B.A.A.A.A.C.C.A.Z.C.A.A.A.Z.A.A.A.A.C.",
"A.A.A.A.A.A.A.A.A.A.A.A.A.A.A.A.A.A.A.A.A.A.A.A.A.A.A.A.A.A.A.A.V.N.Z.A.Z.A.S.Z.Z.Z.Z.Z.b.Z.A.A.C.Z.S.A.A.S.C.A.A.A.S.C.A.A.S.C.",
"A.A.A.A.A.A.A.A.A.A.A.A.A.A.A.A.A.A.C.C.C.A.A.A.A.Z.A.F.G.n.U.P.P.P.D.! O.n.b.@.@.OX+X+X+XJ.Z.A.A.A.A.A.C.S.A.A.A.A.A.A.A.B.Z.A.",
"A.A.A.A.A.A.A.A.A.A.A.A.A.A.N.A.A.C.C.V.V.A.A.A.N.N.b.U.n.U t.k.j.z.5.> x I I f i =.1.1.2.J.b.b.b.N.A.A.A.Z.A.Z.A.A.A.A.A.C.C.A.",
"A.A.A.A.A.A.A.A.A.A.A.A.A.A.A.A.A.A.A.E.R.R.R.E.E.E.E.E.t.0.r.k.j.x.5.< x w.w.Q.Q.~.#X#X#X&X-X-X*X*XD.Z.A.A.A.A.A.A.A.B.A.A.A.A.",
"A.A.A.A.A.A.A.A.A.A.A.A.A.A.A.A.A.A.S.n.E E E q.x.k.x.x.j.l.j.j.j.j.5.> n k.z.{.}.2X3X3X3X1X4X>X1.1.D.Z.A.B.C.S.A.A.A.C.A.A.A.A.",
"A.A.A.A.A.A.A.A.A.A.A.A.A.A.A.m.C.A.A.n.P T T q.j.p.p.i.j.j.i.j.i.k.5.> n i.l.[.|._.1X2X2X2X2X:X@X@XD.D.C.S.C.A.A.A.A.C.A.A.A.A.",
"N.A.A.A.A.A.A.A.A.A.A.A.A.B.N.v v E 9.T P e.l.j.j.j.j.j.j.j.j.j.p.k.5.> v i.j.<X3X X}.|.}.}.}. X>X>X@X@XD.Z.C.A.A.A.A.A.A.Z.S.C.",
"A.A.A.A.A.A.A.A.A.A.A.A.A.A.m.c k Y I T P e.j.p.j.j.j.j.j.j.i.i.i.j.5.< n j.l.<X>X X}.}.}.|.}.|.>X:X@X@XD.D.S.B.S.B.A.A.A.C.S.Z.",
"A.A.A.A.A.A.A.A.A.A.A.N.H.v n T Y T P t.p.p.p.j.i.j.i.j.j.i.i.l.B , N t.g.{.{.|.|.XX>X1X1X1X1X0X|.|..X.X-.g OXK.S.S.A.Z.A.C.A.A.",
"A.A.A.A.A.A.N.A.A.A.D.K.H., x T T T P t.l.k.j.j.i.j.l.k.k.k.j.k.N - N p.g.}.}.}.}.XX,X3X3X>X,X2X}.}.}.}.%.g OXZ.Z.A.A.S.C.A.C.C.",
"A.A.A.A.A.A.A.A.A.A.M.Q ~ H K T I T I 9.9.e.j.p.j.r.n n n n t.k.N < N a.c.XXXX|.|.).@X#X#X#X#X#XXX_.%.%.J.M.C.A.A.A.A.C.S.A.Z.S.",
"A.A.A.A.A.A.A.A.Z.I.W - b 8.T I I I I I U u.x.j.k.r.- > > - t.z.N - Z s.h.3X>X}.}.^.-.-.-.1.1.#X3X3X$.g H.Z.A.A.A.A.A.Z.Z.A.A.A.",
"A.A.A.A.A.A.A.B.~ ! W m H T I I T T T T I 9.w.w.w.w.B B B B B N V N g.`.'.>X:X).(.7X&X7X7X,.r [ -X-XOXJ.D.Z.A.A.A.A.A.S.A.A.C.A.",
"A.C.A.A.A.A.N.Z.1   c 0.I R I I T I T I T P I P P 8.z.k.k.z.n - C z.`.}. X>X>X:.=.5XjXhXcX,.  9 C.b.B.Z.Z.A.A.A.C.C.A.C.C.C.C.S.",
"C.C.A.A.A.A.A.K.4   c 8.L I I I T P L I I T T T Y T t.t.6.6.Z x V e.v.}. X>X>X$X$XhXZXhXjX3.  9 F.C.C.C.A.A.A.A.Z.S.A.Z.S.A.A.Z.",
"B.A.A.A.A.A.A.L.1   c 8.T I I T T T I I I T I I I I I P k > M 8.7.U g.}..X,X,XhXhXMXJXNXlX3.  9 C.A.A.A.A.A.A.A.A.A.A.A.C.A.A.A.",
"A.A.A.A.A.A.M.M.8 . b 8.Y Y L L Y H H Y L Y L L L L Y L x l H L R J d..X[.1X1XhXjXZXnXkXkX<.  9 S.A.A.A.A.A.A.A.S.C.Z.S.C.B.A.A.",
"A.A.A.A.A.Z.1 X K 8.I I m , k k ,     > k k k k k k k k I I l l s i &.1.^.}.|.CXGX_   r *.y   9 S.A.C.A.A.A.A.A.Z.A.A.C.A.A.A.A.",
"A.A.A.S.T.G.2   Z 8.I I m , k k k 2 + 5 k , k k , k z k Y 7.x l ( i &.1.^.}.oXCXHX_   r $.r   0 T.G.A.A.A.A.A.A.A.A.A.C.A.A.A.A.",
"A.A.Z.H.q q , , k x l x > . . . + V.K.0   5 z z < D bXnXbXbXdX5X<.p =.>X<X~.~.mXGXFXFXuXqXrXkX;Xq q C.A.A.A.A.A.B.C.A.A.C.A.A.A.",
"A.A.Z.O.X   k l k k k l ;   X   $ m.L.q   ; l l < ^ HXGXBXBXjXjX1.p =.4X<X1.1.MXMXKXLXAXqXrXcX%X    m.A.A.C.A.A.A.C.A.A.S.Z.A.A.",
"A.A.A.D.o.O.5 O + + + O G O.O.O.O.C.A.O.O.S O + O 7 &X&XCXVXmXMX$Xp ^. X].' *.MXGXKXLXAXqXrXzX%XX . m.Z.A.C.A.A.A.A.A.A.A.A.C.C.",
"A.A.A.A.Z.L.#           W I.S.S.B.C.C.B.L.!       % ~.1.GXHXVXHX$Xj %.}.].u ' mXVXKXLXAXqXrXvXdX  X m.S.A.A.A.A.A.A.A.A.A.A.A.B.",
"A.A.A.A.A.A.! F Q Q F F O.A.N.N.A.A.C.C.C.n.F G   @ ` ` 5X6XxXaXgX=./.}.].i ' mXBXGXKXfXrX3.@.@...F V.V.A.A.A.A.A.A.A.A.A.A.A.A.",
"A.A.A.A.A.A.Z.K.K.K.Z.K.K.V.A.A.A.B.S.C.C.V.I.!         -.^.sXpXAXlX9X}.[.u ) MXGXMXBXNXvX;X  e K.Z.A.A.A.A.A.A.A.A.A.A.A.A.A.A.",
"A.A.A.A.A.A.N.N.A.N.A.A.N.B.A.A.A.A.C.C.C.C.F.h.( ( s _ [ &.eXtXgX9X0X].(.=.;.nXMXNXMXdX3.3.G F C.A.A.A.A.A.A.A.A.A.A.A.A.A.A.A.",
"S.C.A.A.A.A.A.A.A.A.B.S.B.B.A.A.A.A.C.C.C.C.V.c.}. XcXjX#       Q.}.!.p [ cXlXhXhXhXlXX.X F I.V.A.A.A.A.A.A.A.A.A.A.A.A.A.A.A.A.",
"A.A.A.A.A.N.A.A.A.A.A.A.A.A.A.A.A.A.A.A.A.C.V.c.[.].%X%X# . .   Q.|.(.y ' dX=X5XkX=XkX@.e Q Z.A.A.A.A.A.A.A.A.A.A.A.A.A.A.C.A.A.",
"A.A.A.A.A.A.A.A.A.A.A.A.A.A.A.A.A.A.A.A.A.A.S.~ O @ o X , k O   ;.8X;.  $ z z , z + X Q R.C.A.A.A.A.A.A.A.A.A.A.A.A.A.A.A.V.A.A.",
"A.A.A.A.A.A.A.A.A.A.A.A.N.A.A.A.A.A.A.A.A.A.Z.~ $ $     , k +   ;.8X-.  . k k , k O   ! I.S.A.A.A.A.A.A.A.A.A.A.A.A.A.A.A.A.A.A.",
"S.A.A.A.A.A.A.A.A.A.A.A.A.A.A.A.A.A.A.A.A.A.A.C.G.M.$ . M L H U 4 & : , k Y Y Y L H L v 2 ^ Z.Z.A.A.A.A.A.A.A.A.A.A.A.A.A.A.A.A.",
"Z.A.A.A.C.Z.A.A.A.A.A.A.A.A.A.A.A.A.A.A.A.A.A.A.S.m.$ . L 7.7.0.3   O k k 8.8.I I I 0.3   S I.Z.A.A.N.A.A.A.A.A.A.A.N.A.A.A.A.A.",
"A.A.Z.S.C.S.C.C.N.A.A.A.A.A.A.A.A.A.A.A.A.A.A.N.A.M.$ . H T 3 ; c Z Z K K - 3 H T R U d.!.f.G ..A.A.A.A.A.A.A.A.A.A.A.A.A.A.A.A.",
"A.A.A.C.Z.S.S.Z.A.A.A.A.A.A.A.A.A.A.A.A.A.A.A.A.K.M.$   U 7.-   l 7.M U m     H 7.I U `.}.!.  9 C.A.A.A.A.A.A.A.A.A.A.A.A.A.A.A.",
"A.A.A.C.A.C.A.A.A.A.A.A.A.A.A.A.A.A.A.A.A.A.A.M...o.c 3 D { @   +.yXE.yXW.  . D ^ D D d.`.}   9 C.A.A.A.A.A.A.A.A.A.A.A.A.A.A.A.",
"A.A.Z.S.A.A.A.C.A.A.A.A.A.A.A.A.A.A.A.A.A.N.Z.~   + 7.8.g $.=   gXLXLXLXFXX   i $.i $.D U c   9 F.A.A.A.A.A.A.A.A.A.A.A.A.A.A.A.",
"A.A.A.C.A.A.B.C.A.A.A.A.A.A.A.A.A.A.A.A.A.N.S.~   ; I T ] ] @   rXPXSXPXAX  . ] ] ] ] ^ q.b   9 C.A.A.A.N.A.A.A.A.A.A.A.A.A.A.A.",
"A.C.A.A.A.A.A.A.A.A.A.A.A.A.A.A.A.A.A.A.A.A.K.~   ; I 8.a.z.5   | wXwXwX .  O r.k.i.a.k.z.V   9 C.A.A.A.A.A.A.A.A.A.A.A.A.A.A.A.",
"B.C.A.A.A.A.A.A.A.A.A.A.A.A.A.A.A.A.A.A.A.A.K.~ # 0 Y L r.k.:   | wXwXwX .  . r.j.i.i.r.r.^ 1 q S.A.A.A.A.A.A.A.A.A.A.A.A.A.N.A.",
"A.A.A.A.A.A.C.Z.A.A.A.A.A.Z.A.A.A.A.A.A.A.A.A.N.S.M.$ O r.k.:   r ' i ' u   . r.j.r.l./   S U.C.S.A.A.A.A.A.A.A.A.A.A.A.A.A.A.A.",
"A.A.A.A.A.A.C.S.C.C.A.A.C.S.A.A.A.A.A.A.A.A.A.N.A.M.$ . r.z.5   r ' u i t   O j.k.j.z./   S K.N.A.A.A.A.A.A.A.A.A.A.A.A.A.A.A.A.",
"B.C.A.A.Z.A.A.A.B.A.A.A.A.A.A.A.A.A.A.A.A.A.A.A.A.C.y.C.0 + X   @.5XkXNXdX    + + + ; O   S K.C.A.A.A.A.A.A.A.A.A.A.A.A.A.A.A.A.",
"A.C.A.A.S.C.A.A.A.A.A.A.A.B.C.C.A.A.A.N.A.A.A.A.A.A.Z.G.9       <.vXNXJXnX        .       S K.C.A.A.A.A.A.C.A.A.C.V.A.A.A.A.A.A.",
"A.A.Z.A.A.A.A.A.A.A.A.A.A.A.A.A.A.A.A.A.A.A.A.A.A.A.N.F.9   * * w _ _ X._ * * * * r y =   S L.N.A.A.A.A.A.A.A.A.A.A.A.A.A.A.A.A.",
"A.A.S.C.A.A.A.A.A.A.A.B.A.A.A.A.A.A.A.A.A.A.A.A.A.A.N.F.9   * f o         a a a a ' &.6   S K.N.A.C.A.A.C.A.A.A.A.A.A.A.A.A.A.A.",
"A.A.A.A.C.A.A.A.A.A.C.C.A.A.A.C.A.A.A.A.A.A.N.A.A.S.A.F.+...w % & & o   X % % % = 6 r _ ..O.Z.A.A.A.A.A.A.A.A.A.A.A.A.A.A.A.A.A.",
"A.A.A.A.C.B.A.A.A.A.A.A.A.A.Z.S.A.A.A.A.A.A.A.A.A.A.B.A.A.I.A   % f 6                 W I.S.C.A.A.A.A.A.A.A.A.A.A.A.A.A.A.A.A.A.",
"B.C.A.A.C.C.A.A.A.C.A.A.A.Z.A.A.A.A.A.A.A.A.A.A.A.A.A.A.A.S.S 1 w * &   X 1 1 1 1 1 1 ! K.C.A.A.A.A.A.A.A.A.A.A.A.A.A.A.A.A.A.A.",
"A.C.A.A.B.A.A.A.B.C.A.A.C.S.A.A.A.A.A.A.A.A.A.A.A.A.A.A.A.C.C.I.F       4 I.Z.K.S.Z.K.A.A.S.A.A.A.A.A.A.A.A.A.A.A.A.A.A.A.A.A.A.",
"A.A.A.A.A.A.Z.A.A.A.A.A.A.A.A.C.A.A.A.A.A.A.A.A.A.A.A.A.A.A.N.Z.Q + + + G S.Z.A.N.V.N.A.A.A.A.A.A.A.N.A.A.A.A.A.A.A.A.A.A.A.A.A.",
"A.A.A.A.A.A.S.C.A.A.A.A.A.A.B.C.A.A.A.A.A.A.A.A.A.A.A.A.A.A.A.A.A.S.S.K.Z.A.A.A.A.A.A.A.A.A.A.A.A.A.A.A.A.A.A.A.A.A.A.A.A.A.A.A.",
"A.A.A.A.A.A.A.A.Z.S.A.A.A.A.A.A.A.A.A.A.A.A.A.A.A.A.A.A.S.Z.A.A.C.A.A.A.Z.A.A.A.A.A.A.A.A.A.A.A.A.A.A.A.A.A.A.A.A.A.A.A.A.A.A.A.",
"A.A.C.A.A.A.A.A.A.C.A.A.A.A.A.A.A.A.A.A.A.A.A.A.A.A.A.A.C.A.A.A.C.A.A.A.A.A.A.A.A.A.N.A.A.A.A.A.A.A.A.A.A.A.A.A.A.A.A.A.A.A.A.A.",
"A.A.S.Z.A.A.C.C.A.A.A.A.A.A.A.C.A.A.A.A.A.A.C.A.A.A.A.A.A.A.A.A.B.A.A.A.A.A.A.A.A.A.A.A.A.A.A.A.A.A.A.A.A.A.A.A.A.A.A.A.A.A.A.A.",
"A.A.A.A.A.A.B.A.A.A.A.A.A.A.B.C.A.A.A.A.A.A.C.A.A.A.A.A.A.A.A.A.A.A.A.A.A.A.A.A.A.A.A.A.A.A.A.A.N.A.A.A.N.A.A.A.A.A.A.A.A.A.A.A."
};
