/* XPM */
static char *_c41a66c1aed4008c69e6f26706077f8fChqUcFSmCRS3AHq[] = {
/* columns rows colors chars-per-pixel */
"64 47 192 2 ",
"   c #151714",
".  c #1B1916",
"X  c #1D1B19",
"o  c #221E1A",
"O  c #2C1D1B",
"+  c #25221D",
"@  c #2B231D",
"#  c #33261E",
"$  c #38281F",
"%  c #32321A",
"&  c #192220",
"*  c #04393A",
"=  c #252422",
"-  c #292723",
";  c #2D2925",
":  c #2D2C2A",
">  c #342521",
",  c #3C2725",
"<  c #332B24",
"1  c #3B2C22",
"2  c #322F2C",
"3  c #383525",
"4  c #34312C",
"5  c #3B342C",
"6  c #353432",
"7  c #3A3632",
"8  c #3B3937",
"9  c #3C3C3A",
"0  c #443D1D",
"q  c #4E2220",
"w  c #422E23",
"e  c #453124",
"r  c #4B3325",
"t  c #41362A",
"y  c #433A2C",
"u  c #4A3829",
"i  c #513627",
"p  c #543B2A",
"a  c #5D3D2B",
"s  c #443D35",
"d  c #493E37",
"f  c #413F3C",
"g  c #622223",
"h  c #722627",
"j  c #603E2B",
"k  c #5B4A00",
"l  c #55452B",
"z  c #494137",
"x  c #43413D",
"c  c #4B443B",
"v  c #51473B",
"b  c #534A3E",
"n  c #5A4939",
"m  c #5A5630",
"M  c #65432E",
"N  c #744E37",
"B  c #174141",
"V  c #085959",
"C  c #3D4E4F",
"Z  c #3C504F",
"A  c #285656",
"S  c #375654",
"D  c #226163",
"F  c #454443",
"G  c #4A4744",
"H  c #4C4A46",
"J  c #4C4B4A",
"K  c #564D42",
"L  c #514F4C",
"P  c #5D5244",
"I  c #52514F",
"U  c #495C5D",
"Y  c #545452",
"T  c #5B5956",
"R  c #5C5B5A",
"E  c #615444",
"W  c #665848",
"Q  c #6B5D4D",
"!  c #6E654D",
"~  c #78684C",
"^  c #6F6152",
"/  c #61605F",
"(  c #736554",
")  c #7B6957",
"_  c #766758",
"`  c #7B6B59",
"'  c #436768",
"]  c #576464",
"[  c #646463",
"{  c #696967",
"}  c #6C6C6B",
"|  c #706F6E",
" . c #7A746A",
".. c #677272",
"X. c #747473",
"o. c #797975",
"O. c #7C7C7C",
"+. c #84282B",
"@. c #902D2F",
"#. c #9D2A30",
"$. c #875C40",
"%. c #836C55",
"&. c #83725D",
"*. c #8C7459",
"=. c #937A5D",
"-. c #8C7964",
";. c #967F64",
":. c #A28506",
">. c #9E8263",
",. c #95816B",
"<. c #99846C",
"1. c #8D897D",
"2. c #A08364",
"3. c #AA8C6C",
"4. c #B1916E",
"5. c #A38D72",
"6. c #A79075",
"7. c #BC9A75",
"8. c #B49979",
"9. c #C9A47B",
"0. c #D0A97E",
"q. c #FFE554",
"w. c #488E91",
"e. c #7ACFD1",
"r. c #6BD9DC",
"t. c #838382",
"y. c #888786",
"u. c #898887",
"i. c #8C8C8B",
"p. c #998F83",
"a. c #8F9090",
"s. c #949494",
"d. c #989897",
"f. c #9B9C9B",
"g. c #B09B83",
"h. c #9FA09F",
"j. c #BBA48A",
"k. c #A9A59B",
"l. c #A4A4A4",
"z. c #A8A8A7",
"x. c #AAABAA",
"c. c #ACACAC",
"v. c #ADAEAE",
"b. c #BCB4A4",
"n. c #AFB0B0",
"m. c #B1B2B2",
"M. c #B4B4B4",
"N. c #BBBCBC",
"B. c #C6AA8A",
"V. c #D5AE82",
"C. c #CEB18F",
"Z. c #DAB285",
"A. c #CEB190",
"S. c #D7B996",
"D. c #E0B688",
"F. c #C1BBAB",
"G. c #E6C59F",
"H. c #CEC9B6",
"J. c #D6D0BD",
"K. c #90CACB",
"L. c #BFC0C0",
"P. c #C4C3C3",
"I. c #C6C6C5",
"U. c #CBCBCB",
"Y. c #D0CFCF",
"T. c #D3D2D2",
"R. c #D5D5D5",
"E. c #D7D7D8",
"W. c #DBDBDB",
"Q. c #E0DEDE",
"!. c #E4E4E3",
"~. c #E8E7E7",
"^. c #ECECEC",
"/. c #EEEEEE",
"(. c #EFEFEF",
"). c #F0EFEF",
"_. c #FFFAE3",
"`. c gray94",
"'. c #F1F1F1",
"]. c gray95",
"[. c #F3F3F2",
"{. c #F3F3F3",
"}. c #F4F4F4",
"|. c gray96",
" X c #F6F6F6",
".X c gray97",
"XX c #F8F8F8",
"oX c #F9F9F9",
"OX c gray98",
"+X c #FBFBFB",
"@X c gray99",
"#X c #FFFFFF",
/* pixels */
"#X X].#X X].#X].].#X]. X#X]. X#X).OXOX).OXOX).OXOX/.OXOX/.@X X`.OX X].+X}.].+X}.].#X]. X#X/.].#X/..X#X/.OX+X].OXOX].OXOX/.+XOX/.",
" X X X X X X X X X X X X X X X X.X X X.X X X X X XOX X X X XOXXX XXX.X}.XXXX XXXOX X X X X.XOX XOX X[. X X]. X{. X X X X X X X X",
"]. XOX].OXOX].OXOX].OXOX].OX X].+X.X].OX X].OX X XOX).^.^.W.!.].].OX#X].XXOX(.OXOX/.OX X[.OX X/.OX X X+X]. X+X X].+X X X+X]. X+X",
"#X X].#X[.].#X[.].#X].[.OX]. X#X)..X+X).OXOX{.).I.y.[ J f 9 9 J { i.U.OXXX}.@X}.].#X[. X#X]. X#X]. XOX].OXOX].OXOX].OX.X].OX X].",
"]. X X X X X X X X].OX X X X X X.X X XOX X^.l.Y 2 6 F Y R / / R I 8 6 } U.XX}.XXOX].OX X].OXOX]. X X X.X X{.OX]. XOX].OX.X X X X",
"].OXOX]..XOX].OXOX].OX X].OX X].OX X].OXT./ : F { O.O.t.i.f.x.c.c.c.s.Y 8 f./.XX.X]. XOX].OX X XOX X].OX X X+X X].OX X].OX{. X#X",
"#X X].#X X].#X[.].#X]. X#X]. X#X]. XOXI.F 6 } O.O.O.t.s.l.c.m.m.n.P.W.N.i.6 i./.].#X].].#X/. XOX]. X#X]. XOX].OXOX).+XOX].+X X).",
"]. XOX]..X.X]..XOX].OX X].OX.X].OXOXR.F 9 X.t.O.O.O.s.n.X.i.m.m.m.n.N.M.R.c.6 s.OX].OXOX].OX X X.XOX]..X.X XOX]. XOX{. XOX]. XOX",
"]. X.X]. XOX].OX X]..X X[.OX X]..X`.[ 6 / X.O.O.O.a.n.n.f.x.c.c.m.m.c.N.!.^.f.6 P. X XOX]..XOX[. X X X X X].OX X XOX X XOX X XOX",
"#X X].#X X].#X[.].#X]. X#X]. X#X{.x.: Y } O.O.O.t.x.m.m.M.n.u.l.m.M.m.m.R./.!.} R ]. X].#X/. X@X].OXOX]. X#X/.OXOX/.OXOX/.OX X].",
"]. XOX]. XOX]..XOX].OXOX].OX X]./.Y F [ } t.O.O.i.h.s.i.w.,.| X.O.t.i.s.l.I.U.I.9 x.OXOX].#X.X].OX X XOX X].+X X X#X].].#X].].#X",
" X.XOX X X X X.X X X X X X.X XOXL.: } O.} R J 6 6 6 4 s 4 f F F 9 9 6 : 6 9 J O.F R ]. X[.OX.X]. X X].OX.X X X X X X{.OX X X.X X",
"#X X].#X X].@X].].#X]. X#X]. X#XO.= J 6 = = = Y u.d.x.s.R X.M.I.N.m.} I y.i.} 6 2 2 P.XX@X]..X#X]. X#X/.OX+X].OX.X`.#X X`.OXOX/.",
"`. XOX].OXOX]..X.X].OX.X].OX.X!.J . = Y | Y / X.N.s.n.i.} [ x.I.I.c.[ } a.L.a.] X.J s.@X].OX.X].@X X].@X[.{.OX X X@X]. XOX[.].#X",
" X X X X X.X X.X.X X.X.X X XOXR.: 6 R | t.R / } f.i.t.X.J I { { } } Y J t.s.X.R i.O.R  X X X X{..X X X X X X.XOX X X X.X.X]. X X",
"#X X].@X X[.@X X[.@X]. X@X]..XP.: J R R R F = : 6 2 6 9 9 F F G F F x 8 6 : 6 - { [ x !.#X]. X#X]..X@X`..XOX`..XOX`.OX X].#X X].",
"`. X@X]. XOX]..XOX].OX X].OXOXl.- 9 & ; : 8 J { i.d.l.z.c.c.c.n.c.c.c.x.l.f.x.o.I 6 ; N.].@X X].OX X[.#X]. XOX X].#X]. XOX]..X#X",
".X X X.X X X.X X X X X X X X Xy.X 6 J R X.O.t.h.M.m.m.n.m.c.x.x.c.c.c.c.m.E.W.N.M.U.] { ]. X X X X.X X XOX X X X.X].OX X X.XOX[.",
"#X X].OX X].@X[.[.#X]. XOX XW.F J o.o.R X.O...t.t.X./ Y J F 9 9 9 9 f F Y X.X.o.k.U.l.7 R. X X@X]. X+X].OXOX]. XOX/.@XOX`.#X X].",
"/. X@X`..X@X`.@XOX`.OX X].#Xx.: X.X./ J f 6 - = < o . . 7 Q _ ) ` _ ( Q P b s - + 2 8 X d.#X X].OX X XOX]. XOX X].#X].].OX/.OXOX",
"OX X XOX X XOX X X X X XOX.XO.+ 6 : - o @ > @ 7 ) < i r < b <.A.S.S.S.S.S.B.( 5 @ : a.a.M. X X.X X XOX X X.X X XOX].OX XOX X.X X",
"OX X].OX X[.OX]. XOX X XOX].X.x - b E v > e $ 7 _ > r r i w < n -.P 6.` Q c $ r r s W.+X@X[. XOX].OX.X]..XOX].OX X X XOX/.#XOX/.",
"/. X#X/. XOX].OXOX/.OXOX`.OX!.m.5 s 5 ( s # , < &.@ # 5 < > w $ < @ _ 4 # $ , > > f ~.OX`.@X.X].#X X`.#X X].@X{. XOX].].#X).].#X",
"OX X[.OX X XOX X XOX X XOX[.OXI.4 7 4 c Q O w - 5.v z F.k.T o - # 1 8.v @ 7 ; 2 o [ `.}.OX[. XOX]. XOX]..X.X[.OX X X XOX[.OX.X].",
"OX X XOX X XOX X XOX[. XOX].OX!.x y z Q ^ ; 1 + -.B.K H._.b.z  .8 -.G.6.z F.p.5 X z..X.X.X[. X.X{.OX.X]. XOX X XOX].OX X X XOX].",
"`. X@X`.OXOX`.OXOX/.OXOX].OX X`.O.7 K _ _ z # @ n C.-.H k.J.b. .n j.C.A.Q o.1.s - M.#X.X`.#X.X].@X X].#X X].OX X].#X]. XOX]. X#X",
"OX X].OX[.].OX X XOX X XOX]. X@XT.F W ` ,.Q @ 1 ; &.Q &.^ z ; . ; 3 2 d E P ` g.8 P..X{.@X[..X@X]..XOX]. XOX]. XOX/.OX X].OX.X].",
"OX X XOX X XOX X XOX]. XOX X X.X Xc.f -.g.` O w @ 5 P <.-.4 O $ r r r w - 2 ,.j.8 R..X.X.X[..X.X X X X X XOX].OX X X XOX X XOX].",
"/. XOX]..X@X`.OXOX/.OXOX`.OXOX].#X Xl.L ( 5   1 e @ < c @ 1 a j a r , i N M ; z Y ~.@X.X].@X.X{.@X.X`.#X X].#X{.].#X].{.OX X].#X",
"#X X[.OX X].@X].].#X]. X@X]. XOX]. XOXT.I.l.4 o 1 r # @ r l j j i r r a N $.p = M.#X{. X@XE.Q.!.Q.OX+X]. XOX]. X.X].OXOX X X X].",
" X X X X X X X X X X X X X X X X X XOXOXOX X{ o o $ r r r i j a j j l j M $.t R `..X.X Xx.x C ' U n..X XOX.X{.OX.X X.X.X X XOX].",
"/. X@X].OXOX].OXOX].OX X].OX.X].OX X].OX X~.I O O . @ e r r i r a j a a M p 4 P.@X{.@XY.3 5 D r.e.] ~.#X[.].#X[.].#X[.{.#X]. X#X",
"OX X].OX}.`.OX]. XOX X].OX]. XOX/.OX@X].#XU.5 h +.O ; + # w r r w p r i e ; l. X].@XOXa.k :.m w.K.o. X[..X#X(.OX@X`.+XOX/.#X X/.",
"OX XOXXXXXXXOXOX X X XOX X XOX XOX X X.X].X.q @.#.w Q %.y + @ # @ $ + O ; l. XOX XOXW.I :.q.! S U I..X.X.X X X[..X X X.X X.X X X",
"/..XOX].XXOX X XOX/.OX X].OX X].OX X].@Xm.2 , g h > ` Z.7.>.n @ . . X . 2 U.[.+X].f.A * % ~ 0 l t. X[.#X X].@X{.[.@X[.[.+X/. X#X",
"#X X].#X].].OX X].#X X].OX XOXOX/. XOX`.{ L } } T 2 %.V.3.*.%.2.~ E b J R O.#XP.] V V U c.s.1.N./. X@X/..X@X`.OXOX(.#X.X].#X X/.",
" X X X XOX X X X X X XOX].OX X].OX X X!.H d x / [ 6 %.D.7.4.V.7.0.8.-.x f G o.B V A s.!.OX#XOX X X X[..X.X X X[. X X X.X X{. X.X",
"/.OXOX]. XOX/.OXOX].OX X XOXOX].OX X XN.b 4.2.*.n > ( 9.2.>.7.%.=.W P . 5 & * B ..Y.OXOX].OX X].#X.X{.@X.X[.#X]. X#X{.[.#X]. X#X",
"#X X/.#X X].OX X].#X]. XOX].OXOX/.OX#XP.G 5.7.Z.*.o > t 5 4 y t t 1 l < -   Z c.`.#X]. X@X]. X#X/..X#X/..XOX).+X.X`.#X.X`.#X.X`.",
"].OX X X XOX[. XOX].OX X].OX X XOX X]. X-.z =.9.Q o < 1 w e u l l p u - 6 } Y.#X.X X X X].OX X]. X X].@X.X XOX X.X.X[..X.X[..X.X",
"]. X X X X X X XOX].OX X X XOX]. XOX XOX/.f.R G = - 3 < @ 6 + . = < 4 z.R.OX X XOX].OX X].OX X XOX X].OX[.].#X[. X+X]. XOX[..X#X",
"#X X].#X X].#X].].OX]. X#X/.].OX]. XOX].]. XQ.l.= o ; ; = o.= . = - 2 U. X].#X].].#X]. X#X]. XOX/. X#X/.OX#X/.@X.X`.#X.X(.@X X/.",
"]. XOX]. XOX].OXOX].OX X].OXOX XOX XW.I.N.M.M.i.o X + = + T : + + - = t.N.P.R..XOX].OX X].OX X].#X].].#X]. X#X]. X#X]. X X X XOX",
" X XOX]. X X X X X X XOX X XOX]. X X!.R.I.I.F.c.t.} [ [ | s.s.O.O.t.d.M.I.R.!. X X].OX X X.XOX[.OX.X X XOX]. X X X.X[..XOX{. XOX",
"#X X].#X X].#X]. XOX]. XOX]. XOX]. XOX].OXOX^.].].~.]./.!.].`.!. X].].OX X].#X].].#X]. X#X]. X#X/..X#X/.OXOX]. X.X`.#X.X/.+X X`.",
"]. XOX].OXOX]. XOX/.OX X XOXOX].OX X].OX X].OX X X+X]. X@X[..X#X X XOX]..XOX].OXOX].OXOX].OX X].#X].].@X{. XOX X XOX]. X#X].].#X",
"]. X X X XOX X X X XOX X].OX X XOX X XOX X X X X XOX[.OXOX[.{..X X X.X[. XOX].OX X X.X X]. X X XOX.X[.OX.X[.OX.X{..X[..X@X{. XOX"
};
