/* XPM */
static char *bc8ef766c6514f71a903b2a30e65281874Gsso0UKOat4SkN[] = {
/* columns rows colors chars-per-pixel */
"64 64 230 2 ",
"   c #0D2D0E",
".  c #1A2C0F",
"X  c #172F0F",
"o  c #0E300F",
"O  c #10360F",
"+  c #19330B",
"@  c #0E2D10",
"#  c #132D14",
"$  c #1B2914",
"%  c #162B18",
"&  c #1D2C1B",
"*  c #1E251A",
"=  c #0F3011",
"-  c #133314",
";  c #1B3415",
":  c #143914",
">  c #183E17",
",  c #1C341D",
"<  c #1B3B1C",
"1  c #173519",
"2  c #222416",
"3  c #242917",
"4  c #24251B",
"5  c #2B261B",
"6  c #232B1C",
"7  c #2C2B1B",
"8  c #332B1B",
"9  c #382E1C",
"0  c #352A15",
"q  c #23341E",
"w  c #2B3B1B",
"e  c #2A371A",
"r  c #33331C",
"t  c #3C321D",
"y  c #363A19",
"u  c #1E3621",
"i  c #252624",
"p  c #242923",
"a  c #2B2A22",
"s  c #2C2B29",
"d  c #2A2720",
"f  c #342E22",
"g  c #243524",
"h  c #243C24",
"j  c #273E2A",
"k  c #2B3D2B",
"l  c #2A3726",
"z  c #353523",
"x  c #3A3424",
"c  c #3C3A25",
"v  c #3E3B2C",
"b  c #373927",
"n  c #3E3A31",
"m  c #42351C",
"M  c #46381D",
"N  c #4A3B1F",
"B  c #443A24",
"V  c #4B3C23",
"C  c #443C2B",
"Z  c #483D29",
"A  c #423722",
"S  c #433E31",
"D  c #1B400D",
"F  c #1B441A",
"G  c #1E491E",
"H  c #25471A",
"J  c #30401C",
"K  c #3B481D",
"L  c #235019",
"P  c #1F4222",
"I  c #1F4926",
"U  c #234223",
"Y  c #234C24",
"T  c #25432A",
"R  c #2B422D",
"E  c #2A4D2D",
"W  c #2D4427",
"Q  c #3C4A24",
"!  c #27572F",
"~  c #28562E",
"^  c #24592D",
"/  c #2A5A2D",
"(  c #2A5723",
")  c #345929",
"_  c #2E4431",
"`  c #2D4C32",
"'  c #304232",
"]  c #3F4132",
"[  c #314C35",
"{  c #354F39",
"}  c #265731",
"|  c #2A5731",
" . c #265A33",
".. c #295A33",
"X. c #2A5E38",
"o. c #2B5A39",
"O. c #325536",
"+. c #325A33",
"@. c #335438",
"#. c #355C38",
"$. c #3C5F3D",
"%. c #396D2F",
"&. c #276134",
"*. c #296331",
"=. c #2B643D",
"-. c #2B683F",
";. c #2A6B3A",
":. c #3B6D37",
">. c #3C603C",
",. c #336C3A",
"<. c #3E6D3D",
"1. c #366534",
"2. c #35733C",
"3. c #3A713A",
"4. c #38773B",
"5. c #2F7435",
"6. c #4F4127",
"7. c #43432D",
"8. c #4C432C",
"9. c #46492B",
"0. c #54462C",
"q. c #53492E",
"w. c #5C4C2D",
"e. c #534426",
"r. c #47552A",
"t. c #5F502F",
"y. c #53552E",
"u. c #454031",
"i. c #4B4833",
"p. c #554C31",
"a. c #5B4E34",
"s. c #534C39",
"d. c #594E39",
"f. c #504738",
"g. c #5D5136",
"h. c #5B5933",
"j. c #5D523B",
"k. c #54513A",
"l. c #4F5934",
"z. c #604E2C",
"x. c #635334",
"c. c #62553A",
"v. c #665A3C",
"b. c #6D5D3C",
"n. c #6A5936",
"m. c #66522D",
"M. c #40773E",
"N. c #456533",
"B. c #65643B",
"V. c #74613A",
"C. c #78643F",
"Z. c #3E5F40",
"A. c #2B6740",
"S. c #2C6841",
"D. c #306740",
"F. c #3E6F42",
"G. c #3C7943",
"H. c #425D43",
"J. c #5D5342",
"K. c #545D42",
"L. c #665A45",
"P. c #4A6F4A",
"I. c #466C46",
"U. c #5D624C",
"Y. c #417241",
"T. c #497C47",
"R. c #4D7C4B",
"E. c #477746",
"W. c #517A4A",
"Q. c #547C53",
"!. c #6D684A",
"~. c #736343",
"^. c #796642",
"/. c #7C6A45",
"(. c #73654A",
"). c #7D6C4C",
"_. c #756A44",
"`. c #786B51",
"'. c #7D7257",
"]. c #816F4A",
"[. c #856E42",
"{. c #85724B",
"}. c #89734A",
"|. c #867047",
" X c #90794F",
".X c #847352",
"XX c #867C58",
"oX c #977F51",
"OX c #428546",
"+X c #448A49",
"@X c #4C8B4D",
"#X c #47854B",
"$X c #51834C",
"%X c #558E4E",
"&X c #469744",
"*X c #499746",
"=X c #479947",
"-X c #479946",
";X c #499847",
":X c #499845",
">X c #499847",
",X c #4A9649",
"<X c #4C954A",
"1X c #4E954D",
"2X c #4B964A",
"3X c #499849",
"4X c #4A9849",
"5X c #51954E",
"6X c #509A4F",
"7X c #4C8651",
"8X c #548553",
"9X c #528D52",
"0X c #5A8A59",
"qX c #4E9552",
"wX c #4E9951",
"eX c #549552",
"rX c #599556",
"tX c #549953",
"yX c #5B955A",
"uX c #5B995A",
"iX c #61955E",
"pX c #9C865B",
"aX c #93835A",
"sX c #8D885E",
"dX c #8B8367",
"fX c #928D6F",
"gX c #9C9368",
"hX c #A48E62",
"jX c #AB946C",
"kX c #A49469",
/* pixels */
";X;X;X;X;X;X;X;X;X;X;X;X;X&X3X3X3X;X,X,X,X,X5XeXiXW.N.H.Z.$.Z.Z.$.$.$.Z.H.D.0XiXtX1X,X,X;X;X;X;X;X;X;X;X;X;X;X;X;X;X:X:X;X;X;X;X",
";X;X;X;X;X;X;X;X;X;X;X;X;X;X3X3X,X&X,X,X<X5X9X/ Y F = u I Y I I I I Y Y u o Y Y ,.eXqX<X,X,X;X;X;X;X;X;X;X;X;X;X;X;X:X:X;X;X;X;X",
";X;X;X;X;X;X;X;X;X:X;X;X:X,X;X&X<XeXeXrXyX1.> 1 - h o...X.D.=.S.=.S.=.X.| | 1 - < F E.yXtXtXwX1X;X;X;X;X;X;X;X;X;X;X;X;X;X;X;X;X",
";X;X;X;X;X;X;X;X;X:X;X;X;X,X1XtXeX3.:.M.1.- E @.O.o.#.=.S.,.-.-.A.A.D.=.#.o.| O.@.P > F.3.:.4.uX1X<X;X;X;X;X;X;X;X;X;X;X;X;X;X;X",
";X;X;X;X;X;X;X;X3X3X3X3X;X<XrX<.~ X @   - E O.| X.=.S.D.=...X. . . .X.=.A.A.A.o...o.U # #   ; | T.tX:X:X:X:X-X-X;X-X;X;X;X;X;X;X",
";X;X;X;X;X;X;X;X;X3X3X,X,XrX<.# % [ [ [ ` o.| =.S.A.=. . . .} } } /  . .X.S.=.=...| | _ ` [ R @ > $XeX:X,X<X;X-X=X-X;X;X;X;X;X;X",
"3X,X3X;X;X;X;X;X;X;X&X2XeX<.# , [ | o.....X.=.-.=.=. .} | |  .}  . .~  . .X.D.=.S.S.o.o.o.| O.E % < #X5X<X;X;X;X;X;X;X;X;X;X;X;X",
"3X3X;X;X;X;X;X;X;X;X3XeX8X- , [ o.| ..-.=.-.=.=.=. .} ..} ..X.X.X.X. .}  .| X.=.S.D.=.=.=...| @.R # Y iX5X;X;X;X;X;X;X;X;X;X;X;X",
";X;X;X;X;X;X;X;X;X,X<XrX@.% T o...=.S.-.=.=.X.X.}  .|  .=.=.=.A.=.=.=.X. .| } ..o.=.=.=.A.A.o.| @., 1 I.rX,X;X,X;X=X;X;X;X;X;X;X",
";X;X;X;X,X;X;X;X,X1XyX+.# g | | X.S.A.A.=... .}  .|  .=.S.=.S.=.=.=.S.S.X.} ..| }  . .=.A.A.S.o...` & 1 Y.rX:X,X;X;X;X;X;X;X;X;X",
";X;X;X;X;X;X;X,X<XrX+.# % j O...=.A.A.-. .| | } |  .=.=.=.=. .}  .X.=.D.=.X.}  .| !  .X.S.A.A.X. .| h % - P.rX,X;X;X;X&X=X=X;X;X",
";X;X;X;X;X;X;X<XeX/ # l R @.o.X.A.A.S.=.} | ~  .X.=.=.=.=...} } | } ..=.A.A.X. . .}  . .=.S.A.S.X.| ` R & - 3.5X1X;X;X;X=X=X;X;X",
";X;X;X;X;X;X;X5X8X- < [ O...=.S.-.A.X.} | | } X.=.=.=.X.} } X.=.=. . . .X.A.A.A.X.} | }  .=.-.=.A.X.o.@.[ # Y yX<X;X;X;X=X;X;X;X",
";X;X;X;X;X;X;XuX~ % T o.} X.=.A.A.-. .}  .} X.S.-.-. . . .X.A.A.S.=...} } =.A.A.=.X.| | ~  .-.S.A.S.o.| @.u = F.tX;X;X;X;X;X;X;X",
";X;X;X;X;X;X1X#Xq h O.|  .=.-.A.A. .} | | } =.A.S.S.X.} ..S.A.A.A.=.=. .} =.A.A.=.&.| | | } &.=.A.=.X. .| O.1 ~ @X1X;X;X;X;X;X;X",
";X;X;X;X;X<XuX/   @.|  .X.-.A.A.-.} / ~ | } &.A.-.S. .}  .-.-.A.A.A.D. .} &.A.A.=. . .| | /  .S.A.A.A...~ .._   T.tX;X;X;X;X;X;X",
";X;X-X-X;X5XR.< Y O.|  .=.A.A.A.o. .| ~ | } X.A.A.S. .} ..X.S.A.A.=.X.| } X.A.A.S. .| | ~ | | &.A.A.S.X.} | O.< I 9X<X,X:X;X-X-X",
";X;X-X-X&XtXP.@ E O.| X.A.A.A.A. .} } | | } X.A.A.S.X. .|  .X.=.=.X.}  . .=.A.A.S. .| / | | } X.S.A.A.A...| O.U O 8X5X,X:X:X-X-X",
";X;X;X;X:X5XP.# E .. .X.A.A.A.A. .} | | | |  .X.A.S.A. .| } |  .} | | }  .S.S.S.X.} | |  .!  .X.S.A.A.=.X.| O.I : 8X<X;X;X;X;X;X",
";X;X;X;X:XtXP.# E | } X.S.A.A.&. ...| | | }  . .X.S.A.X. .}  .| |  .}  .=.-.=. . .| ! | ! | |  .=.A.A.S.&.| O.P : 8X5X;X;X;X;X;X",
";X;X;X;X-XtXP.# E o.~ =.S.A.S. ...| | !  .~ |  . .=.S.A.=. .} ~ | }  .-.-.-.=.} | | ~ | | | ! | &.S.A.S. . .O.P : 8X5X;X;X;X;X;X",
";X;X;X;X-XeXP.# E o.} X.A.S.S.X.| | | | ~ | ! ! } X.S.A.A.A.X. . .=.A.-.-.-.| }  .~ ~ | ~ | | ! =.S.A.S. .} O.P 1 8X5X;X;X;X;X;X",
";X;X;X;X&XeXP.% E ..} =.A.A.=. . .! | | | ! ~ | } ..=.A.A.=.A.-.-.A.=.A.-.=...! ~ ! | / ~ | } ~ &.S.A.A.X.} @.P : 8X5X;X;X;X;X:X",
";X;X;X;X&XtXP.# E ..} &.A.A.S. . .| | / | ! | | } }  .=.A.A.=.-.=.A.A.A.=. .| | !  .| }  ./ |  .&.A.A.S. .| O.P ; 8X5X;X;X;X:X:X",
";X;X;X;X&XeXP.# ~ o.~ X.S.A.A.-.| ~ | | | ! | ! | | ! ..=.=.=.=.A.-.=.=.} } | | | ! | | ! | ~  .-.A.A.=.X.| O.P O 8X5X4X:X:X:X,X",
";X;X;X;X-XeXP.# E | | | =.A.A.-.&. . .| | ~ ! | | ! ! |  .&.=.=.=.&. . .| | | | ~ ~ | ! | | } =.A.A.A.=. .| O.u : 8X5X,X:X:X:X4X",
";X;X;X;X-XeXP.# E | | | X.=.A.A.-. ./ ~ ~ ~ } } | | | / | ..| |  .~ } } | |  .~ |  .| } .. .=.S.A.A.=.../ | O.H : 8X5X4X4X:X4X:X",
";X;X;X;X-XtXP.# E o.| } } X.-.A.A.-.-. . .} | } ! ! | | | | | / } | } | ! ! | ~ | ~ } } &.=.=.A.A.=. .} | | @.h O $X5X,X:X4X=X:X",
";X;X;X;X;XtXR.: , ` O.~ |  .&.=.A.A.A.=.&. . . .| / ! | ! | | ! | ~ | / | | | !  . . .=.-.A.-.A.=. . .| ! +._ - F %X6X;X;X;X;X;X",
";X;X;X;X3X,XuX+.% @.| | ~ !  . .=.A.A.A.A.A.=. .| | | | | ! ! | ! | | | | ! | |  .A.A.A.A.A.A.-...} ~ | ~ O.[ @ T.eX:X:X;X;X;X;X",
";X;X&X:X,X,XtX/ # R o.~ |  ./  .=.-.A.A.A.A.A.&. ./ } ! | | | | ! | ~ ! | ! |  .&.A.A.A.A.=.-.X.~  .| | | [ g X M.tX:X:X=X:X;X;X",
";X;X:X:X;X,X5X8Xh , O.~ | / } |  .-.A.-.A.A.A.A.-.X.~ | / | | ! | ! / / ! ! =.-.A.A.A.A.A.A.-. ./ | | ~ o.` # @.eX;X4X:X,X4X;X;X",
"<X:X;X;X<X:X:XyXU & | | | ~ | } } -.A.A.A.=.A.A.A.=.} ~ | } } } | / | | }  .=.A.A.A.-.A.A.A.=.~ ~ ~ | | o.` # #.uX,X;X;X;X;X,X,X",
":X:X;X;X:X<X:X5X>.% j @.| ~ | | }  .=.A.A.-.A.-.A.S.&. .} } } } |  . . .X.=.A.A.A.-.A.A.A. .} ~ } | | | @.1 < E.5X:X;X;X;X;X;X:X",
",X;X;X;X:X<X:X5X0X> , _ O.| | | ^ }  .=.A.A.A.A.A.A.-.-.=.X.&.=.=. .=.&.A.A.A.A.A.-.-.-.A. .} | | | | @.k % ~ yX<X,X;X;X;X;X;X;X",
";X;X;X;X;X;X:X<XeX3.# g ` | | | /  .}  .=.=.=.-.A.A.-.A.-.S.A.A.-.-.A.A.-.A.A.-.S.=.-.=. .} } | | ..#.T & < $X1X:X,X;X;X;X;X=X=X",
";X;X;X;X;X;X;X;X6X@X< * u _ @.| ~ | | / | | =.=.=.=.A.A.A.A.A.A.A.A.A.S.=.A.-.=.=... .| ~ | | | } O.k & % ~ tX,X;X;X;X;X;X;X;X;X",
";X;X;X;X;X;X;X;X,XeX8Xh & p ` o.} } | } ! |  . .}  .X.-.=.-.A.A.A.A.A.S.=. .} } ..| ! | | | | | O.T 6 & O.0XqX,X;X;X;X:X;X;X;X;X",
";X;X,X;X;X;X:X,X:X5X7X@.6 6 u [ |  .| ~ ! | ~  ./ | }  .-.-.A.A.-.-.S.=. .~ } } ! | | |  .~ | o.j & 6 q <.9X2X=X;X;X;X:X;X;X;X,X",
";X;X:X:X;X:X,X:X:XtXR.U U.a & ' O.~ ~ | | | ~ | } }  .}  . .-.=.A.&... . .} | ~ | ! | ! | ~ ..@.k * S K.H 0X1X,X;X;X;X;X;X;X,X:X",
";X;X;X;X;X-X;X;X5X%Xr.!.dXe 4 k @.| | | | | | | | | ~ | ~  . .} } } |  .| | ~ ~ | | | | ..| | [ g * u.fXl.N.rX,X,X;X;X;X;X;X;X;X",
";X;X;X;X-X-X=X1X5X( y.sX`.0 i & k @.O.| | | | | | | | | | ~ | | | | | | | | | | | | | O.| @.[ g p 5 A XXXXK %.tX;X;X;X;X;X;X;X;X",
";X;X;X;X:X:X4X6X@X+ B.'.!.7 i i p g _ @.[ O.{ [ [ O...| ~ | | } ~ ~ } | | O.O.[ [ O.[ { { j p p i 4 B '.'.r.L tX<X;X;X;X;X;X;X;X",
";X;X;X;X:X:X,X:X5X) w p.i.d s i i i & 3 6 & & 3 , h [ O.O...@.#.o.O.O.O.| E g & & $ q 6 & & p s i i r k.9.w 3.tX:X;X;X;X;X;X;X;X",
"3X3X;X;X:X:X;X,X2X@X+.; * p p i i s v x 7 c c z 2 4 6 l k k _ _ R k R W g 6 4 5 c c z f v v s i i p 4 % < N.eX3X;X;X;X;X;X;X;X;X",
"3X3X;X;X:X:X;X;X-XtX7X~ T _ l p a a f.J.x J.j.!.J.x 4 ] b $ 4 3 4 3 3 ] b 5 C L.L.j.s.x L.C d i p k ' T X.qX1X=X;X;X;X;X;X;X;X;X",
";X;X;X;X;X;X;X;X=XwXG./ ..@.{ g 4 5 8 9 0 C a.n..X~.t x j.q.q.q.q.q.a.a.8 Z ).).x.g.9 8 9 5 5 4 k O.@.| *.@X2X;X;X;X;X;X-X;X;X;X",
";X;X;X;X;X;X3X;X3X2X+X*.} ..@.g b L.L.c.0.m a.w.m.}.L.0 n.~.t.a.t.x.(.0.m `./.z.x.e.A d.L.L.j.6 R o.| / ;.2X2X;X;X;X;X;X3X;X;X;X",
";X;X;X;X;X;X;X;X;X,XtX4.^  .O.h k.(.).{.V.e.M p.z.m..XV N ~.b.w.w.~.n.m x./.z.x.0.m t.^..X_.(.7.U O.| ^ OX6X,X:X;X;X:X,X:X;X;X;X",
";X;X;X;X;X;X;X;X;X;X1X+X*./ @.e y M x./.}.L.0.A a.w.(.x.t j.x.w.w.c.d.9 ~.b.z.0.A a.^.}.^.w.m 7 W O.^ 3.:X:X,X,X;X;X,X,X;X;X;X;X",
";X;X;X;X;X;X;X;X,X;X;XwX4.! O.r 8.6.N x.|._.a.m a.p.n.0.0 t t m t t 9 9 d.x.x.Z M x.].^.w.M 0.B w O.^ +X6X,X;X;X;X;X;X;X;X;X;X;X",
";X;X;X;X;X;X;X;X;X;X;X<XrX/ w p.v.w.6.N x.V.a.f 0.L.0.5 V d.p.q.w.p.d.9 9 d.J.A A c.b.z.A e.x.v.7.H :.tX,X;X,X;X;X;X;X;X;X;X;X;X",
";X;X:X:X;X;X;X;X4X:X,X5X8XH h.aXaXn.g.t w.c.J.f 5 S 8 C a.n.C.V.V.V.x.a.f x n 2 C j.j.V V x.C.pXXXK ) tX:X:X;X;X;X;X;X;X;X;X;X;X",
":X:X:X:X;X;X;X;X:X4X,X5X$XQ gXkXhXC.g.t t k.v 7 6 4 6 s.c.].{.}.}.{.^.c.8.4 p 6 7 i.s.9 Z x.}.kXjXXX) rX5X:X;X;X;X;X;X;X;X;X;X;X",
";X;X;X;X;X;X;X;X4X:X:X5XW.) kX X}.~.s.f 2 g q R { W 4 s.c.a.e.0.q.e.x.d.S 4 [ [ k q a 2 c c./.}.pXsX) eX:X:X:X:X;X;X;X;X;X;X;X;X",
";X;X;X;X;X;X;X;X4X4X:X6X$XH B._.B.a.r 3 g R { | o.R 3 u.d.M m m m m V d.z q [ | O.@.T g 2 Q h.C.C.r.( iX:X5X:X,X;X;X;X;X;X;X;X;X",
";X;X;X;X;X;X;X;X:X:X4X,X5XG + J J w X U O.| ~ | | O.[ 6 B 0.C.C.^.b.6.r q [ O.|  .| ..~ q X y J w + :.tX:X;X;X;X;X;X,X:X,X:X=X,X",
";X;X;X;X;X;X;X;X:X:X4X4X5X%X$XW.W.W.W.7X,.*.^ ^ / ~ @.q r x.C.hXpXb.d.3 T @.~ ! ^ ^ *.F.8XW.W.W.W.R.1X<X1X;X;X;X;X;X:X,X:X4X4X:X",
";X;X;X;X;X;X;X;X:X=X=X:X;X1X6XeX5X5XeX5X1X+X5.2.^  .o.R r (.|.pXoX].c.r o. ./ *.2.5.@X1X6X6X5XeX5X5X:X<X;X;X;X;X;X;X;X;X:X4X,X4X",
";X;X;X;X;X;X;X;X:X=X=X4X;X;X:X;X:X;X;X-X3X2XqXqXOX,.*.~ e j.].[.[./.7.q #.&.2.OXqXwX4X;X,X&X:X:X:X:X;X;X;X;X;X;X;X;X;X;X:X=X,X,X",
";X:X;X;X3X3X-X;X;X;X;X;X;X;X;X;X;X;X;X;X3X3X3X2X2X2XOX,.U z B.]./.h.q E 3.+X2XwX3X3X3X;X=X=X;X;X,X4X:X,X;X;X;X;X,X=X4X,X,X,X:X,X",
";X:X;X;X3X3X3X;X;X;X;X;X;X;X;X;X;X3X;X;X;X;X3X3X-X=XqX7XO.; 9.h.g.c ; F.eXwX4X&X=X=X;X;X=X=X;X;X:X=X=X:X;X;X;X;X4X:X:X:X,X:X,X:X",
";X;X;X;X3X3X;X;X;X;X;X;X;X;X;X;X;X;X-X-X;X;X;X&X3X3X=XqX$X( . . $ ; ,.9X2X3X3X3X;X;X;X;X;X;X;X;X3X;X4X:X;X;X;X:X:X=X4X=X:X4X:X:X",
";X;X;X;X3X;X;X;X;X;X;X;X;X;X;X;X;X;X-X-X;X,X;X3X3X3X=X=XqX7XI.H.I.P.rX2X,X,X&X3X;X;X;X;X;X;X;X;X;X;X:X4X;X;X;X:X:X4X4X4X4X:X:X:X"
};
