/* XPM */
static char *_025a3229c114b8cc4fa6059f25a470aF2wjhx5FMqfbybGZ[] = {
/* columns rows colors chars-per-pixel */
"64 64 219 2 ",
"   c #0E1D05",
".  c #131B05",
"X  c #151D0A",
"o  c #1C1C0D",
"O  c #1B170E",
"+  c #1D1D13",
"@  c #1E1E1C",
"#  c #1C1713",
"$  c #201A0C",
"%  c #291714",
"&  c #231C13",
"*  c #2A1C14",
"=  c #231B1B",
"-  c #2D1D1C",
";  c #251714",
":  c #311D1B",
">  c #0D2304",
",  c #0E2408",
"<  c #13240A",
"1  c #19210B",
"2  c #192C0C",
"3  c #122908",
"4  c #16360B",
"5  c #162213",
"6  c #1B2314",
"7  c #1C2A12",
"8  c #1B231A",
"9  c #1A2A18",
"0  c #1B3514",
"q  c #1C3819",
"w  c #2B210E",
"e  c #24250E",
"r  c #31250D",
"t  c #24370C",
"y  c #242213",
"u  c #2C2413",
"i  c #24251A",
"p  c #2C241A",
"a  c #232B1C",
"s  c #2C2A1C",
"d  c #272A15",
"f  c #312413",
"g  c #352B15",
"h  c #34231D",
"j  c #342C1A",
"k  c #392D19",
"l  c #3B281B",
"z  c #233213",
"x  c #23331D",
"c  c #21391F",
"v  c #2B3518",
"b  c #3D321C",
"n  c #373819",
"m  c #2F1F20",
"M  c #331F20",
"N  c #1F2F22",
"B  c #2F2C22",
"V  c #232F21",
"C  c #362421",
"Z  c #3B2423",
"A  c #372C23",
"S  c #3C2A24",
"D  c #3F2A29",
"F  c #253C24",
"G  c #263C2A",
"H  c #2A3222",
"J  c #3D3423",
"K  c #3D362C",
"L  c #3D392B",
"P  c #373524",
"I  c #40341E",
"U  c #46391E",
"Y  c #432625",
"T  c #432A24",
"R  c #412728",
"E  c #422A29",
"W  c #4B2C2C",
"Q  c #4B2926",
"!  c #5C2527",
"~  c #5D2629",
"^  c #552C2D",
"/  c #5C282A",
"(  c #5B2827",
")  c #423621",
"_  c #443A25",
"`  c #4B3E24",
"'  c #4C302A",
"]  c #443D2D",
"[  c #4B3F29",
"{  c #41372B",
"}  c #56312F",
"|  c #4F2F30",
" . c #522F30",
".. c #4F3131",
"X. c #543030",
"o. c #5A3032",
"O. c #622B2C",
"+. c #682D2F",
"@. c #662E31",
"#. c #6A2E30",
"$. c #633132",
"%. c #6C3334",
"&. c #6F3739",
"*. c #6E3E3E",
"=. c #703537",
"-. c #723837",
";. c #723739",
":. c #753A3C",
">. c #7A3E3E",
",. c #1C461D",
"<. c #194B1E",
"1. c #25451C",
"2. c #224E1D",
"3. c #36431A",
"4. c #27541E",
"5. c #33511F",
"6. c #1D4623",
"7. c #1D4923",
"8. c #1E5323",
"9. c #1E5923",
"0. c #234426",
"q. c #244924",
"w. c #264529",
"e. c #2A452B",
"r. c #294929",
"t. c #374825",
"y. c #2C5524",
"u. c #245E24",
"i. c #2D5B24",
"p. c #2B5429",
"a. c #265D2A",
"s. c #2B5828",
"d. c #325A2C",
"f. c #385433",
"g. c #2A632B",
"h. c #33622C",
"j. c #336B2E",
"k. c #2E6631",
"l. c #356333",
"z. c #396435",
"x. c #396939",
"c. c #3C7339",
"v. c #3B7C3D",
"b. c #377537",
"n. c #4E4127",
"m. c #4D422B",
"M. c #434829",
"N. c #524327",
"B. c #52452B",
"V. c #57482C",
"C. c #5A4B2C",
"Z. c #4C502D",
"A. c #474132",
"S. c #4B4432",
"D. c #554B34",
"F. c #5B4D33",
"G. c #544A36",
"H. c #5E523B",
"J. c #595639",
"K. c #61512F",
"L. c #7A403F",
"P. c #625334",
"I. c #65583B",
"U. c #6C5D3C",
"Y. c #67573B",
"T. c #715E3D",
"R. c #436E3A",
"E. c #43723B",
"W. c #457C3D",
"Q. c #63653D",
"!. c #73613A",
"~. c #7A3E41",
"^. c #5F5742",
"/. c #7C4041",
"(. c #675A42",
"). c #467C41",
"_. c #497B42",
"`. c #487646",
"'. c #6D6045",
"]. c #676141",
"[. c #736240",
"{. c #796A46",
"}. c #7B734E",
"|. c #796D52",
" X c #797653",
".X c #836E47",
"XX c #88724A",
"oX c #8C7A56",
"OX c #45823D",
"+X c #438145",
"@X c #4A8444",
"#X c #4D824A",
"$X c #4C8C4C",
"%X c #468B46",
"&X c #51864E",
"*X c #518B4D",
"=X c #499746",
"-X c #479947",
";X c #499847",
":X c #4A9648",
">X c #4C964A",
",X c #4B9649",
"<X c #4A9948",
"1X c #4B994A",
"2X c #469745",
"3X c #51954E",
"4X c #509A4F",
"5X c #548C51",
"6X c #578B54",
"7X c #4F9451",
"8X c #549452",
"9X c #599556",
"0X c #539B52",
"qX c #559A54",
"wX c #599A55",
"eX c #5A9759",
"rX c #5A9B59",
"tX c #96835A",
"yX c #988766",
/* pixels */
"=X-X=X=X;X;X;X;X;X;X;X;X;X;X;X;X-X<X=X=X=X=X<X2X2X>XqX4X0X0X0X0X0XqXqX0X0X1X:X<X=X=X2X-X=X=X-X=X=X=X<X=X;X;X<X;X;X;X;X;X;X;X;X;X",
"=X=X=X=X;X;X;X;X;X;X;X;X;X;X;X;X=X<X-X=X=X<X>X3XwX*XE.E.R.R.R.R.E.E.R.E.E.W.eXwX3X:X=X-X=X-X<X<X<X=X=X=X;X;X=X;X;X;X;X;X;X;X;X;X",
"<X<X-X=X;X;X;X;X;X;X;X;X;X;X;X;X=X=X2X<X=X3XeX`.f.t.. w d u f u r u u f y 1 f.p.&XwX:X<X-X-X=X=X;X=X<X=X;X;X=X<X;X;X;X;X;X;X;X;X",
"<X<X-X-X;X;X;X;X;X;X;X;X;X;X;X;X<X3X3X8XwX@X1.2 . y T ^ X.~.~.~.:.L.*. .^ Z $ X z y.9XwX4X4X>X:X;X=X<X=X;X-X=X=X;X;X;X;X;X;X;X;X",
"=X=X=X;X-X-X;X;X=X=X=X=X;X;X;XOXwX@X`.`.`.z u W W ^ o.*.>./././././.~.~.$.o.^ ' ) $ t.`.`.`.5XqX<X=X=X=X=X=X-X=X;X;X;X;X;X;X;X;X",
"=X-X=X=XOX-X;X<X<X-X<X=X;X;X0X0Xl.4   < o h ^ / @.-.~.~.~.%.%.#.%.%.%.~./.L.%./ / W y < . > 2.c.8X<X>X<X1X=X<X<X;X;X;X;X;X;X;X;X",
"=X;X<X<X1X-X-X<X=X=X=X<X=X3X9X3.. h E T Q ^ / %.~.~.~.%./ ~ ~ ~ / / O.@.&././.>.O.^ Q T T T & > z.wX>X=X=X-X=X-X;X;X;X;X-X-X;X;X",
"=X-X<X=X1X-X-X<X-X<X<X<X<X*X1.> S X.^ / o.+.:.~.L./.%.! ~ / ~ ~ ! / ( ~ / &././.>.-.$./ / ^  .p > z.3X>X=X-X-X=X;X;X;X;X-X-X;X;X",
"=X=X<X=X<X<X;X-X=X=X:X:XwXl.. S ^ ( @.&.~.~.~./.=.+.! ! O.O.%.#.@.%.! ~ ~ ~ %.:./.~.~.>.%./ ^ ' p < $X8X:X<X=X=X;X;X;X;X;X;X;X;X",
"=X-X=X=X<X<X;X-X;X;X>XwX&X0 * W ^ %.~.~.>.>.;.@.! ! O.O.%.:./.~./.~.;.%./ ~ ! O.%.>.~.>./.:.O.^ D # p.eX3X=X=X-X;X;X;X;X;X;X;X;X",
"=X=X<X<X<X<X=X1X;X<X0X_.q X Y ^ $./.>.>.:.+.( ~ ( O.O.-.>.>.;.:.&.>.>.>.%.! O.~ ! O.%.~.>.>.>./ ^ p X r.8X3X<X-X;X;X-X=X;X;X;X1X",
"=X=X<X<X<X<X-X=X=X4X#X4 X : Q / -.>.>./.$.( ( O.! O.:.L./.:.O.! ~ %.~./.~.#.! ~ ~ ~ ~ ;.>.>.>.$./ Y % . y.3X>X=X;X;X=X<X;X-X>X-X",
"-X=X-X<X=X<X=X=X>X#X0 + Z Q / ;./.>.>.:.~ / ~ ~ #.:.~.>.#.O.~ O.( ~ @.%.~.~.;.@.~ ~ ~ @.>.>.>.~.@.^ Q h . p.8X=X<X-X=X<X;X-X;X;X",
"=X-X=X<X=X=X=X>X8Xz.. E  ./ ;.~.>.>.:.~ ! ~ O.&.>.>.:.#.! ~ &.:.~.%.! ~ &.>.~.>.@./ / ~ @.>.>.>.~.O.^ | - 2 #X>X<X<X-X<X;X=X;X;X",
";X;X=X-X<X<X<X3X5X2 y W ^ / :.~.>.>.O.! ( ~ #.~.>.~.%.~ O.;.~.>.~.~.#.~ ~ :.>.~.:.~ / / ! %./.>.~.%.~ ^ R O y.rX:X:X=X-X;X;X;X;X",
";X;X;X;X>X<X>XeXd.1 W / / %.~.>.~.%.~ / / / #.~.>.~.#.~ #.~.>.>.:.~.~./ ! :.~.>.:.~ O.~ / / >.>.>.>.O./  .j 7 _.wX=X=X<X<X;X;X;X",
";X;X;X;X;X<X>X5X0 : X./ / ~.~.~.~.+./ / / ~ #.~.>.>.%.! +.>.~.>.:.>.=.! O.:.L.>.:.O.O.~ ~ ~ %.~.>.L.&.! / W O f.8X:X=X=X=X=X1X-X",
";X;X;X;X;X>X0Xi.1 W ^ / #.~.~.~.%.! ~ / / ! #.~.>.~.%.~ ~ @.~.~.~.:.O.O.O.:.>.L.:.~ ~ / ~ ~ O.:.>.>.>.O./ ^ A 3 OX4X=X=X=X-X-X=X",
";X;X-X-X<X:XwXs.o X.^ ( ~.>.>.~.&.~ ~ / / ~ O.:.>.~.;.O.~ ~ @.#.%.+.! ! O.>.>.L.&.~ ~ ~ ~ / ~ ~.>.>./.&.! ^ D X W.1X=X=X;X;X<X<X",
";X;X-X-X<X<XwXy.$ X./ O.:.~.>.~.%.~ ~ ( ~ / ~ O.:.~.~.+.~ O.~ ~ ! ~ O.! -.>.:.%.~ ~ ~ O./ / ~ :.>.>./.%.! ^ D 1 _.4X<X=X;X;X=X=X",
"=X=X=X=X=X=X8Xy.$ ^ ^ ( >.>.>.:.~ / / ~ / ~ / ~ +.>.>.>.O.! ~ O.~ ~ ! %.>.L.;.O./ / ( / / ~ ~ O.L.>./.&.! ^ Y 1 ).4X=X=X1X<X=X-X",
"=X=X=X=X=X<XrXy.o X./ ( >.>.>.:.~ ~ / ~ / / / ! ( &.~.>.:.%.O.! ! @.=.>.>.:.%.! ~ / / / / / ~ @.>.>./.&.! ^ R X ).1X=X=X1X=X-X=X",
"=X-X=X<X<X:XrXy.O X.^ ( :.>.>.:.O.~ O.~ / / / / / O.~.>.>.L.;.;.-.>.>.>.>.:.~ / ~ / / / / / ! @.~.>./.%.! / E X ).4X=X=X-X=X=X-X",
"=X-X=X<X<X>XrXy.$ X./ ( >.>.>.;.! / / ~ ~ / / / ~ ~ %.~.>.>.~.>.>.>.>.>.:.+.~ / / / / / ~ ~ ~ O.~.>./.%.! ^ E < ).4X=X=X<X-X1X=X",
"-X=X=X-X<X=XeXy.$  .^ ~ ~.>.>.>.O.~ ~ / ~ ~ ~ ~ / ~ ~ %.~.~.~.:.>.>.~.>.O./ ~ / / / ~ ~ / / ~ %.~.>.~.&.! ^ R X _.4X=X<X<X<X=X-X",
"<X<X<X<X<X=X9Xy.$  ./ ~ %.~.>.>.;.! / ~ ~ ~ / / / / ~ ~ @.;.~.~.>.>.#.O.~ ~ / / ~ ~ O.~ / / O.~.>.>.>.+.~ ^ R X ).4X<X;X=X=X-X-X",
";X;X=X=X<X=XwXy.O | / / O.:.>.:.~.#.~ ~ O.~ O.~ / ~ / / ~ ~ O.O.+.O.! ! / ( / / / / / ( ~ / ;.~.>.~.;.~ ~ ^ D < ).4X=X-X<X<X=X-X",
";X;X-X=X<X:XwXs.o | ^ / ~ @.~.~.~.~.%.O.~ ~ ~ ~ / / / / ~ ~ ~ ~ ! / / / / / / / / / ~ ~ #.;.~.~./.;.O./ ( ^ D < ).4X=X-X=X-X=X>X",
";X;X-X-X;X<XqXi.X Z ^ / / / @.~.~.~.>.>.%.O.~ ~ / ~ / ~ / / / / ~ O./ ~ / / ! / ! ! +.;.~.>.>.~.:.O.~ / / Q p , OX4X-X;X=X-X=X<X",
";X;X-X-X<X<X3X*Xx p X./ / ~ ! @.~.~.>.>.>.:.;.~ ~ / / / ~ / / / ~ / / / / / ( ! +.:.>.~.>.>.>.;./ ~ / / ^ ' o f.3X-X=X;X-X=X-X=X",
"1X<X=X;X=X=X=X9Xq & Q / / / / ! +./.~.~.>.>.~.=.~ ~ ~ ~ / / / ~ / / / ~ ( ( ( O.>.>.>.>.>.>.~.O.~ ~ ! / ( T . z.wX=X;X;X<X=X<X<X",
"1X-X-X=X=X=X;X4XR.X S / / / / ! O.;.~.>.>.>.>.~.~.@.~ ~ / / / / / / / / / ! &.:.>.>.>.>.>.~.&.~ / / / ^ ^ * 0 #X3X=X;X=X=X=X-X<X",
"2X=X=X<X=X-X-X3X6X< C ^ / ~ / / ! &./.>.>.>.>.>./.:.~ ! ~ / / / / / O.~ ! O.~.~.>.>.>.>.>.~.@.! / ( / ^ | o q.rX3X=X=X-X-X=X-X>X",
"<X<X=X2X<X<X-X>X$X,.+ W  ./ / / ~ ( =.>.>.>.>.>.>.>.=.+.~ ~ ~ ~ ~ ~ ! O.O.:.~.~.>.>.>.>.>.#.~ / / ! ( ^ C 1 h.3X:X<X1X=X=X-X-X-X",
"=X=X<X=X<X=X<X2XqXE.. C  ./ / / ( / ~ ;.>.>.>.>.>.>./.>.%.%.%.#.%.=.#.;./.>.>.>.>.~.~.~.#.! ~ / / / ^ E = q 9X:X=X=X=X-X<X-X<X<X",
"=X=X=X=X<X-X<X<X<X*X0.X C ^ ^ / / / ~ O.;.>.~.>.>.>.>.>./.~.~.~.~./././.>.>././.~.:.~.@.~ ~ / / / ^ W u X x.8X:X<X=X<X=X<X=X=X<X",
"=X-X-X=X=X=X<X=X=XqXc.> + C ^ / / / / / / ~ @.:.;.;.>.>.>.>.>.>.>.>.>.:././.;.;.~.! ~ ~ / / / / ^ W - X 4 &X>X:X;X;X;X;X-X=X=X;X",
"=X=X-X1X<X=X=X<X=X<XeXz.5 & l  ./ / / / ~ ~ ~ ~ O.O.=.:.~.>.>.>.>.>.>.~.;.#.! O.~ ~ ~ ~ / / ~ / Q - ; x #X7X-X:X;X;X;X;X=X<X;X;X",
"<X=X<X<X<X=X<X<X<X:X7X`.x + = C  ./ / / / / / / ~ ~ ! +.:.~.~.~.>./.~.;.~ ! ~ O./ ~ / / ~ / / ^ : = + e.&X,X-X:X;X;X=X=X<X=X;X;X",
"=X=X<X<X<X2X<X-X<X=XeX4.L S.# m  ./ / / / ~ / ~ / ~ ~ ~ O.%.:.;.:.;.O.~ ~ ! O.! / / ~ / / ~ ^ W = i J.0 W.qX-X-X;X;X<X=X=X<X;X;X",
"-X=X=X=X=X;X;X;X-X0XW.3. XF.o - W ^ / / / ~ ~ ~ ~ ( / / / ~ / ~ ! ! ! ! / / / / / / / ! ~ ^ ^ M = y |.Q.5.5X3X-X;X;X=X=X=X<X=X=X",
"=X1X<X<X-X;X;X;X;XOXt Q.}.` # = : R ^ ^ ^ ^ ^ ^ ^ / / ( ~ / / / O.O.~ ~ / / ^ ^ ^ ( ^ ^ ^ | M - = # I.}.5.4.3X<X;X;X=X<X-X<X<X-X",
"-X-X<X<X=X<X<X<X4Xb.4 J.].m.+ @ = @ m R W W W W W Q o./ / ~ / / ~ / ~ ~ / ^ W W W W W W D - @ m @ y H.].Z.4 *X=X<X=X<X<X-X=X-X-X",
"-X=X=X-X=X=X<X<X>X@X1.z P s + @ @ m ; ; ; ; % % % : Y ^ ^  .^ / ^  ./  .Q R % % ; % % ; = = @ @ @ @ j n t d.3X=X<X=X<X<X<X<X-X-X",
";X;X-X-X=X=X=X<X-X8X$Xq., + 8 8 @ i A { m A T J * ; ; h C h h C M M : l - ; ; g S J p A K B @ @ 5 8 5 3 l.8X>X-X;X;X;X;X=X-X=X;X",
";X;X-X-X<X-X=X=X-X<X8Xl.c G G 8 @ = p ] p K m.F.(.) $ A J * & & * - u { p & S.(.B.m.j J { = = 8 N G G 6.+X1X<X=X;X;X;X;X<X=X;X;X",
";X;X;X;X;X;X<X=X<X-X7Xg.7.7.e.G + y u u u u [ [ P.T.I * B.B.` n.[ ` D.I w B.'.V.m.J e j f p & 9 w.6.w.7.v.4X=X;X;X;X;X;X;X;X-X-X",
";X;X;X;X;X;X;X=X<X1X1Xv.8.7.6.F a G.(.H.D.k b N.` P.(.g ` H.N.n.` F.H.k ` '.V.` n.g ) F.H.^.L 9 w.7.6.g.=X1X;X;X;X;X;X;X;X;X-X-X",
";X;X;X1X;X;X;X;X;X;X1X>Xg.<.0.q v S.D.(.T.V.k I N.U Y.N.g H.F.n.n.I.m.f P.C.` ` k I K.!.U.B.L a w.6.<.b.4X=X=X<X<X=X=X=X<X;X;X;X",
";X;X=X1X;X;X-X-X;X;X=X3X+X<.q.F e f b V.T.U.m.g ) [ V.V.w P b b b I j g H.n.m.j b F.!.P.n.g u 7 e.6.9.7X>X-X=X-X-X=X<X=X=X=X;X;X",
"-X=X-X=X;X;X;X;X;X;X;X<X3Xa.0.z b n.k b C.Y.n.g _ m.m.j w k g g g k j y _ m.m.j b F.I.n.g U n.g c q.v.>X<X<X=X=X;X;X<X=X;X;X;X;X",
"<X<X<X-X;X;X;X;X;X;X;X<X8Xc.2 M.U.V.[ k I N.m.j u ] J y _ m.m.m.B.m.m.j & ] L y L B.m.g I n.P.I.v q *X1X;X;X;X<X;X;X<X<X;X;X;X;X",
"<X<X<X<X=X=X;X;X-X=X=X:XqXh.3.oXtX{.N.b j S.A.p + 6 # J m.P.!.!.T.U.C.n.s + & o P S.A.w _ C.oXtX{.t OX4X<X<X=X=X=X<X=X=X;X;X;X;X",
"=X=X<X=X=X=X;X;X-X=X<X:XwX4.Q.tXXX!.V.J + A a 9 V a + K B.P.K.K.K.P.F.m.B 8 V V 1 P d y [ F..XXXyXM.OX1X<X<X-X<X-X<X-X<X;X;X;X;X",
"=X;X;X<X=X;X;X;X=X=X=X:XqXi.Z.XXT.P.] s 5 5 c w.e.G + J S.k w w r r _ S.s 5 e.w.G 0 5 5 j B.Y.!.}.3.W.4X<X=X<X=X<X<X-X-X<X1X;X;X",
"-X;X1X<X=X-X;X;X-X<X:X-XqXj.> n n v 1   c w.w.0.6.e.q i J b m.n.n._ b B 9 G 0.6.0.0.w.9 > e n 3.t 3 OX1X<X-X=X=X=X<X=X=X<X;X;X;X",
";X;X;X;X;X;X;X;X=X=X-X=X1X%Xu.4.4.y.y.d.u.<.7.7.6.6.e.9 d n.P.XX{.C.J 1 x q.0.7.,.7.<.k.s.y.5.4.i.j.;X<X<X<XOX;X=X=X;X;X;X;X;X;X",
";X;X;X<X;X;X<X;X=X<X1X=X-X1X4XqXwX8XwXwX%Xv.8.8.<.<.0.q d V.!.tXXXP.A.i 0.q.,.8.9.h.+X3XrXqX9X8X0X0X;X;X<X1X4X;X;X-X;X;X;X;X;X;X",
";X;X;X;X;X;X;X;X1X=X1X=X=X=X<X:X:X:X=X=X3X1X%X,Xk.9.7.0.7 D.!.!.!.!.P q r.8.u.v.1X=X0X<X<X=X:X:XOX4X;X;X<X<X;X;X;X-X;X;X;X;X;X;X",
";X;X;X;X;X;X;X;X-X-X<X<X<X<X<X<X<X=X<X=X<X<X>X>X4X%Xb.p.0 s F.U.U.N.2 c k.b.7X1X<X<X;X;X<X=X=X<X<X<X;X;X<X<X;X;X;X;X;X;X;X;X;X;X",
"-X<X;X;X;X;X-X<X;X;X;X;X=X<X=X-X<X-X-X-X<X=X<X-X1X,XqX+Xq.7 t.F.G.v 4 l.$X4X<X<X;X;X<X<X;X;X;X;X<X-X;X;X;X;X;X;X;X;X;X;X;X;X;X;X",
"<X<X;X;X;X;X-X-X;X;X;X;X-X=X=X=X-X-X<X=X-X=X=X-X<X<X-X0X).q X 1 1 , p.5X4X2X-X-X;X;X-X<X<X;X;X;X-X-X;X;X;X;X;X;X;X;X;X;X;X;X;X;X",
";X;X;X;X;X;X1X1X;X;X;X;X<X<X-X-X-X-X-X<X<X<X-X-X=X=X:X-X0X+Xy.2.<.g.*X1X-X<X:X<X;X;X;X;X<X;X;X;X;X;X-X-X;X;X;X;X;X;X;X;X-X-X;X;X",
";X;X;X;X;X;X;XOX;X;X;X;X=X;X-X-X-X<X-X<X<X<X-X<X=X:X-X:X:X>XwXeXeX0X:X-X:X<X:X-X;X;X;X;X;X;X;X;X;X;X-X-X;X;X;X;X;X;X;X<X<X1X-XOX"
};
