/* XPM */
static char *_8f73402adb44a94b791b34b56c7a8e9jjtvVGqQTrrjpQB3[] = {
/* columns rows colors chars-per-pixel */
"64 64 178 2 ",
"   c None",
".  c #5C422D",
"X  c #6C3C4A",
"o  c #354048",
"O  c #3C5D4C",
"+  c #7D5643",
"@  c #BC1237",
"#  c #FF2B3C",
"$  c #9F7854",
"%  c #6CD820",
"&  c #268556",
"*  c #1FA361",
"=  c #3EC259",
"-  c #B88312",
";  c #EDC329",
":  c #FF8A7B",
">  c #C5DF6A",
",  c #FFE976",
"<  c #9EAFB6",
"1  c #A1B2BB",
"2  c #A2B3BD",
"3  c #A3B4BD",
"4  c #A5B5BE",
"5  c #A8B7BD",
"6  c #A9B8BE",
"7  c #9FB2C5",
"8  c #A6B5C0",
"9  c #A8B8C0",
"0  c #A9B8C1",
"q  c #ABBBC2",
"w  c #ACBBC3",
"e  c #B1BEC3",
"r  c #B0BEC5",
"t  c #B0BEC6",
"y  c #B1BFC6",
"u  c #A9BCD3",
"i  c #ACBFD6",
"p  c #A8BCD8",
"a  c #B3C0C8",
"s  c #B3C1C9",
"d  c #B4C2C9",
"f  c #B5C2C9",
"g  c #B5C2CA",
"h  c #B7C4CB",
"j  c #BAC5C9",
"k  c #BEC8CD",
"l  c #AFC1DA",
"z  c #B5C7E1",
"x  c #B7C9E4",
"c  c #B5C9E8",
"v  c #C2CDD0",
"b  c #C1CCD3",
"n  c #C2CDD3",
"m  c #C3CDD4",
"M  c #C6D0D6",
"N  c #C6D1D6",
"B  c #C9D3D8",
"V  c #CAD3D8",
"C  c #CFD8DC",
"Z  c #CFD8DD",
"A  c #D3DBDF",
"S  c #C0D1EE",
"D  c #D6DEE2",
"F  c #D7DEE2",
"G  c #D9DFE2",
"H  c #C2D3F2",
"J  c #C5D7FB",
"K  c #C7D9FC",
"L  c #C9DAFC",
"P  c #CBDBFC",
"I  c #C9DBFF",
"U  c #CADCFF",
"Y  c #CBDDFF",
"T  c #CCDCFC",
"R  c #CDDCFC",
"E  c #CDDDFC",
"W  c #CEDDFC",
"Q  c #CEDEFC",
"!  c #CFDEFC",
"~  c #CEDEFF",
"^  c #CFDFFF",
"/  c #D0DEFC",
"(  c #D0DFFC",
")  c #D1DFFC",
"_  c #D1DFFD",
"`  c #D2DFFC",
"'  c #D9E1E4",
"]  c #DBE2E5",
"[  c #DFE4E8",
"{  c #DFE5E8",
"}  c #D3E0FC",
"|  c #D2E0FD",
" . c #D7E3FD",
".. c #D8E4FC",
"X. c #D8E4FD",
"o. c #D9E5FD",
"O. c #DBE6FD",
"+. c #DBE7FD",
"@. c #DCE6FD",
"#. c #DCE7FD",
"$. c #DDE7FD",
"%. c #DFE8F9",
"&. c #DDE8FD",
"*. c #DEE8FD",
"=. c #DFE8FD",
"-. c #DEE9FD",
";. c #DFE9FD",
":. c #E0E5E9",
">. c #E1E6E9",
",. c #E5EAED",
"<. c #E6EBED",
"1. c #E8ECEF",
"2. c #EAEDF0",
"3. c #EBEFF1",
"4. c #E0E9FD",
"5. c #E1EAFD",
"6. c #E2EBFD",
"7. c #E3EBFD",
"8. c #E1EAFE",
"9. c #E4ECFD",
"0. c #E5EDFD",
"q. c #E7EEFD",
"w. c #E4EDFE",
"e. c #E6EEFE",
"r. c #E9EFFE",
"t. c #ECF0F0",
"y. c #EEF1F2",
"u. c #EDF1F5",
"i. c #EFF2F4",
"p. c #EBF1FB",
"a. c #E9F0FE",
"s. c #EAF0FE",
"d. c #EBF0FE",
"f. c #EAF1FE",
"g. c #EBF1FE",
"h. c #EBF2FE",
"j. c #ECF2FE",
"k. c #EDF2FE",
"l. c #EDF3FE",
"z. c #EEF3FE",
"x. c #EFF3FE",
"c. c #EFF4FE",
"v. c #F1F3F3",
"b. c #F2F4F5",
"n. c #F2F4F6",
"m. c #F4F6F7",
"M. c #F0F4F9",
"N. c #F5F7F8",
"B. c #F0F4FE",
"V. c #F0F5FE",
"C. c #F1F5FE",
"Z. c #F1F6FE",
"A. c #F3F6FE",
"S. c #F3F7FE",
"D. c #F3F7FF",
"F. c #F4F7FE",
"G. c #F5F8FE",
"H. c #F4F8FF",
"J. c #F5F8FF",
"K. c #F6F8FF",
"L. c #F6F9FF",
"P. c #F7FAFE",
"I. c #F7FAFF",
"U. c #F8F9FA",
"Y. c #FAFBFB",
"T. c #FBFBFB",
"R. c #F8FAFF",
"E. c #FAFCFF",
"W. c #FBFCFF",
"Q. c gray99",
"!. c #FCFDFD",
"~. c #FDFDFD",
"^. c #FCFDFF",
"/. c #FDFDFF",
"(. c #FDFEFF",
"). c #FEFEFF",
"_. c #FEFFFF",
"`. c white",
/* pixels */
"`.`.`.`.`.`.`.`.`.`.`.`.`.`.`.`.`.`.`.`.`.`.`.`.`.`.`.`.`.`.`.`.`.`.`.`.`.`.`.`.`.`.`.`.`.`.`.`.`.`.`.`.`.`.`.`.`.`.`.`.`.`.`.`.",
"`.`.`.`.`.`.`.`.`.`.`.`.`.`.`.`.`.`.`.`.`.`.`.`.`.`.`.`.`.`.`.`.`.`.`.`.`.`.`.`.`.`.`.`.`.`.`.`.`.`.`.`.`.`.`.`.`.`.`.`.`.`.`.`.",
"`.`.`.`.`.`.`.`.`.`.`.`.`.`.`.`.`.`.`.`.`.`.`.`.`.A d `.`.`.`.X `.`.`.`.`.`.`.`.`.`.`.`.`.`.`.`.`.`.`.`.`.`.`.`.`.`.`.y.3 `.`.`.",
"`.`.`.`.`.`.`.`.`.`.`.`.`.`.`.`.`.`.`.`.`.`.`.`.B b [ y `.`.X , X `.`.`.`.`.`.`.`.`.`.`.`.`.`.`.`.`.`.`.`.`.`.`.`.`.:.q b.2 `.`.",
"`.`.`.`.`.`.`.`.`.`.`.`.`.`.`.`.`.`.`.`.`.`.`.`.b.M d 3.`.X - , - X `.`.`.`.`.`.`.`.`.`.`.`.`.`.`.`.`.`.`.`.`.`.`.`.N.F w 1.`.`.",
"`.`.`.`.`.`.`.w.a.`.`.`.`.`.`.`.`.`.`.`.`.`.`.`.`.b.X X X - , , , - X X X `.`.`.`.c.7.`.`.`.`.`.`.`.`.`.`.`.`.`.`.`.`.`.:.`.`.`.",
"`.`.`.`.`.7.G.O.;.`.`.`.`.`.`.`.`.`.`.`.`.`.`.`.`.`.X - , , , , , , , - X `.`.a.a.a.| `.`.`.`.`.`.`.`.`.`.`.`.`.`.`.`.`.`.`.`.`.",
"`.`.`.`.`.) c.#.;.`.`.`.`.`.`.`.`.`.`.`.`.`.`.`.`.`.`.o - ; , , , ; - o `.`.`.;.;.a.) `.`.`.`.`.`.`.`.`.`.`.`.`.`.`.`.`.`.`.`.`.",
"`.`.`.`.`.! r.x.B.`.`.`.`.`.`.`.`.`.`.`.`.`.`.`.`.`.`.o o - ; ; ; - o o `.`.`.O.O.G.x.`.`.`.`.`.`.`.`.`.`.`.`.`.`.`.`.`.`.`.`.`.",
"`.`.`.`.`.r.A.`.`.`.`.`.`.`.`.`.`.`.`.`.`.`.`.`.`.`.`.X - ; - X - ; - X `.`.`.x.a.`.`.`.`.`.`.`.`.`.`.`.`.`.`.`.`.`.`.`.`.`.`.`.",
"`.`.`.`.`.`.`.`.`.`.`.`.`.`.`.`.`.`.`.`.`.`.`.`.`.`.o o ; - X X X - ; o o `.`.`.`.`.`.`.`.`.`.`.`.`.`.`.`.`.`.`.`.`.`.`.`.`.`.r.",
"`.`.`.`.`.`.`.`.`.`.`.`.`.`.`.`.`.`.`.`.`.`.`.`.`.O O o o O & & & O o o O O `.`.`.`.`.`.`.`.`.`.`.`.`.`.`.`.`.`.`.`.`.`.`.`.a.O.",
"`.`.`.`.`.`.`.`.`.`.`.`.`.`.`.`.`.`.`.`.`.`.`.`.O O * % % = % > % = % % * O O `.`.`.`.`.`.`.`.`.`.`.`.`.`.`.`.`.`.`.`.`.`.R.| G.",
"`.`.`.`.`.`.`.`.`.`.`.`.`.`.`.`.`.`.`.`.`.`.`.`.o * % % = = % > % = = % % * o `.`.`.`.`.`.`.`.`.`.`.`.`.`.`.`.`.`.`.`.`.`.`.`.( ",
"`.`.`.`.m.`.`.`.`.`.`.`.`.`.`.`.`.`.`.`.`.`.o O * = = * = & % % % = = * = = * O o `.`.`.`.`.`.`.`.`.`.`.`.`.`.`.`.`.`.`.`.`.`.`.",
"`.`.`.Y.4 ' `.`.`.`.`.`.`.`.`.`.`.`.`.`.`.o O = % % = = X # & & = * * = = % % = O o `.`.`.`.`.`.`.`.`.`.`.`.`.`.`.`.`.`.`.`.`.`.",
"`.`.`.1 b.y F `.`.`.`.`.`.`.`.`.`.`.`.`.`.O = % % = * X : : : # X * = = * = % % = O `.`.`.`.`.`.`.`.`.`.`.`.`.`.`.`.`.`.`.`.`.`.",
"`.`.`.Y.4 ' `.`.`.`.`.`.`.`.`.`.`.`.`.`.`.o O X & * = X # : # # X = % % = * * & O o `.`.`.`.`.`.`.`.`.`.`.`.`.`.`.`.`.`.`.`.`.`.",
"`.`.`.`.m.Y.`.`.`.`.`.`.`.`.`.`.`.`.`.`.`.o X ; & & % > X # # X % = % > % = & X o o `.`.`.`.`.`.`.`.`.`.`.`.`.`.`.`.`.`.`.`.`.`.",
"`.`.`.`.`.`.`.`.`.`.`.`.`.`.`.`.`.`.`.o O * X , ; X > % = X X > > % = % > = & , X * O o `.`.`.`.`.`.`.`.`.`.`.`.`.`.`.`.`.`.`.`.",
"`.`.`.`.`.`.`.`.`.`.`.`.`.`.`.`.`.`.o O = % % X X * = = * = % = % = * = = & , ; X % = O o `.`.`.`.`.`.`.`.`.`.`.`.`.`.`.`.`.`.`.",
"+.`.`.`.`.`.`.`.`.`.`.`.`.`.`.`.`.`.O = % % = * = = & & * * * * * * * & & * X X = % % = O `.`.`.`.`.`.`.`.`.`.`.`.`.`.`.`.`.`.`.",
"L `.`.4.G.`.`.`.`.`.`.`.`.`.`.`.`.`.o O & * * = % % = = = % * = * % = = = % % = * * & O o `.`.`.`.`.`.`.`.`.`.a.r.`.`.`.`.`.`.`.",
"Y v 4.Y G.`.`.`.`.`.`.`.`.`.`.`.`.`.o o O & = % > % = % > % = % = % % % = % % % = & O o o `.`.`.`.`.`.`.`.`.`.;.O.`.`.`.`.`.`.`.",
"u u P p u.`.`.`.`.`.`.`.`.`.`.`.`.o o & * & % % % = % > % & = % = = % % % = % % % & * & o o `.`.`.`.`.`.`.`.`.4.O.G.a.`.`.`.`.`.",
"v z l j v.`.`.`.`.`.`.`.`.`.`.`.o & = % = * * = = * = % X & & % = * = % = * = = * * = % = & o `.`.`.`.`.`.`.`.4.;.B.Y `.`.`.`.`.",
"`.j y `.`.`.`.`.`.`.`.`.`.`.`.`.o * % = = * * & & * * X ; , & = & * * * & X & & * * = = % * o `.`.`.`.`.`.`.`.a.r.x.) `.`.`.`.`.",
"`.`.`.`.`.`.`.`.`.`.`.`.`.`.`.o O X & = = * = = * * & X , ; X & & & & & ; , X = = * * & O O o o `.`.`.`.`.`.`.`.`.c.;.`.`.`.`.`.",
"`.`.`.`.`.`.`.`.`.`.`.`.`.`.`.o X ; & & & = % % = * & * X X * & * * = X , ; X % % = & O O o O o `.`.`.`.`.`.`.`.`.`.`.`.`.`.`.`.",
"`.`.`.`.`.`.`.`.`.`.`.`.`.`.`.o X , ; X & % % = * & & = % = * & * = % = X X * = % % & X X o o o `.G.`.`.`.`.`.`.`.`.`.`.`.`.`.`.",
"`.`.`.`.`.`.`.`.`.`.`.`.`.`.G.L o X X O & = = * O & & % % = * & * = % % & & O * = * X ; , X o `.R.! B.`.`.`.`.`.`.`.`.`.`.`.`.`.",
"`.`.`.`.`.`.`.`.`.`.`.`.`.A.! o O & * * O & & O & & & % = * & O & % = % & & & O & & X , ; X O o L `.| B.`.`.`.`.`.`.`.`.`.`.`.`.",
"`.`.`.`.`.`.`.`.`.`.`.`.`.`.o & = = = = & O O & & O & = * & O O O & % = & O & & O O & X X = = & o ! B.`.`.`.`.`.`.`.`.`.`.`.`.`.",
"`.`.`.`.`.`.`.`.`.`.`.`.`.o o * * = = * * & O & O O O * * & O & O O & * O O O & O & * * = = * * o o `.`.`.`.`.`.`.`.`.`.`.`.`.`.",
"`.`.`.`.`.`.`.`.`.`.`.`.`.o O O O & * * = = * = & O O & & X & & & O & O O O & = * = = * * & O O O o `.`.`.`.`.`.`.`.`.`.`.`.`.`.",
"`.`.`.`.`.`.`.`.`.`.`.`.`.o & O O O & = = * = * & * O O O , X = * & & * = * & * = * = = & O O O & o `.`.`.`.`.`.`.`.`.`.`.`.`.`.",
"`.`.`.`.`.`.`.`.`.`.`.`.`.`.O & o O X & * = * & & = * X , ; X = = & & = * = & & * = * = O O o & O `.`.`.`.`.`.`.`.`.`.N.y `.`.`.",
"`.`.`.`.`.`.`.`.`.`.`.`.`.`.o o O X ; & & & O O & * = * X X = = * O & * = * & O O & = * O O O o o `.`.`.`.`.`.`.`.`.<.d [ a `.`.",
"`.`.`.`.`.`.`.`.`.`.`.`.`.`.o O & X , ; X O o O & = = * & O * = * O & * = = & O o O O O O & & O o `.`.`.`.`.`.`.`.`.y.M b C `.`.",
"`.`.`.`.`.`.`.x.x.`.`.`.`.o O & * * X X O o o O & = * & O o & * & o O & * O O # X o O O & * * & O o `.`.`.`.`.`.`.`.`.Y.V `.`.`.",
"`.`.`.`.`.x.G.O.;.`.`.`.o & * * * & O O O O o O O * & & o o O & O o o & X : : : # X O O O & * * * & o `.`.`.`.`.`.`.`.`.`.`.`.`.",
"`.`.`.`.`.Y x.;.;.`.`.`.o O & * & O O & * & O O O & O o O o O O O o O o X # : # # X * & O O & * & O o `.`.`.`.`.`.`.`.`.`.`.`.`.",
"`.`.`.`.`.( a.a.a.`.`.`.`.o o O O O & * * & & O O O O O O O & O O O O O O X # # X & * * & O O O o o `.`.`.`.`.`.`.`.`.`.`.`.`.`.",
"`.`.`.`.`.;.x.`.`.`.`.`.`.o O o o & * * & * & O O & & O O & O & O O & O & & X X & * & * * & o o O o `.`.`.`.`.`.`.`.`.`.`.`.`.`.",
"`.`.`.`.`.`.`.`.`.`.`.`.`.`.o O o & * & X O O X * & * & O O & * & o O & * & * O & X * & * & o O o `.`.`.`.`.`.`.`.`.`.`.`.`.`.G.",
"`.`.`.`.`.`.`.`.`.`.`.`.`.`.o o o & & X : : : # X * * & o O * * & O o & * * & O O , X & & & o o o `.`.`.`.`.`.`.`.`.`.`.`.`.R.Y ",
"`.`.`.`.`.`.`.`.`.`.`.`.`.`.`.`.o O & X # : # # X * & X o O & & * O O O & * * X , ; X O & O o `.`.`.`.`.`.`.`.`.`.`.`.`.`.!.! !.",
"`.`.`.`.`.`.`.`.`.`.`.`.`.`.`.`.o o o o X # # X & & X ; O O O * & O o O o & & O X X o o o o o `.`.`.`.`.`.`.`.`.`.`.`.`.`.`.`.L ",
"`.`.`.`.`.`.`.`.`.`.`.`.`.`.`.`.`.`.`.o o X X O O o X , ; X o & O o o o O o O O o o o o `.`.`.`.`.`.`.`.`.`.`.`.`.`.`.`.`.`.`.!.",
"`.`.`.`.0 ,.`.`.`.`.`.`.`.`.`.`.`.`.`.`.`.`.o o o o o X X o o o o o o o o o o o o `.`.`.`.`.`.`.`.`.`.`.`.`.`.`.`.`.`.`.`.`.`.`.",
"`.`.`.6 3.y ' `.`.`.`.`.`.`.`.`.`.`.`.`.`.`.`.`.o o o . . o o o o o . o o o o o m `.`.`.`.`.`.`.`.`.`.`.`.`.`.`.`.`.`.`.`.`.`.`.",
"`.`.`.,.y C b.`.`.`.`.`.`.`.`.`.`.`.`.`.`.`.`.o o o . . + . o o o . $ + . o o o o `.`.`.`.`.`.`.`.`.`.`.`.`.`.`.`.`.`.`.`.`.`.`.",
"`.`.`.`.:.Y.`.`.`.`.`.`.`.`.`.`.`.`.`.`.`.`.`.o O o + + $ + . o + + + $ $ + o O o `.`.`.`.`.`.`.`.`.`.`.`.`.`.`.`.`.`.`.`.`.`.`.",
"`.`.`.`.`.`.`.`.`.`.`.`.`.`.`.`.`.`.`.`.`.X o o & o . . $ + . . . + + $ . . o & o o X `.`.`.`.`.`.`.`.`.`.`.`.`.`.`.`.`.`.`.`.`.",
"`.`.`.`.`.`.`.`.`.`.`.`.`.`.`.`.`.`.`.X X @ # o O & O o o o o o o o o o o O & O o # @ X X `.`.`.`.`.`.`.`.`.`.`.`.`.`.`.`.`.`.`.",
"w.`.`.`.`.`.`.`.`.`.`.`.`.`.`.`.o X X @ # # # X O O * * * = = = = = = * * * O O X @ # # # X X o `.`.`.`.`.`.`.`.`.`.`.`.`.`.`.`.",
"K `.`.a.!.`.`.`.`.`.`.`.`.`.`.`.o # # # # @ @ @ X o O & & * * * * * * & & O o X @ @ @ # # # # o `.`.`.`.`.`.`.B.c.`.`.`.`.`.`.`.",
"Y G p.I B.`.`.`.`.`.`.`.`.`.`.`.`.o o @ @ @ @ # # @ @ X X X X X X X X X X X @ # # @ @ @ # X o `.`.`.`.`.`.`.`.#. .`.`.`.`.`.`.`.",
"x 8 J c M.`.`.`.`.`.`.`.`.`.`.`.`.`.o o X X # # @ @ @ @ # # # @ @ # # # @ X X @ # # # # X o `.`.`.`.`.`.`.`.`.7.O.!.B.`.`.`.`.`.",
"8 H S 4 y.`.`.`.`.`.`.`.`.`.`.`.`.`.`.`.X X X @ @ @ # # # # # @ @ @ # # # @ @ @ @ X X o o o `.`.`.`.`.`.`.`.`.7.;.c.) `.`.`.`.`.",
"`.5 < Y.`.`.`.`.`.`.`.`.`.`.`.`.`.`.`.`.o o o o o o X X # # @ X X o o # # # @ o o o `.`.`.`.`.`.`.`.`.`.`.`.`.w.9.x.| `.`.`.`.`.",
"`.`.`.`.`.`.`.`.`.`.`.`.`.`.`.`.`.`.`.`.`.`.`.7.7.`.`.o o o o o o o o o o o o `.`.`.`.`.`.`.`.`.`.`.`.`.`.`.`.`.`.r.+.`.`.`.`.`.",
"`.`.`.`.`.`.`.`.`.`.`.`.`.`.`.`.`.`.`.`.`.`.`.`.`.`.`.`.`.`.`.`.`.`.`.`.`.`.`.`.`.`.`.`.`.`.`.`.`.`.`.`.`.`.`.`.`.`.`.`.`.`.`.`.",
"`.`.`.`.`.`.`.`.`.`.`.`.`.`.`.`.`.`.`.`.`.`.`.`.`.`.`.`.`.`.`.`.`.`.`.`.`.`.`.`.`.`.`.`.`.`.`.`.`.`.`.`.`.`.`.`.`.`.`.`.`.`.`.`.",
};