/* XPM */
static char *_bbd08cb6fe04286b02055d2640213bcGixHpUjKKQkPAtCC[] = {
/* columns rows colors chars-per-pixel */
"64 64 144 2 ",
"   c None",
".  c #96A8B1",
"X  c #9EAFB6",
"o  c #A3B4BD",
"O  c #A8B7BD",
"+  c #AAB8BF",
"@  c #9FB2C5",
"#  c #A6B5C0",
"$  c #AAB9C2",
"%  c #B1BEC5",
"&  c #A6BAD1",
"*  c #ABBED5",
"=  c #A8BCD8",
"-  c #B5C2CA",
";  c #BAC6CC",
":  c #BEC8CD",
">  c #AFC2DA",
",  c #BEC9D0",
"<  c #B5C6DD",
"1  c #B8C8D8",
"2  c #AEC2E1",
"3  c #B5C7E1",
"4  c #B7C9E4",
"5  c #BCCDE7",
"6  c #B5C9E8",
"7  c #B8CCEE",
"8  c #BED0EE",
"9  c #C2CDD3",
"0  c #C6D1D6",
"q  c #C8D2D5",
"w  c #CAD4D9",
"e  c #CFD8DD",
"r  c #D3DBDF",
"t  c #C3D3EC",
"y  c #D5DDE2",
"u  c #D9DFE1",
"i  c #C2D3F2",
"p  c #C6D8F7",
"a  c #C2D4FB",
"s  c #C7D9FC",
"d  c #CCDCFD",
"f  c #D1DFFC",
"g  c #DBE2E5",
"h  c #DCE3EA",
"j  c #CFE0FF",
"k  c #D3E1FD",
"l  c #DBE6FD",
"z  c #DEE8FD",
"x  c #E2E7E7",
"c  c #E1E6E9",
"v  c #E5EAED",
"b  c #E9ECEF",
"n  c #E5EBF4",
"m  c #EAEEF0",
"M  c #E4ECFD",
"N  c #E5ECFD",
"B  c #E5EDFD",
"V  c #E6EEFD",
"C  c #E7EEFD",
"Z  c #E4EDFE",
"A  c #E5EDFE",
"S  c #E6EDFE",
"D  c #E6EDFF",
"F  c #E6EEFE",
"G  c #E1EAFD",
"H  c #E8EFFE",
"J  c #E9EFFE",
"K  c #E9EFFF",
"L  c #ECF0F0",
"P  c #EDF0F2",
"I  c #EEF1F2",
"U  c #EEF1F3",
"Y  c #EDF1F5",
"T  c #EFF2F4",
"R  c #EBF1FB",
"E  c #E9F0FE",
"W  c #EAF0FE",
"Q  c #EBF0FE",
"!  c #EAF1FE",
"~  c #EBF1FE",
"^  c #EBF2FE",
"/  c #ECF2FE",
"(  c #EDF2FE",
")  c #ECF3FE",
"_  c #EDF3FE",
"`  c #EEF3FE",
"'  c #EFF3FE",
"]  c #EEF4FE",
"[  c #EFF4FE",
"{  c #F0F2F3",
"}  c #F1F3F3",
"|  c #F2F4F5",
" . c #F2F4F6",
".. c #F4F6F7",
"X. c #F0F4F9",
"o. c #F5F7F8",
"O. c #F0F4FE",
"+. c #F0F5FE",
"@. c #F1F5FE",
"#. c #F1F6FE",
"$. c #F2F6FE",
"%. c #F3F6FE",
"&. c #F2F7FE",
"*. c #F3F7FE",
"=. c #F3F7FF",
"-. c #F4F7FE",
";. c #F4F7FF",
":. c #F7F8F9",
">. c #F7F9FA",
",. c #F5F8FE",
"<. c #F4F8FF",
"1. c #F5F8FF",
"2. c #F6F8FE",
"3. c #F6F9FE",
"4. c #F7F9FE",
"5. c #F6F8FF",
"6. c #F6F9FF",
"7. c #F7F9FF",
"8. c #F7FAFE",
"9. c #F7FAFF",
"0. c #F8F9FA",
"q. c #F9FAFA",
"w. c #F9FAFB",
"e. c #FAFBFB",
"r. c #FBFBFB",
"t. c #F8FBFE",
"y. c #F8FAFF",
"u. c #F9FBFF",
"i. c #FBFCFC",
"p. c #F9FDFF",
"a. c #FAFCFF",
"s. c #FBFCFF",
"d. c gray99",
"f. c #FCFCFD",
"g. c #FCFDFD",
"h. c #FDFDFD",
"j. c #FCFDFF",
"k. c #FDFDFF",
"l. c #FDFEFF",
"z. c #FDFFFF",
"x. c #FEFEFF",
"c. c #FEFFFF",
"v. c white",
"b. c white",
/* pixels */
"v.v.v.v.v.v.v.v.v.v.v.v.v.v.v.v.v.v.v.v.v.v.v.v.v.v.v.v.v.v.v.v.v.v.v.v.v.v.v.v.v.v.v.v.v.v.v.v.v.v.v.v.v.v.v.v.v.v.v.v.v.v.v.v.",
"v.v.v.v.v.v.v.v.v.v.v.v.v.v.v.v.v.v.v.v.v.v.v.v.v.v.v.v.v.v.v.v.v.v.v.v.v.v.v.v.v.v.v.v.v.v.v.v.v.v.v.v.v.v.v.v.v.v.v.v.v.v.v.v.",
"v.v.v.v.v.v.v.v.v.v.v.v.v.v.v.v.v.v.v.v.v.v.v.v.v.r - v.v.v.v.v.v.v.v.v.v.v.v.v.v.v.v.v.v.v.v.v.v.v.v.v.v.v.v.v.v.v.v.I o v.v.v.",
"v.v.v.v.v.v.v.v.v.v.v.v.v.v.v.v.v.v.v.v.v.v.v.v.w 9 c $ v.v.v.v.v.v.v.v.v.v.v.v.v.v.v.v.v.v.v.v.v.v.v.v.v.v.v.v.v.v.c $ | o v.v.",
"v.v.v.v.v.v.v.v.v.v.v.v.v.v.v.v.v.v.v.v.v.v.v.v.| 0 - m v.v.v.v.v.v.v.v.v.v.v.v.v.v.v.v.v.v.v.v.v.v.v.v.v.v.v.v.v.v.>.y $ b v.v.",
"v.v.v.v.v.v.v.A E v.v.v.v.v.v.v.v.v.v.v.v.v.v.v.v.| v v.v.v.v.v.v.v.v.v.v.v.v.v.v.' z v.v.v.v.v.v.v.v.v.v.v.v.v.v.v.v.v.c v.v.v.",
"v.v.v.v.v.M ,.l z v.v.v.v.v.v.v.v.v.v.v.v.v.v.v.v.v.v.v.v.v.v.v.v.v.v.v.v.v.v.E ' E k v.v.v.v.v.v.v.v.v.v.v.v.v.v.v.v.v.v.v.v.v.",
"v.v.v.v.v.f [ l z v.v.v.v.v.v.v.v.v.v.v.v.v.v.v.v.v.v.v.v.v.v.v.v.v.v.v.v.v.v.z z E f v.v.v.v.v.v.v.v.v.v.v.v.v.v.v.v.v.v.v.v.v.",
"v.v.v.v.v.f J ' @.v.v.v.v.v.v.v.v.v.v.v.v.v.v.v.v.v.v.v.v.v.v.v.v.v.v.v.v.v.v.l l ,.' v.v.v.v.v.v.v.v.v.v.v.v.v.v.v.v.v.v.v.v.v.",
"v.v.v.v.v.J @.v.v.v.v.v.v.v.v.v.v.v.v.v.v.v.v.v.v.v.v.v.v.v.v.v.v.v.v.v.v.v.v.' E v.v.v.v.v.v.v.v.v.v.v.v.v.v.v.v.v.v.v.v.v.v.v.",
"v.v.v.v.v.v.v.v.v.v.v.v.v.v.v.v.v.v.v.v.v.v.v.v.v.v.v.v.i.E v.v.v.v.v.v.v.v.v.v.v.v.v.v.v.v.v.v.v.v.v.v.v.v.v.v.v.v.v.v.v.v.v.J ",
"v.v.v.v.v.v.v.v.v.v.v.v.v.v.v.v.v.v.v.v.v.v.v.v.v.v.v.i.A l ' v.v.v.v.v.v.v.v.v.v.v.v.v.v.v.v.v.v.v.v.v.v.v.v.v.v.v.v.v.v.v.E l ",
"v.v.v.v.v.v.v.v.v.v.v.v.v.v.v.v.v.v.v.v.v.v.v.v.v.v.v.[ l @.k v.v.v.v.v.v.v.v.v.v.v.v.v.v.v.v.v.v.v.v.v.v.v.v.v.v.v.v.v.v.a.f -.",
"v.v.v.v.v.v.v.v.v.v.v.v.v.v.v.v.v.v.v.v.v.v.v.v.v.v.v.v.,.k v.v.v.v.v.v.v.v.v.v.v.v.v.v.v.v.v.v.v.v.v.v.v.v.v.v.v.v.v.v.v.v.v.f ",
"v.v.v.v.o.v.v.v.v.v.v.v.v.v.v.v.v.v.v.v.v.v.v.v.v.v.v.v.v.v.v.v.v.v.v.v.v.v.>.a.v.v.v.v.v.v.v.v.v.v.v.v.v.v.v.v.v.v.v.v.v.v.v.v.",
"v.v.v.q.o g v.v.v.v.v.v.v.v.v.v.v.v.v.v.v.v.v.v.v.v.v.v.v.v.v.v.v.v.v.v.v.i.; 9 i.v.v.v.v.v.v.v.v.v.v.v.v.v.v.v.v.v.v.v.v.v.v.v.",
"v.v.v.o } % y v.v.v.v.v.v.v.v.v.v.v.v.v.v.v.v.v.v.v.v.v.v.v.v.v.v.v.v.v.v.% g w : v.v.v.v.v.v.v.v.v.v.v.v.v.v.v.v.v.v.v.v.v.v.v.",
"v.v.v.q.o g v.v.v.v.v.v.v.v.v.v.v.v.v.v.v.v.v.v.v.v.v.v.v.v.v.v.v.v.v.v.v.a.; 9 a.v.v.v.v.v.v.v.v.v.v.v.v.v.v.v.v.v.v.v.v.v.v.v.",
"v.v.v.v...i.v.v.v.v.v.v.v.v.v.v.v.v.v.v.v.v.v.v.v.v.v.v.v.v.v.v.v.v.v.v.v.v.>.q.v.v.v.v.v.v.v.v.v.v.v.v.v.v.v.v.v.v.v.v.v.v.v.v.",
"v.v.v.v.v.v.v.v.v.v.v.v.v.v.v.v.v.v.v.v.v.v.v.v.v.v.v.v.v.v.v.v.v.v.v.v.v.v.v.v.v.v.v.v.v.v.v.v.v.v.v.v.v.v.v.v.v.v.v.v.v.v.v.v.",
"v.v.v.v.v.v.v.v.v.v.v.v.v.v.v.v.v.v.v.v.v.v.v.v.v.v.v.v.v.v.v.v.v.k v.v.v.v.v.v.v.v.v.v.v.v.v.v.v.v.v.v.v.v.v.v.v.v.v.v.v.v.v.v.",
"l v.v.v.v.v.v.v.v.v.v.v.v.v.v.v.v.v.v.v.v.v.v.v.v.v.v.v.v.v.v.v.v.d k ,.v.v.v.v.v.v.v.v.v.v.v.v.v.v.v.v.v.v.v.v.v.v.v.v.v.v.v.v.",
"s v.v.M ,.v.v.v.v.v.v.v.v.v.v.v.v.v.v.v.v.A @.v.v.v.v.v.v.v.v.v.v.d a v.v.A ' v.v.v.v.v.v.v.v.v.v.v.v.v.v.v.v.' A v.v.v.v.v.v.v.",
"d 9 z d ,.v.v.v.v.v.v.v.v.v.v.v.v.v.v.v.v.k A v.v.v.v.v.v.v.v.v.v.A l 9 h d J v.v.v.v.v.v.v.v.v.v.v.v.v.v.v.v.z l v.v.v.v.v.v.v.",
"* > d = Y v.v.v.v.v.v.v.v.v.v.v.v.v.v.v.v.k E @.@.v.v.v.v.v.v.v.v.v.1 & p 2 h v.v.v.v.v.v.v.v.v.v.v.v.v.v.v.v.G l a.E v.v.v.v.v.",
": < > - } v.v.v.v.v.v.v.v.v.v.v.v.v.v.v.v.f ' z l v.v.v.v.v.v.v.v.v.9 < > - x v.v.v.v.v.v.v.v.v.v.v.v.v.v.v.v.G l ' d v.v.v.v.v.",
"v.; $ v.v.v.v.v.v.v.v.v.v.v.v.v.v.v.v.v.v.Z -.l z v.v.v.v.v.v.v.v.v.v.0 + I v.v.v.v.v.v.v.v.v.v.v.v.v.v.v.v.v.E E ' f v.v.v.v.v.",
"v.v.v.v.v.v.v.v.v.v.v.v.v.v.v.v.v.v.v.v.v.v.v.A A v.v.v.v.v.v.v.v.v.v.v.v.v.v.v.v.v.v.v.v.v.v.v.v.v.v.v.v.v.v.v.v.[ z v.v.v.v.v.",
"v.v.v.v.v.v.v.v.v.v.v.v.v.v.v.v.v.v.v.v.v.v.v.v.v.v.v.v.v.v.v.v.v.v.v.v.v.v.v.v.v.v.v.v.v.v.v.v.v.v.v.v.v.v.v.v.v.v.v.v.v.v.v.v.",
"v.v.v.v.v.v.v.v.v.v.v.v.v.v.v.,.v.v.v.v.v.v.v.v.v.v.v.v.v.v.v.v.v.v.v.v.v.v.v.v.v.v.v.v.v.v.v.v.v.,.v.v.v.v.v.v.v.v.v.v.v.v.v.v.",
"v.v.v.v.v.v.v.v.v.v.v.v.v.v.-.d a.v.v.v.v.v.v.v.v.v.v.v.v.v.v.v.v.v.v.v.v.v.v.v.v.v.v.v.v.v.v.v.v.d @.v.v.v.v.v.v.v.v.v.v.v.v.v.",
"v.v.v.v.v.v.v.v.v.v.v.v.v.,.d v.d i.v.v.v.v.v.v.v.v.v.v.v.v.v.v.v.v.v.v.v.v.v.v.v.v.v.v.v.v.v.v.d v.d @.v.v.v.v.v.v.v.v.v.v.v.v.",
"v.v.v.v.v.v.v.v.v.v.v.v.v.v.a.s v.v.v.v.v.v.v.v.v.v.v.v.v.v.v.v.v.v.v.v.v.v.v.v.v.v.v.v.v.v.v.v.v.d -.v.v.v.v.v.v.v.v.v.v.v.v.v.",
"v.v.v.v.v.v.v.v.v.v.v.v.v.v.v.i.v.v.v.v.v.v.v.v.v.v.v.v.v.v.v.v.v.v.v.v.v.v.v.v.v.v.v.v.v.v.v.v.v.a.v.v.v.v.v.v.v.v.v.v.v.v.v.v.",
"v.v.v.v.v.v.v.v.v.v.v.v.v.v.v.v.v.v.v.v.v.v.v.v.v.v.v.v.v.v.v.v.v.v.v.v.v.v.v.v.v.v.v.v.v.v.v.v.v.v.v.v.v.v.v.v.v.v.v.v.v.v.v.v.",
"v.v.v.v.v.v.v.v.v.v.v.v.v.v.v.v.v.v.v.v.v.v.v.v.v.v.v.v.v.v.v.v.v.v.v.v.v.v.v.v.v.v.v.v.v.v.v.v.v.v.v.v.v.v.v.v.v.v.v.v.v.v.v.v.",
"v.v.v.v.v.v.v.v.v.v.v.v.v.v.v.v.v.v.v.v.v.v.v.v.v.g 9 v.v.v.v.v.v.v.v.v.v.v.v.v.v.v.v.v.v.v.v.v.v.v.v.v.v.v.v.v.v.v.v.o.% v.v.v.",
"v.v.v.v.v.v.v.v.v.v.v.v.v.v.v.v.v.v.v.v.v.v.v.v.r 9 y : v.v.v.v.v.v.v.v.v.v.v.v.v.v.v.v.v.v.v.v.v.v.v.v.v.v.v.v.v.v.v - h - v.v.",
"v.v.v.v.v.v.v.v.v.v.v.v.v.v.v.v.v.v.v.v.v.v.v.v.c 9 , y v.v.v.v.v.v.v.v.v.v.v.v.v.v.v.v.v.v.v.v.v.v.v.v.v.v.v.v.v.v.I 0 9 e v.v.",
"v.v.v.v.v.v.v.' [ v.v.v.v.v.v.v.v.v.v.v.v.v.v.v.v.b y v.v.v.v.v.v.v.v.v.v.v.v.v.v.@.E v.v.v.v.v.v.v.v.v.v.v.v.v.v.v.v.q.w v.v.v.",
"v.v.v.v.v.' ,.l z v.v.v.v.v.v.v.v.v.v.v.v.v.v.v.v.v.v.v.v.v.v.v.v.v.v.v.v.v.v.@.@.J f v.v.v.v.v.v.v.v.v.v.v.v.v.v.v.v.v.v.v.v.v.",
"v.v.v.v.v.d ' z z v.v.v.v.v.v.v.v.v.v.v.v.v.v.v.v.v.v.v.v.v.v.v.v.v.v.v.v.v.v.l z [ k v.v.v.v.v.v.v.v.v.v.v.v.v.v.v.v.v.v.v.v.v.",
"v.v.v.v.v.f E E J v.v.v.v.v.v.v.v.v.v.v.v.v.v.v.v.v.v.v.v.v.v.v.v.v.v.v.v.v.v.z z [ M v.v.v.v.v.v.v.v.v.v.v.v.v.v.v.v.v.v.v.v.v.",
"v.v.v.v.v.z [ v.v.v.v.v.v.v.v.v.v.v.v.v.v.v.v.v.v.v.v.v.v.v.v.v.v.v.v.v.v.v.v.A A v.v.v.v.v.v.v.v.v.v.v.v.v.v.v.v.v.v.v.v.v.v.v.",
"v.v.v.v.v.v.v.v.v.v.v.v.v.v.v.v.v.v.v.v.v.v.v.v.v.v.v.v.v.,.v.v.v.v.v.v.v.v.v.v.v.v.v.v.v.v.v.v.v.v.v.v.v.v.v.v.v.v.v.v.v.v.v.,.",
"v.v.v.v.v.v.v.v.v.v.v.v.v.v.v.v.v.v.v.v.v.v.v.v.v.v.v.v.[ d a.v.v.v.v.v.v.v.v.v.v.v.v.v.v.v.v.v.v.v.v.v.v.v.v.v.v.v.v.v.v.v.,.d ",
"v.v.v.v.v.v.v.v.v.v.v.v.v.v.v.v.v.v.v.v.v.v.v.v.v.v.v.[ k a.d v.v.v.v.v.v.v.v.v.v.v.v.v.v.v.v.v.v.v.v.v.v.v.v.v.v.v.v.v.v.i.d v.",
"v.v.v.v.v.v.v.v.v.v.v.v.v.v.v.v.v.v.v.v.v.v.v.v.v.v.v.v.-.d v.v.v.v.v.v.v.v.v.v.v.v.v.v.v.v.v.v.v.v.v.v.v.v.v.v.v.v.v.v.v.v.v.d ",
"v.v.v.v.v.v.v.v.v.v.v.v.v.v.v.v.v.v.v.v.v.v.v.v.v.v.v.v.v.i.v.v.v.v.v.v.v.v.v.v.v.v.v.v.v.v.v.v.v.v.v.v.v.v.v.v.v.v.v.v.v.v.v.i.",
"v.v.v.v.$ v v.v.v.v.v.v.v.v.v.v.v.v.v.v.v.v.v.v.v.v.v.v.v.v.v.v.v.v.v.v.v.v., w v.v.v.v.v.v.v.v.v.v.v.v.v.v.v.v.v.v.v.v.v.v.v.v.",
"v.v.v.$ b - g v.v.v.v.v.v.v.v.v.v.v.v.v.v.v.v.v.v.v.v.v.v.v.v.v.v.v.v.v.v.- y w 9 v.v.v.v.v.v.v.v.v.v.v.v.v.v.v.v.v.v.v.v.v.v.v.",
"v.v.v.v % e | v.v.v.v.v.v.v.v.v.v.v.v.v.v.v.v.v.v.v.v.v.v.v.v.v.v.v.v.v.v.m ; 9 I v.v.v.v.v.v.v.v.v.v.v.v.v.v.v.v.v.v.v.v.v.v.v.",
"v.v.v.v.h q.v.v.v.v.v.v.v.v.v.v.v.v.v.v.v.v.v.v.v.v.v.v.v.v.v.v.v.v.v.v.v.v.b I v.v.v.v.v.v.v.v.v.v.v.v.v.v.v.v.v.v.v.v.v.v.v.v.",
"v.v.v.v.v.v.v.v.v.v.v.v.v.v.v.v.v.v.v.v.v.v.v.v.v.v.v.v.v.v.v.v.v.v.v.v.v.v.v.v.v.v.v.v.v.v.v.v.v.v.v.v.v.v.v.v.v.v.v.v.v.v.v.v.",
"v.v.v.v.v.v.v.v.v.v.v.v.v.v.v.v.v.v.v.v.v.v.v.v.v.v.v.v.v.v.v.v.v.M v.v.v.v.v.v.v.v.v.v.v.v.v.v.v.v.v.v.v.v.v.v.v.v.v.v.v.v.v.v.",
"A v.v.v.v.v.v.v.v.v.v.v.v.v.v.v.v.v.v.v.v.v.v.v.v.v.v.v.v.v.v.v.v.s z i.v.v.v.v.v.v.v.v.v.v.v.v.v.v.v.v.v.v.v.v.v.v.v.v.v.v.v.v.",
"s v.v.E i.v.v.v.v.v.v.v.v.v.v.v.v.v.v.v.v.' ,.v.v.v.v.v.v.v.v.v.v.d 8 i.v.[ =.v.v.v.v.v.v.v.v.v.v.v.v.v.v.v.v.-.[ v.v.v.v.v.v.v.",
"d g E d @.v.v.v.v.v.v.v.v.v.v.v.v.v.v.v.v.d A v.v.v.v.v.v.v.v.v.v.z d y n k A v.v.v.v.v.v.v.v.v.v.v.v.v.v.v.v.l k v.v.v.v.v.v.v.",
"4 # a 6 X.v.v.v.v.v.v.v.v.v.v.v.v.v.v.v.v.k E ,.,.v.v.v.v.v.v.v.v.v.t o 7 7 n v.v.v.v.v.v.v.v.v.v.v.v.v.v.v.v.z z i.@.v.v.v.v.v.",
"$ 8 t o I v.v.v.v.v.v.v.v.v.v.v.v.v.v.v.v.k [ z l v.v.v.v.v.v.v.v.v.- 5 t $ u v.v.v.v.v.v.v.v.v.v.v.v.v.v.v.v.M z [ f v.v.v.v.v.",
"v.o o q.v.v.v.v.v.v.v.v.v.v.v.v.v.v.v.v.v.l @.l z v.v.v.v.v.v.v.v.v.v.; . b v.v.v.v.v.v.v.v.v.v.v.v.v.v.v.v.v.A Z ' k v.v.v.v.v.",
"v.v.v.v.v.v.v.v.v.v.v.v.v.v.v.v.v.v.v.v.v.v.v.M Z v.v.v.v.v.v.v.v.v.v.v.v.v.v.v.v.v.v.v.v.v.v.v.v.v.v.v.v.v.v.v.v.J l v.v.v.v.v.",
"v.v.v.v.v.v.v.v.v.v.v.v.v.v.v.v.v.v.v.v.v.v.v.v.v.v.v.v.v.v.v.v.v.v.v.v.v.v.v.v.v.v.v.v.v.v.v.v.v.v.v.v.v.v.v.v.v.v.v.v.v.v.v.v.",
"v.v.v.v.v.v.v.v.v.v.v.v.v.v.v.v.v.v.v.v.v.v.v.v.v.v.v.v.v.v.v.v.v.v.v.v.v.v.v.v.v.v.v.v.v.v.v.v.v.v.v.v.v.v.v.v.v.v.v.v.v.v.v.v.",
};